#N canvas 182 111 653 637 10;
#X declare -stdpath windowing;
#X obj 26 160 inlet~;
#X obj 25 285 rfft~;
#X obj 24 420 *~;
#X obj 66 420 *~;
#X obj 24 452 rifft~;
#X obj 24 604 outlet~;
#X obj 171 423 *~;
#X obj 213 423 *~;
#X obj 171 451 rifft~;
#X obj 171 605 outlet~;
#X obj 183 85 samplerate~;
#X obj 475 115 tgl 15 0 empty empty empty 17 7 0 10 -262144 -1 -1 1
1;
#X obj 42 556 hanning~;
#X obj 24 581 *~;
#X obj 189 557 hanning~;
#X obj 171 582 *~;
#X obj 183 151 phasor~;
#X msg 229 128 0;
#X obj 26 261 *~;
#X obj 348 37 inlet;
#X obj 24 482 /~ 2048;
#X obj 171 484 /~ 2048;
#X text 470 277 dibuja a audio rate;
#X text 470 290 _____;
#X text 501 297 .;
#X text 501 301 .;
#X text 501 306 .;
#X text 501 310 .;
#X text 501 314 .;
#X text 504 315 _____;
#X text 575 288 _____;
#X text 572 296 .;
#X text 572 300 .;
#X text 572 305 .;
#X text 572 309 .;
#X text 572 313 .;
#X text 543 314 _____;
#X text 480 313 1;
#X text 235 481 <=======================normalizacion;
#X text 258 554 <===================ventana para la resintesis;
#X obj 348 154 /;
#X obj 475 136 switch~ 8192 4 1;
#X obj 363 122 * 2;
#X obj 183 105 / 2048;
#X obj 183 177 *~ 1024;
#N canvas 0 22 450 300 copyleft 0;
#X obj 157 19 loadbang;
#X msg 204 208 José Rafael Subía Valdez;
#X obj 204 228 print author;
#X obj 188 288 print JRSV;
#X obj 247 186 print abstraction;
#X msg 188 267 copyleft (c);
#X msg 172 311 jsubiavaldez@gmail.com;
#X obj 172 332 print e-mail;
#X obj 247 113 prepend set;
#X msg 247 162 2BXOVER;
#X obj 220 67 t b b;
#X msg 157 354 http://puredata.info/author/rafasubia;
#X obj 157 375 print website;
#X obj 157 44 t b b b b b;
#X obj 247 92 symbol 2BXOVER;
#X connect 0 0 13 0;
#X connect 1 0 2 0;
#X connect 5 0 3 0;
#X connect 6 0 7 0;
#X connect 8 0 9 0;
#X connect 9 0 4 0;
#X connect 10 0 9 0;
#X connect 10 1 14 0;
#X connect 11 0 12 0;
#X connect 13 0 11 0;
#X connect 13 1 6 0;
#X connect 13 2 5 0;
#X connect 13 3 1 0;
#X connect 13 4 10 0;
#X connect 14 0 8 0;
#X coords 0 -1 1 1 1 1 2 100 100;
#X restore 512 197 pd copyleft;
#X obj 229 108 bang~;
#X text 591 312 2;
#X obj 183 244 expr~ if ($v1 <= $f2 \, 1 \, 0) \; if ($v1 > $f2 \,
1 \, 0) \;;
#X obj 440 188 declare -stdpath windowing;
#X obj 41 236 hanning~;
#X obj 202 47 bng 15 250 50 0 empty empty empty 17 7 0 10 -262144 -1
-1;
#X obj 41 214 sig~ 1;
#X obj 42 534 sig~ 1;
#X obj 183 19 iemguts/initbang;
#X connect 0 0 18 0;
#X connect 1 0 2 0;
#X connect 1 0 6 0;
#X connect 1 1 3 0;
#X connect 1 1 7 0;
#X connect 2 0 4 0;
#X connect 3 0 4 1;
#X connect 4 0 20 0;
#X connect 6 0 8 0;
#X connect 7 0 8 1;
#X connect 8 0 21 0;
#X connect 10 0 43 0;
#X connect 11 0 41 0;
#X connect 12 0 13 1;
#X connect 13 0 5 0;
#X connect 14 0 15 1;
#X connect 15 0 9 0;
#X connect 16 0 44 0;
#X connect 17 0 16 1;
#X connect 18 0 1 0;
#X connect 19 0 40 0;
#X connect 20 0 13 0;
#X connect 21 0 15 0;
#X connect 40 0 48 1;
#X connect 42 0 40 1;
#X connect 43 0 16 0;
#X connect 43 0 42 0;
#X connect 44 0 48 0;
#X connect 46 0 17 0;
#X connect 48 0 2 1;
#X connect 48 0 3 1;
#X connect 48 1 6 1;
#X connect 48 1 7 1;
#X connect 50 0 18 1;
#X connect 51 0 10 0;
#X connect 51 0 11 0;
#X connect 52 0 50 0;
#X connect 53 0 12 0;
#X connect 53 0 14 0;
#X connect 54 0 10 0;
#X connect 54 0 11 0;
