#N canvas 2449 56 723 710 12;
#X msg 93 168 dynamic.patching;
#X obj 93 240 list append;
#X obj 510 287 route list;
#X obj 93 56 inlet;
#X obj 166 129 symbol \$1;
#X obj 510 312 outlet;
#X obj 135 582 text set \$2-modules-2-pd~;
#X obj 192 548 1e+08;
#X obj 135 494 t a b;
#X text 210 514 store if not found before;
#X text 118 390 check if its in the 'modules-2-pd' text;
#X obj 93 365 text search \$2-modules-2-pd~;
#X obj 93 416 sel -1;
#X obj 135 462 list;
#X obj 93 337 t a a;
#X obj 93 286 list append \$6 \$7;
#X obj 167 207 list append \$2 \$3 \$4 \$5;
#X obj 93 79 t b b;
#X text 354 59 This abstraccion records the name of the audio module
pair to create in the file opened in the [pd~] object. It records the
pair into a text object which later will create the modules through
dynamic patching, f 42;
#X connect 0 0 1 0;
#X connect 1 0 2 0;
#X connect 1 0 15 0;
#X connect 2 0 5 0;
#X connect 3 0 17 0;
#X connect 4 0 16 0;
#X connect 7 0 6 1;
#X connect 8 0 6 0;
#X connect 8 1 7 0;
#X connect 11 0 12 0;
#X connect 12 0 13 0;
#X connect 13 0 8 0;
#X connect 14 0 11 0;
#X connect 14 1 13 1;
#X connect 15 0 14 0;
#X connect 16 0 1 1;
#X connect 17 0 0 0;
#X connect 17 1 4 0;
