#N canvas 917 131 565 598 12;
#X obj 114 136 mtof;
#X obj 114 161 phasor~;
#X obj 114 186 lop~ 6000;
#X obj 114 321 *~;
#X obj 115 552 outlet~;
#X obj 215 138 metro;
#X obj 215 163 t b b;
#X obj 247 232 delay;
#X obj 247 257 pack 0 700;
#X obj 215 285 line 0 3;
#X obj 215 200 pack 0.1 300;
#X obj 28 41 inlet;
#X text 72 40 turn on with DSP;
#X obj 210 27 inlet two;
#X floatatom 231 93 5 0 0 0 - - -;
#X obj 320 409 pack f f;
#X obj 320 434 line~;
#X obj 115 461 motex/pansig~;
#X obj 320 306 random 200;
#X obj 320 344 - 100;
#X obj 320 369 / 100;
#X obj 204 548 outlet~;
#X obj 299 547 outlet~;
#X obj 210 56 route pitch loop.length note.length active.send;
#X obj 187 390 *~;
#X obj 210 340 pack f 20;
#X obj 210 365 line~;
#X connect 0 0 1 0;
#X connect 1 0 2 0;
#X connect 2 0 3 0;
#X connect 3 0 17 0;
#X connect 3 0 24 0;
#X connect 5 0 6 0;
#X connect 6 0 10 0;
#X connect 6 0 18 0;
#X connect 6 1 7 0;
#X connect 7 0 8 0;
#X connect 8 0 9 0;
#X connect 9 0 3 1;
#X connect 10 0 9 0;
#X connect 11 0 5 0;
#X connect 13 0 23 0;
#X connect 15 0 16 0;
#X connect 16 0 17 1;
#X connect 17 0 4 0;
#X connect 17 1 21 0;
#X connect 18 0 19 0;
#X connect 19 0 20 0;
#X connect 20 0 15 0;
#X connect 23 0 0 0;
#X connect 23 0 14 0;
#X connect 23 1 5 1;
#X connect 23 2 7 1;
#X connect 23 2 15 1;
#X connect 23 3 25 0;
#X connect 24 0 22 0;
#X connect 25 0 26 0;
#X connect 26 0 24 1;
