#N canvas 695 465 1042 574 10;
#X declare -path RSVP;
#X declare -path ../sys.comunication;
#X obj 504 26 declare -path RSVP;
#X obj 320 133 sel 0 1;
#X msg 343 160 0;
#X obj 308 292 sel 0;
#X obj 31 292 > 0;
#X obj 31 312 sel 1;
#X msg 31 332 set 0;
#X obj 320 330 f;
#X obj 320 355 t b f;
#X obj 343 183 t b f;
#X obj 100 100 cnv 15 60 200 empty empty \$2 14 15 0 14 -33289 -262144
0;
#X obj 133 127 vu 10 160 empty empty -1 -8 0 10 -66577 -1 0 0;
#X obj 146 127 tgl 10 1 empty empty empty 17 7 0 10 -24198 -24198 -33289
0 1;
#X obj 105 317 / 100;
#X obj 348 434 / 100;
#X msg 295 209 color 13 13 42;
#X msg 254 229 color 16 16 42;
#X msg 118 360 vol;
#X obj 190 397 bng 15 250 50 0 empty empty empty 17 7 0 10 -262144
-1 -1;
#X obj 138 438 makefilename vol-%s-send;
#X obj 105 475 pr.pnd;
#X obj 138 395 loadbang;
#X obj 348 476 pr.pnd;
#X obj 461 404 bng 15 250 50 0 empty empty empty 17 7 0 10 -262144
-1 -1;
#X obj 409 402 loadbang;
#X obj 409 445 makefilename send-%s-send;
#X obj 105 528 s to_pd~_subprocess;
#X text 23 9 argument: name of premanager to link to \, name of instrument
- 4 letter word in CAPS;
#X obj 138 415 symbol \$1-\$2;
#X obj 409 422 symbol \$1-\$2;
#X obj 109 125 ./customGUI/vsl_pre_mix \$1 \$2 volfader;
#X obj 146 140 ./customGUI/vsl_sendmix_pre \$1 \$2 sendfader;
#X obj 392 69 declare -path ../sys.comunication;
#X floatatom 63 65 5 0 0 0 - - -;
#X obj 102 293 cnv 5 56 5 empty \$1.\$2.\$3.color-tag empty 4 8 0 10
-260818 -66577 0;
#N canvas 712 385 450 391 tag 0;
#X obj 131 252 list prepend color;
#X obj 131 280 route list;
#X obj 85 87 sel 1 2 3 4 5 6 7 8;
#X obj 84 42 loadbang;
#X msg 85 111 13 0 0;
#X msg 98 135 14 0 2;
#X msg 112 159 15 0 2;
#X msg 126 181 16 0 0;
#X msg 140 115 17 0 12;
#X msg 154 137 18 0 0;
#X msg 168 163 19 0 0;
#X msg 182 188 0 0 12;
#X obj 186 41 bng 15 250 50 0 empty empty empty 17 7 0 10 -262144 -1
-1;
#X msg 233 126 12 0 12;
#X obj 131 309 s \$1.\$2.\$3.color-tag;
#X obj 84 65 \$4;
#X connect 0 0 1 0;
#X connect 1 0 14 0;
#X connect 2 0 4 0;
#X connect 2 1 5 0;
#X connect 2 2 6 0;
#X connect 2 3 7 0;
#X connect 2 4 8 0;
#X connect 2 5 9 0;
#X connect 2 6 10 0;
#X connect 2 7 11 0;
#X connect 2 8 13 0;
#X connect 3 0 15 0;
#X connect 4 0 0 0;
#X connect 5 0 0 0;
#X connect 6 0 0 0;
#X connect 7 0 0 0;
#X connect 8 0 0 0;
#X connect 9 0 0 0;
#X connect 10 0 0 0;
#X connect 11 0 0 0;
#X connect 12 0 15 0;
#X connect 13 0 0 0;
#X connect 15 0 2 0;
#X restore 529 98 pd tag;
#X obj 136 68 return-from-pd~ \$1-\$2-\$3-\$4-vmtr;
#X obj 798 241 cnv 5 5 5 empty \$1-\$2-\$3-\$4-s.ind empty 20 12 0
14 -44926 -262144 0;
#X obj 683 445 send \$1-\$2-\$3-\$4-s.ind;
#X msg 684 411 color 13 0 0;
#X obj 677 270 > 0;
#X obj 678 325 sel 0 1;
#X obj 677 293 change;
#X msg 705 383 color 17 0 0;
#X obj 108 43 r \$1-\$3-\$4-vmtr;
#X connect 1 0 7 0;
#X connect 1 0 16 0;
#X connect 1 1 2 0;
#X connect 1 1 15 0;
#X connect 2 0 9 0;
#X connect 3 1 7 1;
#X connect 4 0 5 0;
#X connect 5 0 6 0;
#X connect 6 0 12 0;
#X connect 7 0 8 0;
#X connect 8 0 30 0;
#X connect 8 1 30 0;
#X connect 9 0 30 0;
#X connect 9 1 30 0;
#X connect 12 0 1 0;
#X connect 13 0 20 0;
#X connect 14 0 22 0;
#X connect 15 0 12 0;
#X connect 16 0 12 0;
#X connect 18 0 28 0;
#X connect 19 0 20 1;
#X connect 20 0 26 0;
#X connect 21 0 28 0;
#X connect 22 0 26 0;
#X connect 23 0 29 0;
#X connect 24 0 29 0;
#X connect 25 0 22 1;
#X connect 28 0 19 0;
#X connect 29 0 25 0;
#X connect 30 0 3 0;
#X connect 30 0 4 0;
#X connect 30 0 13 0;
#X connect 31 0 14 0;
#X connect 36 0 11 0;
#X connect 39 0 38 0;
#X connect 40 0 42 0;
#X connect 41 0 39 0;
#X connect 41 1 43 0;
#X connect 42 0 41 0;
#X connect 43 0 38 0;
#X connect 44 0 33 0;
#X connect 44 0 11 0;
#X coords 0 -1 1 1 60 200 2 100 100;
