#N canvas 779 186 883 762 12;
#N canvas 448 611 502 352 messages 0;
#X obj 53 228 outlet;
#N canvas 67 271 560 676 basic 0;
#X obj 49 335 outlet;
#X msg 49 106 force_new;
#X msg 128 107 lockme \$1;
#X obj 128 69 tgl 30 0 empty empty empty 0 -6 0 8 -257985 -1 -1 0 1
;
#X floatatom 200 132 5 0 0 0 - minincr -;
#X floatatom 322 130 5 0 0 0 - maxincr -;
#X floatatom 329 228 5 0 0 0 - minseg -;
#X floatatom 432 228 5 0 0 0 - maxseg -;
#X msg 329 249 set_minseg \$1;
#X msg 432 249 set_maxseg \$1;
#X msg 322 151 set_maxincr \$1;
#X msg 200 153 set_minincr \$1;
#X obj 53 380 hsl 128 15 0.1 0.9999 0 0 minincr minincr-init minincr
-2 -6 0 8 -252672 -1 -1 5645 1;
#X obj 53 411 hsl 128 15 1.0001 10 0 0 maxincr maxincr-init maxincr
-2 -6 0 8 -252672 -1 -1 1411 1;
#N canvas 2 85 470 320 init 0;
#X obj 27 150 s minincr-init;
#X msg 27 123 0.5;
#X obj 134 149 s maxincr-init;
#X msg 134 122 2;
#X obj 27 4 loadbang;
#X obj 245 147 s minseg-init;
#X obj 352 146 s maxseg-init;
#X msg 323 64 1;
#X msg 245 120 500;
#X msg 352 120 2000;
#X obj 323 91 s fixed-incr-init-\$0;
#X connect 1 0 0 0;
#X connect 3 0 2 0;
#X connect 4 0 3 0;
#X connect 4 0 1 0;
#X connect 4 0 8 0;
#X connect 4 0 9 0;
#X connect 4 0 7 0;
#X connect 7 0 10 0;
#X connect 8 0 5 0;
#X connect 9 0 6 0;
#X restore 275 51 pd init;
#X obj 55 445 hsl 128 15 3 300 0 0 minseg minseg-init minseg -2 -6
0 8 -252672 -1 -1 12700 1;
#X obj 55 476 hsl 128 15 20 2000 0 0 maxseg maxseg-init maxseg -2 -6
0 8 -252672 -1 -1 12700 1;
#X msg 311 383 fixed_increment \$1;
#X obj 49 8 tgl 30 0 empty empty empty 0 -6 0 8 -257985 -1 -1 0 1;
#X obj 314 350 hsl 50 10 0.1 5 0 0 empty empty empty -2 -8 0 10 -174016
-1 -1 0 1;
#X floatatom 311 366 5 0 0 0 - - -;
#X obj 278 309 t b;
#X msg 278 330 0;
#X obj 49 52 metro 1000;
#X obj 311 317 r incre-\$0;
#X obj 382 349 r fixed-incr-init-\$0;
#X connect 1 0 0 0;
#X connect 2 0 0 0;
#X connect 3 0 2 0;
#X connect 4 0 11 0;
#X connect 5 0 10 0;
#X connect 6 0 8 0;
#X connect 7 0 9 0;
#X connect 8 0 0 0;
#X connect 9 0 0 0;
#X connect 10 0 0 0;
#X connect 10 0 21 0;
#X connect 11 0 0 0;
#X connect 11 0 21 0;
#X connect 17 0 0 0;
#X connect 18 0 23 0;
#X connect 19 0 20 0;
#X connect 20 0 17 0;
#X connect 21 0 22 0;
#X connect 22 0 20 0;
#X connect 23 0 1 0;
#X connect 24 0 19 0;
#X connect 25 0 20 0;
#X restore 53 42 pd basic controls;
#N canvas 771 85 593 551 deviations 0;
#X obj 224 188 outlet;
#X msg 224 134 rdur \$1;
#X floatatom 224 110 5 0 0 0 - rdur -;
#X obj 222 250 hsl 128 15 0 1 0 0 rdur rdur-init rdur -2 -6 0 8 -252672
-1 -1 0 1;
#X obj 222 282 hsl 128 15 0 1 0 0 rinc rinc-init rinc -2 -6 0 8 -252672
-1 -1 0 1;
#X floatatom 288 110 5 0 0 0 - rinc -;
#X msg 288 134 rinc \$1;
#X floatatom 356 110 5 0 0 0 - jitter -;
#X msg 356 134 jitter \$1;
#X obj 222 316 hsl 128 15 0 1 0 0 jitter jitter-init jitter -2 -6 0
8 -252672 -1 -1 0 1;
#X connect 1 0 0 0;
#X connect 2 0 1 0;
#X connect 5 0 6 0;
#X connect 6 0 0 0;
#X connect 7 0 8 0;
#X connect 8 0 0 0;
#X restore 104 82 pd deviations;
#N canvas 257 591 482 332 memory 0;
#X obj 167 217 outlet;
#X text 233 32 1024 locations available;
#X msg 142 30 store_loop 1;
#X msg 156 49 recall_loop 1;
#X msg 182 93 store_loop 2;
#X msg 195 113 recall_loop 2;
#X msg 74 87 show_loop;
#X text 208 170 use numbers that come from show_loop;
#X msg 35 144 force_new;
#X msg 281 188 set_loop 3000 5000 1.62;
#X connect 2 0 0 0;
#X connect 3 0 0 0;
#X connect 4 0 0 0;
#X connect 5 0 0 0;
#X connect 6 0 0 0;
#X connect 8 0 0 0;
#X connect 9 0 0 0;
#X restore 88 62 pd memory;
#N canvas 67 485 490 340 refinements 0;
#X obj 38 149 outlet;
#X obj 38 29 tgl 30 0 empty empty empty 0 -6 0 8 -257985 -1 -1 0 1
;
#X msg 38 74 adjust_inverse \$1;
#X msg 95 123 taper \$1;
#X floatatom 95 100 5 0 0 0 - taper-dur -;
#X obj 41 185 hsl 128 15 1 100 0 0 taper-dur taper-dur-init taper-dur
-2 -6 0 8 -252672 -1 -1 0 1;
#X text 78 29 maintains loop duration;
#X text 77 43 under increment change;
#X connect 1 0 2 0;
#X connect 2 0 0 0;
#X connect 3 0 0 0;
#X connect 4 0 3 0;
#X restore 125 102 pd refinements;
#N canvas 67 96 462 312 system 0;
#X obj 86 205 outlet;
#X msg 86 141 mute \$1;
#X msg 159 172 seed 6331;
#X text 158 155 set seed (might be helpful for stereo);
#X obj 153 107 r mute-chopper-\$0;
#X obj 86 75 r play-chopper-\$0;
#X connect 1 0 0 0;
#X connect 2 0 0 0;
#X connect 4 0 1 0;
#X connect 5 0 1 0;
#X restore 140 122 pd system;
#X connect 1 0 0 0;
#X connect 2 0 0 0;
#X connect 3 0 0 0;
#X connect 4 0 0 0;
#X connect 5 0 0 0;
#X restore 78 203 pd messages;
#X text 189 186 open this for more info;
#X obj 314 382 line~;
#X obj 352 252 del 100;
#X obj 165 456 osc~;
#X floatatom 386 465 5 0 0 0 - - -;
#X obj 403 305 / 10;
#X obj 352 178 t b b b b;
#X msg 352 356 0 100;
#X obj 314 30 inlet;
#X obj 403 332 + 0.5;
#X obj 314 141 t b b;
#X msg 314 353 \$1 20;
#X obj 314 332 f;
#X obj 78 473 *~;
#N canvas 107 156 443 737 delay 0;
#X obj 41 20 inlet~;
#X obj 95 567 line;
#X obj 122 513 random 500;
#X obj 122 539 + 100;
#X obj 95 491 random 91;
#X obj 95 462 t b b;
#X obj 302 579 line;
#X obj 329 525 random 500;
#X obj 329 551 + 100;
#X obj 302 503 random 91;
#X obj 302 474 t b b;
#X obj 56 685 outlet~;
#X obj 185 677 outlet~;
#X obj 244 601 pan~;
#X obj 37 584 pan~;
#X obj 244 236 line~;
#X obj 244 64 inlet bang;
#X obj 37 297 line~;
#N canvas 551 23 632 521 random 0;
#X obj 247 140 del;
#X obj 247 66 t b b;
#X obj 274 91 random 200;
#X obj 274 112 + 300;
#X obj 247 21 inlet;
#X obj 247 176 t b b;
#X obj 293 421 + 1000;
#X obj 292 397 random 1000;
#X obj 120 340 * 100;
#X obj 120 269 urn 10;
#X msg 202 315 clear;
#X obj 175 291 t b b;
#X obj 202 254 / 1000;
#X obj 202 229 random 1000;
#X obj 120 370 +;
#X obj 175 193 t b b;
#X obj 217 491 outlet;
#X text 423 150 better random;
#X obj 270 41 del 1000;
#X obj 447 251 +;
#X text 333 40 second stage of gliss;
#X obj 217 455 pack f f;
#X connect 0 0 5 0;
#X connect 1 0 0 0;
#X connect 1 1 2 0;
#X connect 2 0 3 0;
#X connect 3 0 0 1;
#X connect 3 0 19 1;
#X connect 4 0 1 0;
#X connect 4 0 18 0;
#X connect 5 0 15 0;
#X connect 5 1 7 0;
#X connect 6 0 19 0;
#X connect 6 0 21 1;
#X connect 7 0 6 0;
#X connect 8 0 14 0;
#X connect 9 0 8 0;
#X connect 9 1 11 0;
#X connect 10 0 9 0;
#X connect 11 0 15 0;
#X connect 11 1 10 0;
#X connect 12 0 14 1;
#X connect 13 0 12 0;
#X connect 14 0 21 0;
#X connect 15 0 9 0;
#X connect 15 1 13 0;
#X connect 18 0 1 0;
#X connect 19 0 18 1;
#X connect 21 0 16 0;
#X restore 37 209 pd random;
#N canvas 90 23 632 521 random 0;
#X obj 247 140 del;
#X obj 247 66 t b b;
#X obj 274 91 random 200;
#X obj 274 112 + 300;
#X obj 247 21 inlet;
#X obj 246 442 pack 0 0;
#X obj 247 176 t b b;
#X obj 293 421 + 1000;
#X obj 291 399 random 1000;
#X obj 120 340 * 100;
#X obj 120 269 urn 10;
#X msg 202 315 clear;
#X obj 175 291 t b b;
#X obj 202 254 / 1000;
#X obj 202 229 random 1000;
#X obj 120 370 +;
#X obj 175 193 t b b;
#X obj 246 480 outlet;
#X text 423 150 better random;
#X obj 270 41 del 1000;
#X obj 447 251 +;
#X text 333 40 second stage of gliss;
#X connect 0 0 6 0;
#X connect 1 0 0 0;
#X connect 1 1 2 0;
#X connect 2 0 3 0;
#X connect 3 0 0 1;
#X connect 3 0 20 1;
#X connect 4 0 1 0;
#X connect 4 0 19 0;
#X connect 5 0 17 0;
#X connect 6 0 16 0;
#X connect 6 1 8 0;
#X connect 7 0 5 1;
#X connect 7 0 20 0;
#X connect 8 0 7 0;
#X connect 9 0 15 0;
#X connect 10 0 9 0;
#X connect 10 1 12 0;
#X connect 11 0 10 0;
#X connect 12 0 16 0;
#X connect 12 1 11 0;
#X connect 13 0 15 1;
#X connect 14 0 13 0;
#X connect 15 0 5 0;
#X connect 16 0 10 0;
#X connect 16 1 14 0;
#X connect 19 0 1 0;
#X connect 20 0 19 1;
#X restore 244 183 pd random;
#X obj 244 441 *~ 0.05;
#X obj 37 441 *~ 0.05;
#X obj 156 369 *~ 0.45;
#X obj 41 65 delwrite~ tap_delay-\$0 1000;
#X obj 37 326 vd~ tap_delay-\$0;
#X obj 156 409 s~ delayfeedback-\$0;
#X obj 90 23 r~ delayfeedback-\$0;
#X obj 244 326 vd~ tap_delay-\$0;
#X connect 0 0 23 0;
#X connect 1 0 14 1;
#X connect 2 0 3 0;
#X connect 3 0 1 1;
#X connect 4 0 1 0;
#X connect 5 0 4 0;
#X connect 5 1 2 0;
#X connect 6 0 13 1;
#X connect 7 0 8 0;
#X connect 8 0 6 1;
#X connect 9 0 6 0;
#X connect 10 0 9 0;
#X connect 10 1 7 0;
#X connect 13 0 11 0;
#X connect 13 1 12 0;
#X connect 14 0 11 0;
#X connect 14 1 12 0;
#X connect 15 0 27 0;
#X connect 16 0 5 0;
#X connect 16 0 10 0;
#X connect 16 0 18 0;
#X connect 16 0 19 0;
#X connect 17 0 24 0;
#X connect 18 0 17 0;
#X connect 19 0 15 0;
#X connect 20 0 13 0;
#X connect 21 0 14 0;
#X connect 22 0 25 0;
#X connect 24 0 21 0;
#X connect 24 0 22 0;
#X connect 26 0 23 0;
#X connect 27 0 20 0;
#X connect 27 0 22 0;
#X restore 324 517 pd delay;
#X obj 391 227 + 200;
#X obj 391 204 random 2000;
#X msg 502 269 1;
#X msg 486 158 0;
#X obj 78 399 *~;
#X obj 78 603 outlet~;
#X obj 130 627 outlet~;
#X msg 96 321 0;
#X msg 156 321 1, f 5;
#X obj 78 257 hip~ 50;
#X obj 78 280 hip~ 50;
#X obj 142 278 loadbang;
#X obj 329 288 / 80;
#X obj 434 242 bng 15 250 50 0 empty empty empty 17 7 0 10 -262144
-1 -1;
#X obj 360 34 bng 15 250 50 0 empty empty empty 17 7 0 10 -262144 -1
-1;
#X floatatom 329 309 5 0 0 0 - - -;
#X obj 403 271 random 40;
#X obj 324 546 tb_compressor~;
#X obj 435 523 tb_compressorUI;
#X obj 326 573 tb_compressor~;
#X obj 455 443 loadbang;
#X msg 448 472 threshold -1 \, ratio 100 \, response 0 \, gain -6 \,
rmspeak 1 \, lookahead 50;
#X obj 386 439 + 3;
#X obj 386 412 random 3;
#X obj 486 184 send play-chopper-\$0;
#X obj 502 292 send mute-chopper-\$0;
#X obj 403 381 s incre-\$0;
#X obj 129 362 send voice-working-\$0;
#X obj 314 89 spigot 1;
#X obj 377 54 r voice-working-\$0;
#X floatatom 377 79 5 0 0 0 - - -;
#X obj 78 228 chopper~ \$2-chopperbuffer;
#X obj 342 114 bng 15 250 50 0 empty empty empty 17 7 0 10 -262144
-1 -1;
#X connect 0 0 47 0;
#X connect 2 0 20 1;
#X connect 3 0 8 0;
#X connect 3 0 18 0;
#X connect 3 0 24 0;
#X connect 4 0 14 1;
#X connect 6 0 10 0;
#X connect 7 0 3 0;
#X connect 7 1 15 1;
#X connect 7 1 17 0;
#X connect 7 2 39 0;
#X connect 7 3 32 0;
#X connect 8 0 2 0;
#X connect 9 0 44 0;
#X connect 10 0 42 0;
#X connect 11 0 13 0;
#X connect 11 0 23 0;
#X connect 11 1 7 0;
#X connect 11 1 19 0;
#X connect 12 0 2 0;
#X connect 13 0 12 0;
#X connect 14 0 21 0;
#X connect 14 0 22 0;
#X connect 15 0 33 0;
#X connect 15 1 35 0;
#X connect 16 0 3 1;
#X connect 17 0 16 0;
#X connect 18 0 41 0;
#X connect 19 0 40 0;
#X connect 20 0 14 0;
#X connect 23 0 43 0;
#X connect 24 0 43 0;
#X connect 25 0 26 0;
#X connect 26 0 20 0;
#X connect 26 0 15 0;
#X connect 27 0 24 0;
#X connect 28 0 13 1;
#X connect 28 0 31 0;
#X connect 29 0 32 0;
#X connect 30 0 11 0;
#X connect 32 0 6 0;
#X connect 32 0 28 0;
#X connect 33 0 21 0;
#X connect 33 1 34 0;
#X connect 34 0 33 1;
#X connect 34 0 35 1;
#X connect 35 0 22 0;
#X connect 35 1 34 0;
#X connect 36 0 37 0;
#X connect 37 0 33 1;
#X connect 37 0 35 1;
#X connect 38 0 5 0;
#X connect 39 0 4 0;
#X connect 39 0 38 0;
#X connect 44 0 11 0;
#X connect 44 0 48 0;
#X connect 45 0 44 1;
#X connect 45 0 46 0;
#X connect 47 0 25 0;
