#N canvas 1113 23 491 541 10;
#X obj 79 419 send;
#X obj 79 319 t a b;
#X obj 130 373 route symbol;
#X obj 215 330 makefilename LFO-2-%s;
#X obj 215 308 pr.pnd symbol;
#X obj 215 231 inlet;
#X obj 130 349 symbol;
#X obj 79 286 pr.pnd \$1;
#X obj 79 7 inlet;
#X obj 266 253 loadbang;
#X obj 238 264 bng 15 250 50 0 empty empty empty 17 7 0 10 -262144
-1 -1;
#X obj 266 279 symbol \$2;
#X text 154 75 creates a dynamic send for zLFOs;
#X obj 35 356 print;
#X connect 1 0 0 0;
#X connect 1 1 6 0;
#X connect 2 0 0 1;
#X connect 3 0 6 1;
#X connect 4 0 3 0;
#X connect 5 0 4 0;
#X connect 6 0 2 0;
#X connect 7 0 1 0;
#X connect 8 0 7 0;
#X connect 9 0 11 0;
#X connect 10 0 11 0;
#X connect 11 0 4 0;
