#N canvas 925 94 942 984 12;
#X obj 92 1025 outlet~;
#X obj 92 237 samphold~;
#X obj 153 144 expr~ if($v1 > $f2 \, 1 \, 0);
#X obj 91 609 vcf~;
#X obj 185 442 random;
#X obj 460 328 20000;
#X obj 460 353 / \$2;
#X obj 460 103 loadbang;
#X obj 185 565 line~;
#X floatatom 195 244 5 0 0 0 - - -;
#X floatatom 325 110 5 0 0 0 - - -;
#X text 281 53 audio gate;
#X obj 91 55 expr~ if($f2 == 1 \, $v1 \, 0);
#X obj 90 18 inlet~;
#X msg 270 27 1;
#X obj 38 72 env~;
#X floatatom 38 97 5 0 0 0 - - -;
#X obj 43 152 env~;
#X floatatom 43 177 5 0 0 0 - - -;
#X obj 185 217 snapshot~;
#X obj 307 197 metro 10;
#X obj 185 267 change;
#X obj 185 295 sel 1;
#X obj 185 319 t b b b;
#X msg 270 339 0;
#X obj 185 467 +;
#X obj 274 447 * \$1;
#X obj 307 340 cnv 15 85 15 empty empty close-audio-gate 1 7 0 8 -258113
-1 0;
#X obj 185 512 pack;
#X obj 245 377 random 1000;
#X obj 245 402 + 100;
#X obj 307 175 1;
#X obj 608 31 del;
#X obj 157 344 bng 15 250 50 0 empty empty empty 17 7 0 10 -262144
-1 -1;
#X msg 381 124 0.5;
#X obj 91 657 vcf~;
#X obj 432 943 *~;
#X obj 593 796 pack f 20;
#X obj 593 771 / 100;
#X floatatom 593 523 5 0 0 0 - - -;
#X obj 593 820 line~;
#X obj 10 820 env~;
#X floatatom 10 845 5 0 0 0 - - -;
#X obj 231 798 delwrite~ \$0-bp-magic 1000;
#X obj 431 894 delread4~ \$0-bp-magic;
#X obj 593 110 inlet;
#X floatatom 234 500 5 0 0 0 - - -;
#X msg 426 558 60;
#X obj 430 819 pack f 20;
#X obj 430 795 / 100;
#X obj 430 844 line~;
#X obj 430 772 random 100;
#X obj 280 1031 outlet~;
#X obj 93 984 motex/pansig~;
#X obj 265 988 motex/pansig~;
#X obj 311 847 random 2000;
#X obj 311 872 - 1000;
#X obj 311 897 / 1000;
#X obj 132 867 random 2000;
#X obj 132 892 - 1000;
#X obj 132 917 / 1000;
#X obj 132 937 pack f 20;
#X obj 132 962 line~;
#X obj 318 924 pack f 20;
#X obj 318 949 line~;
#X obj 206 825 t b b;
#X obj 690 119 inlet;
#X obj 686 593 osc~;
#X obj 633 695 *~;
#X obj 687 643 *~ 1;
#X floatatom 705 526 5 0 0 0 - - -;
#X obj 94 760 hip~ 10;
#X obj 92 736 hip~ 10;
#X obj 707 493 line~;
#X floatatom 793 463 5 0 0 0 - - -;
#X obj 708 441 random 500;
#X obj 707 469 pack f 100;
#X connect 1 0 3 0;
#X connect 2 0 1 1;
#X connect 2 0 19 0;
#X connect 3 0 35 0;
#X connect 4 0 25 0;
#X connect 5 0 6 0;
#X connect 6 0 4 1;
#X connect 6 0 26 0;
#X connect 7 0 5 0;
#X connect 7 0 34 0;
#X connect 7 0 31 0;
#X connect 7 0 14 0;
#X connect 7 0 47 0;
#X connect 8 0 3 1;
#X connect 8 0 35 1;
#X connect 10 0 2 1;
#X connect 12 0 1 0;
#X connect 12 0 2 0;
#X connect 12 0 17 0;
#X connect 13 0 12 0;
#X connect 13 0 15 0;
#X connect 14 0 12 1;
#X connect 15 0 16 0;
#X connect 17 0 18 0;
#X connect 19 0 9 0;
#X connect 19 0 21 0;
#X connect 20 0 19 0;
#X connect 21 0 22 0;
#X connect 22 0 23 0;
#X connect 23 0 4 0;
#X connect 23 0 32 0;
#X connect 23 0 33 0;
#X connect 23 0 51 0;
#X connect 23 0 65 0;
#X connect 23 0 75 0;
#X connect 23 1 29 0;
#X connect 23 2 24 0;
#X connect 24 0 12 1;
#X connect 25 0 28 0;
#X connect 25 0 46 0;
#X connect 26 0 25 1;
#X connect 28 0 8 0;
#X connect 29 0 30 0;
#X connect 30 0 28 1;
#X connect 30 0 32 1;
#X connect 31 0 20 0;
#X connect 32 0 14 0;
#X connect 34 0 2 1;
#X connect 35 0 68 0;
#X connect 36 0 3 0;
#X connect 36 0 54 0;
#X connect 36 0 53 0;
#X connect 37 0 40 0;
#X connect 38 0 37 0;
#X connect 39 0 38 0;
#X connect 40 0 36 1;
#X connect 41 0 42 0;
#X connect 44 0 36 0;
#X connect 45 0 39 0;
#X connect 47 0 3 2;
#X connect 47 0 35 2;
#X connect 48 0 50 0;
#X connect 49 0 48 0;
#X connect 50 0 44 0;
#X connect 51 0 49 0;
#X connect 53 0 0 0;
#X connect 53 1 52 0;
#X connect 54 0 0 0;
#X connect 54 1 52 0;
#X connect 55 0 56 0;
#X connect 56 0 57 0;
#X connect 57 0 63 0;
#X connect 58 0 59 0;
#X connect 59 0 60 0;
#X connect 60 0 61 0;
#X connect 61 0 62 0;
#X connect 62 0 53 1;
#X connect 63 0 64 0;
#X connect 64 0 54 1;
#X connect 65 0 58 0;
#X connect 65 1 55 0;
#X connect 66 0 3 2;
#X connect 66 0 35 2;
#X connect 67 0 69 0;
#X connect 67 0 68 1;
#X connect 68 0 72 0;
#X connect 70 0 67 0;
#X connect 71 0 41 0;
#X connect 71 0 53 0;
#X connect 71 0 54 0;
#X connect 71 0 43 0;
#X connect 72 0 71 0;
#X connect 73 0 67 0;
#X connect 75 0 74 0;
#X connect 75 0 76 0;
#X connect 76 0 73 0;
