#N canvas 1177 338 639 573 10;
#N canvas 1366 301 1042 313 audio 0;
#X obj 58 105 *~;
#X obj 121 88 line~;
#X msg 121 67 \$1 25;
#X obj 58 12 adc~ 1;
#X obj 121 46 r fader-instr1;
#X obj 58 201 outlet~;
#X obj 110 179 env~;
#X obj 110 201 - 90;
#X obj 229 105 *~;
#X obj 292 88 line~;
#X msg 292 67 \$1 25;
#X obj 229 201 outlet~;
#X obj 281 179 env~;
#X obj 281 201 - 90;
#X obj 292 46 r fader-instr2;
#X obj 58 138 *~;
#X obj 229 144 *~;
#X obj 110 252 stdout;
#X obj 281 255 stdout;
#X obj 193 34 tgl 15 0 empty empty empty 17 7 0 10 -262144 -1 -1 1
1;
#X obj 399 105 *~;
#X obj 462 88 line~;
#X msg 462 67 \$1 25;
#X obj 399 201 outlet~;
#X obj 451 179 env~;
#X obj 451 201 - 90;
#X obj 399 144 *~;
#X obj 451 255 stdout;
#X obj 569 105 *~;
#X obj 632 88 line~;
#X msg 632 67 \$1 25;
#X obj 569 201 outlet~;
#X obj 621 179 env~;
#X obj 621 201 - 90;
#X obj 569 144 *~;
#X obj 621 255 stdout;
#X obj 229 60 adc~ 2;
#X obj 399 60 adc~ 3;
#X obj 569 60 adc~ 4;
#X obj 110 228 message-to-pd~ In-vmtr-1 \$1;
#X obj 281 231 message-to-pd~ In-vmtr-2 \$1;
#X obj 451 231 message-to-pd~ In-vmtr-3 \$1;
#X obj 621 231 message-to-pd~ In-vmtr-4 \$1;
#X obj 462 46 r fader-instr3;
#X obj 632 46 r fader-instr4;
#X floatatom 493 201 5 0 0 0 - - -;
#X obj 181 11 r \$1-\$2-On-mics;
#X floatatom 141 129 5 0 0 0 - - -;
#X connect 0 0 15 0;
#X connect 1 0 15 1;
#X connect 2 0 1 0;
#X connect 3 0 0 0;
#X connect 4 0 2 0;
#X connect 4 0 47 0;
#X connect 6 0 7 0;
#X connect 7 0 39 0;
#X connect 8 0 16 0;
#X connect 9 0 16 1;
#X connect 10 0 9 0;
#X connect 12 0 13 0;
#X connect 13 0 40 0;
#X connect 14 0 10 0;
#X connect 15 0 5 0;
#X connect 15 0 6 0;
#X connect 16 0 11 0;
#X connect 16 0 12 0;
#X connect 20 0 26 0;
#X connect 21 0 26 1;
#X connect 22 0 21 0;
#X connect 24 0 25 0;
#X connect 24 0 45 0;
#X connect 25 0 41 0;
#X connect 26 0 23 0;
#X connect 26 0 24 0;
#X connect 28 0 34 0;
#X connect 29 0 34 1;
#X connect 30 0 29 0;
#X connect 32 0 33 0;
#X connect 33 0 42 0;
#X connect 34 0 31 0;
#X connect 34 0 32 0;
#X connect 36 0 8 0;
#X connect 37 0 20 0;
#X connect 38 0 28 0;
#X connect 39 0 17 0;
#X connect 40 0 18 0;
#X connect 41 0 27 0;
#X connect 42 0 35 0;
#X connect 43 0 22 0;
#X connect 44 0 30 0;
#X connect 46 0 19 0;
#X connect 46 0 0 1;
#X connect 46 0 8 1;
#X connect 46 0 20 1;
#X connect 46 0 28 1;
#X restore 164 116 pd audio;
#X obj 179 290 line~;
#X msg 179 269 \$1 25;
#X obj 164 322 *~;
#X obj 396 232 line~;
#X msg 396 211 \$1 25;
#X obj 381 254 *~;
#X obj 301 232 line~;
#X msg 301 211 \$1 25;
#X obj 286 254 *~;
#X obj 286 468 throw~ 2master_L;
#X obj 366 439 throw~ 2master_R;
#N canvas 0 50 450 300 reset 0;
#X obj 115 69 r reset-DIANOIA;
#X obj 115 113 t b a;
#X obj 115 91 0;
#X obj 200 144 outlet;
#X obj 68 138 outlet;
#X connect 0 0 2 0;
#X connect 1 0 3 0;
#X connect 1 1 3 0;
#X connect 2 0 1 0;
#X connect 2 0 4 0;
#X restore 301 160 pd reset;
#X floatatom 452 214 5 0 0 0 - - -;
#X floatatom 223 275 5 0 0 0 - - -;
#X obj 286 401 *~;
#X obj 301 368 line~;
#X msg 301 347 \$1 25;
#X obj 366 410 *~;
#X obj 203 328 loadbang;
#X obj 164 377 2Bxover;
#X obj 164 184 /~ 1;
#X msg 203 354 1000;
#X obj 424 299 /~ 2;
#X obj 396 175 r vol-\$1-\$2-send;
#X obj 179 247 r send-\$1-\$2-send;
#X obj 301 327 r \$1-\$2-direct;
#X obj 57 426 env~;
#X floatatom 57 449 5 0 0 0 - - -;
#X obj 430 484 env~;
#X floatatom 430 507 5 0 0 0 - - -;
#X msg 493 288 set \$1;
#X obj 493 218 loadbang;
#X obj 493 241 i \$4;
#X obj 164 456 send~ sigIN-L-\$3;
#X obj 493 318 dac~ \$4;
#X obj 203 430 send~ sigIN-H-\$3;
#X obj 517 187 bng 15 250 50 0 empty empty empty 17 7 0 10 -262144
-1 -1;
#X obj 493 264 + 4;
#X connect 0 0 21 0;
#X connect 0 1 21 0;
#X connect 0 2 21 0;
#X connect 0 3 21 0;
#X connect 1 0 3 1;
#X connect 2 0 1 0;
#X connect 3 0 20 0;
#X connect 4 0 6 1;
#X connect 5 0 4 0;
#X connect 6 0 18 1;
#X connect 6 0 23 0;
#X connect 7 0 9 1;
#X connect 8 0 7 0;
#X connect 9 0 15 0;
#X connect 9 0 23 0;
#X connect 12 0 8 0;
#X connect 12 0 5 0;
#X connect 15 0 10 0;
#X connect 16 0 15 1;
#X connect 16 0 18 0;
#X connect 17 0 16 0;
#X connect 18 0 11 0;
#X connect 18 0 29 0;
#X connect 19 0 22 0;
#X connect 20 0 27 0;
#X connect 20 0 34 0;
#X connect 20 1 36 0;
#X connect 21 0 3 0;
#X connect 21 0 9 0;
#X connect 21 0 6 0;
#X connect 22 0 20 1;
#X connect 23 0 35 0;
#X connect 24 0 8 0;
#X connect 24 0 5 0;
#X connect 24 0 13 0;
#X connect 25 0 2 0;
#X connect 25 0 14 0;
#X connect 26 0 17 0;
#X connect 27 0 28 0;
#X connect 29 0 30 0;
#X connect 31 0 35 0;
#X connect 32 0 33 0;
#X connect 33 0 38 0;
#X connect 37 0 33 0;
#X connect 38 0 31 0;
