#N struct 2692-color float x float y float farbe;
#N struct 2692-color-display float x float y float farbe;
#N struct 2695-color float x float y float farbe;
#N struct 2695-color-display float x float y float farbe;
#N struct 2689-matrixctrl float x float y float size float color float
state;
#N canvas 1261 122 639 478 10;
#X declare -stdpath jrsvabs;
#X declare -path RSVP;
#X declare -path ../sys.comunication/;
#X obj 200 50 cnv 15 175 195 empty empty empty 20 145 0 14 -1 -66577
0;
#X obj 205 55 cnv 15 165 185 empty empty IN/s 125 12 0 14 -233017 -66577
0;
#X text 208 414 ensemble will be treated as only one signal;
#X obj 27 323 declare -stdpath jrsvabs;
#X obj 208 222 sfplayer;
#X msg 210 339 fader-instr1 \$1;
#X msg 241 319 fader-instr2 \$1;
#X obj 432 123 send~ fplayer;
#X obj 353 386 s to_pd~_subprocess;
#X obj 257 96 vu 8 120 empty empty -15 -8 0 10 -33289 -1 0 0;
#X obj 226 96 vu 8 120 empty empty -15 -8 0 10 -33289 -1 0 0;
#X obj 289 96 vu 8 120 empty empty -15 -8 0 10 -33289 -1 0 0;
#X obj 321 96 vu 8 120 empty empty -15 -8 0 10 -33289 -1 0 0;
#X msg 273 299 fader-instr3 \$1;
#X msg 305 280 fader-instr4 \$1;
#X obj 97 6 return-from-pd~ \$1-In-vmtr-1;
#X obj 140 27 return-from-pd~ \$1-In-vmtr-2;
#X obj 275 6 return-from-pd~ \$1-In-vmtr-3;
#X obj 318 27 return-from-pd~ \$1-In-vmtr-4;
#X obj 28 286 declare -path RSVP;
#X obj 339 183 cnv 10 25 10 empty empty MICS 3 5 0 8 -1 -4032 0;
#X obj 339 146 cnv 10 25 10 empty empty DRCT 3 5 0 8 -1 -4032 0;
#X obj 270 94 ./customGUI/vsl-main-in MASTER in-MXR 3;
#X obj 303 94 ./customGUI/vsl-main-in MASTER in-MXR 4;
#X obj 207 94 ./customGUI/vsl-main-in MASTER in-MXR 1;
#X obj 238 94 ./customGUI/vsl-main-in MASTER in-MXR 2;
#N canvas 526 96 725 475 button 0;
#X obj 100 100 tgl 20 0 empty empty empty 17 7 0 10 -24198 -24198 -33289
0 1;
#X obj 189 85 sel 0 1;
#X msg 189 111 color 13 13 42;
#X msg 209 135 color 16 16 42;
#X msg 100 172 vis \$1;
#N canvas 684 775 306 305 DSP-MTRX 0;
#X obj 105 8 inlet;
#X obj 32 35 cnv 10 69 14 empty empty ADC.1---> 12 7 0 10 -33289 -262144
0;
#X obj 32 55 cnv 10 69 14 empty empty ADC.2---> 12 7 0 10 -33289 -262144
0;
#X obj 32 75 cnv 10 69 14 empty empty ADC.3---> 12 7 0 10 -33289 -262144
0;
#X obj 32 95 cnv 10 69 14 empty empty ADC.4---> 12 7 0 10 -33289 -262144
0;
#X obj 32 115 cnv 10 69 14 empty empty ADC.5---> 12 7 0 10 -33289 -262144
0;
#X obj 32 135 cnv 10 69 14 empty empty ADC.6---> 12 7 0 10 -33289 -262144
0;
#X obj 32 155 cnv 10 69 14 empty empty ADC.7---> 12 7 0 10 -33289 -262144
0;
#X obj 32 175 cnv 10 69 14 empty empty ADC.8---> 12 7 0 10 -33289 -262144
0;
#X obj 111 197 cnv 5 9 16 empty empty I 2 8 0 10 -33289 -262144 0;
#X obj 111 212 cnv 5 9 16 empty empty N 2 8 0 10 -33289 -262144 0;
#X obj 111 242 cnv 5 9 16 empty empty 1 2 8 0 10 -33289 -262144 0;
#X obj 131 197 cnv 5 9 16 empty empty I 2 8 0 10 -33289 -262144 0;
#X obj 131 212 cnv 5 9 16 empty empty N 2 8 0 10 -33289 -262144 0;
#X obj 131 242 cnv 5 9 16 empty empty 2 2 8 0 10 -33289 -262144 0;
#X obj 151 197 cnv 5 9 16 empty empty I 2 8 0 10 -33289 -262144 0;
#X obj 151 212 cnv 5 9 16 empty empty N 2 8 0 10 -33289 -262144 0;
#X obj 151 242 cnv 5 9 16 empty empty 3 2 8 0 10 -33289 -262144 0;
#X obj 171 197 cnv 5 9 16 empty empty I 2 8 0 10 -33289 -262144 0;
#X obj 171 212 cnv 5 9 16 empty empty N 2 8 0 10 -33289 -262144 0;
#X obj 171 242 cnv 5 9 16 empty empty 4 2 8 0 10 -33289 -262144 0;
#X obj 105 266 outlet;
#X obj 28 215 inlet;
#X obj 28 266 sendcanvas;
#X obj 191 220 cnv 5 9 16 empty empty O 2 8 0 10 -33289 -262144 0;
#X obj 191 235 cnv 5 9 16 empty empty U 2 8 0 10 -33289 -262144 0;
#X obj 191 250 cnv 5 9 16 empty empty T 2 8 0 10 -33289 -262144 0;
#X obj 111 226 cnv 5 9 16 empty empty - 2 8 0 10 -33289 -262144 0;
#X obj 131 226 cnv 5 9 16 empty empty - 2 8 0 10 -33289 -262144 0;
#X obj 151 226 cnv 5 9 16 empty empty - 2 8 0 10 -33289 -262144 0;
#X obj 171 226 cnv 5 9 16 empty empty - 2 8 0 10 -33289 -262144 0;
#X obj 211 250 cnv 5 9 16 empty empty T 2 8 0 10 -33289 -262144 0;
#X obj 211 220 cnv 5 9 16 empty empty O 2 8 0 10 -33289 -262144 0;
#X obj 211 235 cnv 5 9 16 empty empty U 2 8 0 10 -33289 -262144 0;
#X obj 191 196 cnv 5 9 16 empty empty D 2 8 0 10 -33289 -262144 0;
#X obj 211 196 cnv 5 9 16 empty empty D 2 8 0 10 -33289 -262144 0;
#X obj 191 208 cnv 5 9 16 empty empty - 2 8 0 10 -33289 -262144 0;
#X obj 211 208 cnv 5 9 16 empty empty - 2 8 0 10 -33289 -262144 0;
#X obj 191 272 cnv 5 9 16 empty empty 1 2 8 0 10 -33289 -262144 0;
#X obj 211 272 cnv 5 9 16 empty empty 2 2 8 0 10 -33289 -262144 0;
#X obj 191 262 cnv 5 9 10 empty empty . 2 4 0 10 -33289 -262144 0;
#X obj 211 262 cnv 5 9 10 empty empty . 2 4 0 10 -33289 -262144 0;
#X obj 231 220 cnv 5 9 16 empty empty O 2 8 0 10 -33289 -262144 0;
#X obj 231 235 cnv 5 9 16 empty empty U 2 8 0 10 -33289 -262144 0;
#X obj 231 250 cnv 5 9 16 empty empty T 2 8 0 10 -33289 -262144 0;
#X obj 251 250 cnv 5 9 16 empty empty T 2 8 0 10 -33289 -262144 0;
#X obj 251 220 cnv 5 9 16 empty empty O 2 8 0 10 -33289 -262144 0;
#X obj 251 235 cnv 5 9 16 empty empty U 2 8 0 10 -33289 -262144 0;
#X obj 231 196 cnv 5 9 16 empty empty D 2 8 0 10 -33289 -262144 0;
#X obj 251 196 cnv 5 9 16 empty empty D 2 8 0 10 -33289 -262144 0;
#X obj 231 208 cnv 5 9 16 empty empty - 2 8 0 10 -33289 -262144 0;
#X obj 251 208 cnv 5 9 16 empty empty - 2 8 0 10 -33289 -262144 0;
#X obj 231 272 cnv 5 9 16 empty empty 3 2 8 0 10 -33289 -262144 0;
#X obj 251 272 cnv 5 9 16 empty empty 4 2 8 0 10 -33289 -262144 0;
#X obj 231 262 cnv 5 9 10 empty empty . 2 4 0 10 -33289 -262144 0;
#X obj 251 262 cnv 5 9 10 empty empty . 2 4 0 10 -33289 -262144 0;
#X obj 105 31 matrixctrl 8 8 20;
#X connect 0 0 56 0;
#X connect 22 0 23 0;
#X connect 56 0 21 0;
#X coords 0 0 1 1 85 60 0;
#X restore 100 335 pd DSP-MTRX;
#X obj 35 371 msc_pre MASTER in-MXR MTRX;
#X obj 163 227 r /MASTER/in-MXR/MTRX-msc;
#X obj 231 377 outlet;
#X obj 195 421 s \$1-connections-in-mixer-MTRX;
#X connect 0 0 1 0;
#X connect 0 0 4 0;
#X connect 1 0 2 0;
#X connect 1 1 3 0;
#X connect 2 0 0 0;
#X connect 3 0 0 0;
#X connect 4 0 5 0;
#X connect 5 0 6 0;
#X connect 5 0 8 0;
#X connect 5 0 9 0;
#X connect 6 0 5 1;
#X coords 0 -1 1 1 20 20 2 100 100;
#X restore 302 69 pd button;
#X obj 208 70 cnv 15 95 20 empty empty ADC.HARDWARE 5 11 0 12 -4160
-228856 0;
#X obj 208 59 cnv 10 115 10 empty empty CONFIG.ADC.CONNECTIONS 3 5
0 8 -1 -4032 0;
#X obj 343 255 message-to-pd~ On-mics \$1-\$2;
#X obj 400 190 message-to-pd~ direct \$1-\$2;
#X obj 343 192 ./customGUI/tgl-main-but MASTER in-MXR MICS;
#X obj 343 155 ./customGUI/tgl-main-but MASTER in-MXR DRCT;
#X obj 27 373 declare -path ../sys.comunication/;
#X connect 4 0 7 0;
#X connect 5 0 8 0;
#X connect 6 0 8 0;
#X connect 13 0 8 0;
#X connect 14 0 8 0;
#X connect 15 0 10 0;
#X connect 16 0 9 0;
#X connect 17 0 11 0;
#X connect 18 0 12 0;
#X connect 22 0 13 0;
#X connect 23 0 14 0;
#X connect 24 0 5 0;
#X connect 25 0 6 0;
#X connect 29 0 8 0;
#X connect 30 0 8 0;
#X connect 31 0 29 0;
#X connect 32 0 30 0;
#X coords 0 -1 1 1 175 195 2 200 50;
