#N canvas 1814 474 653 346 10;
#X declare -path ../sys.comunication;
#X obj 128 14 r CURRENT-PATCH-NUMBER;
#X text 282 60 pedal number;
#X obj 128 193 1;
#X text 124 302 arg: pedal number is extracted from the name of the abstraction with canvasargs;
#X obj 128 277 send;
#X obj 128 84 t a b;
#X msg 214 179 TURN-ON-PEDAL-\$1;
#X obj 214 203 list prepend symbol;
#X obj 214 224 route list;
#X obj 169 181 bang;
#X obj 169 214 0;
#X obj 421 18 declare -path ../sys.comunication;
#X obj 214 133 \$1;
#X obj 128 146 sel \$1;
#X connect 0 0 5 0;
#X connect 2 0 4 0;
#X connect 5 0 13 0;
#X connect 5 1 12 0;
#X connect 6 0 7 0;
#X connect 7 0 8 0;
#X connect 8 0 4 1;
#X connect 9 0 10 0;
#X connect 10 0 4 0;
#X connect 12 0 6 0;
#X connect 13 0 2 0;
#X connect 13 1 9 0;
