#N canvas 2070 69 1025 775 10;
#X obj 63 14 inlet;
#X obj 435 537 outlet~;
#N canvas 0 22 450 278 (subpatch) 0;
#X array samp-\$0 9350 float 2;
#X coords 0 1 9350 -1 200 140 1;
#X restore 63 322 graph;
#X obj 436 433 pansig~;
#X obj 437 264 delread4~ samp-\$0;
#X obj 436 239 line~;
#X obj 568 520 outlet~;
#X obj 660 287 random 200;
#X obj 660 308 - 100;
#X obj 660 328 / 100;
#X obj 660 349 pack f 20;
#X obj 660 393 line~;
#X obj 436 142 t a b b;
#X text 101 9 receives ID and similarity;
#X floatatom 469 22 5 0 0 0 - - -;
#X obj 225 96 unpack f f f;
#X floatatom 259 147 5 0 0 0 - - -;
#X floatatom 333 146 5 0 0 0 - - -;
#X floatatom 297 147 5 0 0 0 - - -;
#X obj 63 262 delwrite~ samp-\$0 4000;
#X obj 436 213 pack f 5;
#N canvas 1230 201 409 402 open-sample 0;
#X obj 20 20 inlet;
#X obj 70 20 inlet;
#X obj 30 346 soundfiler;
#X obj 75 127 makefilename /anthem-syllables/Himno_%s_-wf.wav;
#X obj 30 106 makefilename /anthem-syllables/Himno_0%s_-wf.wav;
#X obj 30 85 moses 10;
#X obj 30 326 a.pnd;
#X msg 57 305 samp-\$1;
#X obj 57 284 \$0;
#X obj 30 264 t a b;
#X obj 30 244 pr.pnd read;
#X obj 30 223 pr.pnd -resize;
#X msg 30 201 \$2\$1;
#X obj 30 145 t a b;
#X obj 75 161 tof/path;
#X obj 30 183 pack s s;
#X obj 30 60 spigot 1;
#X obj 96 190 0;
#X connect 0 0 16 1;
#X connect 1 0 16 0;
#X connect 3 0 13 0;
#X connect 4 0 13 0;
#X connect 5 0 4 0;
#X connect 5 1 3 0;
#X connect 6 0 2 0;
#X connect 7 0 6 1;
#X connect 8 0 7 0;
#X connect 9 0 6 0;
#X connect 9 1 8 0;
#X connect 10 0 9 0;
#X connect 11 0 10 0;
#X connect 12 0 11 0;
#X connect 13 0 15 0;
#X connect 13 1 14 0;
#X connect 13 1 17 0;
#X connect 14 0 15 1;
#X connect 15 0 12 0;
#X connect 16 0 5 0;
#X connect 17 0 16 1;
#X restore 144 172 pd open-sample;
#X obj 233 178 cnv 10 10 10 empty empty empty 20 12 0 14 -258113 -66577
0;
#X msg 384 171 reset;
#N canvas 263 379 200 347 play-sample 0;
#X obj 20 20 inlet;
#X obj 70 20 inlet;
#X obj 20 317 outlet~;
#X obj 70 317 outlet;
#X floatatom 80 116 5 0 0 0 - - -;
#X msg 69 60 reset;
#X obj 69 95 a-scale 0.2 1;
#X obj 30 257 *~;
#X obj 30 220 tabplay~ samp-\$0;
#X obj 30 129 t b;
#X obj 30 169 onebang;
#X obj 123 246 1;
#X obj 139 144 bng 15 250 50 0 empty empty empty 17 7 0 10 -262144
-1 -1;
#X obj 69 147 loadbang;
#X connect 0 0 9 0;
#X connect 1 0 6 0;
#X connect 5 0 6 0;
#X connect 6 0 4 0;
#X connect 6 0 7 1;
#X connect 7 0 2 0;
#X connect 8 0 7 0;
#X connect 8 1 10 1;
#X connect 8 1 11 0;
#X connect 9 0 10 0;
#X connect 10 0 8 0;
#X connect 11 0 3 0;
#X connect 12 0 10 1;
#X connect 13 0 10 1;
#X restore 63 141 pd play-sample;
#X obj 152 145 cnv 10 10 10 empty empty empty 20 12 0 14 -258113 -66577
0;
#X obj 63 38 spigot 1;
#X obj 63 60 t b l b;
#X obj 105 95 0;
#X obj 251 214 t b;
#X obj 251 260 1;
#X obj 251 188 bng 15 250 50 0 empty empty empty 17 7 0 10 -262144
-1 -1;
#X obj 251 238 del;
#X msg 278 9 2 0.5;
#X obj 436 188 a-scale 1000 0;
#X obj 875 531 outlet;
#X text 926 528 done;
#X obj 875 499 0;
#X floatatom 392 220 5 0 0 0 - - -;
#X obj 660 209 t b a;
#X obj 662 241 del;
#X obj 711 311 random 100;
#X connect 0 0 26 0;
#X connect 3 0 1 0;
#X connect 3 1 6 0;
#X connect 4 0 3 0;
#X connect 5 0 4 0;
#X connect 7 0 8 0;
#X connect 8 0 9 0;
#X connect 9 0 10 0;
#X connect 10 0 11 0;
#X connect 11 0 3 1;
#X connect 12 0 34 0;
#X connect 14 0 12 0;
#X connect 15 0 16 0;
#X connect 15 0 21 1;
#X connect 15 1 18 0;
#X connect 15 1 24 1;
#X connect 15 2 12 0;
#X connect 15 2 17 0;
#X connect 20 0 5 0;
#X connect 23 0 34 0;
#X connect 24 0 19 0;
#X connect 24 1 21 0;
#X connect 24 1 29 0;
#X connect 26 0 27 0;
#X connect 27 0 24 0;
#X connect 27 1 15 0;
#X connect 27 2 28 0;
#X connect 28 0 26 1;
#X connect 29 0 32 0;
#X connect 30 0 26 1;
#X connect 31 0 29 0;
#X connect 32 0 30 0;
#X connect 32 0 37 0;
#X connect 33 0 26 0;
#X connect 34 0 20 0;
#X connect 34 0 32 1;
#X connect 34 0 38 0;
#X connect 34 0 39 0;
#X connect 37 0 35 0;
#X connect 39 0 40 0;
#X connect 39 1 40 1;
#X connect 40 0 7 0;
#X connect 40 0 41 0;
#X connect 41 0 10 1;
