#N canvas 653 194 1136 833 10;
#X obj 441 468 *~, f 7;
#X obj 441 439 vline~;
#N canvas 0 50 450 300 onebang 0;
#X obj 58 65 inlet;
#X obj 58 251 outlet;
#X msg 262 92 1;
#X obj 58 176 spigot;
#X msg 230 93 0;
#X obj 262 53 inlet reset;
#X obj 200 133 int 1;
#X obj 58 94 trigger anything bang;
#X obj 58 202 trigger anything bang;
#X obj 326 75 loadbang;
#X connect 0 0 7 0;
#X connect 2 0 6 1;
#X connect 3 0 8 0;
#X connect 4 0 6 1;
#X connect 5 0 2 0;
#X connect 6 0 3 1;
#X connect 7 0 3 0;
#X connect 7 1 6 0;
#X connect 8 0 1 0;
#X connect 8 1 4 0;
#X connect 9 0 2 0;
#X restore 405 80 pd onebang;
#X obj 485 730 pansig~;
#X obj 39 29 inlet;
#X obj 462 38 loadbang;
#X obj 466 64 bng 15 250 50 0 empty empty empty 17 7 0 10 -262144 -1
-1;
#X obj 550 239 inlet buffername WITH "SET";
#X obj 60 208 s \$0-local-duration;
#X obj 480 284 tabplay~;
#N canvas 94 592 720 298 empty-message-env 0;
#X obj 129 68 inlet;
#X obj 198 72 inlet;
#X msg 198 110 0 0 \,;
#X obj 198 265 outlet;
#X connect 0 0 2 0;
#X connect 1 0 2 0;
#X connect 2 0 3 0;
#X restore 441 418 pd empty-message-env;
#N canvas 246 143 1100 556 combfilter 0;
#X obj 529 255 vline~;
#X obj 437 252 vline~;
#X obj 348 253 vline~;
#X floatatom 941 267 5 0 0 0 - - -;
#X obj 674 76 bng 15 250 50 0 empty empty empty 17 7 0 10 -262144 -1
-1;
#X floatatom 354 291 5 0 0 0 - - -;
#X floatatom 421 287 5 0 0 0 - - -;
#X floatatom 497 287 5 0 0 0 - - -;
#X obj 669 362 line~;
#X obj 669 341 pack f f;
#X obj 900 461 textfile;
#X obj 930 355 pack f f f f f;
#X obj 353 36 t b b b b b;
#X obj 905 389 list;
#X obj 898 353 bng 15 250 50 0 empty empty empty 17 7 0 10 -262144
-1 -1;
#X msg 966 439 clear;
#X obj 904 418 pr.pnd add;
#X obj 722 304 r \$0-local-duration;
#X obj 52 336 inlet~;
#X obj 178 471 outlet~;
#X obj 350 7 inlet;
#X obj 529 212 / 1000;
#X obj 437 208 / 1000;
#X msg 348 231 \$1 200;
#X msg 437 230 \$1 200;
#X msg 529 233 \$1 200;
#X text 337 480 creates a subtle resonance for the gesture;
#X obj 408 9 bng 15 250 50 0 empty empty empty 17 7 0 10 -262144 -1
-1;
#X floatatom 694 229 5 0 0 0 - - -;
#X obj 435 181 - 1000;
#X obj 435 160 random 2001;
#X obj 524 181 - 1000;
#X obj 524 160 random 2001;
#X obj 348 209 / 20;
#X floatatom 370 188 5 0 0 0 - - -;
#X obj 348 156 + 1;
#X obj 348 132 random 2001;
#X floatatom 456 126 5 0 0 0 - - -;
#X floatatom 530 123 5 0 0 0 - - -;
#X floatatom 696 168 5 0 0 0 - - -;
#X msg 708 261 0;
#X obj 178 379 cyclone/comb~ 100 50 0.25 0.33 0.998;
#X obj 670 129 / 10000;
#X obj 669 108 random 1000;
#X obj 178 353 *~ 1;
#X obj 918 106 inlet final_bang;
#X obj 668 190 + 0.896;
#X obj 199 318 + 0.75;
#X obj 199 272 / 100;
#X obj 199 248 random 25;
#X connect 0 0 41 3;
#X connect 1 0 41 2;
#X connect 2 0 41 1;
#X connect 3 0 11 0;
#X connect 4 0 43 0;
#X connect 8 0 41 4;
#X connect 9 0 8 0;
#X connect 11 0 13 1;
#X connect 12 0 49 0;
#X connect 12 1 36 0;
#X connect 12 2 30 0;
#X connect 12 3 32 0;
#X connect 12 4 43 0;
#X connect 13 0 16 0;
#X connect 14 0 13 0;
#X connect 15 0 10 0;
#X connect 16 0 10 0;
#X connect 17 0 9 1;
#X connect 18 0 44 0;
#X connect 20 0 12 0;
#X connect 21 0 25 0;
#X connect 21 0 7 0;
#X connect 21 0 11 3;
#X connect 22 0 24 0;
#X connect 22 0 6 0;
#X connect 22 0 11 2;
#X connect 23 0 2 0;
#X connect 24 0 1 0;
#X connect 25 0 0 0;
#X connect 27 0 12 0;
#X connect 29 0 22 0;
#X connect 30 0 29 0;
#X connect 31 0 21 0;
#X connect 32 0 31 0;
#X connect 33 0 23 0;
#X connect 33 0 5 0;
#X connect 33 0 11 1;
#X connect 34 0 23 0;
#X connect 35 0 33 0;
#X connect 36 0 35 0;
#X connect 37 0 29 0;
#X connect 38 0 31 0;
#X connect 40 0 9 0;
#X connect 41 0 19 0;
#X connect 42 0 39 0;
#X connect 42 0 46 0;
#X connect 43 0 42 0;
#X connect 44 0 41 0;
#X connect 46 0 9 0;
#X connect 46 0 11 4;
#X connect 46 0 28 0;
#X connect 47 0 44 1;
#X connect 48 0 3 0;
#X connect 48 0 47 0;
#X connect 49 0 48 0;
#X restore 574 530 pd combfilter;
#X obj 808 405 del;
#X obj 823 364 r \$0-local-duration;
#X obj 405 158 t b b b, f 50;
#X obj 808 669 outlet done;
#N canvas 387 159 803 525 panning-fun 0;
#X obj 189 172 / 100;
#X obj 189 243 line~;
#X obj 189 148 random 200;
#X obj 189 194 - 1;
#X obj 189 218 pack f f;
#X obj 566 115 r \$0-local-duration;
#X obj 566 135 / 2;
#X obj 417 375 *~;
#X obj 417 297 osc~;
#X obj 189 343 *~;
#X obj 166 72 inlet initial_bang;
#X msg 485 325 0 100;
#X obj 435 347 line~;
#X obj 189 392 outlet~;
#X obj 166 104 t b b b;
#X obj 394 101 t b b b;
#X obj 394 68 inlet final_bang;
#X msg 207 289 1 100;
#X msg 257 288 0 100;
#X obj 207 317 line~;
#X obj 417 127 random 100;
#X obj 417 148 / 100;
#X obj 417 232 * 3;
#X obj 417 253 pack f f;
#X obj 417 274 line~;
#X obj 417 212 pow 3;
#X obj 417 169 min 1;
#X obj 417 189 max 0;
#X msg 435 325 1 300;
#X connect 0 0 3 0;
#X connect 1 0 9 0;
#X connect 2 0 0 0;
#X connect 3 0 4 0;
#X connect 4 0 1 0;
#X connect 5 0 6 0;
#X connect 6 0 4 1;
#X connect 6 0 23 1;
#X connect 7 0 13 0;
#X connect 8 0 7 0;
#X connect 9 0 13 0;
#X connect 10 0 14 0;
#X connect 11 0 12 0;
#X connect 12 0 7 1;
#X connect 14 0 17 0;
#X connect 14 1 2 0;
#X connect 14 2 11 0;
#X connect 15 0 28 0;
#X connect 15 1 20 0;
#X connect 15 2 18 0;
#X connect 16 0 15 0;
#X connect 17 0 19 0;
#X connect 18 0 19 0;
#X connect 19 0 9 1;
#X connect 20 0 21 0;
#X connect 21 0 26 0;
#X connect 22 0 23 0;
#X connect 23 0 24 0;
#X connect 24 0 8 0;
#X connect 25 0 22 0;
#X connect 26 0 27 0;
#X connect 27 0 25 0;
#X connect 28 0 12 0;
#X restore 702 469 pd panning-fun;
#X obj 39 62 t a b, f 31;
#X obj 66 287 r \$0-local-duration;
#X obj 81 183 s \$0-rnd-p-range;
#X obj 102 158 s \$0-rnd-p-bottom;
#X obj 826 444 s \$0-reset-oneb;
#X obj 123 134 s \$0-p-t-ON;
#N canvas 936 444 984 583 pitch-shifter 0;
#X obj 169 190 line~;
#X obj 151 218 *~;
#X msg 168 133 1 100;
#X msg 217 133 0 100;
#X obj 151 20 inlet~;
#X obj 300 192 line~;
#X obj 282 220 *~;
#X msg 299 135 1 100;
#X msg 348 135 0 100;
#X obj 443 75 sel 0 1;
#X obj 443 43 inlet;
#X obj 151 482 outlet~;
#X obj 371 18 inlet bang;
#N canvas 0 50 963 597 black-box-pshifter 0;
#X obj 430 267 + 26;
#X obj 430 317 / 100;
#X obj 430 244 random 50;
#X obj 430 290 clip 26 175;
#X obj 223 333 soundtouch~ 40;
#X obj 430 44 inlet;
#X obj 636 117 DSP-ON;
#X obj 675 140 switch~;
#X obj 223 186 *~;
#X obj 635 40 inlet;
#X obj 223 98 inlet~;
#X obj 223 401 outlet~;
#X obj 490 199 r \$1-rnd-p-range;
#X obj 506 250 r \$1-rnd-p-bottom;
#X connect 0 0 3 0;
#X connect 1 0 4 1;
#X connect 2 0 0 0;
#X connect 3 0 1 0;
#X connect 4 0 11 0;
#X connect 5 0 2 0;
#X connect 6 0 8 1;
#X connect 6 1 7 0;
#X connect 8 0 4 0;
#X connect 9 0 6 0;
#X connect 10 0 8 0;
#X connect 12 0 2 1;
#X connect 13 0 0 1;
#X restore 299 336 pd black-box-pshifter;
#X connect 0 0 1 1;
#X connect 1 0 11 0;
#X connect 2 0 0 0;
#X connect 3 0 0 0;
#X connect 4 0 1 0;
#X connect 4 0 6 0;
#X connect 5 0 6 1;
#X connect 6 0 13 0;
#X connect 7 0 5 0;
#X connect 8 0 5 0;
#X connect 9 0 2 0;
#X connect 9 0 8 0;
#X connect 9 1 3 0;
#X connect 9 1 7 0;
#X connect 10 0 9 0;
#X connect 10 0 13 2;
#X connect 12 0 13 1;
#X connect 13 0 11 0;
#X restore 481 327 pd pitch-shifter;
#X obj 144 111 s \$0-rmod-ON;
#N canvas 195 285 984 583 ring-mod 0;
#X obj 169 190 line~;
#X obj 151 218 *~;
#X msg 168 133 1 100;
#X msg 217 133 0 100;
#X obj 151 20 inlet~;
#X obj 300 192 line~;
#X obj 282 220 *~;
#X msg 299 135 1 100;
#X msg 348 135 0 100;
#X obj 443 75 sel 0 1;
#X obj 443 43 inlet;
#X obj 151 482 outlet~;
#X obj 371 18 inlet bang;
#N canvas 502 106 963 597 black-box-ringmod 0;
#X obj 430 44 inlet;
#X obj 636 117 DSP-ON;
#X obj 675 140 switch~;
#X obj 223 186 *~;
#X obj 635 40 inlet;
#X obj 223 98 inlet~;
#X obj 223 530 outlet~;
#X obj 430 407 osc~;
#X obj 430 382 line~;
#X msg 430 358 \$1 20;
#X floatatom 489 343 5 0 0 0 - - -;
#X obj 223 453 *~;
#X obj 430 306 random 500;
#X obj 430 333 + 500;
#X connect 0 0 12 0;
#X connect 1 0 3 1;
#X connect 1 1 2 0;
#X connect 3 0 11 0;
#X connect 4 0 1 0;
#X connect 5 0 3 0;
#X connect 7 0 11 1;
#X connect 8 0 7 0;
#X connect 9 0 8 0;
#X connect 11 0 6 0;
#X connect 12 0 10 0;
#X connect 12 0 13 0;
#X connect 13 0 9 0;
#X restore 299 336 pd black-box-ringmod;
#X connect 0 0 1 1;
#X connect 1 0 11 0;
#X connect 2 0 0 0;
#X connect 3 0 0 0;
#X connect 4 0 1 0;
#X connect 4 0 6 0;
#X connect 5 0 6 1;
#X connect 6 0 13 0;
#X connect 7 0 5 0;
#X connect 8 0 5 0;
#X connect 9 0 2 0;
#X connect 9 0 8 0;
#X connect 9 1 3 0;
#X connect 9 1 7 0;
#X connect 10 0 9 0;
#X connect 10 0 13 2;
#X connect 12 0 13 1;
#X connect 13 0 11 0;
#X restore 484 498 pd ring-mod;
#X obj 405 195 t b b b b b b, f 31;
#X obj 39 87 unpack f f f f f f;
#X obj 485 630 hip~ 20;
#X obj 485 655 /~ 3;
#X obj 485 777 throw~ L-gest-\$2;
#X obj 531 755 throw~ R-gest-\$2;
#X obj 558 366 r \$2-amp-samp-env-brkpoints;
#X floatatom 66 308 5 0 0 0 - - -;
#X obj 73 392 env~;
#X floatatom 73 413 5 0 0 0 - - -;
#X obj 547 458 r \$0-rmod-ON;
#X obj 491 63 r \$0-reset-oneb;
#X obj 462 258 bng 15 250 50 0 empty empty empty 17 7 0 10 -262144
-1 -1;
#X obj 423 787 env~;
#X floatatom 423 808 5 0 0 0 - - -;
#X obj 574 301 r \$0-p-t-ON;
#X obj 617 790 env~;
#X floatatom 617 811 5 0 0 0 - - -;
#X obj 96 508 print;
#X obj 558 388 brkp_2_vline;
#X obj 755 242 stdout;
#X msg 755 194 update;
#X obj 755 221 message-to-pd~ update-env \$2;
#X obj 575 572 hip~ 400;
#X obj 575 593 hip~ 400;
#X obj 574 551 *~ 0.3;
#X obj 858 56 tgl 15 0 empty empty empty 17 7 0 10 -262144 -1 -1 0
1;
#X obj 844 28 r \$2-rec_gest-ON;
#X obj 844 78 sel 0 1;
#X obj 840 107 1;
#X obj 866 105 0;
#X obj 675 623 line~;
#X obj 683 599 pack f 20;
#X obj 486 696 *~;
#X connect 0 0 25 0;
#X connect 1 0 0 0;
#X connect 2 0 14 0;
#X connect 3 0 30 0;
#X connect 3 0 39 0;
#X connect 3 1 31 0;
#X connect 3 1 42 0;
#X connect 4 0 17 0;
#X connect 5 0 2 1;
#X connect 6 0 2 1;
#X connect 7 0 9 0;
#X connect 9 0 23 0;
#X connect 9 1 11 2;
#X connect 9 1 2 1;
#X connect 10 0 1 0;
#X connect 11 0 51 0;
#X connect 12 0 15 0;
#X connect 12 0 16 1;
#X connect 12 0 21 0;
#X connect 13 0 12 1;
#X connect 14 0 26 0;
#X connect 14 1 47 0;
#X connect 14 2 16 0;
#X connect 14 2 23 1;
#X connect 16 0 3 1;
#X connect 17 0 27 0;
#X connect 17 1 2 0;
#X connect 17 1 11 1;
#X connect 17 1 25 1;
#X connect 18 0 33 0;
#X connect 23 0 25 0;
#X connect 25 0 11 0;
#X connect 25 0 28 0;
#X connect 26 0 12 0;
#X connect 26 1 10 0;
#X connect 26 2 9 0;
#X connect 26 3 11 1;
#X connect 27 1 8 0;
#X connect 27 2 19 0;
#X connect 27 3 20 0;
#X connect 27 4 22 0;
#X connect 27 5 24 0;
#X connect 28 0 29 0;
#X connect 29 0 59 0;
#X connect 32 0 45 0;
#X connect 34 0 35 0;
#X connect 36 0 25 2;
#X connect 37 0 2 1;
#X connect 38 0 9 0;
#X connect 39 0 40 0;
#X connect 41 0 23 2;
#X connect 42 0 43 0;
#X connect 45 0 10 1;
#X connect 47 0 48 0;
#X connect 48 0 46 0;
#X connect 49 0 50 0;
#X connect 50 0 28 0;
#X connect 51 0 49 0;
#X connect 53 0 52 0;
#X connect 53 0 54 0;
#X connect 54 0 55 0;
#X connect 54 1 56 0;
#X connect 55 0 58 0;
#X connect 56 0 58 0;
#X connect 57 0 59 1;
#X connect 58 0 57 0;
#X connect 59 0 3 0;
