#N canvas 2077 94 1136 759 10;
#X obj 403 447 *~, f 7;
#X obj 403 400 vline~;
#N canvas 0 50 450 300 onebang 0;
#X obj 58 65 inlet;
#X obj 58 251 outlet;
#X msg 262 92 1;
#X obj 58 176 spigot;
#X msg 230 93 0;
#X obj 262 53 inlet reset;
#X obj 200 133 int 1;
#X obj 58 94 trigger anything bang;
#X obj 58 202 trigger anything bang;
#X obj 326 75 loadbang;
#X connect 0 0 7 0;
#X connect 2 0 6 1;
#X connect 3 0 8 0;
#X connect 4 0 6 1;
#X connect 5 0 2 0;
#X connect 6 0 3 1;
#X connect 7 0 3 0;
#X connect 7 1 6 0;
#X connect 8 0 1 0;
#X connect 8 1 4 0;
#X connect 9 0 2 0;
#X restore 405 78 pd onebang;
#X obj 535 632 pansig~;
#X obj 39 29 inlet;
#X obj 462 36 loadbang;
#X obj 466 62 bng 15 250 50 0 empty empty empty 17 7 0 10 -262144 -1
-1;
#X obj 550 189 inlet buffername WITH "SET";
#X obj 60 208 s \$0-local-duration;
#X obj 478 224 tabplay~;
#N canvas 94 592 720 298 empty-message-env 0;
#X obj 129 68 inlet;
#X obj 198 72 inlet;
#X msg 198 110 0 0 \, 0.952381 6.69474 \, 0.819048 1.67368 6.69474
\, 0.628571 1.1158 8.36842 \, 0.409524 2.78948 9.48421 \, 0.219048
3.90526 12.2737 \, 0.114286 5.02106 16.179 \, 0.0666667 12.8316 21.2
\, 0.0857143 22.8736 34.0316 \, 0.0857143 13.3896 56.9052 \, 0.0857143
17.2947 70.2948 \, 0.0666667 10.6 87.5896 \, 0 7.8104 98.1896 \,;
#X obj 198 265 outlet;
#X connect 0 0 2 0;
#X connect 1 0 2 0;
#X connect 2 0 3 0;
#X restore 403 379 pd empty-message-env;
#X obj 808 355 del;
#X obj 823 179 r \$0-local-duration;
#X obj 405 108 t b b b, f 50;
#X obj 808 619 outlet done;
#N canvas 0 69 803 525 panning-fun 0;
#X obj 189 172 / 100;
#X obj 189 243 line~;
#X obj 189 148 random 200;
#X obj 189 194 - 1;
#X obj 189 218 pack f f;
#X obj 566 115 r \$0-local-duration;
#X obj 566 135 / 2;
#X obj 417 375 *~;
#X obj 417 297 osc~;
#X obj 189 343 *~;
#X obj 166 72 inlet initial_bang;
#X msg 485 325 0 100;
#X obj 435 347 line~;
#X obj 189 392 outlet~;
#X obj 166 104 t b b b;
#X obj 394 101 t b b b;
#X obj 394 68 inlet final_bang;
#X msg 207 289 1 100;
#X msg 257 288 0 100;
#X obj 207 317 line~;
#X obj 417 127 random 100;
#X obj 417 148 / 100;
#X obj 417 232 * 3;
#X obj 417 253 pack f f;
#X obj 417 274 line~;
#X obj 417 212 pow 3;
#X obj 417 169 min 1;
#X obj 417 189 max 0;
#X msg 435 325 1 300;
#X connect 0 0 3 0;
#X connect 1 0 9 0;
#X connect 2 0 0 0;
#X connect 3 0 4 0;
#X connect 4 0 1 0;
#X connect 5 0 6 0;
#X connect 6 0 4 1;
#X connect 6 0 23 1;
#X connect 7 0 13 0;
#X connect 8 0 7 0;
#X connect 9 0 13 0;
#X connect 10 0 14 0;
#X connect 11 0 12 0;
#X connect 12 0 7 1;
#X connect 14 0 17 0;
#X connect 14 1 2 0;
#X connect 14 2 11 0;
#X connect 15 0 28 0;
#X connect 15 1 20 0;
#X connect 15 2 18 0;
#X connect 16 0 15 0;
#X connect 17 0 19 0;
#X connect 18 0 19 0;
#X connect 19 0 9 1;
#X connect 20 0 21 0;
#X connect 21 0 26 0;
#X connect 22 0 23 0;
#X connect 23 0 24 0;
#X connect 24 0 8 0;
#X connect 25 0 22 0;
#X connect 26 0 27 0;
#X connect 27 0 25 0;
#X connect 28 0 12 0;
#X restore 702 419 pd panning-fun;
#X obj 39 62 t a b, f 31;
#X obj 66 287 r \$0-local-duration;
#X obj 81 183 s \$0-rnd-p-range;
#X obj 102 158 s \$0-rnd-p-bottom;
#X obj 826 394 s \$0-reset-oneb;
#X obj 123 134 s \$0-p-t-ON;
#X obj 144 111 s \$0-rmod-ON;
#N canvas 242 285 984 583 ring-mod 0;
#X obj 169 190 line~;
#X obj 151 218 *~;
#X msg 168 133 1 100;
#X msg 217 133 0 100;
#X obj 151 20 inlet~;
#X obj 300 192 line~;
#X obj 282 220 *~;
#X msg 299 135 1 100;
#X msg 348 135 0 100;
#X obj 443 75 sel 0 1;
#X obj 443 43 inlet;
#X obj 151 482 outlet~;
#X obj 371 18 inlet bang;
#N canvas 0 50 963 597 black-box-ringmod 0;
#X obj 430 44 inlet;
#X obj 636 117 DSP-ON;
#X obj 675 140 switch~;
#X obj 223 186 *~;
#X obj 635 40 inlet;
#X obj 223 98 inlet~;
#X obj 223 530 outlet~;
#X obj 430 407 osc~;
#X obj 430 306 random 1000;
#X obj 430 333 + 1000;
#X obj 430 382 line~;
#X msg 430 358 \$1 20;
#X floatatom 489 343 5 0 0 0 - - -;
#X obj 223 453 *~;
#X connect 0 0 8 0;
#X connect 1 0 3 1;
#X connect 1 1 2 0;
#X connect 3 0 13 0;
#X connect 4 0 1 0;
#X connect 5 0 3 0;
#X connect 7 0 13 1;
#X connect 8 0 9 0;
#X connect 8 0 12 0;
#X connect 9 0 11 0;
#X connect 10 0 7 0;
#X connect 11 0 10 0;
#X connect 13 0 6 0;
#X restore 299 336 pd black-box-ringmod;
#X connect 0 0 1 1;
#X connect 1 0 11 0;
#X connect 2 0 0 0;
#X connect 3 0 0 0;
#X connect 4 0 1 0;
#X connect 4 0 6 0;
#X connect 5 0 6 1;
#X connect 6 0 13 0;
#X connect 7 0 5 0;
#X connect 8 0 5 0;
#X connect 9 0 2 0;
#X connect 9 0 8 0;
#X connect 9 1 3 0;
#X connect 9 1 7 0;
#X connect 10 0 9 0;
#X connect 10 0 13 2;
#X connect 12 0 13 1;
#X connect 13 0 11 0;
#X restore 403 489 pd ring-mod;
#X obj 405 161 t b b b b b b, f 31;
#X floatatom 858 250 5 0 0 0 - - -;
#X obj 39 87 unpack f f f f f f;
#X obj 535 572 hip~ 20;
#X obj 535 597 /~ 3;
#X obj 535 679 throw~ L-gest-\$2;
#X obj 581 657 throw~ R-gest-\$2;
#X obj 520 305 r \$2-amp-samp-env-brkpoints;
#X floatatom 66 308 5 0 0 0 - - -;
#X obj 430 284 env~;
#X floatatom 430 305 5 0 0 0 - - -;
#X obj 469 427 r \$0-rmod-ON;
#X obj 491 61 r \$0-reset-oneb;
#X obj 467 192 bng 15 250 50 0 empty empty empty 17 7 0 10 -262144
-1 -1;
#X obj 473 689 env~;
#X floatatom 473 710 5 0 0 0 - - -;
#X obj 571 251 r \$0-p-t-ON;
#X obj 667 692 env~;
#X floatatom 667 713 5 0 0 0 - - -;
#X obj 577 349 print;
#X obj 530 331 brkp_2_vline;
#X obj 750 180 stdout;
#X msg 750 132 update;
#X obj 750 159 message-to-pd~ update-env \$2;
#X connect 0 0 23 0;
#X connect 1 0 0 0;
#X connect 2 0 13 0;
#X connect 3 0 29 0;
#X connect 3 0 38 0;
#X connect 3 1 30 0;
#X connect 3 1 41 0;
#X connect 4 0 16 0;
#X connect 5 0 2 1;
#X connect 6 0 2 1;
#X connect 7 0 9 0;
#X connect 9 0 33 0;
#X connect 9 0 0 1;
#X connect 9 1 2 1;
#X connect 10 0 1 0;
#X connect 11 0 14 0;
#X connect 11 0 15 1;
#X connect 11 0 20 0;
#X connect 12 0 11 1;
#X connect 12 0 25 0;
#X connect 13 0 24 0;
#X connect 13 1 46 0;
#X connect 13 2 15 0;
#X connect 15 0 3 1;
#X connect 16 0 26 0;
#X connect 16 1 2 0;
#X connect 16 1 23 1;
#X connect 17 0 32 0;
#X connect 23 0 27 0;
#X connect 24 0 11 0;
#X connect 24 1 10 0;
#X connect 24 2 9 0;
#X connect 26 1 8 0;
#X connect 26 2 18 0;
#X connect 26 3 19 0;
#X connect 26 4 21 0;
#X connect 26 5 22 0;
#X connect 27 0 28 0;
#X connect 28 0 3 0;
#X connect 31 0 44 0;
#X connect 33 0 34 0;
#X connect 35 0 23 2;
#X connect 36 0 2 1;
#X connect 37 0 9 0;
#X connect 38 0 39 0;
#X connect 41 0 42 0;
#X connect 44 0 10 1;
#X connect 46 0 47 0;
#X connect 47 0 45 0;
