#N canvas 2143 35 924 699 10;
#X declare -path motex;
#X obj 90 298 osc~;
#X obj 90 329 *~;
#X obj 234 385 +~;
#X obj 235 411 osc~;
#X obj 384 476 *~;
#X text 118 331 IDX;
#X text 66 261 FM;
#X text 265 378 Carrier;
#X text 410 476 C.Amp;
#X obj 90 264 *;
#X obj 31 491 declare -path motex;
#X obj 384 580 pansig~;
#X obj 711 511 line~;
#X obj 711 483 pack f 20;
#X obj 383 624 outlet~;
#X obj 422 657 outlet~;
#X obj 114 571 outlet~ to_SEND;
#X obj 762 412 random;
#X obj 826 394 / 2;
#X obj 762 457 +;
#X obj 368 286 vline~;
#X obj 474 425 vline~;
#X obj 711 389 random 2000;
#X obj 711 412 - 1000;
#X obj 711 435 / 1000;
#X obj 711 365 t b b;
#X obj 90 183 mtof;
#X obj 368 312 *~ 2000;
#X msg 474 380 0.8 0 \, 1 164.211 \, 0 235.789 164.211 \,;
#X obj 232 125 r \$3-ratio;
#X obj 368 73 r \$3-IDX;
#X obj 437 130 sel 1;
#X obj 437 105 r \$3-IDX-2;
#X msg 368 209 1 0 \, 1 0.5 \, 0 0.5 0.5 \,;
#X obj 826 302 r \$3-duration;
#X obj 548 308 sel 1;
#X obj 474 143 r \$3-Amp.env;
#X obj 548 274 r \$3-Amp.env-2;
#X obj 90 130 t a a b b b;
#X obj 90 35 inlet midi.note/s;
#X obj 90 61 unpack;
#X obj 385 502 *~;
#X text 411 502 midi scalar/velocity;
#X obj 189 92 / 127;
#X text 231 98 ratio;
#X text 101 8 c.freq;
#X text 395 45 IDX;
#X text 500 313 c.amp;
#X text 836 276 duration;
#X floatatom 105 94 5 0 0 0 - - - 0;
#X obj 236 436 hip~;
#X obj 236 458 hip~;
#X obj 384 550 hip~ 35;
#X obj 384 527 hip~ 35;
#X obj 413 139 bng 15 250 50 0 empty empty empty 17 7 0 10 #fcfcfc
#000000 #000000;
#X obj 561 337 bng 15 250 50 0 empty empty empty 17 7 0 10 #fcfcfc
#000000 #000000;
#X msg 44 32 60;
#X obj 368 163 brkp_2_vline-v2;
#X obj 474 353 brkp_2_vline-v2;
#X connect 0 0 1 0;
#X connect 1 0 2 0;
#X connect 2 0 3 0;
#X connect 3 0 50 0;
#X connect 4 0 16 0;
#X connect 4 0 41 0;
#X connect 9 0 0 0;
#X connect 11 0 14 0;
#X connect 11 1 15 0;
#X connect 12 0 11 1;
#X connect 13 0 12 0;
#X connect 17 0 19 0;
#X connect 18 0 17 1;
#X connect 18 0 19 1;
#X connect 19 0 13 1;
#X connect 20 0 27 0;
#X connect 21 0 4 1;
#X connect 22 0 23 0;
#X connect 23 0 24 0;
#X connect 24 0 13 0;
#X connect 25 0 22 0;
#X connect 25 1 17 0;
#X connect 26 0 9 0;
#X connect 26 0 50 1;
#X connect 26 0 51 1;
#X connect 27 0 1 1;
#X connect 28 0 21 0;
#X connect 29 0 9 1;
#X connect 30 0 57 0;
#X connect 31 0 54 0;
#X connect 31 0 57 1;
#X connect 32 0 31 0;
#X connect 33 0 20 0;
#X connect 34 0 18 0;
#X connect 35 0 55 0;
#X connect 35 0 58 1;
#X connect 36 0 58 0;
#X connect 37 0 35 0;
#X connect 38 0 26 0;
#X connect 38 1 2 1;
#X connect 38 2 28 0;
#X connect 38 3 33 0;
#X connect 38 4 25 0;
#X connect 39 0 40 0;
#X connect 40 0 38 0;
#X connect 40 0 49 0;
#X connect 40 1 43 0;
#X connect 41 0 53 0;
#X connect 43 0 41 1;
#X connect 50 0 51 0;
#X connect 51 0 4 0;
#X connect 52 0 11 0;
#X connect 53 0 52 0;
#X connect 56 0 40 0;
#X connect 57 0 33 0;
#X connect 58 0 28 0;
