#N canvas 112 82 992 725 10;
#X declare -stdpath motex;
#X declare -stdpath cyclone;
#X obj 121 207 mtof;
#X obj 121 150 / 2;
#X obj 121 181 +;
#X obj 121 116 f \$1;
#X obj 121 87 t b a;
#X obj 121 290 *~;
#X obj 170 258 line~;
#X obj 170 106 inlet amplitud;
#X obj 170 153 dbtorms;
#X obj 170 131 * 100;
#N canvas 144 314 450 300 amp_4_ring 0;
#X obj 131 38 inlet;
#X obj 233 252 outlet;
#X obj 233 194 /;
#X obj 263 165 -;
#X msg 249 145 1;
#X obj 249 126 t b f;
#X obj 216 44 inlet;
#X obj 160 124 max;
#X obj 249 103 f;
#X obj 160 154 -;
#X obj 130 248 outlet;
#X connect 0 0 7 0;
#X connect 0 0 10 0;
#X connect 2 0 1 0;
#X connect 3 0 2 1;
#X connect 4 0 3 0;
#X connect 5 0 4 0;
#X connect 5 1 3 1;
#X connect 6 0 7 1;
#X connect 6 0 9 1;
#X connect 6 0 8 0;
#X connect 7 0 9 0;
#X connect 8 0 5 0;
#X connect 9 0 2 0;
#X restore 419 203 pd amp_4_ring;
#X obj 570 144 loadbang;
#X obj 344 461 *~;
#X obj 422 370 line~;
#X obj 121 540 +~;
#X obj 181 508 *~;
#X obj 344 294 osc~ 550;
#X obj 344 79 r highest-microtone;
#X obj 344 139 +;
#X obj 344 205 mtof;
#X obj 344 273 line~;
#X msg 570 171 0.5;
#X obj 612 315 osc~;
#X obj 612 338 +~ 1;
#X obj 612 359 /~ 2;
#X obj 612 382 *~;
#X obj 646 414 -;
#X msg 646 393 1;
#X obj 646 371 t b a;
#X obj 612 431 +~;
#X obj 344 491 *~;
#X obj 612 291 line~;
#X obj 344 244 pack f 2000;
#X obj 612 270 pack f 300;
#X obj 422 341 pack f 2000;
#X obj 606 60 declare -stdpath motex;
#X obj 121 646 pansig~;
#X obj 606 79 declare -stdpath cyclone;
#X obj 465 563 f \$1;
#X obj 465 629 osc~;
#X obj 465 608 / 100;
#X obj 465 585 + 1;
#X obj 612 221 * 7;
#X obj 121 232 osc~;
#X obj 121 13 loadbang;
#X obj 121 695 throw~ left_drone_osc;
#X obj 167 675 throw~ right_drone_osc;
#X obj 170 229 pack f 3000;
#X obj 233 195 r drn-release;
#X obj 666 161 loadbang;
#X obj 666 201 / 10000;
#X obj 612 246 +;
#X obj 666 181 random 50000;
#X obj 815 201 random 200;
#X obj 815 224 / 100;
#X obj 821 258 - 1;
#X floatatom 833 303 5 0 0 0 - - -, f 5;
#X obj 824 168 bng 15 250 50 0 empty empty empty 17 7 0 10 -262144
-1 -1;
#X obj 221 72 * 12;
#X obj 221 30 random 6;
#X obj 121 58 i;
#X obj 221 51 + 4;
#X obj 121 592 /~ 25;
#X connect 0 0 43 0;
#X connect 1 0 2 0;
#X connect 2 0 0 0;
#X connect 3 0 1 0;
#X connect 4 0 3 0;
#X connect 4 1 2 1;
#X connect 5 0 15 0;
#X connect 5 0 14 0;
#X connect 6 0 5 1;
#X connect 7 0 9 0;
#X connect 7 0 25 1;
#X connect 7 0 28 0;
#X connect 8 0 10 0;
#X connect 8 0 47 0;
#X connect 8 0 42 0;
#X connect 9 0 8 0;
#X connect 10 0 34 0;
#X connect 11 0 21 0;
#X connect 11 0 38 0;
#X connect 12 0 30 0;
#X connect 13 0 30 1;
#X connect 14 0 62 0;
#X connect 15 0 14 1;
#X connect 16 0 12 0;
#X connect 17 0 18 0;
#X connect 18 0 19 0;
#X connect 19 0 32 0;
#X connect 20 0 16 0;
#X connect 21 0 10 1;
#X connect 22 0 23 0;
#X connect 23 0 24 0;
#X connect 24 0 25 0;
#X connect 25 0 29 0;
#X connect 26 0 29 1;
#X connect 27 0 26 0;
#X connect 28 0 27 0;
#X connect 28 1 26 1;
#X connect 29 0 12 1;
#X connect 30 0 15 1;
#X connect 31 0 22 0;
#X connect 32 0 20 0;
#X connect 33 0 31 0;
#X connect 34 0 13 0;
#X connect 36 0 45 0;
#X connect 36 1 46 0;
#X connect 38 0 41 0;
#X connect 39 0 36 1;
#X connect 40 0 39 0;
#X connect 41 0 40 0;
#X connect 42 0 51 0;
#X connect 43 0 5 0;
#X connect 44 0 59 0;
#X connect 44 0 60 0;
#X connect 47 0 6 0;
#X connect 48 0 47 1;
#X connect 49 0 52 0;
#X connect 50 0 51 1;
#X connect 51 0 33 0;
#X connect 52 0 50 0;
#X connect 53 0 54 0;
#X connect 54 0 55 0;
#X connect 55 0 56 0;
#X connect 57 0 53 0;
#X connect 58 0 60 1;
#X connect 59 0 61 0;
#X connect 60 0 4 0;
#X connect 60 0 18 1;
#X connect 61 0 58 0;
#X connect 62 0 36 0;
