#N canvas 1975 93 1108 673 10;
#X msg 732 44 0;
#X obj 616 338 samphold~;
#X obj 676 281 phasor~ 10;
#X obj 679 197 hsl 128 15 10 10000 1 0 empty empty stutter-ms -2 -8
0 10 -262144 -1 -1 3578 1;
#X floatatom 676 216 5 0 0 0 - - -;
#X obj 676 258 /;
#X obj 600 501 *~;
#X obj 616 122 *~ 60000;
#X obj 713 377 *~;
#X obj 616 466 +~;
#X obj 713 418 *~;
#X obj 938 327 hsl 128 15 0 2 0 0 empty empty speed -2 -8 0 10 -262144
-1 -1 0 1;
#X msg 676 236 -1000 \$1;
#X obj 854 382 tgl 15 0 empty empty reverse/forward 17 7 0 10 -99865
-233017 -1 1 1;
#X obj 854 342 loadbang;
#X obj 713 438 *~;
#X obj 854 400 - 0.5;
#X obj 854 421 * 2;
#X msg 743 258 0;
#X msg 854 362 0;
#X obj 817 88 t a b;
#X obj 849 131 + 10;
#X obj 817 170 line;
#X obj 817 151 pack;
#X obj 866 207 t a b;
#X obj 866 268 pack;
#X obj 136 217 t b b b b;
#X obj 170 327 / 20;
#X obj 104 468 del 1000;
#X obj 104 397 t b b;
#X obj 157 415 random 3000;
#X obj 157 440 + 500;
#X text 196 442 time of glitch;
#X obj 170 306 random 20;
#X floatatom 168 489 5 0 0 0 - - -;
#X obj 104 142 t b b b;
#X obj 461 332 tgl 15 0 empty empty stutter-ON/OFF 17 7 0 10 -99865
-233017 -1 0 1;
#X obj 461 399 sel 1 0;
#X obj 490 371 loadbang;
#X obj 599 649 outlet~;
#X obj 600 522 vd~ \$0-bigbuffer;
#X obj 381 74 delwrite~ \$0-bigbuffer 60000;
#X obj 382 14 inlet~;
#X obj 920 546 pack;
#X obj 600 592 pansig~;
#X obj 920 452 t b f;
#X obj 920 572 line~;
#X obj 920 474 random 201;
#X obj 920 494 - 100;
#X obj 920 517 / 100;
#X obj 639 623 outlet~;
#X obj 104 28 inlet;
#X obj 332 86 env~;
#X floatatom 332 109 5 0 0 0 - - -;
#X obj 599 566 *~;
#X msg 136 324 1;
#X msg 104 492 0;
#X obj 616 96 phasor~ 0.0166667;
#X msg 461 420 1;
#X msg 490 422 0;
#X obj 939 280 + 10;
#X obj 898 229 random 100;
#X text 154 563 aumentar \$0 en envios;
#X obj 240 204 s \$0-fire-stutter;
#X obj 153 282 s \$0-resetPhase;
#X obj 267 322 s \$0-stutterTime;
#X obj 170 348 s \$0-stutterSpeed;
#X obj 136 371 s \$0-on/off-Stutter;
#X obj 172 467 s \$0-timeofglitch;
#X obj 104 515 s \$0-on/off-Stutter;
#X obj 732 23 r \$0-resetPhase;
#X obj 817 68 r \$0-stutterTime;
#X obj 866 184 r \$0-stutterSpeed;
#X obj 920 429 r \$0-timeofglitch;
#X obj 737 235 r \$0-resetPhase;
#X obj 461 305 r \$0-on/off-Stutter;
#X obj 712 489 r \$0-o/igate;
#X obj 461 445 s \$0-o/igate;
#X obj 866 287 line~;
#X obj 712 533 line~;
#X obj 712 511 pack f 15;
#X obj 267 300 + 30;
#X obj 267 278 random 100;
#X obj 849 109 random 500;
#X obj 615 392 *~ 0.3;
#X connect 0 0 57 1;
#X connect 1 0 84 0;
#X connect 2 0 1 1;
#X connect 2 0 8 0;
#X connect 3 0 4 0;
#X connect 4 0 12 0;
#X connect 4 0 8 1;
#X connect 5 0 2 0;
#X connect 6 0 40 0;
#X connect 7 0 1 0;
#X connect 8 0 10 0;
#X connect 9 0 6 1;
#X connect 10 0 15 0;
#X connect 12 0 5 0;
#X connect 13 0 16 0;
#X connect 14 0 19 0;
#X connect 15 0 9 1;
#X connect 16 0 17 0;
#X connect 17 0 15 1;
#X connect 18 0 2 1;
#X connect 19 0 13 0;
#X connect 20 0 23 0;
#X connect 20 1 83 0;
#X connect 21 0 23 1;
#X connect 22 0 3 0;
#X connect 23 0 22 0;
#X connect 24 0 25 0;
#X connect 24 1 61 0;
#X connect 25 0 78 0;
#X connect 26 0 55 0;
#X connect 26 1 64 0;
#X connect 26 2 33 0;
#X connect 26 3 13 0;
#X connect 26 3 82 0;
#X connect 27 0 66 0;
#X connect 28 0 56 0;
#X connect 29 0 28 0;
#X connect 29 1 30 0;
#X connect 30 0 31 0;
#X connect 31 0 28 1;
#X connect 31 0 34 0;
#X connect 31 0 68 0;
#X connect 33 0 27 0;
#X connect 35 0 29 0;
#X connect 35 1 26 0;
#X connect 35 2 63 0;
#X connect 36 0 37 0;
#X connect 36 0 6 0;
#X connect 37 0 58 0;
#X connect 37 1 59 0;
#X connect 38 0 59 0;
#X connect 40 0 54 0;
#X connect 42 0 41 0;
#X connect 42 0 52 0;
#X connect 43 0 46 0;
#X connect 44 0 39 0;
#X connect 44 1 50 0;
#X connect 45 0 47 0;
#X connect 45 1 43 1;
#X connect 46 0 44 1;
#X connect 47 0 48 0;
#X connect 48 0 49 0;
#X connect 49 0 43 0;
#X connect 51 0 35 0;
#X connect 52 0 53 0;
#X connect 54 0 44 0;
#X connect 55 0 67 0;
#X connect 56 0 69 0;
#X connect 57 0 7 0;
#X connect 58 0 77 0;
#X connect 59 0 77 0;
#X connect 60 0 25 1;
#X connect 61 0 60 0;
#X connect 70 0 0 0;
#X connect 71 0 20 0;
#X connect 72 0 24 0;
#X connect 73 0 45 0;
#X connect 74 0 18 0;
#X connect 75 0 36 0;
#X connect 76 0 80 0;
#X connect 78 0 10 1;
#X connect 79 0 54 1;
#X connect 80 0 79 0;
#X connect 81 0 65 0;
#X connect 82 0 81 0;
#X connect 83 0 21 0;
#X connect 84 0 9 0;
