#N canvas 292 54 878 804 10;
#X obj 315 626 *~, f 5;
#X obj 80 609 line~;
#N canvas 222 59 365 502 frecuencias 0;
#X msg 104 208 1.05946;
#X obj 104 250 pow;
#X obj 80 304 *;
#X obj 80 342 outlet;
#X obj 160 227 * \$1;
#X obj 133 380 pack 0 0;
#X obj 133 355 \$1;
#X obj 133 328 t b a;
#X obj 160 201 \$2;
#X floatatom 133 279 5 0 0 0 - - - 0;
#X obj 171 148 bng 15 250 50 0 empty empty empty 17 7 0 10 #fcfcfc #000000 #000000;
#X obj 137 99 iemguts/initbang;
#X obj 133 415 print \$3-frec_filtro#;
#X obj 81 132 t b b b;
#X obj 46 201 f 27.5;
#X connect 0 0 1 0;
#X connect 1 0 2 1;
#X connect 1 0 9 0;
#X connect 2 0 3 0;
#X connect 2 0 7 0;
#X connect 4 0 1 1;
#X connect 5 0 12 0;
#X connect 6 0 5 0;
#X connect 7 0 6 0;
#X connect 7 1 5 1;
#X connect 8 0 4 0;
#X connect 10 0 13 0;
#X connect 11 0 13 0;
#X connect 13 0 14 0;
#X connect 13 1 0 0;
#X connect 13 2 8 0;
#X connect 14 0 2 0;
#X restore 231 82 pd frecuencias;
#X obj 80 172 reson~ 1 1 6.2854;
#X obj 419 153 reson~ 1 1 6.2854;
#X obj 194 511 del;
#X obj 80 587 pack f f;
#X obj 127 94 env~;
#X floatatom 127 119 5 0 0 0 - - - 0;
#X obj 314 724 pan~;
#X obj 428 680 line;
#X obj 283 316 1;
#X obj 210 371 0;
#X obj 170 449 random;
#X obj 428 659 pack f 200;
#X obj 428 456 t b b;
#X obj 428 436 spigot 1;
#X obj 510 450 0;
#X obj 473 414 1;
#X obj 515 632 random;
#X obj 194 539 t b b;
#X obj 80 326 change;
#X obj 219 563 0;
#X obj 548 378 +;
#X obj 548 357 t a a;
#X obj 81 15 inlet~;
#X obj 315 765 outlet~;
#X obj 335 745 outlet~;
#X obj 170 371 t b b;
#X obj 608 56 inlet;
#X obj 80 346 spigot 1;
#X obj 420 65 inlet~;
#X obj 231 55 r \$3-frec_base;
#X obj 200 190 r \$3-sens-jrsvpeak;
#X obj 552 100 r \$3-Q;
#X obj 428 540 sel 0 1;
#X obj 473 589 random 45000;
#X obj 428 566 random 45000;
#X obj 428 589 / 1000;
#X obj 473 609 / 1000;
#X obj 473 632 * -1;
#X obj 80 744 outlet;
#X obj 170 484 t a b a;
#X obj 80 722 pack f \$1;
#X obj 428 507 mod 2;
#X obj 464 487 + 1;
#X obj 428 487 int 1;
#X floatatom 221 222 5 0 0 0 - - - 0;
#X obj 548 338 r \$3-min-release;
#X obj 608 272 t b;
#X obj 342 164 osc~;
#X obj 357 240 127;
#X obj 356 266 -;
#X obj 356 289 / 127;
#X obj 357 219 t b a;
#X obj 341 357 *~;
#X obj 420 317 *~;
#X obj 747 147 inlet;
#X obj 513 250 pack f 20;
#X obj 513 273 line~;
#X obj 354 309 pack f 20;
#X obj 354 332 line~;
#X floatatom 747 170 5 0 0 0 - - - 0;
#X obj 513 223 / 127;
#X obj 80 275 clip 0 1;
#X obj 80 422 expr if ($f1 > 0.01 \, $f1 \, 0);
#X obj 80 495 clip 0 1;
#X obj 80 297 jrsv-peak 0.02;
#X obj 80 677 line;
#X obj 80 699 clip 0 1;
#X obj 342 190 *~ 0.1;
#X obj 80 216 peakamp~ 50;
#X connect 0 0 9 0;
#X connect 1 0 0 0;
#X connect 2 0 3 2;
#X connect 2 0 4 2;
#X connect 2 0 50 0;
#X connect 3 0 71 0;
#X connect 4 0 56 0;
#X connect 5 0 20 0;
#X connect 6 0 1 0;
#X connect 6 0 68 0;
#X connect 7 0 8 0;
#X connect 9 0 26 0;
#X connect 9 1 27 0;
#X connect 10 0 9 1;
#X connect 11 0 30 1;
#X connect 11 0 16 1;
#X connect 12 0 30 1;
#X connect 13 0 42 0;
#X connect 14 0 10 0;
#X connect 15 0 19 0;
#X connect 15 0 46 0;
#X connect 15 1 17 0;
#X connect 16 0 15 0;
#X connect 17 0 16 1;
#X connect 18 0 16 1;
#X connect 19 0 14 1;
#X connect 20 0 11 0;
#X connect 20 1 22 0;
#X connect 21 0 30 0;
#X connect 22 0 6 0;
#X connect 23 0 19 1;
#X connect 23 0 13 1;
#X connect 24 0 23 0;
#X connect 24 1 23 1;
#X connect 25 0 3 0;
#X connect 25 0 7 0;
#X connect 28 0 13 0;
#X connect 28 0 16 0;
#X connect 28 1 12 0;
#X connect 29 0 49 0;
#X connect 30 0 28 0;
#X connect 30 0 65 0;
#X connect 31 0 4 0;
#X connect 33 0 47 0;
#X connect 33 0 67 1;
#X connect 34 0 4 3;
#X connect 35 0 37 0;
#X connect 35 1 36 0;
#X connect 36 0 39 0;
#X connect 37 0 38 0;
#X connect 38 0 14 0;
#X connect 39 0 40 0;
#X connect 40 0 14 0;
#X connect 42 0 6 1;
#X connect 42 1 5 0;
#X connect 42 2 5 1;
#X connect 43 0 41 0;
#X connect 44 0 35 0;
#X connect 45 0 46 1;
#X connect 46 0 45 0;
#X connect 46 0 44 0;
#X connect 48 0 24 0;
#X connect 49 0 11 0;
#X connect 49 0 18 0;
#X connect 49 0 22 0;
#X connect 50 0 70 0;
#X connect 51 0 52 0;
#X connect 52 0 53 0;
#X connect 53 0 60 0;
#X connect 54 0 51 0;
#X connect 54 1 52 1;
#X connect 55 0 0 1;
#X connect 56 0 0 1;
#X connect 57 0 54 0;
#X connect 57 0 62 0;
#X connect 57 0 63 0;
#X connect 58 0 59 0;
#X connect 59 0 56 1;
#X connect 60 0 61 0;
#X connect 61 0 55 1;
#X connect 63 0 58 0;
#X connect 64 0 67 0;
#X connect 65 0 66 0;
#X connect 66 0 6 0;
#X connect 67 0 21 0;
#X connect 68 0 69 0;
#X connect 69 0 43 0;
#X connect 70 0 55 0;
#X connect 71 0 64 0;
