#N struct 1066-color float x float y float farbe;
#N struct 1066-color-display float x float y float farbe;
#N struct 1069-color float x float y float farbe;
#N struct 1069-color-display float x float y float farbe;
#N struct 1063-matrixctrl float x float y float size float color float
state;
#N canvas 827 322 539 446 10;
#X declare -stdpath cyclone;
#X obj 4 7 cnv 15 530 430 empty empty empty 20 12 0 14 -1 -66577 0
;
#X obj 9 12 cnv 15 520 420 empty empty empty 20 12 0 14 -233017 -66577
0;
#N canvas 1098 31 687 567 master 0;
#X obj 100 100 cnv 15 90 195 empty empty empty 20 12 0 14 -1 -66577
0;
#X obj 105 105 cnv 15 80 185 empty empty empty 20 12 0 14 -228856 -1
0;
#X obj 124 123 vsl 25 160 0 1.2 0 0 empty empty ELTRCS -12 -9 0 10
-127829 -228856 -1 0 1;
#X obj 113 123 vu 8 160 VU-Electronics empty -1 -8 0 10 -66577 -1 0
0;
#X obj 108 420 *~;
#X obj 35 412 *~;
#X obj 57 380 line~;
#X msg 57 358 \$1 25;
#X obj 163 457 env~;
#X obj 163 479 - 90;
#X obj 255 39 sel 0 1;
#X msg 312 132 start;
#X msg 255 101 stop;
#X obj 334 85 t b b b;
#X obj 416 102 f;
#X obj 446 103 + 1;
#X msg 431 76 1;
#X obj 416 150 pr.pnd open;
#X obj 353 175 list;
#X obj 334 54 bng 15 250 50 0 empty empty empty 17 7 0 10 -262144 -1
-1;
#X obj 353 196 route list;
#X obj 255 223 writesf~ 2;
#X obj 255 16 r record-out-ON/OFF;
#X obj 431 23 r resetRecCount;
#X obj 270 430 *~;
#X obj 285 365 pack f 20;
#X obj 285 386 line~;
#X obj 401 427 *~;
#X obj 162 160 vsl 10 120 0 1.27 0 0 empty empty empty -12 -9 0 10
-204786 -4160 -1 0 1;
#X text 153 121 MSTR;
#X text 153 132 RVRB;
#X text 153 142 SEND;
#X obj 35 543 throw~ to_DAC_L;
#X obj 144 544 throw~ to_DAC_R;
#X obj 228 462 env~;
#X floatatom 228 484 5 0 0 0 - - -;
#X obj 270 478 throw~ to_master_verb_L;
#X obj 402 507 throw~ to_master_verb_R;
#X obj 417 455 env~;
#X floatatom 417 477 5 0 0 0 - - -;
#X obj 163 513 send VU-Electronics;
#X obj 416 127 makefilename Harp-Take-%d.wav;
#X obj 35 316 catch~ Electronics_L;
#X obj 108 343 catch~ Electronics_R;
#X connect 2 0 7 0;
#X connect 4 0 33 0;
#X connect 4 0 8 0;
#X connect 5 0 8 0;
#X connect 5 0 32 0;
#X connect 6 0 5 1;
#X connect 6 0 4 1;
#X connect 7 0 6 0;
#X connect 8 0 9 0;
#X connect 9 0 40 0;
#X connect 10 0 12 0;
#X connect 10 1 13 0;
#X connect 11 0 21 0;
#X connect 12 0 21 0;
#X connect 13 0 11 0;
#X connect 13 1 18 0;
#X connect 13 2 14 0;
#X connect 14 0 15 0;
#X connect 14 0 41 0;
#X connect 15 0 14 1;
#X connect 16 0 14 1;
#X connect 17 0 18 1;
#X connect 18 0 20 0;
#X connect 19 0 13 0;
#X connect 20 0 21 0;
#X connect 22 0 10 0;
#X connect 23 0 16 0;
#X connect 24 0 34 0;
#X connect 24 0 36 0;
#X connect 25 0 26 0;
#X connect 26 0 24 1;
#X connect 26 0 27 1;
#X connect 27 0 37 0;
#X connect 27 0 38 0;
#X connect 28 0 25 0;
#X connect 34 0 35 0;
#X connect 38 0 39 0;
#X connect 41 0 17 0;
#X connect 42 0 5 0;
#X connect 42 0 24 0;
#X connect 43 0 4 0;
#X connect 43 0 27 0;
#X coords 0 -1 1 1 90 195 2 100 100;
#X restore 159 17 pd master;
#N canvas 250 49 687 567 master 0;
#X obj 100 100 cnv 15 175 195 empty empty empty 20 12 0 14 -1 -66577
0;
#X obj 105 105 cnv 15 165 185 empty change-color empty 20 12 0 14 -233017
-99865 0;
#X obj 208 223 tgl 38 0 empty empty empty 2 20 0 10 -204800 -1 -1 0
1;
#X obj 277 531 nbx 5 14 -1e+37 1e+37 0 0 empty empty CPU 32 8 0 10
-258113 -262144 -204800 0 256;
#X obj 270 459 cputime;
#X obj 270 437 t b b;
#X obj 271 499 * 0.1;
#X obj 270 479 int;
#X msg 402 320 \; pd dsp \$1;
#X msg 270 395 1;
#X obj 270 368 sel 1 0;
#X obj 216 168 bng 20 250 50 0 empty resetRecCount reset.rec -11 27
0 8 -159808 -4034 -1;
#X obj 270 304 t a a a;
#X obj 289 349 send audioON-OFF-4-pd~;
#X msg 483 422 \; change-color color 10 0 21;
#X obj 524 312 loadbang;
#X obj 481 192 r back-from-pd~;
#X obj 481 218 route DSP-connected;
#X obj 481 239 sel 1;
#X obj 133 123 vsl 35 160 0 1.5 0 0 dianoia_Master_vol empty MASTER
0 -9 0 10 -4160 -257985 -1 0 1;
#X obj 115 124 vu 8 160 VU-MASTER-L empty -1 -8 0 10 -66577 -1 0 0
;
#X obj 178 123 vu 8 160 VU-MASTER-R empty -1 -8 0 10 -66577 -1 0 0
;
#N canvas 111 546 450 300 button 0;
#X obj 100 100 tgl 25 0 empty empty empty 17 7 0 10 -258699 -258699
-33289 0 1;
#X obj 189 85 sel 0 1;
#X msg 189 111 color 13 13 42;
#X msg 209 135 color 16 16 42;
#X obj 100 169 send record-out-ON/OFF;
#X connect 0 0 1 0;
#X connect 0 0 4 0;
#X connect 1 0 2 0;
#X connect 1 1 3 0;
#X connect 2 0 0 0;
#X connect 3 0 0 0;
#X coords 0 -1 1 1 25 25 2 100 100;
#X restore 214 136 pd button;
#X obj 193 118 cnv 15 74 15 empty empty REC:ON/OFF 2 8 0 11 -1 -4034
0;
#X obj 204 205 cnv 15 45 15 empty empty ON/OFF 2 8 0 11 -1 -4034 0
;
#X floatatom 540 345 5 0 0 0 - - -;
#X msg 481 386 \; change-color color 17 0 21;
#X obj 249 375 bng 15 250 50 0 empty empty empty 17 7 0 10 -262144
-1 -1;
#X obj 270 417 metro 1000;
#N canvas 914 519 487 359 cpu-meter 0;
#X obj 272 158 cputime;
#X obj 272 102 metro 1000;
#X obj 272 130 t b b;
#X obj 272 218 * 0.1;
#X obj 272 187 int;
#X obj 102 102 nbx 5 14 -1e+37 1e+37 0 0 empty empty CPU 32 8 0 10
-258113 -262144 -204800 3 256;
#X floatatom 220 90 5 0 0 0 - - -;
#X obj 270 54 loadbang;
#X msg 271 76 1;
#X connect 0 0 4 0;
#X connect 1 0 2 0;
#X connect 2 0 0 0;
#X connect 2 1 0 1;
#X connect 3 0 5 0;
#X connect 4 0 3 0;
#X connect 7 0 8 0;
#X connect 8 0 1 0;
#X coords 0 -1 1 1 58 18 2 100 100;
#X restore 200 266 pd cpu-meter;
#X connect 2 0 12 0;
#X connect 4 0 7 0;
#X connect 5 0 4 0;
#X connect 5 1 4 1;
#X connect 6 0 3 0;
#X connect 7 0 6 0;
#X connect 9 0 28 0;
#X connect 10 0 9 0;
#X connect 10 0 26 0;
#X connect 10 1 9 0;
#X connect 10 1 14 0;
#X connect 12 0 10 0;
#X connect 12 1 13 0;
#X connect 12 2 8 0;
#X connect 15 0 14 0;
#X connect 16 0 17 0;
#X connect 17 0 18 0;
#X connect 18 0 26 0;
#X connect 25 0 26 0;
#X connect 27 0 5 0;
#X connect 28 0 5 0;
#X coords 0 -1 1 1 175 195 2 100 100;
#X restore 349 17 pd master;
#N canvas 641 195 795 783 master 0;
#X obj 100 100 cnv 15 90 195 empty empty empty 20 12 0 14 -1 -66577
0;
#X obj 105 105 cnv 15 80 185 empty empty empty 20 12 0 14 -228856 -1
0;
#X obj 124 123 vsl 25 160 0 4 0 0 empty empty ENSMBL. -12 -9 0 10 -127829
-228856 -1 0 1;
#X obj 113 123 vu 8 160 VU-Direct-in-L empty -1 -8 0 10 -66577 -1 0
0;
#X obj 152 539 *~;
#X obj 170 437 line~;
#X msg 170 415 \$1 25;
#X obj 79 531 *~;
#X obj 97 441 line~;
#X msg 97 419 \$1 25;
#X obj 164 561 env~;
#X obj 164 583 - 90;
#X obj 92 554 env~;
#X obj 92 576 - 90;
#X obj 255 39 sel 0 1;
#X msg 312 132 start;
#X msg 255 101 stop;
#X obj 334 85 t b b b;
#X obj 416 127 makefilename Tessellations-Take-%d.wav;
#X obj 416 102 f;
#X obj 446 103 + 1;
#X msg 431 76 1;
#X obj 416 150 pr.pnd open;
#X obj 353 175 list;
#X obj 334 54 bng 15 250 50 0 empty empty empty 17 7 0 10 -262144 -1
-1;
#X obj 353 196 route list;
#X obj 255 223 writesf~ 2;
#X obj 255 16 r record-out-ON/OFF;
#X obj 431 23 r resetRecCount;
#X obj 378 503 *~;
#X obj 392 422 pack f 20;
#X obj 392 443 line~;
#X obj 406 526 *~;
#X obj 164 162 vsl 10 120 0 1.27 0 0 empty empty empty -12 -9 0 10
-204786 -4160 -1 0 1;
#X text 155 123 MSTR;
#X text 155 134 RVRB;
#X text 155 144 SEND;
#X obj 79 662 throw~ to_DAC_L;
#X obj 152 697 throw~ to_DAC_R;
#X obj 92 610 send VU-Direct-in-L;
#X obj 164 636 send VU-Direct-in-R;
#X obj 378 551 throw~ to_master_verb_L;
#X obj 406 582 throw~ to_master_verb_R;
#X obj 5 496 r~ fplayer;
#X obj 79 338 adc~ 1 2;
#X obj 302 333 adc~ 3 4;
#X connect 2 0 9 0;
#X connect 2 0 6 0;
#X connect 4 0 10 0;
#X connect 4 0 38 0;
#X connect 5 0 4 1;
#X connect 6 0 5 0;
#X connect 7 0 12 0;
#X connect 7 0 37 0;
#X connect 8 0 7 1;
#X connect 9 0 8 0;
#X connect 10 0 11 0;
#X connect 11 0 40 0;
#X connect 12 0 13 0;
#X connect 13 0 39 0;
#X connect 14 0 16 0;
#X connect 14 1 17 0;
#X connect 15 0 26 0;
#X connect 16 0 26 0;
#X connect 17 0 15 0;
#X connect 17 1 23 0;
#X connect 17 2 19 0;
#X connect 18 0 22 0;
#X connect 19 0 18 0;
#X connect 19 0 20 0;
#X connect 20 0 19 1;
#X connect 21 0 19 1;
#X connect 22 0 23 1;
#X connect 23 0 25 0;
#X connect 24 0 17 0;
#X connect 25 0 26 0;
#X connect 27 0 14 0;
#X connect 28 0 21 0;
#X connect 29 0 41 0;
#X connect 30 0 31 0;
#X connect 31 0 29 1;
#X connect 31 0 32 1;
#X connect 32 0 42 0;
#X connect 33 0 30 0;
#X connect 43 0 7 0;
#X connect 43 0 4 0;
#X connect 44 0 7 0;
#X connect 44 0 29 0;
#X connect 44 1 29 0;
#X connect 45 0 4 0;
#X connect 45 0 32 0;
#X connect 45 1 4 0;
#X connect 45 1 32 0;
#X coords 0 -1 1 1 91 195 2 100 100;
#X restore 254 17 pd master;
#N canvas 1071 23 1165 632 disparador 0;
#X obj 100 147 cnv 15 250 100 empty empty empty 75 12 0 14 -1 -1 0
;
#X obj 105 152 cnv 15 240 90 empty empty CUES/AUDIO-ON/OFF 5 10 0 14
-233017 -1 0;
#X obj 220 2 loadbang;
#X obj 47 129 int;
#X obj 35 200 + 1;
#X obj 126 217 nbx 3 12 1 1000 0 0 empty empty NEXT 40 7 0 10 -99865
-204786 -1 1 256;
#X msg 220 70 1;
#X obj 119 177 nbx 2 20 0 99 0 0 empty empty CURRENT 50 12 0 20 -257985
-4160 -1 0 256;
#X obj 251 34 r reset;
#X msg 251 68 0;
#X obj 108 37 sel 127;
#X obj 304 166 bng 30 250 50 0 reset empty reset 0 15 0 10 -128992
-4034 -257985;
#X obj 47 79 spigot;
#X obj 264 166 tgl 30 0 on-pedal empty P/ON 3 15 0 10 -128992 -4034
-4032 0 127;
#X obj 97 63 r on-pedal;
#X obj 47 4 key;
#X obj 114 101 delay 300;
#X obj 21 436 send reset_onebangs;
#X obj 21 415 t b;
#X obj 21 391 r current-patch;
#X obj 35 231 ctlout 11;
#X obj 537 35 declare -stdpath cyclone;
#X obj 21 475 cnv 5 5 100 empty empty empty 20 12 0 14 -1 -66577 0
;
#N canvas 0 50 450 300 onebang 0;
#X obj 58 65 inlet;
#X obj 58 251 outlet;
#X msg 262 92 1;
#X obj 58 176 spigot;
#X msg 230 93 0;
#X obj 262 53 inlet reset;
#X obj 200 133 int 1;
#X obj 58 94 trigger anything bang;
#X obj 58 202 trigger anything bang;
#X obj 326 75 loadbang;
#X connect 0 0 7 0;
#X connect 2 0 6 1;
#X connect 3 0 8 0;
#X connect 4 0 6 1;
#X connect 5 0 2 0;
#X connect 6 0 3 1;
#X connect 7 0 3 0;
#X connect 7 1 6 0;
#X connect 8 0 1 0;
#X connect 8 1 4 0;
#X connect 9 0 2 0;
#X restore 47 101 pd onebang;
#X obj 180 58 bng 15 250 50 0 empty empty empty 17 7 0 10 -262144 -1
-1;
#X obj 108 5 ctlin 64;
#X floatatom 174 29 5 0 0 0 - - -;
#X floatatom 14 41 5 0 0 0 - - -;
#X obj 14 71 bng 15 250 50 0 empty empty empty 17 7 0 10 -262144 -1
-1;
#X floatatom 34 282 5 0 0 0 - - -;
#X obj 34 357 s PEDAL-NOW;
#X msg 34 332 label \$1;
#X obj 34 307 tosymbol;
#X obj 764 45 ctlin 64;
#X obj 570 117 ctlin 72;
#X obj 667 85 ctlin 73;
#X obj 574 204 ctlin 74;
#N canvas 0 23 450 300 button 0;
#X obj 100 100 tgl 25 0 empty empty empty 17 7 0 10 -258699 -258699
-33289 0 1;
#X obj 189 85 sel 0 1;
#X msg 189 111 color 13 13 42;
#X msg 209 135 color 16 16 42;
#X msg 130 163 vis \$1;
#X obj 264 210 Pedal-DISP;
#X obj 98 208 send to_GUI_tess~;
#X connect 0 0 1 0;
#X connect 0 0 4 0;
#X connect 1 0 2 0;
#X connect 1 1 3 0;
#X connect 2 0 0 0;
#X connect 3 0 0 0;
#X connect 4 0 5 0;
#X coords 0 -1 1 1 25 25 2 100 100;
#X restore 310 207 pd button;
#X obj 208 209 cnv 15 100 22 empty empty PEDAL/DISPLAY 5 11 0 12 -4160
-228856 0;
#X obj 570 155 t b;
#X obj 536 94 bng 15 250 50 0 empty empty empty 17 7 0 10 -262144 -1
-1;
#X obj 222 274 - 1;
#X obj 207 290 int;
#X obj 667 122 t b;
#X obj 400 65 bng 15 250 50 0 empty empty empty 17 7 0 10 -262144 -1
-1;
#X obj 545 207 bng 15 250 50 0 empty empty empty 17 7 0 10 -262144
-1 -1;
#X obj 570 136 sel 127;
#X obj 667 103 sel 127;
#X obj 574 242 t b;
#X obj 574 223 sel 127;
#X obj 758 235 t b;
#X obj 758 216 sel 127;
#X obj 758 197 ctlin 75;
#X obj 734 165 delay 300;
#N canvas 0 50 450 300 onebang 0;
#X obj 58 65 inlet;
#X obj 58 251 outlet;
#X msg 262 92 1;
#X obj 58 176 spigot;
#X msg 230 93 0;
#X obj 262 53 inlet reset;
#X obj 200 133 int 1;
#X obj 58 94 trigger anything bang;
#X obj 58 202 trigger anything bang;
#X obj 326 75 loadbang;
#X connect 0 0 7 0;
#X connect 2 0 6 1;
#X connect 3 0 8 0;
#X connect 4 0 6 1;
#X connect 5 0 2 0;
#X connect 6 0 3 1;
#X connect 7 0 3 0;
#X connect 7 1 6 0;
#X connect 8 0 1 0;
#X connect 8 1 4 0;
#X connect 9 0 2 0;
#X restore 667 165 pd onebang;
#X obj 667 146 spigot;
#X obj 717 130 r on-pedal;
#X obj 825 254 delay 300;
#N canvas 0 50 450 300 onebang 0;
#X obj 58 65 inlet;
#X obj 58 251 outlet;
#X msg 262 92 1;
#X obj 58 176 spigot;
#X msg 230 93 0;
#X obj 262 53 inlet reset;
#X obj 200 133 int 1;
#X obj 58 94 trigger anything bang;
#X obj 58 202 trigger anything bang;
#X obj 326 75 loadbang;
#X connect 0 0 7 0;
#X connect 2 0 6 1;
#X connect 3 0 8 0;
#X connect 4 0 6 1;
#X connect 5 0 2 0;
#X connect 6 0 3 1;
#X connect 7 0 3 0;
#X connect 7 1 6 0;
#X connect 8 0 1 0;
#X connect 8 1 4 0;
#X connect 9 0 2 0;
#X restore 758 254 pd onebang;
#X obj 641 280 delay 300;
#N canvas 0 50 450 300 onebang 0;
#X obj 58 65 inlet;
#X obj 58 251 outlet;
#X msg 262 92 1;
#X obj 58 176 spigot;
#X msg 230 93 0;
#X obj 262 53 inlet reset;
#X obj 200 133 int 1;
#X obj 58 94 trigger anything bang;
#X obj 58 202 trigger anything bang;
#X obj 326 75 loadbang;
#X connect 0 0 7 0;
#X connect 2 0 6 1;
#X connect 3 0 8 0;
#X connect 4 0 6 1;
#X connect 5 0 2 0;
#X connect 6 0 3 1;
#X connect 7 0 3 0;
#X connect 7 1 6 0;
#X connect 8 0 1 0;
#X connect 8 1 4 0;
#X connect 9 0 2 0;
#X restore 574 280 pd onebang;
#X obj 574 261 spigot;
#X obj 624 245 r on-pedal;
#X obj 209 361 message-to-pd~ current-patch to_all_audio;
#X obj 209 383 s to_pd~_subprocess;
#X obj 383 104 r back-from-pd~;
#X obj 383 130 route DSP-connected;
#X obj 383 151 sel 1;
#X obj 47 34 sel 32;
#X obj 194 455 s current-patch-DIANOIA;
#X obj 225 103 r pedal-number-DIANOIA;
#X msg 224 124 set \$1;
#X connect 2 0 6 0;
#X connect 3 0 7 0;
#X connect 4 0 5 0;
#X connect 4 0 20 0;
#X connect 5 0 3 1;
#X connect 6 0 5 0;
#X connect 7 0 4 0;
#X connect 7 0 29 0;
#X connect 7 0 41 0;
#X connect 7 0 69 0;
#X connect 7 0 63 0;
#X connect 8 0 6 0;
#X connect 8 0 9 0;
#X connect 9 0 7 0;
#X connect 10 0 12 0;
#X connect 10 0 24 0;
#X connect 12 0 23 0;
#X connect 14 0 12 1;
#X connect 15 0 27 0;
#X connect 15 0 68 0;
#X connect 16 0 23 1;
#X connect 18 0 17 0;
#X connect 19 0 18 0;
#X connect 23 0 3 0;
#X connect 23 0 16 0;
#X connect 25 0 10 0;
#X connect 25 1 26 0;
#X connect 27 0 28 0;
#X connect 29 0 32 0;
#X connect 31 0 30 0;
#X connect 32 0 31 0;
#X connect 34 0 46 0;
#X connect 35 0 47 0;
#X connect 36 0 49 0;
#X connect 39 0 12 0;
#X connect 40 0 39 0;
#X connect 41 0 42 1;
#X connect 42 0 7 0;
#X connect 43 0 55 0;
#X connect 46 0 39 0;
#X connect 47 0 43 0;
#X connect 48 0 61 0;
#X connect 49 0 48 0;
#X connect 50 0 58 0;
#X connect 51 0 50 0;
#X connect 52 0 51 0;
#X connect 53 0 54 1;
#X connect 54 0 53 0;
#X connect 54 0 42 0;
#X connect 55 0 54 0;
#X connect 56 0 55 1;
#X connect 57 0 58 1;
#X connect 58 0 57 0;
#X connect 58 0 13 0;
#X connect 59 0 60 1;
#X connect 60 0 59 0;
#X connect 60 0 11 0;
#X connect 61 0 60 0;
#X connect 62 0 61 1;
#X connect 63 0 64 0;
#X connect 65 0 66 0;
#X connect 66 0 67 0;
#X connect 67 0 11 0;
#X connect 68 0 12 0;
#X connect 70 0 71 0;
#X connect 70 0 63 0;
#X connect 71 0 7 0;
#X coords 0 -1 1 1 250 100 2 100 147;
#X restore 15 217 pd disparador;
#X obj 15 411 cnv 15 250 16 empty empty ///JRSV(C)2018/www.jrsv.net///
20 8 0 12 -1 -4032 0;
#X obj 273 337 sub-pd Percussion a_Pascal.Pons;
#X obj 15 322 RSVP/PresetManager Percussion;
#X obj 14 17 in-mixer PERC;
#X obj 273 218 MasterVerb IMP;
#X coords 0 446 1 445 180 200 0;
