#N canvas 1031 183 889 656 10;
#X declare -path ext-ernals;
#X declare -path RSVP;
#X obj 210 248 cnv 15 315 200 empty zanal-canvas empty 20 12 0 14 -33289
-33289 0;
#X obj 215 253 cnv 15 305 190 empty empty ANALYSIS 220 15 0 16 -233017
-1 0;
#N canvas 57 87 450 300 (subpatch) 0;
#X array chroma 12 float 3;
#A 0 0.344749 0.486755 0.919757 1 0.505378 0.60195 0.406821 0.697662
0.375775 0.252509 0.27754 0.380917;
#X coords 0 1 12 0 196 120 1 0 0;
#X restore 223 316 graph;
#X obj 223 316 cnv 15 16 120 empty empty C 5 8 0 8 -204786 -66577 0
;
#X obj 239 316 cnv 15 16 120 empty empty Cs 3 8 0 8 -162280 -66577
0;
#X obj 256 316 cnv 15 16 120 empty empty D 5 8 0 8 -204786 -66577 0
;
#X obj 272 316 cnv 15 16 120 empty empty Ds 3 8 0 8 -162280 -66577
0;
#X obj 288 316 cnv 15 16 120 empty empty E 5 8 0 8 -204786 -66577 0
;
#X obj 304 316 cnv 15 16 120 empty empty F 5 8 0 8 -162280 -66577 0
;
#X obj 321 316 cnv 15 16 120 empty empty Fs 3 8 0 8 -204786 -66577
0;
#X obj 337 316 cnv 15 16 120 empty empty G 5 8 0 8 -162280 -66577 0
;
#X obj 354 316 cnv 15 16 120 empty empty Gs 3 8 0 8 -204786 -66577
0;
#X obj 370 316 cnv 15 16 120 empty empty A 5 8 0 8 -162280 -66577 0
;
#X obj 387 316 cnv 15 16 120 empty empty As 3 8 0 8 -204786 -66577
0;
#X obj 403 316 cnv 15 16 120 empty empty B 5 8 0 8 -162280 -66577 0
;
#X obj 490 326 bng 15 250 50 0 empty \$1-bang_detected ATTACK -9 23
0 10 -128992 -355 -1;
#X obj 427 423 tgl 15 0 empty \$1-silence-detected Silence 17 7 0 10
-128992 -33289 -33289 0 1;
#X obj 36 33 declare -path ext-ernals;
#N canvas 57 87 450 300 reset 0;
#X obj 115 69 r reset-DIANOIA;
#X obj 115 91 0;
#X obj 115 128 outlet;
#X obj 90 36 inlet;
#X connect 0 0 1 0;
#X connect 1 0 2 0;
#X connect 3 0 1 0;
#X restore 598 153 pd reset;
#N canvas 0 72 869 504 inharmon 0;
#X obj 450 300 cnv 5 198 13 empty empty empty 20 12 0 14 -4032 -66577
0;
#N canvas 0 23 450 300 button 0;
#X obj 100 100 tgl 10 0 empty empty empty 17 7 0 10 -260818 -260818
-33289 0 1;
#X obj 189 85 sel 0 1;
#X floatatom 253 76 5 0 0 0 - - -, f 5;
#X msg 210 135 color 14 14 42;
#X msg 189 111 color 18 18 42;
#X obj 100 38 inlet;
#X obj 100 136 outlet;
#X obj 100 67 change;
#X connect 0 0 1 0;
#X connect 0 0 6 0;
#X connect 1 0 4 0;
#X connect 1 1 3 0;
#X connect 2 0 4 0;
#X connect 3 0 0 0;
#X connect 4 0 0 0;
#X connect 5 0 7 0;
#X connect 7 0 0 0;
#X coords 0 -1 1 1 10 10 2 100 100;
#X restore 454 302 pd button;
#N canvas 0 23 450 300 button 0;
#X obj 100 100 tgl 10 0 empty empty empty 17 7 0 10 -260818 -260818
-33289 0 1;
#X obj 189 85 sel 0 1;
#X floatatom 253 76 5 0 0 0 - - -, f 5;
#X msg 210 135 color 14 14 42;
#X msg 189 111 color 18 18 42;
#X obj 100 38 inlet;
#X obj 100 136 outlet;
#X obj 100 67 change;
#X connect 0 0 1 0;
#X connect 0 0 6 0;
#X connect 1 0 4 0;
#X connect 1 1 3 0;
#X connect 2 0 4 0;
#X connect 3 0 0 0;
#X connect 4 0 0 0;
#X connect 5 0 7 0;
#X connect 7 0 0 0;
#X coords 0 -1 1 1 10 10 2 100 100;
#X restore 470 302 pd button;
#N canvas 0 23 450 300 button 0;
#X obj 100 100 tgl 10 0 empty empty empty 17 7 0 10 -260818 -260818
-33289 0 1;
#X obj 189 85 sel 0 1;
#X floatatom 253 76 5 0 0 0 - - -, f 5;
#X msg 210 135 color 14 14 42;
#X msg 189 111 color 18 18 42;
#X obj 100 38 inlet;
#X obj 100 136 outlet;
#X obj 100 67 change;
#X connect 0 0 1 0;
#X connect 0 0 6 0;
#X connect 1 0 4 0;
#X connect 1 1 3 0;
#X connect 2 0 4 0;
#X connect 3 0 0 0;
#X connect 4 0 0 0;
#X connect 5 0 7 0;
#X connect 7 0 0 0;
#X coords 0 -1 1 1 10 10 2 100 100;
#X restore 486 302 pd button;
#N canvas 0 23 450 300 button 0;
#X obj 100 100 tgl 10 0 empty empty empty 17 7 0 10 -260818 -260818
-33289 0 1;
#X obj 189 85 sel 0 1;
#X floatatom 253 76 5 0 0 0 - - -, f 5;
#X msg 210 135 color 14 14 42;
#X msg 189 111 color 18 18 42;
#X obj 100 38 inlet;
#X obj 100 136 outlet;
#X obj 100 67 change;
#X connect 0 0 1 0;
#X connect 0 0 6 0;
#X connect 1 0 4 0;
#X connect 1 1 3 0;
#X connect 2 0 4 0;
#X connect 3 0 0 0;
#X connect 4 0 0 0;
#X connect 5 0 7 0;
#X connect 7 0 0 0;
#X coords 0 -1 1 1 10 10 2 100 100;
#X restore 518 302 pd button;
#N canvas 0 23 450 300 button 0;
#X obj 100 100 tgl 10 0 empty empty empty 17 7 0 10 -260818 -260818
-33289 0 1;
#X obj 189 85 sel 0 1;
#X floatatom 253 76 5 0 0 0 - - -, f 5;
#X msg 210 135 color 14 14 42;
#X msg 189 111 color 18 18 42;
#X obj 100 38 inlet;
#X obj 100 136 outlet;
#X obj 100 67 change;
#X connect 0 0 1 0;
#X connect 0 0 6 0;
#X connect 1 0 4 0;
#X connect 1 1 3 0;
#X connect 2 0 4 0;
#X connect 3 0 0 0;
#X connect 4 0 0 0;
#X connect 5 0 7 0;
#X connect 7 0 0 0;
#X coords 0 -1 1 1 10 10 2 100 100;
#X restore 502 302 pd button;
#N canvas 0 23 450 300 button 0;
#X obj 100 100 tgl 10 0 empty empty empty 17 7 0 10 -260818 -260818
-33289 0 1;
#X obj 189 85 sel 0 1;
#X floatatom 253 76 5 0 0 0 - - -, f 5;
#X msg 210 135 color 14 14 42;
#X msg 189 111 color 18 18 42;
#X obj 100 38 inlet;
#X obj 100 136 outlet;
#X obj 100 67 change;
#X connect 0 0 1 0;
#X connect 0 0 6 0;
#X connect 1 0 4 0;
#X connect 1 1 3 0;
#X connect 2 0 4 0;
#X connect 3 0 0 0;
#X connect 4 0 0 0;
#X connect 5 0 7 0;
#X connect 7 0 0 0;
#X coords 0 -1 1 1 10 10 2 100 100;
#X restore 535 302 pd button;
#N canvas 0 23 450 300 button 0;
#X obj 100 100 tgl 10 0 empty empty empty 17 7 0 10 -260818 -260818
-33289 0 1;
#X obj 189 85 sel 0 1;
#X floatatom 253 76 5 0 0 0 - - -, f 5;
#X msg 210 135 color 14 14 42;
#X msg 189 111 color 18 18 42;
#X obj 100 38 inlet;
#X obj 100 136 outlet;
#X obj 100 67 change;
#X connect 0 0 1 0;
#X connect 0 0 6 0;
#X connect 1 0 4 0;
#X connect 1 1 3 0;
#X connect 2 0 4 0;
#X connect 3 0 0 0;
#X connect 4 0 0 0;
#X connect 5 0 7 0;
#X connect 7 0 0 0;
#X coords 0 -1 1 1 10 10 2 100 100;
#X restore 551 302 pd button;
#N canvas 0 23 450 300 button 0;
#X obj 100 100 tgl 10 0 empty empty empty 17 7 0 10 -260818 -260818
-33289 0 1;
#X obj 189 85 sel 0 1;
#X floatatom 253 76 5 0 0 0 - - -, f 5;
#X msg 210 135 color 14 14 42;
#X msg 189 111 color 18 18 42;
#X obj 100 38 inlet;
#X obj 100 136 outlet;
#X obj 100 67 change;
#X connect 0 0 1 0;
#X connect 0 0 6 0;
#X connect 1 0 4 0;
#X connect 1 1 3 0;
#X connect 2 0 4 0;
#X connect 3 0 0 0;
#X connect 4 0 0 0;
#X connect 5 0 7 0;
#X connect 7 0 0 0;
#X coords 0 -1 1 1 10 10 2 100 100;
#X restore 568 302 pd button;
#N canvas 0 23 450 300 button 0;
#X obj 100 100 tgl 10 0 empty empty empty 17 7 0 10 -62784 -62784 -33289
0 1;
#X obj 189 85 sel 0 1;
#X floatatom 253 76 5 0 0 0 - - -, f 5;
#X msg 210 135 color 14 14 42;
#X msg 189 111 color 18 18 42;
#X obj 100 38 inlet;
#X obj 100 136 outlet;
#X obj 100 67 change;
#X connect 0 0 1 0;
#X connect 0 0 6 0;
#X connect 1 0 4 0;
#X connect 1 1 3 0;
#X connect 2 0 4 0;
#X connect 3 0 0 0;
#X connect 4 0 0 0;
#X connect 5 0 7 0;
#X connect 7 0 0 0;
#X coords 0 -1 1 1 10 10 2 100 100;
#X restore 601 302 pd button;
#N canvas 0 23 450 300 button 0;
#X obj 100 100 tgl 10 0 empty empty empty 17 7 0 10 -260818 -260818
-33289 0 1;
#X obj 189 85 sel 0 1;
#X floatatom 253 76 5 0 0 0 - - -, f 5;
#X msg 210 135 color 14 14 42;
#X msg 189 111 color 18 18 42;
#X obj 100 38 inlet;
#X obj 100 136 outlet;
#X obj 100 67 change;
#X connect 0 0 1 0;
#X connect 0 0 6 0;
#X connect 1 0 4 0;
#X connect 1 1 3 0;
#X connect 2 0 4 0;
#X connect 3 0 0 0;
#X connect 4 0 0 0;
#X connect 5 0 7 0;
#X connect 7 0 0 0;
#X coords 0 -1 1 1 10 10 2 100 100;
#X restore 584 302 pd button;
#N canvas 0 23 450 300 button 0;
#X obj 100 100 tgl 10 0 empty empty empty 17 7 0 10 -260818 -260818
-33289 0 1;
#X obj 189 85 sel 0 1;
#X floatatom 253 76 5 0 0 0 - - -, f 5;
#X msg 210 135 color 14 14 42;
#X msg 189 111 color 18 18 42;
#X obj 100 38 inlet;
#X obj 100 136 outlet;
#X obj 100 67 change;
#X connect 0 0 1 0;
#X connect 0 0 6 0;
#X connect 1 0 4 0;
#X connect 1 1 3 0;
#X connect 2 0 4 0;
#X connect 3 0 0 0;
#X connect 4 0 0 0;
#X connect 5 0 7 0;
#X connect 7 0 0 0;
#X coords 0 -1 1 1 10 10 2 100 100;
#X restore 634 302 pd button;
#N canvas 0 23 450 300 button 0;
#X obj 100 100 tgl 10 0 empty empty empty 17 7 0 10 -62784 -62784 -33289
0 1;
#X obj 189 85 sel 0 1;
#X floatatom 253 76 5 0 0 0 - - -, f 5;
#X msg 210 135 color 14 14 42;
#X msg 189 111 color 18 18 42;
#X obj 100 38 inlet;
#X obj 100 136 outlet;
#X obj 100 67 change;
#X connect 0 0 1 0;
#X connect 0 0 6 0;
#X connect 1 0 4 0;
#X connect 1 1 3 0;
#X connect 2 0 4 0;
#X connect 3 0 0 0;
#X connect 4 0 0 0;
#X connect 5 0 7 0;
#X connect 7 0 0 0;
#X coords 0 -1 1 1 10 10 2 100 100;
#X restore 617 302 pd button;
#X obj 454 234 return-from-pd~ \$1-spect-chord;
#X obj 454 259 unpack f f f f f f f f f f f f;
#X connect 13 0 14 0;
#X connect 14 0 1 0;
#X connect 14 1 2 0;
#X connect 14 2 3 0;
#X connect 14 3 5 0;
#X connect 14 4 4 0;
#X connect 14 5 6 0;
#X connect 14 6 7 0;
#X connect 14 7 8 0;
#X connect 14 8 10 0;
#X connect 14 9 9 0;
#X connect 14 10 12 0;
#X connect 14 11 11 0;
#X coords 0 -1 1 1 198 14 2 450 300;
#X restore 223 284 pd inharmon \$1;
#X text 691 44 send: ANA-inharmonic-send;
#X text 691 30 send: ANA-bang_detected;
#X text 691 16 send: ANA-silence-detected;
#X obj 716 193 tosymbol;
#X obj 427 326 cnv 10 48 12 empty display-peak-\$0 0_peak 5 6 0 10
-1 -228856 0;
#X obj 716 172 round;
#X obj 716 150 * 100;
#X obj 716 235 send display-peak;
#X obj 427 408 cnv 10 47 12 empty display-rms-\$0 58_rms 5 6 0 10 -1
-228856 0;
#X msg 716 215 label \$1_peak;
#X obj 424 358 cnv 5 95 5 empty empty empty 5 6 0 10 -1 -228856 0;
#X floatatom 668 133 5 0 0 0 - - -, f 5;
#X obj 667 258 >;
#X obj 667 318 i;
#X obj 667 232 t a a;
#X obj 667 340 tosymbol;
#X obj 667 412 send display-top;
#X obj 427 341 cnv 10 48 12 empty display-top-\$0 3_TOP 5 6 0 10 -33289
-262144 0;
#X obj 667 288 sel 1;
#X msg 732 345 color 13 0;
#X msg 743 367 color 42 0;
#X obj 743 324 del 500;
#X msg 667 392 label \$1_TOP;
#X obj 35 57 declare -path RSVP;
#X obj 495 280 tgl-but_pre DSP;
#X obj 461 285 cnv 5 32 9 empty empty ON/OFF 2 5 0 8 -1 -262144 0;
#X obj 479 368 cnv 12 32 16 empty empty S/Thrs 1 8 0 8 -1 -262144 0
;
#X obj 484 388 cnv 12 32 16 empty empty T4Sil 2 8 0 8 -1 -262144 0
;
#X obj 480 306 cnv 12 32 16 empty empty Att.Sn 2 8 0 8 -1 -262144 0
;
#X obj 15 109 return-from-pd~ \$1-sig-in;
#X obj 15 149 sel 0 1;
#X obj 15 129 speedlim 500;
#X msg 15 198 \; zanal-canvas color 12 12 12;
#X msg 34 168 \; zanal-canvas color 16 12 12;
#X obj 440 306 nbx-3_pre att.sns;
#X obj 582 518 message-to-pd~ DSP \$1;
#X obj 550 607 s to_pd~_subprocess;
#X obj 576 481 message-to-pd~ att.Sens \$1;
#X obj 738 488 cnv 10 10 10 empty empty empty 20 12 0 14 -258113 -66577
0;
#X obj 426 388 nbx_pre t4sil;
#X obj 397 466 message-to-pd~ T4Sil \$1;
#X obj 236 16 return-from-pd~ \$1-display-rms;
#X obj 236 35 send display-rms-\$0;
#X obj 471 20 return-from-pd~ \$1-display-top;
#X obj 471 40 s display-top-\$0;
#X obj 243 59 return-from-pd~ \$1-display-peak;
#X obj 243 79 s display-peak-\$0;
#X obj 354 215 return-from-pd~ \$1-silence-detected;
#X obj 374 174 return-from-pd~ \$1-attack-detected;
#X obj 374 195 sel 1;
#X obj 347 498 message-to-pd~ sil.th \$1;
#X obj 339 265 cnv 12 32 16 empty empty Acc/Th 2 8 0 8 -1 -262144 0
;
#X obj 264 265 cnv 12 32 16 empty empty Amp/Th 2 8 0 8 -1 -262144 0
;
#X obj 389 299 cnv 5 32 9 empty empty SPECT. 2 5 0 8 -1 -262144 0;
#X obj 373 268 cnv 10 48 12 empty display-type-\$0 INHARM 5 6 0 10
-4160 -262144 0;
#X obj 485 67 return-from-pd~ \$1-display-inh/hrm;
#X obj 485 91 s display-type-\$0;
#X obj 14 279 return-from-pd~ \$1-chroma;
#X obj 90 503 message-to-pd~ accum-thr \$1;
#X obj 26 447 message-to-pd~ amp-thr \$1;
#X obj 14 303 s chroma;
#X obj 259 212 sel 0;
#X obj 439 368 nbx-3_pre sil.th;
#X obj 300 265 nbx-3_pre acct;
#X obj 226 265 nbx-3_pre ampth;
#X obj 64 149 loadbang;
#X connect 18 0 34 0;
#X connect 18 0 32 1;
#X connect 18 0 35 0;
#X connect 23 0 29 0;
#X connect 25 0 23 0;
#X connect 25 0 34 0;
#X connect 26 0 25 0;
#X connect 29 0 27 0;
#X connect 31 0 25 0;
#X connect 32 0 38 0;
#X connect 33 0 32 1;
#X connect 33 0 35 0;
#X connect 34 0 32 0;
#X connect 34 1 33 1;
#X connect 35 0 42 0;
#X connect 38 0 33 0;
#X connect 38 0 39 0;
#X connect 38 0 41 0;
#X connect 39 0 36 0;
#X connect 40 0 36 0;
#X connect 41 0 40 0;
#X connect 42 0 36 0;
#X connect 44 0 55 0;
#X connect 44 0 81 0;
#X connect 49 0 51 0;
#X connect 50 0 52 0;
#X connect 50 1 53 0;
#X connect 51 0 50 0;
#X connect 54 0 57 0;
#X connect 55 0 56 0;
#X connect 57 0 56 0;
#X connect 59 0 60 0;
#X connect 60 0 56 0;
#X connect 61 0 62 0;
#X connect 63 0 64 0;
#X connect 65 0 66 0;
#X connect 67 0 16 0;
#X connect 68 0 69 0;
#X connect 69 0 15 0;
#X connect 70 0 56 0;
#X connect 75 0 76 0;
#X connect 77 0 80 0;
#X connect 78 0 56 0;
#X connect 79 0 56 0;
#X connect 82 0 70 0;
#X connect 83 0 78 0;
#X connect 84 0 79 0;
#X connect 85 0 52 0;
#X coords 0 -1 1 1 315 200 1 210 248;
