#N canvas 2227 154 1075 567 10;
#X declare -path ext-ernals;
#X obj 120 83 list prepend 0;
#X obj 120 60 chroma12~ 8192 2;
#N canvas 547 194 388 408 chromagram 0;
#X obj 112 45 r next;
#X obj 34 29 inlet;
#N canvas 0 22 450 300 list 0;
#N canvas 0 22 199 262 drip 0;
#X obj 53 174 list split 1;
#X obj 53 91 until;
#X obj 53 129 list append;
#X obj 79 58 t b l;
#X obj 135 176 bang;
#X obj 79 31 inlet;
#X obj 53 199 outlet;
#X connect 0 0 6 0;
#X connect 0 1 2 1;
#X connect 0 2 4 0;
#X connect 1 0 2 0;
#X connect 2 0 0 0;
#X connect 3 0 1 0;
#X connect 3 1 2 1;
#X connect 4 0 1 1;
#X connect 5 0 3 0;
#X restore 152 84 pd drip;
#X obj 153 219 list prepend;
#X obj 251 219 t a;
#N canvas 0 22 450 300 dripslow 0;
#X obj 158 196 list split 1;
#X obj 158 171 list append;
#X obj 158 247 outlet;
#X obj 158 47 inlet;
#X obj 239 247 outlet;
#X obj 232 45 inlet;
#X obj 158 82 b;
#X text 275 46 list;
#X text 113 47 bang;
#X text 283 247 EOL;
#X text 99 246 element;
#X obj 239 217 b;
#X connect 0 0 2 0;
#X connect 0 1 1 1;
#X connect 0 2 11 0;
#X connect 1 0 0 0;
#X connect 3 0 6 0;
#X connect 5 0 1 1;
#X connect 6 0 1 0;
#X connect 11 0 4 0;
#X restore 205 141 pd dripslow;
#X obj 268 106 inlet;
#X obj 152 110 t f b;
#X obj 132 254 list;
#X obj 152 182 + 0;
#X obj 133 24 inlet;
#X obj 132 274 outlet;
#X obj 132 50 t b a b;
#X msg 167 157 0;
#X connect 0 0 5 0;
#X connect 1 0 2 0;
#X connect 1 0 6 1;
#X connect 2 0 1 1;
#X connect 3 0 7 1;
#X connect 4 0 3 1;
#X connect 5 0 7 0;
#X connect 5 1 3 0;
#X connect 6 0 9 0;
#X connect 7 0 1 0;
#X connect 8 0 10 0;
#X connect 10 0 6 0;
#X connect 10 1 0 0;
#X connect 10 2 1 1;
#X connect 10 2 11 0;
#X connect 11 0 7 1;
#X restore 34 76 pd list add;
#X obj 112 77 list;
#N canvas 0 22 579 459 list 0;
#X obj 138 130 route float;
#X obj 116 232 f;
#X obj 116 259 outlet;
#X obj 116 20 inlet;
#N canvas 0 22 450 300 once 0;
#X obj 110 75 inlet;
#X obj 105 187 spigot 1;
#X obj 110 104 t b f;
#X msg 125 151 0;
#X msg 165 99 1;
#X obj 165 63 inlet;
#X obj 102 219 outlet;
#X connect 0 0 2 0;
#X connect 1 0 6 0;
#X connect 2 0 3 0;
#X connect 2 1 1 0;
#X connect 3 0 1 1;
#X connect 4 0 1 1;
#X connect 5 0 4 0;
#X restore 204 158 pd once;
#X obj 177 199 f;
#X obj 146 198 max;
#X obj 116 40 t b a b;
#X text 331 193 prime [min] and [max] with first item once;
#X obj 138 160 t a a;
#N canvas 0 22 199 243 drip 0;
#X obj 53 174 list split 1;
#X obj 53 91 until;
#X obj 53 129 list append;
#X obj 79 58 t b l;
#X obj 135 176 bang;
#X obj 79 31 inlet;
#X obj 53 199 outlet;
#X connect 0 0 6 0;
#X connect 0 1 2 1;
#X connect 0 2 4 0;
#X connect 1 0 2 0;
#X connect 2 0 0 0;
#X connect 3 0 1 0;
#X connect 3 1 2 1;
#X connect 4 0 1 1;
#X connect 5 0 3 0;
#X restore 137 98 pd drip;
#X connect 0 0 9 0;
#X connect 1 0 2 0;
#X connect 3 0 7 0;
#X connect 4 0 6 1;
#X connect 5 0 6 1;
#X connect 6 0 5 0;
#X connect 6 0 1 1;
#X connect 7 0 1 0;
#X connect 7 1 10 0;
#X connect 7 2 4 1;
#X connect 9 0 6 0;
#X connect 9 1 4 0;
#X connect 10 0 0 0;
#X restore 90 125 pd list max;
#X obj 34 102 t l l;
#X obj 112 153 /;
#X obj 35 207 s chromagram;
#N canvas 381 107 467 423 list 0;
#X obj 96 43 inlet;
#X obj 285 62 inlet;
#X obj 161 362 outlet;
#X obj 180 258 outlet;
#X obj 161 327 list;
#X obj 285 225 list prepend;
#X obj 364 195 t a;
#X obj 161 165 t b a a b;
#X obj 96 68 route bang;
#X obj 96 93 b;
#X obj 161 94 t b a;
#X obj 161 134 list;
#N canvas 0 22 199 262 drip 0;
#X obj 53 174 list split 1;
#X obj 53 91 until;
#X obj 53 129 list append;
#X obj 79 58 t b l;
#X obj 135 176 bang;
#X obj 79 31 inlet;
#X obj 53 199 outlet;
#X connect 0 0 6 0;
#X connect 0 1 2 1;
#X connect 0 2 4 0;
#X connect 1 0 2 0;
#X connect 2 0 0 0;
#X connect 3 0 1 0;
#X connect 3 1 2 1;
#X connect 4 0 1 1;
#X connect 5 0 3 0;
#X restore 179 218 pd drip;
#X connect 0 0 8 0;
#X connect 1 0 5 0;
#X connect 4 0 2 0;
#X connect 5 0 6 0;
#X connect 5 0 4 1;
#X connect 6 0 5 1;
#X connect 7 0 4 0;
#X connect 7 1 12 0;
#X connect 7 2 4 1;
#X connect 7 3 5 1;
#X connect 8 0 9 0;
#X connect 8 1 10 0;
#X connect 9 0 11 0;
#X connect 10 0 11 0;
#X connect 10 1 11 1;
#X connect 11 0 7 0;
#X connect 12 0 3 0;
#X restore 35 155 pd list map;
#X obj 36 180 list prepend 0;
#X obj 40 266 outlet;
#X connect 0 0 3 0;
#X connect 1 0 2 0;
#X connect 2 0 3 0;
#X connect 2 0 5 0;
#X connect 3 0 2 1;
#X connect 4 0 6 1;
#X connect 5 0 8 0;
#X connect 5 1 4 0;
#X connect 6 0 8 1;
#X connect 8 0 9 0;
#X connect 8 1 6 0;
#X connect 9 0 7 0;
#X connect 9 0 10 0;
#X restore 189 122 pd chromagram;
#X obj 213 6 loadbang;
#X msg 213 30 normalize 1;
#X obj 423 131 -;
#X obj 423 158 > 0.1;
#X obj 476 140 / 100;
#X obj 423 58 peakamp~ 20;
#X obj 423 180 change;
#X obj 423 202 sel 1 0;
#X obj 10 295 metro;
#X obj 11 254 change;
#X text 45 224 detect silence;
#X obj 10 388 > 1000;
#X obj 11 179 env~;
#X obj 11 223 < 45;
#X obj 739 16 declare -path ext-ernals;
#X obj 10 408 change;
#X text 607 517 send: ANA-inharmonic-send;
#X text 607 503 send: ANA-bang_detected;
#X text 607 489 send: ANA-silence-detected;
#X obj 959 231 send display-peak;
#X obj 138 327 tosymbol;
#X obj 159 374 send display-rms;
#X msg 138 349 label \$1_rms;
#X obj 714 259 >;
#X obj 714 319 i;
#X obj 714 233 t a a;
#X obj 714 341 tosymbol;
#X obj 714 289 sel 1;
#X msg 779 346 color 13 0;
#X msg 790 368 color 42 0;
#X obj 790 325 del 500;
#X msg 714 393 label \$1_TOP;
#X floatatom 476 161 5 0 0 0 - - -, f 5;
#X floatatom 517 76 5 0 0 0 - - -, f 5;
#X obj 438 86 pipe 20;
#X obj 763 194 tosymbol;
#X msg 763 215 label \$1_peak;
#X obj 11 8 r~ to_analysis;
#X obj 476 112 r \$1-att.Sens;
#X obj 572 119 cnv 10 10 10 empty empty empty 20 12 0 14 -258113 -66577
0;
#X obj 594 87 DSP-ON;
#X obj 687 103 switch~;
#X obj 594 60 r \$1-DSP;
#X obj 653 76 tgl 15 0 empty empty empty 17 7 0 10 -262144 -1 -1 1
1;
#X obj 45 148 r \$1-sil.th;
#X obj 43 367 r \$1-T4Sil;
#N canvas 874 410 869 504 inharmon 0;
#X obj 454 128 unpack 0 0 0 0 0 0 0 0 0 0 0 0;
#X obj 454 183 >;
#X obj 470 206 >;
#X obj 486 229 >;
#X obj 502 252 >;
#X obj 518 183 >;
#X obj 534 206 >;
#X obj 550 229 >;
#X obj 566 252 >;
#X obj 582 184 >;
#X obj 598 207 >;
#X obj 614 230 >;
#X obj 631 253 >;
#X obj 454 400 pack 0 0 0 0 0 0 0 0 0 0 0 0;
#X obj 454 425 list-accum;
#X obj 454 451 >;
#X obj 454 60 inlet chroma12;
#X obj 713 143 / 100;
#X obj 454 472 outlet;
#X obj 713 109 inlet;
#X obj 802 435 inlet;
#X obj 242 444 message-to-pd~ spect-chord \$1;
#X obj 242 465 stdout;
#X connect 0 0 1 0;
#X connect 0 1 2 0;
#X connect 0 2 3 0;
#X connect 0 3 4 0;
#X connect 0 4 5 0;
#X connect 0 5 6 0;
#X connect 0 6 7 0;
#X connect 0 7 8 0;
#X connect 0 8 9 0;
#X connect 0 9 10 0;
#X connect 0 10 11 0;
#X connect 0 11 12 0;
#X connect 1 0 13 0;
#X connect 2 0 13 1;
#X connect 3 0 13 2;
#X connect 4 0 13 3;
#X connect 5 0 13 4;
#X connect 6 0 13 5;
#X connect 7 0 13 6;
#X connect 8 0 13 7;
#X connect 9 0 13 8;
#X connect 10 0 13 9;
#X connect 11 0 13 10;
#X connect 12 0 13 11;
#X connect 13 0 14 0;
#X connect 13 0 21 0;
#X connect 14 0 15 0;
#X connect 15 0 18 0;
#X connect 16 0 0 0;
#X connect 17 0 1 1;
#X connect 17 0 5 1;
#X connect 17 0 9 1;
#X connect 17 0 10 1;
#X connect 17 0 11 1;
#X connect 17 0 12 1;
#X connect 17 0 6 1;
#X connect 17 0 7 1;
#X connect 17 0 8 1;
#X connect 17 0 2 1;
#X connect 17 0 3 1;
#X connect 17 0 4 1;
#X connect 19 0 17 0;
#X connect 20 0 15 1;
#X connect 21 0 22 0;
#X coords 0 504 1 503 140 30 0;
#X restore 171 177 pd inharmon;
#X obj 10 346 f;
#X obj 34 346 + 1;
#X obj 236 347 stdout;
#X obj 236 328 message-to-pd~ sig-in \$1;
#X obj 120 498 stdout;
#X obj 138 399 message-to-pd~ display-rms \$1;
#X obj 714 439 stdout;
#X obj 714 420 message-to-pd~ display-top \$1;
#X obj 763 254 stdout;
#X obj 763 235 message-to-pd~ display-peak \$1;
#X obj 10 444 message-to-pd~ silence-detected \$1;
#X obj 138 305 i;
#X obj 763 173 i;
#X obj 423 260 stdout;
#X msg 423 221 1;
#X obj 423 240 message-to-pd~ attack-detected \$1;
#X floatatom 51 172 5 0 0 0 - - -, f 5;
#X obj 763 151 * 10;
#X obj 293 143 cnv 10 10 10 empty empty empty 20 12 0 14 -258113 -66577
0;
#X obj 128 150 cnv 10 10 10 empty empty empty 20 12 0 14 -258113 -66577
0;
#X obj 374 422 cnv 20 20 20 empty empty empty 20 12 0 14 -257985 -66577
0;
#X obj 345 164 cnv 10 10 10 empty empty empty 20 12 0 14 -258113 -66577
0;
#X msg 171 217 label INHARM;
#X msg 254 217 label HARMON;
#X obj 171 236 message-to-pd~ display-inh/hrm \$1;
#X obj 120 106 message-to-pd~ chroma \$1;
#X obj 202 140 r \$1-amp-thr;
#X obj 234 159 r \$1-accum-thr;
#X obj 171 196 sel 1 0;
#X obj 236 271 > 1;
#X obj 236 309 speedlim 500;
#X obj 10 274 t a b;
#X obj 49 298 0;
#X obj 49 319 t a a;
#X obj 96 357 cnv 10 10 10 empty empty empty 20 12 0 14 -258113 -66577
0;
#X obj 250 424 s MASTER-SILENCE;
#X obj 504 217 send MASTER-ATTACK;
#X obj 634 215 cnv 20 20 20 empty empty empty 20 12 0 14 -257985 -66577
0;
#X obj 352 290 send MASTER-INHARMONIC;
#X obj 519 286 cnv 20 20 20 empty empty empty 20 12 0 14 -257985 -66577
0;
#N canvas 0 23 450 300 reset 0;
#X obj 115 91 0;
#X obj 115 128 outlet;
#X obj 115 69 sel 0;
#X obj 115 38 inlet;
#X connect 0 0 1 0;
#X connect 2 0 0 0;
#X connect 3 0 2 0;
#X restore 627 154 pd reset;
#X obj 451 385 list;
#X obj 451 362 metro 200;
#X floatatom 544 133 5 0 0 0 - - -, f 5;
#X floatatom 83 199 5 0 0 0 - - -, f 5;
#X connect 0 0 91 1;
#X connect 1 0 0 0;
#X connect 1 0 2 0;
#X connect 1 0 49 0;
#X connect 3 0 4 0;
#X connect 4 0 1 3;
#X connect 5 0 6 0;
#X connect 6 0 9 0;
#X connect 7 0 6 1;
#X connect 7 0 35 0;
#X connect 8 0 5 0;
#X connect 8 0 36 0;
#X connect 8 0 37 0;
#X connect 8 0 67 0;
#X connect 9 0 10 0;
#X connect 10 0 64 0;
#X connect 10 0 86 0;
#X connect 11 0 50 0;
#X connect 12 0 81 0;
#X connect 14 0 18 0;
#X connect 15 0 16 0;
#X connect 15 0 61 0;
#X connect 15 0 79 0;
#X connect 15 0 94 0;
#X connect 16 0 12 0;
#X connect 18 0 60 0;
#X connect 18 0 85 0;
#X connect 23 0 25 0;
#X connect 25 0 24 0;
#X connect 25 0 55 0;
#X connect 26 0 30 0;
#X connect 27 0 26 1;
#X connect 27 0 29 0;
#X connect 28 0 26 0;
#X connect 28 1 27 1;
#X connect 29 0 34 0;
#X connect 30 0 27 0;
#X connect 30 0 31 0;
#X connect 30 0 33 0;
#X connect 31 0 57 0;
#X connect 32 0 57 0;
#X connect 33 0 32 0;
#X connect 34 0 57 0;
#X connect 37 0 5 1;
#X connect 38 0 39 0;
#X connect 39 0 22 0;
#X connect 39 0 59 0;
#X connect 40 0 1 0;
#X connect 40 0 8 0;
#X connect 40 0 15 0;
#X connect 41 0 7 0;
#X connect 41 0 93 0;
#X connect 43 1 44 0;
#X connect 43 1 90 0;
#X connect 45 0 43 0;
#X connect 45 0 46 0;
#X connect 45 0 1 3;
#X connect 46 0 92 0;
#X connect 47 0 16 1;
#X connect 47 0 66 0;
#X connect 48 0 14 1;
#X connect 49 0 78 0;
#X connect 49 0 88 0;
#X connect 50 0 51 0;
#X connect 50 0 14 0;
#X connect 51 0 50 1;
#X connect 53 0 52 0;
#X connect 53 0 54 0;
#X connect 55 0 54 0;
#X connect 57 0 56 0;
#X connect 59 0 58 0;
#X connect 60 0 54 0;
#X connect 61 0 23 0;
#X connect 62 0 38 0;
#X connect 62 0 28 0;
#X connect 64 0 65 0;
#X connect 65 0 63 0;
#X connect 67 0 62 0;
#X connect 72 0 74 0;
#X connect 73 0 74 0;
#X connect 74 0 63 0;
#X connect 75 0 54 0;
#X connect 76 0 49 1;
#X connect 77 0 49 2;
#X connect 78 0 72 0;
#X connect 78 1 73 0;
#X connect 79 0 80 0;
#X connect 80 0 53 0;
#X connect 81 0 11 0;
#X connect 81 1 82 0;
#X connect 82 0 83 0;
#X connect 83 0 50 0;
#X connect 83 1 50 1;
#X connect 90 0 28 0;
#X connect 90 0 26 1;
#X connect 90 0 29 0;
#X connect 90 0 23 0;
#X connect 91 0 75 0;
#X connect 92 0 91 0;
#X coords 0 567 1 566 350 223 0;
