#N canvas 100 87 1276 872 10;
#X declare -path RSVP;
#X declare -path ../sys.comunication;
#X obj 374 32 declare -path RSVP;
#X obj 283 12 declare -path ../sys.comunication;
#N canvas 1922 314 450 300 blinker 0;
#X obj 49 68 sel 0 1;
#X obj 49 48 speedlim 500;
#X obj 10 6 loadbang;
#X obj 49 27 return-from-pd~ \$1-\$2-sig-in;
#X obj 49 100 symbol \$2;
#X obj 129 97 symbol \$2;
#X obj 245 27 tgl 15 0 empty empty empty 17 7 0 10 -262144 -1 -1 0
1;
#X text 27 244 blinks the border green when signal enters the instrument
;
#X msg 49 136 \; \$1-canvas color 12 12 12;
#X msg 129 177 \; \$1-canvas color 16 12 12;
#X connect 0 0 4 0;
#X connect 0 1 5 0;
#X connect 1 0 0 0;
#X connect 2 0 4 0;
#X connect 3 0 1 0;
#X connect 4 0 8 0;
#X connect 5 0 9 0;
#X connect 6 0 0 0;
#X restore 422 58 pd blinker;
#N canvas 54 96 450 391 tag 0;
#X obj 131 252 list prepend color;
#X obj 131 280 route list;
#X obj 84 65 \$4;
#X obj 85 87 sel 1 2 3 4 5 6 7 8;
#X obj 84 42 loadbang;
#X obj 131 309 s \$1.\$2.\$3.\$4.color-tag;
#X msg 85 111 13 0 0;
#X msg 98 135 14 0 2;
#X msg 112 159 15 0 2;
#X msg 126 181 16 0 0;
#X msg 140 115 17 0 12;
#X msg 154 137 18 0 0;
#X msg 168 163 19 0 0;
#X msg 182 188 0 0 12;
#X connect 0 0 1 0;
#X connect 1 0 5 0;
#X connect 2 0 3 0;
#X connect 3 0 6 0;
#X connect 3 1 7 0;
#X connect 3 2 8 0;
#X connect 3 3 9 0;
#X connect 3 4 10 0;
#X connect 3 5 11 0;
#X connect 3 6 12 0;
#X connect 3 7 13 0;
#X connect 4 0 2 0;
#X connect 6 0 0 0;
#X connect 7 0 0 0;
#X connect 8 0 0 0;
#X connect 9 0 0 0;
#X connect 10 0 0 0;
#X connect 11 0 0 0;
#X connect 12 0 0 0;
#X connect 13 0 0 0;
#X restore 422 78 pd tag;
#X obj 100 100 cnv 15 290 200 empty \$2-canvas empty 20 12 0 14 -33289
-33289 0;
#X obj 105 105 cnv 15 280 190 empty empty empty 8 11 0 14 -233017 -66577
0;
#X obj 612 811 s to_pd~_subprocess;
#X obj 612 739 message-to-pd~ DSP \$1-\$2;
#X obj 631 765 message-to-pd~ ROOMSIZE \$1-\$2;
#X obj 328 109 cnv 5 32 9 empty empty ON/OFF 2 5 0 8 -1 -262144 0;
#X obj 364 109 ./customGUI/tgl-but_pre DSP 0;
#X obj 111 114 cnv 5 80 15 empty \$1.\$2.\$3.\$4.color-tag \$2->\$3.\$4
4 8 0 10 -258699 -262144 0;
#X obj 106 152 nbx_pre \$1-\$2 L pitch-1;
#X obj 112 792 message-to-pd~ voice.control \$1-\$2;
#X obj 106 172 nbx_pre \$1-\$2 L pitch-2;
#N canvas 234 727 200 196 pitch-voice1 0;
#X obj 20 20 inlet;
#X obj 20 166 outlet;
#X obj 30 60 t b b a;
#X obj 30 106 pack f s f;
#X obj 58 82 symbol pitch;
#X obj 30 82 0;
#X connect 0 0 2 0;
#X connect 2 0 5 0;
#X connect 2 1 4 0;
#X connect 2 2 3 2;
#X connect 3 0 1 0;
#X connect 4 0 3 1;
#X connect 5 0 3 0;
#X restore 17 462 pd pitch-voice1;
#N canvas 257 806 200 196 pitch-voice2 0;
#X obj 20 20 inlet;
#X obj 20 166 outlet;
#X obj 30 60 t b b a;
#X obj 30 106 pack f s f;
#X obj 58 82 symbol pitch;
#X obj 30 82 1;
#X connect 0 0 2 0;
#X connect 2 0 5 0;
#X connect 2 1 4 0;
#X connect 2 2 3 2;
#X connect 3 0 1 0;
#X connect 4 0 3 1;
#X connect 5 0 3 0;
#X restore 27 483 pd pitch-voice2;
#N canvas 257 836 200 196 pitch-voice3 0;
#X obj 20 20 inlet;
#X obj 20 166 outlet;
#X obj 30 60 t b b a;
#X obj 30 106 pack f s f;
#X obj 58 82 symbol pitch;
#X obj 30 82 2;
#X connect 0 0 2 0;
#X connect 2 0 5 0;
#X connect 2 1 4 0;
#X connect 2 2 3 2;
#X connect 3 0 1 0;
#X connect 4 0 3 1;
#X connect 5 0 3 0;
#X restore 40 504 pd pitch-voice3;
#X obj 106 192 nbx_pre \$1-\$2 L pitch-3;
#N canvas 257 866 200 196 pitch-voice4 0;
#X obj 20 20 inlet;
#X obj 20 166 outlet;
#X obj 30 60 t b b a;
#X obj 30 106 pack f s f;
#X obj 58 82 symbol pitch;
#X obj 30 82 3;
#X connect 0 0 2 0;
#X connect 2 0 5 0;
#X connect 2 1 4 0;
#X connect 2 2 3 2;
#X connect 3 0 1 0;
#X connect 4 0 3 1;
#X connect 5 0 3 0;
#X restore 53 524 pd pitch-voice4;
#N canvas 257 882 200 196 pitch-voice5 0;
#X obj 20 20 inlet;
#X obj 20 166 outlet;
#X obj 30 60 t b b a;
#X obj 30 106 pack f s f;
#X obj 58 82 symbol pitch;
#X obj 30 82 4;
#X connect 0 0 2 0;
#X connect 2 0 5 0;
#X connect 2 1 4 0;
#X connect 2 2 3 2;
#X connect 3 0 1 0;
#X connect 4 0 3 1;
#X connect 5 0 3 0;
#X restore 66 545 pd pitch-voice5;
#X obj 106 212 nbx_pre \$1-\$2 L pitch-4;
#X obj 106 232 nbx_pre \$1-\$2 L pitch-5;
#N canvas 234 787 200 196 lloop-voice1 0;
#X obj 20 20 inlet;
#X obj 20 166 outlet;
#X obj 30 60 t b b a;
#X obj 30 106 pack f s f;
#X obj 30 82 0;
#X obj 58 82 symbol loop.length;
#X connect 0 0 2 0;
#X connect 2 0 4 0;
#X connect 2 1 5 0;
#X connect 2 2 3 2;
#X connect 3 0 1 0;
#X connect 4 0 3 0;
#X connect 5 0 3 1;
#X restore 162 458 pd lloop-voice1;
#N canvas 257 866 200 196 lloop-voice2 0;
#X obj 20 20 inlet;
#X obj 20 166 outlet;
#X obj 30 60 t b b a;
#X obj 30 106 pack f s f;
#X obj 30 82 1;
#X obj 58 82 symbol loop.length;
#X connect 0 0 2 0;
#X connect 2 0 4 0;
#X connect 2 1 5 0;
#X connect 2 2 3 2;
#X connect 3 0 1 0;
#X connect 4 0 3 0;
#X connect 5 0 3 1;
#X restore 172 479 pd lloop-voice2;
#N canvas 257 882 200 196 lloop-voice3 0;
#X obj 20 20 inlet;
#X obj 20 166 outlet;
#X obj 30 60 t b b a;
#X obj 30 106 pack f s f;
#X obj 30 82 2;
#X obj 58 82 symbol loop.length;
#X connect 0 0 2 0;
#X connect 2 0 4 0;
#X connect 2 1 5 0;
#X connect 2 2 3 2;
#X connect 3 0 1 0;
#X connect 4 0 3 0;
#X connect 5 0 3 1;
#X restore 185 500 pd lloop-voice3;
#N canvas 257 882 200 196 lloop-voice4 0;
#X obj 20 20 inlet;
#X obj 20 166 outlet;
#X obj 30 60 t b b a;
#X obj 30 106 pack f s f;
#X obj 30 82 3;
#X obj 58 82 symbol loop.length;
#X connect 0 0 2 0;
#X connect 2 0 4 0;
#X connect 2 1 5 0;
#X connect 2 2 3 2;
#X connect 3 0 1 0;
#X connect 4 0 3 0;
#X connect 5 0 3 1;
#X restore 198 520 pd lloop-voice4;
#N canvas 257 882 200 196 lloop-voice5 0;
#X obj 20 20 inlet;
#X obj 20 166 outlet;
#X obj 30 60 t b b a;
#X obj 30 106 pack f s f;
#X obj 30 82 4;
#X obj 58 82 symbol loop.length;
#X connect 0 0 2 0;
#X connect 2 0 4 0;
#X connect 2 1 5 0;
#X connect 2 2 3 2;
#X connect 3 0 1 0;
#X connect 4 0 3 0;
#X connect 5 0 3 1;
#X restore 211 541 pd lloop-voice5;
#N canvas 234 877 200 196 nlen-voice1 0;
#X obj 20 20 inlet;
#X obj 20 166 outlet;
#X obj 30 60 t b b a;
#X obj 30 106 pack f s f;
#X obj 30 82 0;
#X obj 58 82 symbol note.length;
#X connect 0 0 2 0;
#X connect 2 0 4 0;
#X connect 2 1 5 0;
#X connect 2 2 3 2;
#X connect 3 0 1 0;
#X connect 4 0 3 0;
#X connect 5 0 3 1;
#X restore 296 456 pd nlen-voice1;
#N canvas 257 882 200 196 nlen-voice2 0;
#X obj 20 20 inlet;
#X obj 20 166 outlet;
#X obj 30 60 t b b a;
#X obj 30 106 pack f s f;
#X obj 30 82 1;
#X obj 58 82 symbol note.length;
#X connect 0 0 2 0;
#X connect 2 0 4 0;
#X connect 2 1 5 0;
#X connect 2 2 3 2;
#X connect 3 0 1 0;
#X connect 4 0 3 0;
#X connect 5 0 3 1;
#X restore 305 478 pd nlen-voice2;
#N canvas 257 882 200 196 nlen-voice3 0;
#X obj 20 20 inlet;
#X obj 20 166 outlet;
#X obj 30 60 t b b a;
#X obj 30 106 pack f s f;
#X obj 30 82 2;
#X obj 58 82 symbol note.length;
#X connect 0 0 2 0;
#X connect 2 0 4 0;
#X connect 2 1 5 0;
#X connect 2 2 3 2;
#X connect 3 0 1 0;
#X connect 4 0 3 0;
#X connect 5 0 3 1;
#X restore 319 498 pd nlen-voice3;
#N canvas 257 882 200 196 nlen-voice4 0;
#X obj 20 20 inlet;
#X obj 20 166 outlet;
#X obj 30 60 t b b a;
#X obj 30 106 pack f s f;
#X obj 30 82 3;
#X obj 58 82 symbol note.length;
#X connect 0 0 2 0;
#X connect 2 0 4 0;
#X connect 2 1 5 0;
#X connect 2 2 3 2;
#X connect 3 0 1 0;
#X connect 4 0 3 0;
#X connect 5 0 3 1;
#X restore 332 518 pd nlen-voice4;
#N canvas 257 882 200 196 nlen-voice5 0;
#X obj 20 20 inlet;
#X obj 20 166 outlet;
#X obj 30 60 t b b a;
#X obj 30 106 pack f s f;
#X obj 30 82 4;
#X obj 58 82 symbol note.length;
#X connect 0 0 2 0;
#X connect 2 0 4 0;
#X connect 2 1 5 0;
#X connect 2 2 3 2;
#X connect 3 0 1 0;
#X connect 4 0 3 0;
#X connect 5 0 3 1;
#X restore 345 539 pd nlen-voice5;
#X msg 490 133 nbx_pre \$1-\$2 L lloop-1;
#X obj 164 152 nbx_pre \$1-\$2 L lloop-1;
#X obj 164 172 nbx_pre \$1-\$2 L lloop-2;
#X obj 164 192 nbx_pre \$1-\$2 L lloop-3;
#X obj 164 212 nbx_pre \$1-\$2 L lloop-4;
#X obj 164 232 nbx_pre \$1-\$2 L lloop-5;
#X msg 512 179 nbx_pre \$1-\$2 L nlen-1;
#X obj 222 152 nbx_pre \$1-\$2 L nlen-1;
#X obj 222 172 nbx_pre \$1-\$2 L nlen-2;
#X obj 222 192 nbx_pre \$1-\$2 L nlen-3;
#X obj 222 212 nbx_pre \$1-\$2 L nlen-1;
#X obj 222 232 nbx_pre \$1-\$2 L nlen-4;
#X obj 109 256 LP.manager \$1 BENO prst;
#N canvas 234 882 200 196 asnd-voice1 0;
#X obj 20 20 inlet;
#X obj 20 166 outlet;
#X obj 30 60 t b b a;
#X obj 30 106 pack f s f;
#X obj 30 82 0;
#X obj 58 82 symbol active.send;
#X connect 0 0 2 0;
#X connect 2 0 4 0;
#X connect 2 1 5 0;
#X connect 2 2 3 2;
#X connect 3 0 1 0;
#X connect 4 0 3 0;
#X connect 5 0 3 1;
#X restore 226 616 pd asnd-voice1;
#N canvas 257 882 200 196 asnd-voice2 0;
#X obj 20 20 inlet;
#X obj 20 166 outlet;
#X obj 30 60 t b b a;
#X obj 30 106 pack f s f;
#X obj 30 82 1;
#X obj 58 82 symbol active.send;
#X connect 0 0 2 0;
#X connect 2 0 4 0;
#X connect 2 1 5 0;
#X connect 2 2 3 2;
#X connect 3 0 1 0;
#X connect 4 0 3 0;
#X connect 5 0 3 1;
#X restore 235 638 pd asnd-voice2;
#N canvas 257 882 200 196 asnd-voice3 0;
#X obj 20 20 inlet;
#X obj 20 166 outlet;
#X obj 30 60 t b b a;
#X obj 30 106 pack f s f;
#X obj 30 82 2;
#X obj 58 82 symbol active.send;
#X connect 0 0 2 0;
#X connect 2 0 4 0;
#X connect 2 1 5 0;
#X connect 2 2 3 2;
#X connect 3 0 1 0;
#X connect 4 0 3 0;
#X connect 5 0 3 1;
#X restore 249 658 pd asnd-voice3;
#N canvas 257 882 200 196 asnd-voice4 0;
#X obj 20 20 inlet;
#X obj 20 166 outlet;
#X obj 30 60 t b b a;
#X obj 30 106 pack f s f;
#X obj 30 82 3;
#X obj 58 82 symbol active.send;
#X connect 0 0 2 0;
#X connect 2 0 4 0;
#X connect 2 1 5 0;
#X connect 2 2 3 2;
#X connect 3 0 1 0;
#X connect 4 0 3 0;
#X connect 5 0 3 1;
#X restore 262 678 pd asnd-voice4;
#N canvas 257 882 200 196 asnd-voice5 0;
#X obj 20 20 inlet;
#X obj 20 166 outlet;
#X obj 30 60 t b b a;
#X obj 30 106 pack f s f;
#X obj 30 82 4;
#X obj 58 82 symbol active.send;
#X connect 0 0 2 0;
#X connect 2 0 4 0;
#X connect 2 1 5 0;
#X connect 2 2 3 2;
#X connect 3 0 1 0;
#X connect 4 0 3 0;
#X connect 5 0 3 1;
#X restore 275 699 pd asnd-voice5;
#X obj 281 152 tgl_pre \$1-\$2 L active.send-1;
#X obj 281 172 tgl_pre \$1-\$2 L active.send-2;
#X obj 281 192 tgl_pre \$1-\$2 L active.send-3;
#X obj 281 212 tgl_pre \$1-\$2 L active.send-4;
#X obj 281 232 tgl_pre \$1-\$2 L active.send-5;
#X obj 598 376 message-to-pd~ fbm-in.gain \$1-\$2;
#X obj 608 406 message-to-pd~ fbm-delt \$1-\$2;
#X obj 626 439 message-to-pd~ fbm-fdbk \$1-\$2;
#X obj 641 471 message-to-pd~ fbm-vol \$1-\$2;
#X obj 300 155 cnv 10 25 10 empty \$0-label snd1 3 5 0 8 -1 -4032 0
;
#X obj 300 175 cnv 10 25 10 empty \$0-label snd2 3 5 0 8 -1 -4032 0
;
#X obj 300 195 cnv 10 25 10 empty \$0-label snd3 3 5 0 8 -1 -4032 0
;
#X obj 300 215 cnv 10 25 10 empty \$0-label snd4 3 5 0 8 -1 -4032 0
;
#X obj 300 235 cnv 10 25 10 empty \$0-label snd5 3 5 0 8 -1 -4032 0
;
#X obj 659 612 message-to-pd~ fbm-WET-DRY \$1-\$2;
#X obj 221 128 hsl_pre \$1-\$2 L wet-dry;
#X obj 222 255 hsl_pre \$1-\$2 L fbm.delt;
#X obj 357 135 cnv 10 25 10 empty \$0-label wet 3 5 0 8 -1 -4032 0
;
#X obj 195 135 cnv 10 25 10 empty \$0-label dry 3 5 0 8 -1 -4032 0
;
#X obj 357 262 cnv 10 25 10 empty \$0-label delt 3 5 0 8 -1 -4032 0
;
#X obj 222 275 hsl_pre \$1-\$2 L fbm.fdbk;
#X obj 357 282 cnv 10 25 10 empty \$0-label fdbk 3 5 0 8 -1 -4032 0
;
#X obj 328 177 nbx_pre \$1-\$2 L fbm-in.gain;
#X obj 344 165 cnv 10 40 10 empty \$0-label in.gain 3 5 0 8 -1 -4032
0;
#X obj 328 222 nbx_pre \$1-\$2 L fbm-vol;
#X obj 339 210 cnv 10 45 10 empty \$0-label efct.vol 3 5 0 8 -1 -4032
0;
#X obj 535 253 bng 15 250 50 0 empty empty empty 17 7 0 10 -262144
-1 -1;
#X obj 574 245 loadbang;
#X obj 574 267 audio-module-creator modules/zBENO~ \$1 \$2 \$3 \$4
;
#X connect 7 0 6 0;
#X connect 8 0 6 0;
#X connect 10 0 7 0;
#X connect 12 0 15 0;
#X connect 13 0 6 0;
#X connect 14 0 16 0;
#X connect 15 0 13 0;
#X connect 16 0 13 0;
#X connect 17 0 13 0;
#X connect 18 0 17 0;
#X connect 19 0 13 0;
#X connect 20 0 13 0;
#X connect 21 0 19 0;
#X connect 22 0 20 0;
#X connect 23 0 13 0;
#X connect 24 0 13 0;
#X connect 25 0 13 0;
#X connect 26 0 13 0;
#X connect 27 0 13 0;
#X connect 28 0 13 0;
#X connect 29 0 13 0;
#X connect 30 0 13 0;
#X connect 31 0 13 0;
#X connect 32 0 13 0;
#X connect 34 0 23 0;
#X connect 35 0 24 0;
#X connect 36 0 25 0;
#X connect 37 0 26 0;
#X connect 38 0 27 0;
#X connect 40 0 28 0;
#X connect 41 0 29 0;
#X connect 42 0 30 0;
#X connect 43 0 31 0;
#X connect 44 0 32 0;
#X connect 46 0 13 0;
#X connect 47 0 13 0;
#X connect 48 0 13 0;
#X connect 49 0 13 0;
#X connect 50 0 13 0;
#X connect 51 0 46 0;
#X connect 52 0 47 0;
#X connect 53 0 48 0;
#X connect 54 0 49 0;
#X connect 55 0 50 0;
#X connect 56 0 6 0;
#X connect 57 0 6 0;
#X connect 58 0 6 0;
#X connect 59 0 6 0;
#X connect 65 0 6 0;
#X connect 66 0 65 0;
#X connect 67 0 57 0;
#X connect 71 0 58 0;
#X connect 73 0 56 0;
#X connect 75 0 59 0;
#X connect 77 0 79 0;
#X connect 78 0 79 0;
#X coords 0 -1 1 1 290 200 1 100 100;
