#N canvas 2335 92 818 626 10;
#X obj 15 38 env~, f 5;
#X obj 15 123 stdout;
#X obj 15 58 > 0;
#X obj 15 77 change;
#X obj 15 99 message-to-pd~ sig-in \$1-\$2;
#X obj 15 13 catch~ to_\$3-\$4;
#X obj 260 592 throw~ 2master_L;
#X obj 260 563 *~;
#X obj 391 565 *~;
#X obj 664 91 switch~;
#X obj 631 63 DSP-ON;
#X obj 302 526 r~ \$0-DSP-on_off;
#X obj 260 444 *~;
#X obj 405 444 *~;
#X obj 308 416 line~;
#X obj 614 538 line~;
#X obj 391 591 throw~ 2master_R;
#X obj 308 371 * 1.5;
#X obj 631 113 s~ \$0-DSP-on_off;
#X obj 674 65 tgl 15 0 empty empty empty 17 7 0 10 -262144 -1 -1 1
1;
#X obj 308 394 pack f 20;
#X obj 614 516 pack f 20;
#X obj 599 562 *~;
#X obj 598 448 /~ 1;
#X obj 105 550 /~ 2;
#X floatatom 683 531 5 0 0 0 - - -;
#X floatatom 347 371 5 0 0 0 - - -;
#X obj 631 31 r \$1-\$2-DSP;
#X obj 614 491 r send-\$1-\$2-send;
#X obj 308 350 r vol-\$1-\$2-send;
#X msg 29 521 set \$1;
#X obj 29 451 loadbang;
#X obj 29 472 i \$4;
#X obj 29 497 + 4;
#X obj 598 588 throw~ from_\$3-\$4;
#X text 647 444 to send;
#X text 297 447 to master;
#X text 28 591 for vumeter;
#X obj 260 142 clone beno-voice 5;
#X obj 365 22 r \$1-\$2-voice.control;
#X obj 260 24 r \$1-\$2-DSP;
#X msg 260 56 all \$1;
#X obj 663 146 r \$1-\$2-fbm-in.gain;
#X obj 663 166 r \$1-\$2-fbm-delt;
#X obj 663 186 r \$1-\$2-fbm-fdbk;
#X obj 663 206 r \$1-\$2-fbm-vol;
#N canvas 2041 134 871 572 feedback-modulation 0;
#X obj 130 156 delwrite~ \$0-buffer-L 1000;
#X obj 419 5 r \$1-\$2-fbm-in.gain;
#X obj 421 73 r \$1-\$2-fbm-delt;
#X obj 427 193 r \$1-\$2-fbm-fdbk;
#X obj 348 292 r \$1-\$2-fbm-vol;
#X obj 130 94 *~;
#X obj 56 15 inlet~;
#X obj 179 54 pack f 20;
#X obj 179 77 line~;
#X obj 240 208 pack f 20;
#X obj 240 231 line~;
#X obj 240 301 *~;
#X obj 427 238 pack f 20;
#X obj 427 261 line~;
#X obj 240 253 delread4~ \$0-buffer-L;
#X obj 57 395 *~;
#X obj 348 336 pack f 20;
#X obj 348 359 line~;
#X obj 57 538 outlet~;
#X obj 604 117 *~;
#X obj 719 26 inlet~;
#X obj 603 63 pack f 20;
#X obj 603 86 line~;
#X obj 661 230 pack f 20;
#X obj 661 253 line~;
#X obj 635 314 *~;
#X obj 704 413 *~;
#X obj 703 538 outlet~;
#X obj 605 149 delwrite~ \$0-buffer-R 1000;
#X obj 661 287 delread4~ \$0-buffer-R;
#X obj 421 95 / 127;
#X obj 421 118 * 990;
#X obj 421 141 + 10;
#X obj 427 216 / 127;
#X obj 419 28 / 100;
#X obj 348 315 / 100;
#X obj 240 184 + 1;
#X obj 57 434 hip~ 50;
#X obj 57 455 hip~ 50;
#X obj 702 454 hip~ 50;
#X obj 702 475 hip~ 50;
#X connect 1 0 34 0;
#X connect 2 0 30 0;
#X connect 3 0 33 0;
#X connect 4 0 35 0;
#X connect 5 0 0 0;
#X connect 6 0 5 0;
#X connect 6 0 15 0;
#X connect 7 0 8 0;
#X connect 8 0 5 1;
#X connect 9 0 10 0;
#X connect 10 0 14 0;
#X connect 11 0 15 0;
#X connect 11 0 0 0;
#X connect 12 0 13 0;
#X connect 13 0 11 1;
#X connect 13 0 25 0;
#X connect 14 0 11 0;
#X connect 15 0 37 0;
#X connect 16 0 17 0;
#X connect 17 0 15 1;
#X connect 17 0 26 0;
#X connect 19 0 28 0;
#X connect 20 0 19 1;
#X connect 20 0 26 1;
#X connect 21 0 22 0;
#X connect 22 0 19 0;
#X connect 23 0 24 0;
#X connect 24 0 29 0;
#X connect 25 0 26 1;
#X connect 25 0 28 0;
#X connect 26 0 39 0;
#X connect 29 0 25 1;
#X connect 30 0 31 0;
#X connect 31 0 32 0;
#X connect 32 0 23 0;
#X connect 32 0 36 0;
#X connect 33 0 12 0;
#X connect 34 0 7 0;
#X connect 34 0 21 0;
#X connect 35 0 16 0;
#X connect 36 0 9 0;
#X connect 37 0 38 0;
#X connect 38 0 18 0;
#X connect 39 0 40 0;
#X connect 40 0 27 0;
#X restore 308 256 pd feedback-modulation;
#N canvas 692 506 1122 300 ___wet-dry___ 0;
#X obj 54 3 inlet~;
#X obj 55 190 *~;
#X obj 71 140 pack f 20;
#X obj 71 161 line~;
#X obj 323 128 *~;
#X obj 339 70 pack f 20;
#X obj 339 93 line~;
#X obj 198 13 r \$1-\$2-fbm-WET-DRY;
#X obj 71 95 -;
#X obj 71 51 t b a;
#X obj 339 47 / 127;
#X obj 71 72 127;
#X obj 71 118 / 127;
#X floatatom 142 136 5 0 0 0 - - -;
#X obj 560 3 inlet~;
#X obj 561 190 *~;
#X obj 577 140 pack f 20;
#X obj 577 161 line~;
#X obj 829 128 *~;
#X obj 845 70 pack f 20;
#X obj 845 93 line~;
#X obj 704 13 r \$1-\$2-fbm-WET-DRY;
#X obj 577 95 -;
#X obj 577 51 t b a;
#X obj 845 47 / 127;
#X obj 577 72 127;
#X obj 577 118 / 127;
#X floatatom 648 136 5 0 0 0 - - -;
#X obj 55 213 outlet~;
#X obj 561 223 outlet~;
#X obj 322 213 outlet~;
#X obj 828 223 outlet~;
#X obj 125 243 env~;
#X floatatom 125 266 5 0 0 0 - - -;
#X obj 272 249 env~;
#X floatatom 272 272 5 0 0 0 - - -;
#X obj 513 237 env~;
#X floatatom 513 260 5 0 0 0 - - -;
#X obj 778 228 env~;
#X floatatom 778 251 5 0 0 0 - - -;
#X connect 0 0 1 0;
#X connect 0 0 4 0;
#X connect 1 0 28 0;
#X connect 1 0 32 0;
#X connect 2 0 3 0;
#X connect 3 0 1 1;
#X connect 4 0 30 0;
#X connect 4 0 34 0;
#X connect 5 0 6 0;
#X connect 6 0 4 1;
#X connect 7 0 10 0;
#X connect 7 0 9 0;
#X connect 8 0 12 0;
#X connect 9 0 11 0;
#X connect 9 1 8 1;
#X connect 10 0 5 0;
#X connect 11 0 8 0;
#X connect 12 0 2 0;
#X connect 12 0 13 0;
#X connect 14 0 15 0;
#X connect 14 0 18 0;
#X connect 15 0 29 0;
#X connect 15 0 36 0;
#X connect 16 0 17 0;
#X connect 17 0 15 1;
#X connect 18 0 31 0;
#X connect 18 0 38 0;
#X connect 19 0 20 0;
#X connect 20 0 18 1;
#X connect 21 0 24 0;
#X connect 21 0 23 0;
#X connect 22 0 26 0;
#X connect 23 0 25 0;
#X connect 23 1 22 1;
#X connect 24 0 19 0;
#X connect 25 0 22 0;
#X connect 26 0 16 0;
#X connect 26 0 27 0;
#X connect 32 0 33 0;
#X connect 34 0 35 0;
#X connect 36 0 37 0;
#X connect 38 0 39 0;
#X restore 261 198 pd ___wet-dry___;
#X obj 482 82 r \$1-\$2-fbm-WET-DRY;
#X floatatom 482 105 5 0 0 0 - - -;
#N canvas 684 307 871 503 feedback-modulation 0;
#X obj 419 5 r \$1-\$2-fbm-in.gain;
#X obj 421 73 r \$1-\$2-fbm-delt;
#X obj 427 193 r \$1-\$2-fbm-fdbk;
#X obj 348 292 r \$1-\$2-fbm-vol;
#X obj 130 94 *~;
#X obj 56 15 inlet~;
#X obj 179 54 pack f 20;
#X obj 179 77 line~;
#X obj 240 208 pack f 20;
#X obj 240 231 line~;
#X obj 240 301 *~;
#X obj 427 238 pack f 20;
#X obj 427 261 line~;
#X obj 57 395 *~;
#X obj 348 336 pack f 20;
#X obj 348 359 line~;
#X obj 62 471 outlet~;
#X obj 421 95 / 127;
#X obj 421 118 * 990;
#X obj 421 141 + 10;
#X obj 427 216 / 127;
#X obj 419 28 / 100;
#X obj 348 315 / 100;
#X floatatom 419 51 5 0 0 0 - - -;
#X floatatom 421 164 5 0 0 0 - - -;
#X floatatom 508 243 5 0 0 0 - - -;
#X obj 240 184 + 1;
#X obj 243 335 env~;
#X floatatom 243 358 5 0 0 0 - - -;
#X obj 149 428 env~;
#X floatatom 149 451 5 0 0 0 - - -;
#X obj 130 156 delwrite~ \$0-buffer-snd 1000;
#X obj 240 253 delread4~ \$0-buffer-snd;
#X obj 58 429 hip~ 50;
#X obj 58 450 hip~ 50;
#X connect 0 0 21 0;
#X connect 1 0 17 0;
#X connect 2 0 20 0;
#X connect 3 0 22 0;
#X connect 4 0 31 0;
#X connect 5 0 4 0;
#X connect 5 0 13 0;
#X connect 6 0 7 0;
#X connect 7 0 4 1;
#X connect 8 0 9 0;
#X connect 9 0 32 0;
#X connect 10 0 13 0;
#X connect 10 0 27 0;
#X connect 10 0 31 0;
#X connect 11 0 12 0;
#X connect 12 0 10 1;
#X connect 13 0 29 0;
#X connect 13 0 33 0;
#X connect 14 0 15 0;
#X connect 15 0 13 1;
#X connect 17 0 18 0;
#X connect 18 0 19 0;
#X connect 19 0 24 0;
#X connect 19 0 26 0;
#X connect 20 0 11 0;
#X connect 20 0 25 0;
#X connect 21 0 6 0;
#X connect 21 0 23 0;
#X connect 22 0 14 0;
#X connect 26 0 8 0;
#X connect 27 0 28 0;
#X connect 29 0 30 0;
#X connect 32 0 10 0;
#X connect 33 0 34 0;
#X connect 34 0 16 0;
#X restore 612 304 pd feedback-modulation;
#N canvas 692 506 1122 300 ___wet-dry___ 0;
#X obj 54 3 inlet~;
#X obj 55 190 *~;
#X obj 71 140 pack f 20;
#X obj 71 161 line~;
#X obj 323 128 *~;
#X obj 339 70 pack f 20;
#X obj 339 93 line~;
#X obj 198 13 r \$1-\$2-fbm-WET-DRY;
#X obj 71 95 -;
#X obj 71 51 t b a;
#X obj 71 72 127;
#X obj 71 118 / 127;
#X floatatom 142 136 5 0 0 0 - - -;
#X obj 55 213 outlet~;
#X obj 322 213 outlet~;
#X obj 125 243 env~;
#X floatatom 125 266 5 0 0 0 - - -;
#X obj 272 249 env~;
#X floatatom 272 272 5 0 0 0 - - -;
#X obj 339 47 / 150;
#X connect 0 0 1 0;
#X connect 0 0 4 0;
#X connect 1 0 13 0;
#X connect 1 0 15 0;
#X connect 2 0 3 0;
#X connect 3 0 1 1;
#X connect 4 0 14 0;
#X connect 4 0 17 0;
#X connect 5 0 6 0;
#X connect 6 0 4 1;
#X connect 7 0 9 0;
#X connect 7 0 19 0;
#X connect 8 0 11 0;
#X connect 9 0 10 0;
#X connect 9 1 8 1;
#X connect 10 0 8 0;
#X connect 11 0 2 0;
#X connect 11 0 12 0;
#X connect 15 0 16 0;
#X connect 17 0 18 0;
#X connect 19 0 5 0;
#X restore 519 257 pd ___wet-dry___;
#X obj 104 589 dac~ \$4;
#X obj 43 406 iemguts/initbang;
#X connect 0 0 2 0;
#X connect 2 0 3 0;
#X connect 3 0 4 0;
#X connect 4 0 1 0;
#X connect 5 0 0 0;
#X connect 7 0 6 0;
#X connect 8 0 16 0;
#X connect 10 0 18 0;
#X connect 10 1 9 0;
#X connect 11 0 7 1;
#X connect 11 0 8 0;
#X connect 12 0 7 0;
#X connect 12 0 24 0;
#X connect 13 0 8 1;
#X connect 13 0 24 0;
#X connect 14 0 12 1;
#X connect 14 0 13 0;
#X connect 15 0 22 1;
#X connect 17 0 20 0;
#X connect 20 0 14 0;
#X connect 21 0 15 0;
#X connect 22 0 34 0;
#X connect 23 0 22 0;
#X connect 24 0 52 0;
#X connect 27 0 10 0;
#X connect 27 0 19 0;
#X connect 28 0 21 0;
#X connect 28 0 25 0;
#X connect 29 0 17 0;
#X connect 29 0 26 0;
#X connect 30 0 52 0;
#X connect 31 0 32 0;
#X connect 32 0 33 0;
#X connect 33 0 30 0;
#X connect 38 0 47 0;
#X connect 38 1 47 1;
#X connect 38 2 51 0;
#X connect 39 0 38 1;
#X connect 40 0 41 0;
#X connect 41 0 38 0;
#X connect 46 0 12 0;
#X connect 46 1 13 1;
#X connect 47 0 12 0;
#X connect 47 1 46 0;
#X connect 47 2 13 1;
#X connect 47 3 46 1;
#X connect 48 0 49 0;
#X connect 50 0 23 0;
#X connect 51 0 23 0;
#X connect 51 1 50 0;
#X connect 53 0 32 0;
