#N canvas 790 547 654 561 10;
#X obj 186 39 r~ to_bank;
#X obj 186 205 vcf~;
#X obj 271 206 vcf~;
#X obj 255 59 pack f 20;
#X obj 255 80 line~;
#X obj 358 59 pack f 20;
#X obj 358 80 line~;
#X obj 186 300 pansig~;
#X obj 271 296 pansig~;
#X obj 333 198 osc~;
#X obj 405 198 osc~;
#X obj 28 397 /~ 2;
#X obj 28 418 env~;
#X obj 28 439 - 90;
#X obj 28 510 stdout;
#X obj 28 486 message-to-pd~ vmtr \$1;
#X obj 369 308 DSP-ON;
#X obj 402 344 switch~;
#X obj 369 283 r \$1-DSP;
#X obj 469 265 /~ 2;
#X obj 469 349 *~;
#X obj 484 327 line~;
#X msg 484 306 \$1 50;
#X obj 420 390 *~;
#X obj 484 286 r send-\$1-send;
#X obj 478 114 + 20;
#X obj 478 135 pack f 20;
#X obj 478 156 line;
#X obj 111 116 line~;
#X msg 111 98 \$1 50;
#X obj 111 80 r vol-\$1-send;
#X obj 271 260 *~;
#X obj 186 262 *~;
#X obj 420 428 send~ bank;
#X obj 271 349 *~;
#X obj 186 351 *~;
#X obj 186 453 throw~ 2master_L;
#X obj 271 426 throw~ 2master_R;
#X obj 24 55 env~, f 5;
#X obj 24 220 stdout;
#X obj 24 200 message-to-pd~ sig-in \$1;
#X obj 255 39 r \$1-freq-1;
#X obj 358 39 r \$1-freq-2;
#X obj 419 309 tgl 15 0 empty empty empty 17 7 0 10 -262144 -1 -1 1
1;
#X obj 24 75 > 0;
#X obj 24 94 change;
#X obj 28 464 speedlim 50;
#X obj 24 182 speedlim 100;
#X msg 485 95 1;
#X obj 45 115 t b b;
#X obj 45 136 timer;
#X floatatom 45 156 5 0 0 0 - - -, f 5;
#X obj 333 160 r \$1-pan-1;
#X obj 405 169 r \$1-pan-2;
#X obj 186 230 *~ 1;
#X obj 266 236 *~ 1;
#X obj 478 40 loadbang;
#X msg 478 76 65;
#X connect 0 0 1 0;
#X connect 0 0 2 0;
#X connect 0 0 38 0;
#X connect 1 0 19 0;
#X connect 1 0 54 0;
#X connect 2 0 19 0;
#X connect 2 0 55 0;
#X connect 3 0 4 0;
#X connect 4 0 1 1;
#X connect 5 0 6 0;
#X connect 6 0 2 1;
#X connect 7 0 35 0;
#X connect 7 1 34 0;
#X connect 8 0 35 0;
#X connect 8 1 34 0;
#X connect 9 0 7 1;
#X connect 10 0 8 1;
#X connect 11 0 12 0;
#X connect 12 0 13 0;
#X connect 13 0 46 0;
#X connect 15 0 14 0;
#X connect 16 0 23 0;
#X connect 16 0 34 1;
#X connect 16 0 35 1;
#X connect 16 1 17 0;
#X connect 18 0 16 0;
#X connect 18 0 43 0;
#X connect 19 0 20 0;
#X connect 20 0 23 1;
#X connect 21 0 20 1;
#X connect 22 0 21 0;
#X connect 23 0 33 0;
#X connect 24 0 22 0;
#X connect 25 0 26 0;
#X connect 26 0 27 0;
#X connect 27 0 2 2;
#X connect 27 0 1 2;
#X connect 28 0 32 1;
#X connect 28 0 31 1;
#X connect 29 0 28 0;
#X connect 30 0 29 0;
#X connect 31 0 8 0;
#X connect 32 0 7 0;
#X connect 34 0 11 0;
#X connect 34 0 37 0;
#X connect 35 0 11 0;
#X connect 35 0 36 0;
#X connect 38 0 44 0;
#X connect 40 0 39 0;
#X connect 41 0 3 0;
#X connect 42 0 5 0;
#X connect 44 0 45 0;
#X connect 45 0 49 0;
#X connect 45 0 47 0;
#X connect 46 0 15 0;
#X connect 47 0 40 0;
#X connect 48 0 25 0;
#X connect 49 0 50 0;
#X connect 49 1 50 1;
#X connect 50 0 51 0;
#X connect 52 0 9 0;
#X connect 53 0 10 0;
#X connect 54 0 32 0;
#X connect 55 0 31 0;
#X connect 56 0 57 0;
#X connect 57 0 25 0;
