#N canvas 104 432 814 450 10;
#X declare -path RSVP;
#X obj 100 100 cnv 15 160 100 empty zbank-canvas empty 20 12 0 14 -33289
-33289 0;
#X obj 105 105 cnv 15 150 90 empty empty 4-F/BNK 6 8 0 14 -233017 -33289
0;
#X obj 403 54 route LFO1 LFO2 LFO3 LFO4 LFO5 LFO6 LFO7;
#X obj 111 139 hsl_pre fbnk 1;
#X obj 236 208 message-to-pd~ DSP \$1;
#X obj 105 398 s to_pd~_subprocess;
#X obj 105 331 message-to-pd~ freq-1 \$1;
#X obj 145 367 message-to-pd~ freq-2 \$1;
#X obj 203 107 cnv 5 32 9 empty empty ON/OFF 2 5 0 8 -1 -262144 0;
#X obj 236 107 tgl-but_pre DSP;
#X obj 111 123 cnv 5 28 9 empty empty FREQ1 2 5 0 8 -1 -262144 0;
#X obj 111 158 cnv 5 28 9 empty empty FREQ2 2 5 0 8 -1 -262144 0;
#X obj 403 34 r LFO-2-BNK;
#X text 479 32 unpack: value \, beat \, up-beat \, freq;
#N canvas 0 23 450 300 unpacker 0;
#X obj 154 124 unpack f f f f;
#X obj 181 170 sel 1;
#X obj 181 146 change;
#X obj 225 170 sel 1;
#X obj 225 146 change;
#X obj 154 210 outlet;
#X obj 181 190 outlet;
#X obj 225 190 outlet;
#X obj 277 161 outlet;
#X obj 154 73 inlet;
#X connect 0 0 5 0;
#X connect 0 1 2 0;
#X connect 0 2 4 0;
#X connect 0 3 8 0;
#X connect 1 0 6 0;
#X connect 2 0 1 0;
#X connect 3 0 7 0;
#X connect 4 0 3 0;
#X connect 9 0 0 0;
#X restore 403 75 pd unpacker;
#N canvas 0 23 450 300 unpacker 0;
#X obj 154 124 unpack f f f f;
#X obj 181 170 sel 1;
#X obj 181 146 change;
#X obj 225 170 sel 1;
#X obj 225 146 change;
#X obj 154 210 outlet;
#X obj 181 190 outlet;
#X obj 225 190 outlet;
#X obj 276 140 outlet;
#X obj 154 73 inlet;
#X connect 0 0 5 0;
#X connect 0 1 2 0;
#X connect 0 2 4 0;
#X connect 0 3 8 0;
#X connect 1 0 6 0;
#X connect 2 0 1 0;
#X connect 3 0 7 0;
#X connect 4 0 3 0;
#X connect 9 0 0 0;
#X restore 436 96 pd unpacker;
#N canvas 0 23 450 300 unpacker 0;
#X obj 154 124 unpack f f f f;
#X obj 181 170 sel 1;
#X obj 181 146 change;
#X obj 225 170 sel 1;
#X obj 225 146 change;
#X obj 154 210 outlet;
#X obj 181 190 outlet;
#X obj 225 190 outlet;
#X obj 277 161 outlet;
#X obj 154 73 inlet;
#X connect 0 0 5 0;
#X connect 0 1 2 0;
#X connect 0 2 4 0;
#X connect 0 3 8 0;
#X connect 1 0 6 0;
#X connect 2 0 1 0;
#X connect 3 0 7 0;
#X connect 4 0 3 0;
#X connect 9 0 0 0;
#X restore 470 126 pd unpacker;
#N canvas 0 23 450 300 unpacker 0;
#X obj 154 124 unpack f f f f;
#X obj 181 170 sel 1;
#X obj 181 146 change;
#X obj 225 170 sel 1;
#X obj 225 146 change;
#X obj 154 210 outlet;
#X obj 181 190 outlet;
#X obj 225 190 outlet;
#X obj 277 161 outlet;
#X obj 154 73 inlet;
#X connect 0 0 5 0;
#X connect 0 1 2 0;
#X connect 0 2 4 0;
#X connect 0 3 8 0;
#X connect 1 0 6 0;
#X connect 2 0 1 0;
#X connect 3 0 7 0;
#X connect 4 0 3 0;
#X connect 9 0 0 0;
#X restore 504 152 pd unpacker;
#N canvas 0 23 450 300 unpacker 0;
#X obj 154 124 unpack f f f f;
#X obj 181 170 sel 1;
#X obj 181 146 change;
#X obj 225 170 sel 1;
#X obj 225 146 change;
#X obj 154 210 outlet;
#X obj 181 190 outlet;
#X obj 225 190 outlet;
#X obj 277 161 outlet;
#X obj 154 73 inlet;
#X connect 0 0 5 0;
#X connect 0 1 2 0;
#X connect 0 2 4 0;
#X connect 0 3 8 0;
#X connect 1 0 6 0;
#X connect 2 0 1 0;
#X connect 3 0 7 0;
#X connect 4 0 3 0;
#X connect 9 0 0 0;
#X restore 538 83 pd unpacker;
#N canvas 0 23 450 300 unpacker 0;
#X obj 154 124 unpack f f f f;
#X obj 181 170 sel 1;
#X obj 181 146 change;
#X obj 225 170 sel 1;
#X obj 225 146 change;
#X obj 154 210 outlet;
#X obj 181 190 outlet;
#X obj 225 190 outlet;
#X obj 277 161 outlet;
#X obj 154 73 inlet;
#X connect 0 0 5 0;
#X connect 0 1 2 0;
#X connect 0 2 4 0;
#X connect 0 3 8 0;
#X connect 1 0 6 0;
#X connect 2 0 1 0;
#X connect 3 0 7 0;
#X connect 4 0 3 0;
#X connect 9 0 0 0;
#X restore 572 108 pd unpacker;
#N canvas 0 23 450 300 unpacker 0;
#X obj 154 124 unpack f f f f;
#X obj 181 170 sel 1;
#X obj 181 146 change;
#X obj 225 170 sel 1;
#X obj 225 146 change;
#X obj 154 210 outlet;
#X obj 181 190 outlet;
#X obj 225 190 outlet;
#X obj 277 161 outlet;
#X obj 154 73 inlet;
#X connect 0 0 5 0;
#X connect 0 1 2 0;
#X connect 0 2 4 0;
#X connect 0 3 8 0;
#X connect 1 0 6 0;
#X connect 2 0 1 0;
#X connect 3 0 7 0;
#X connect 4 0 3 0;
#X connect 9 0 0 0;
#X restore 606 134 pd unpacker;
#X obj 22 7 return-from-pd~ \$1-sig-in;
#X msg 22 70 \; zbank-canvas color 12 12 12;
#X msg 198 66 \; zbank-canvas color 16 12 12;
#X obj 22 50 sel 0 1;
#X obj 507 237 -;
#X obj 507 257 abs;
#X obj 507 217 pack;
#X obj 105 217 / 127;
#X obj 145 214 / 127;
#X obj 114 132 hsl 130 8 0 127 0 0 empty empty empty -2 -8 0 10 -134134
-262144 -1 0 1;
#X obj 114 167 hsl 130 8 0 127 0 0 empty empty empty -2 -8 0 10 -113461
-262144 -1 0 1;
#X floatatom 555 284 5 0 0 0 - - -, f 5;
#X obj 105 310 +;
#X obj 145 312 +;
#X obj 228 233 list split 1;
#X floatatom 107 352 5 0 0 0 - - -, f 5;
#X obj 228 256 t a a;
#X obj 262 274 t a a;
#X obj 205 14 loadbang;
#X obj 175 244 * 8000;
#X obj 262 296 / 2;
#X obj 334 272 ftom;
#X obj 442 290 ftom;
#X obj 334 291 mod 12;
#X obj 442 308 mod 12;
#X obj 105 239 * 6000;
#X obj 334 327 mtof;
#X obj 334 309 - 60;
#X obj 442 344 mtof;
#X obj 442 326 - 60;
#X obj 334 377 message-to-pd~ pan-1 \$1;
#X obj 442 362 message-to-pd~ pan-2 \$1;
#X obj 105 284 line;
#X obj 105 262 pack f 20;
#X obj 176 288 line;
#X obj 176 266 pack f 20;
#X obj 22 28 speedlim 500;
#X obj 111 175 hsl_pre fbnk 2;
#X obj 553 323 declare -path RSVP;
#X msg 294 122 id fbnk 2;
#X connect 2 0 14 0;
#X connect 2 1 15 0;
#X connect 2 2 16 0;
#X connect 2 3 17 0;
#X connect 2 4 18 0;
#X connect 2 5 19 0;
#X connect 2 6 20 0;
#X connect 3 0 28 0;
#X connect 4 0 5 0;
#X connect 6 0 5 0;
#X connect 7 0 5 0;
#X connect 9 0 4 0;
#X connect 12 0 2 0;
#X connect 14 0 3 0;
#X connect 14 3 27 0;
#X connect 15 0 3 0;
#X connect 15 3 27 0;
#X connect 16 0 58 0;
#X connect 16 3 27 1;
#X connect 17 0 58 0;
#X connect 17 3 27 1;
#X connect 18 0 58 0;
#X connect 18 3 27 1;
#X connect 19 0 58 0;
#X connect 19 3 27 1;
#X connect 20 0 58 0;
#X connect 20 3 27 1;
#X connect 21 0 57 0;
#X connect 24 0 22 0;
#X connect 24 1 23 0;
#X connect 25 0 26 0;
#X connect 26 0 32 0;
#X connect 27 0 25 0;
#X connect 27 0 35 0;
#X connect 28 0 46 0;
#X connect 29 0 40 0;
#X connect 33 0 6 0;
#X connect 34 0 7 0;
#X connect 34 0 36 0;
#X connect 35 0 37 0;
#X connect 35 1 38 0;
#X connect 37 0 33 1;
#X connect 37 0 42 0;
#X connect 38 0 41 0;
#X connect 38 0 43 0;
#X connect 39 0 22 0;
#X connect 40 0 56 0;
#X connect 41 0 34 1;
#X connect 42 0 44 0;
#X connect 43 0 45 0;
#X connect 44 0 48 0;
#X connect 45 0 50 0;
#X connect 46 0 54 0;
#X connect 47 0 51 0;
#X connect 48 0 47 0;
#X connect 49 0 52 0;
#X connect 50 0 49 0;
#X connect 51 0 5 0;
#X connect 52 0 5 0;
#X connect 53 0 33 0;
#X connect 54 0 53 0;
#X connect 55 0 34 0;
#X connect 56 0 55 0;
#X connect 57 0 24 0;
#X connect 58 0 29 0;
#X connect 60 0 58 0;
#X coords 0 -1 1 1 160 100 2 100 100;
