#N canvas 1966 75 858 669 10;
#X declare -path ext-ernals;
#X declare -lib xsample;
#X obj 557 135 samplerate~;
#X obj 512 73 t b b;
#X msg 512 218 \; \$1-chopperbuffer resize \$2 \;;
#X obj 557 155 * 5;
#X obj 179 30 env~;
#X obj 179 128 > 30;
#X obj 179 173 sel 0 1;
#X obj 179 152 change;
#X obj 179 51 speedlim 40;
#X obj 667 342 declare -path ext-ernals;
#X obj 691 363 declare -lib xsample;
#X obj 512 51 del 200;
#X obj 503 488 DSP-ON;
#X obj 536 548 switch~;
#X obj 352 532 *~;
#X obj 409 530 *~;
#X obj 352 575 throw~ 2master_L;
#X obj 409 610 throw~ 2master_R;
#X obj 488 397 line~;
#X msg 488 377 \$1 20;
#X obj 221 442 /~ 2;
#X obj 221 524 *~;
#X obj 236 502 line~;
#X msg 236 482 \$1 50;
#X obj 221 555 *~;
#X obj 352 467 *~;
#X obj 409 467 *~;
#X obj 512 27 loadbang;
#X obj 558 485 tgl 15 0 empty empty empty 17 7 0 10 #fcfcfc #000000 #000000 0 1;
#X obj 301 99 cnv 10 10 10 empty empty empty 20 12 0 14 #fc0400 #404040 0;
#X obj 200 97 r \$1-\$2-amp-thrs;
#X obj 488 357 r vol-\$1-\$2-send;
#X obj 503 467 r \$1-\$2-DSP;
#X obj 236 461 r send-\$1-\$2-send;
#X obj 57 12 catch~ to_\$3-\$4;
#X floatatom 262 48 5 0 0 0 - - - 0;
#X floatatom 528 380 5 0 0 0 - - - 0;
#X obj 271 234 t b f;
#X obj 271 258 f;
#X obj 271 282 + 1;
#X obj 271 330 pack;
#X obj 271 306 mod 5;
#X obj 271 212 random 5;
#X obj 271 150 r \$1-\$2-fire;
#X obj 271 191 t b;
#X obj 271 171 bng 15 250 50 0 empty empty empty 17 7 0 10 #fcfcfc #000000 #000000;
#X obj 271 355 clone chopper-voice 5 \$1-\$2;
#X obj 666 414 table \$1-\$2-chopperbuffer;
#X obj 512 110 symbol \$1-\$2;
#X obj 512 188 pack s f;
#N canvas 178 107 577 552 recorder 0;
#X obj 81 466 tabwrite~ \$1-\$2-chopperbuffer;
#X msg 166 341 stop;
#X obj 201 71 env~;
#X obj 201 181 > 30;
#X obj 201 226 sel 0 1;
#X obj 201 205 change;
#X obj 166 251 del 21;
#X obj 201 92 speedlim 40;
#X obj 323 140 cnv 10 10 10 empty empty empty 20 12 0 14 #fc0400 #404040 0;
#X obj 222 157 / 1.27;
#X obj 222 137 r \$1-\$2-amp-thrs;
#X obj 259 392 i;
#X obj 220 251 t b b b;
#X obj 332 318 f;
#X obj 356 318 + 1;
#X obj 332 369 mod;
#X obj 332 273 1;
#X obj 172 273 0;
#X obj 80 49 inlet~;
#X msg 259 420 start \$1;
#X obj 332 296 metro 1;
#X obj 332 345 * 100;
#X obj 344 424 symbol \$1-\$2;
#X msg 344 466 \; \$1-chopperbuffer normalize 1;
#X floatatom 158 202 5 0 0 0 - - - 0;
#X floatatom 253 180 5 0 0 0 - - - 0;
#X obj 386 344 r \$0-bufflimitchop;
#X floatatom 332 392 5 0 0 0 - - - 0;
#X obj 110 220 bng 18 250 50 0 empty empty empty 0 -9 0 10 #fcfcfc #000000 #000000;
#X obj 155 231 tgl 18 0 empty empty empty 0 -9 0 10 #fcfcfc #000000 #000000 0 1;
#X connect 1 0 0 0;
#X connect 2 0 7 0;
#X connect 3 0 5 0;
#X connect 4 0 6 0;
#X connect 4 1 12 0;
#X connect 5 0 4 0;
#X connect 5 0 28 0;
#X connect 6 0 1 0;
#X connect 6 0 17 0;
#X connect 7 0 3 0;
#X connect 7 0 24 0;
#X connect 9 0 3 1;
#X connect 9 0 25 0;
#X connect 10 0 9 0;
#X connect 11 0 19 0;
#X connect 12 0 22 0;
#X connect 12 0 16 0;
#X connect 12 2 11 0;
#X connect 13 0 14 0;
#X connect 13 0 21 0;
#X connect 14 0 13 1;
#X connect 15 0 11 1;
#X connect 15 0 27 0;
#X connect 16 0 20 0;
#X connect 17 0 20 0;
#X connect 18 0 2 0;
#X connect 18 0 0 0;
#X connect 19 0 0 0;
#X connect 20 0 13 0;
#X connect 21 0 15 0;
#X connect 22 0 23 0;
#X connect 26 0 15 1;
#X restore 56 40 pd recorder;
#X floatatom 301 501 5 0 0 0 - - - 0;
#X obj 221 602 throw~ from_\$3-\$4;
#X obj 582 188 send \$0-bufflimitchop;
#X obj 487 24 bng 18 250 50 0 empty empty empty 0 -9 0 10 #fcfcfc #000000 #000000;
#X floatatom 487 47 5 0 0 0 - - - 0;
#X obj 24 225 stdout;
#X obj 24 148 > 0;
#X obj 24 168 change;
#X obj 24 187 speedlim;
#X obj 24 206 message-to-pd~ sig-in \$1-\$2;
#X text 679 627 set outlet;
#X msg 685 575 set \$1;
#X obj 685 505 loadbang;
#X obj 685 526 i \$4;
#X obj 685 551 + 4;
#X obj 685 597 dac~ \$4;
#X obj 659 479 bng 15 250 50 0 empty empty empty 17 7 0 10 #fcfcfc #000000 #000000;
#X obj 680 477 iemguts/initbang;
#X obj 605 517 sel 1;
#X connect 0 0 3 0;
#X connect 1 0 48 0;
#X connect 1 1 0 0;
#X connect 3 0 49 1;
#X connect 3 0 53 0;
#X connect 4 0 8 0;
#X connect 4 0 35 0;
#X connect 4 0 57 0;
#X connect 5 0 7 0;
#X connect 7 0 6 0;
#X connect 8 0 5 0;
#X connect 11 0 1 0;
#X connect 12 0 14 1;
#X connect 12 0 15 1;
#X connect 12 0 24 1;
#X connect 12 1 13 0;
#X connect 12 1 69 0;
#X connect 14 0 16 0;
#X connect 14 0 66 0;
#X connect 15 0 17 0;
#X connect 15 0 66 0;
#X connect 18 0 25 1;
#X connect 18 0 26 1;
#X connect 19 0 18 0;
#X connect 20 0 21 0;
#X connect 21 0 24 0;
#X connect 22 0 21 1;
#X connect 23 0 22 0;
#X connect 24 0 52 0;
#X connect 25 0 14 0;
#X connect 26 0 15 0;
#X connect 27 0 11 0;
#X connect 30 0 5 1;
#X connect 31 0 19 0;
#X connect 31 0 36 0;
#X connect 32 0 12 0;
#X connect 32 0 28 0;
#X connect 33 0 23 0;
#X connect 33 0 51 0;
#X connect 34 0 4 0;
#X connect 34 0 50 0;
#X connect 37 0 38 0;
#X connect 37 1 40 1;
#X connect 38 0 39 0;
#X connect 39 0 41 0;
#X connect 40 0 46 0;
#X connect 41 0 38 1;
#X connect 41 0 40 0;
#X connect 42 0 37 0;
#X connect 43 0 45 0;
#X connect 44 0 42 0;
#X connect 45 0 44 0;
#X connect 46 0 20 0;
#X connect 46 0 25 0;
#X connect 46 1 20 0;
#X connect 46 1 26 0;
#X connect 48 0 49 0;
#X connect 49 0 2 0;
#X connect 54 0 11 0;
#X connect 54 0 55 0;
#X connect 57 0 58 0;
#X connect 58 0 59 0;
#X connect 59 0 60 0;
#X connect 60 0 56 0;
#X connect 62 0 66 0;
#X connect 63 0 64 0;
#X connect 64 0 65 0;
#X connect 65 0 62 0;
#X connect 67 0 64 0;
#X connect 68 0 64 0;
#X connect 69 0 11 0;
#X coords 0 669 1 668 90 200 0;
