#N canvas 327 148 992 669 10;
#X declare -path ext-ernals;
#X declare -lib xsample;
#X obj 435 100 cnv 15 90 200 empty zchop-canvas empty 20 12 0 14 -33289
-33289 0;
#X obj 440 105 cnv 15 80 190 empty empty CHOPPER 11 12 0 14 -233017
-66577 0;
#X obj 782 226 table \$0-chopperbuffer;
#X obj 783 108 \$0;
#X obj 783 158 pack;
#X obj 810 109 samplerate~;
#X obj 783 86 t b b;
#X msg 783 183 \; \$1-chopperbuffer resize \$2 \;;
#X obj 810 129 * 5;
#X obj 817 152 send bufflimitchop;
#X obj 491 199 bng 25 250 30 0 empty GENERAL-trigger empty 1 13 0 10
-128992 -257985 -4032;
#X obj 53 531 declare -path ext-ernals;
#X obj 77 550 declare -lib xsample;
#X obj 783 64 del 200;
#X obj 306 159 tgl 21 0 workingCHP-OUT workingCHP empty 25 7 0 10 -128992
-33289 -33289 0 1;
#X obj 783 40 loadbang;
#X msg 682 81 50;
#X obj 459 278 cnv 5 32 9 empty empty ON/OFF 2 5 0 8 -1 -262144 0;
#X obj 447 134 vsl 15 128 0 127 0 0 empty empty SIG 2 10 0 6 -259286
-4032 -4032 0 1;
#X obj 468 130 vsl_pre amp.thr;
#X obj 468 393 message-to-pd~ amp-thrs \$1;
#X obj 516 344 message-to-pd~ fire \$1;
#X obj 516 323 1;
#X obj 492 231 cnv 5 22 9 empty empty Fire 2 5 0 8 -1 -262144 0;
#X obj 492 145 cnv 5 21 9 empty empty FREE 1 5 0 8 -1 -262144 0;
#X obj 492 134 cnv 5 21 9 empty empty BUSY 1 5 0 8 -1 -262144 0;
#X obj 68 43 > 0;
#X obj 68 64 speedlim 500;
#X obj 68 84 sel 0 1;
#X floatatom 278 40 5 0 0 0 - - -;
#X obj 495 374 message-to-pd~ DSP \$1;
#X obj 468 431 s to_pd~_subprocess;
#X obj 68 22 return-from-pd~ \$1-sig-in;
#X msg 68 108 \; zchop-canvas color 12 12 12;
#X msg 87 143 \; zchop-canvas color 16 12 12;
#X obj 546 307 message-to-pd~ chp.busy \$1;
#X obj 495 270 tgl-but_pre DSP;
#X obj 494 157 tgl_pre chp.work;
#X obj 380 39 return-from-pd~ \$1-workingCHP;
#X obj 379 71 tgl 15 0 empty empty empty 17 7 0 10 -262144 -1 -1 0
1;
#X obj 541 261 spigot;
#X obj 173 77 loadbang;
#X connect 3 0 4 0;
#X connect 4 0 7 0;
#X connect 5 0 8 0;
#X connect 6 0 3 0;
#X connect 6 1 5 0;
#X connect 8 0 4 1;
#X connect 8 0 9 0;
#X connect 10 0 40 0;
#X connect 13 0 6 0;
#X connect 15 0 13 0;
#X connect 15 0 16 0;
#X connect 19 0 20 0;
#X connect 20 0 31 0;
#X connect 21 0 31 0;
#X connect 22 0 21 0;
#X connect 26 0 27 0;
#X connect 27 0 28 0;
#X connect 28 0 33 0;
#X connect 28 1 34 0;
#X connect 30 0 31 0;
#X connect 32 0 26 0;
#X connect 32 0 29 0;
#X connect 32 0 18 0;
#X connect 35 0 31 0;
#X connect 36 0 30 0;
#X connect 37 0 35 0;
#X connect 37 0 40 1;
#X connect 38 0 39 0;
#X connect 39 0 37 0;
#X connect 40 0 22 0;
#X connect 41 0 33 0;
#X coords 0 -1 1 1 90 200 2 435 100;
