#N canvas 2038 202 992 669 10;
#X declare -path ext-ernals;
#X declare -lib xsample;
#X obj 66 600 table \$0-chopperbuffer;
#X obj 760 89 \$0;
#X obj 760 139 pack;
#X obj 787 90 samplerate~;
#X obj 760 67 t b b;
#X msg 760 164 \; \$1-chopperbuffer resize \$2 \;;
#X obj 787 110 * 5;
#X obj 196 369 r bufflimitchop;
#X obj 794 133 send bufflimitchop;
#X obj 34 441 xrecord~ \$0-chopperbuffer;
#N canvas 566 383 450 300 init 0;
#X msg 117 94 loop 1;
#X msg 135 116 sigmode 1;
#X msg 148 138 mixmode 0;
#X obj 117 207 outlet;
#X msg 251 138 0;
#X obj 251 205 outlet;
#X obj 117 49 loadbang;
#X connect 0 0 3 0;
#X connect 1 0 3 0;
#X connect 2 0 3 0;
#X connect 4 0 5 0;
#X connect 6 0 0 0;
#X connect 6 0 1 0;
#X connect 6 0 2 0;
#X connect 6 0 4 0;
#X restore 117 381 pd init;
#X msg 215 323 start;
#X msg 169 297 stop;
#X obj 170 53 env~;
#X obj 169 163 > 30;
#X obj 169 208 sel 0 1;
#X obj 169 187 change;
#X obj 73 297 line~;
#X obj 34 314 *~;
#X obj 188 233 t b b;
#X obj 169 269 del 21;
#X obj 169 74 speedlim 40;
#X obj 34 220 delread~ chop 20;
#X obj 48 78 delwrite~ chop 20;
#N canvas 67 344 681 632 chopper 1;
#N canvas 448 611 502 352 messages 0;
#X obj 53 228 outlet;
#N canvas 67 271 560 676 basic 0;
#X obj 49 335 outlet;
#X msg 49 106 force_new;
#X msg 128 107 lockme \$1;
#X obj 128 69 tgl 30 0 empty empty empty 0 -6 0 8 -257985 -1 -1 0 1
;
#X floatatom 200 132 5 0 0 0 - minincr -;
#X floatatom 322 130 5 0 0 0 - maxincr -;
#X floatatom 329 228 5 0 0 0 - minseg -;
#X floatatom 432 228 5 0 0 0 - maxseg -;
#X msg 329 249 set_minseg \$1;
#X msg 432 249 set_maxseg \$1;
#X msg 322 151 set_maxincr \$1;
#X msg 200 153 set_minincr \$1;
#X obj 53 380 hsl 128 15 0.1 0.9999 0 0 minincr minincr-init minincr
-2 -6 0 8 -252672 -1 -1 5645 1;
#X obj 53 411 hsl 128 15 1.0001 10 0 0 maxincr maxincr-init maxincr
-2 -6 0 8 -252672 -1 -1 1411 1;
#N canvas 0 22 470 320 init 0;
#X obj 27 150 s minincr-init;
#X msg 27 123 0.5;
#X obj 134 149 s maxincr-init;
#X msg 134 122 2;
#X obj 27 4 loadbang;
#X obj 245 147 s minseg-init;
#X obj 352 146 s maxseg-init;
#X obj 323 91 s fixed-incr-init;
#X msg 323 64 1;
#X msg 245 120 500;
#X msg 352 120 2000;
#X connect 1 0 0 0;
#X connect 3 0 2 0;
#X connect 4 0 3 0;
#X connect 4 0 1 0;
#X connect 4 0 9 0;
#X connect 4 0 10 0;
#X connect 4 0 8 0;
#X connect 8 0 7 0;
#X connect 9 0 5 0;
#X connect 10 0 6 0;
#X restore 275 51 pd init;
#X obj 55 445 hsl 128 15 3 300 0 0 minseg minseg-init minseg -2 -6
0 8 -252672 -1 -1 12700 1;
#X obj 55 476 hsl 128 15 20 2000 0 0 maxseg maxseg-init maxseg -2 -6
0 8 -252672 -1 -1 12700 1;
#X msg 311 383 fixed_increment \$1;
#X obj 49 8 tgl 30 0 empty empty empty 0 -6 0 8 -257985 -1 -1 0 1;
#X obj 314 350 hsl 50 10 0.1 5 0 0 empty empty empty -2 -8 0 10 -174016
-1 -1 1400 1;
#X floatatom 311 366 5 0 0 0 - - -;
#X obj 382 349 r fixed-incr-init;
#X obj 278 309 t b;
#X msg 278 330 0;
#X obj 311 317 r incre;
#X obj 49 52 metro 1000;
#X connect 1 0 0 0;
#X connect 2 0 0 0;
#X connect 3 0 2 0;
#X connect 4 0 11 0;
#X connect 5 0 10 0;
#X connect 6 0 8 0;
#X connect 7 0 9 0;
#X connect 8 0 0 0;
#X connect 9 0 0 0;
#X connect 10 0 0 0;
#X connect 10 0 22 0;
#X connect 11 0 0 0;
#X connect 11 0 22 0;
#X connect 17 0 0 0;
#X connect 18 0 25 0;
#X connect 19 0 20 0;
#X connect 20 0 17 0;
#X connect 21 0 20 0;
#X connect 22 0 23 0;
#X connect 23 0 20 0;
#X connect 24 0 19 0;
#X connect 25 0 1 0;
#X restore 53 44 pd basic controls;
#N canvas 771 49 593 551 deviations 0;
#X obj 224 188 outlet;
#X msg 224 134 rdur \$1;
#X floatatom 224 110 5 0 0 0 - rdur -;
#X obj 222 250 hsl 128 15 0 1 0 0 rdur rdur-init rdur -2 -6 0 8 -252672
-1 -1 0 1;
#X obj 222 282 hsl 128 15 0 1 0 0 rinc rinc-init rinc -2 -6 0 8 -252672
-1 -1 0 1;
#X floatatom 288 110 5 0 0 0 - rinc -;
#X msg 288 134 rinc \$1;
#X floatatom 356 110 5 0 0 0 - jitter -;
#X msg 356 134 jitter \$1;
#X obj 222 316 hsl 128 15 0 1 0 0 jitter jitter-init jitter -2 -6 0
8 -252672 -1 -1 0 1;
#X connect 1 0 0 0;
#X connect 2 0 1 0;
#X connect 5 0 6 0;
#X connect 6 0 0 0;
#X connect 7 0 8 0;
#X connect 8 0 0 0;
#X restore 104 82 pd deviations;
#N canvas 257 591 482 332 memory 0;
#X obj 167 217 outlet;
#X text 233 32 1024 locations available;
#X msg 142 30 store_loop 1;
#X msg 156 49 recall_loop 1;
#X msg 182 93 store_loop 2;
#X msg 195 113 recall_loop 2;
#X msg 74 87 show_loop;
#X text 208 170 use numbers that come from show_loop;
#X msg 35 144 force_new;
#X msg 281 188 set_loop 3000 5000 1.62;
#X connect 2 0 0 0;
#X connect 3 0 0 0;
#X connect 4 0 0 0;
#X connect 5 0 0 0;
#X connect 6 0 0 0;
#X connect 8 0 0 0;
#X connect 9 0 0 0;
#X restore 88 62 pd memory;
#N canvas 67 485 490 340 refinements 0;
#X obj 38 149 outlet;
#X obj 38 29 tgl 30 0 empty empty empty 0 -6 0 8 -257985 -1 -1 0 1
;
#X msg 38 74 adjust_inverse \$1;
#X msg 95 123 taper \$1;
#X floatatom 95 100 5 0 0 0 - taper-dur -;
#X obj 41 185 hsl 128 15 1 100 0 0 taper-dur taper-dur-init taper-dur
-2 -6 0 8 -252672 -1 -1 0 1;
#X text 78 29 maintains loop duration;
#X text 77 43 under increment change;
#X connect 1 0 2 0;
#X connect 2 0 0 0;
#X connect 3 0 0 0;
#X connect 4 0 3 0;
#X restore 125 104 pd refinements;
#N canvas 67 96 462 312 system 0;
#X obj 86 205 outlet;
#X msg 86 141 mute \$1;
#X msg 159 172 seed 6331;
#X text 158 155 set seed (might be helpful for stereo);
#X obj 153 107 r mute-chopper;
#X obj 86 75 r play-chopper;
#X connect 1 0 0 0;
#X connect 2 0 0 0;
#X connect 4 0 1 0;
#X connect 5 0 1 0;
#X restore 140 131 pd system;
#X connect 1 0 0 0;
#X connect 2 0 0 0;
#X connect 3 0 0 0;
#X connect 4 0 0 0;
#X connect 5 0 0 0;
#X restore 52 119 pd messages;
#X text 53 102 open this for more info;
#X obj 178 298 line~;
#X obj 216 168 del 100;
#X obj 139 372 osc~;
#X floatatom 250 381 5 0 0 0 - - -;
#X obj 267 221 / 10;
#X obj 216 94 t b b b b;
#X obj 267 297 s incre;
#X msg 216 272 0 100;
#X obj 178 26 inlet;
#X obj 267 248 + 0.5;
#X obj 178 57 t b b;
#X msg 178 269 \$1 20;
#X obj 178 248 f;
#X obj 52 389 *~;
#N canvas 107 156 443 737 delay 0;
#X obj 41 20 inlet~;
#X obj 90 23 r~ delayfeedback;
#X obj 156 409 s~ delayfeedback;
#X obj 95 567 line;
#X obj 122 513 random 500;
#X obj 122 539 + 100;
#X obj 95 491 random 91;
#X obj 95 462 t b b;
#X obj 302 579 line;
#X obj 329 525 random 500;
#X obj 329 551 + 100;
#X obj 302 503 random 91;
#X obj 302 474 t b b;
#X obj 56 685 outlet~;
#X obj 185 677 outlet~;
#X obj 37 326 vd~ tap_delay;
#X obj 244 326 vd~ tap_delay;
#X obj 41 65 delwrite~ tap_delay 1000;
#X obj 244 601 pan~;
#X obj 37 584 pan~;
#X obj 244 236 line~;
#X obj 244 64 inlet bang;
#X obj 37 297 line~;
#N canvas 551 23 632 521 random 0;
#X obj 247 140 del;
#X obj 247 66 t b b;
#X obj 274 91 random 200;
#X obj 274 112 + 300;
#X obj 247 21 inlet;
#X obj 247 176 t b b;
#X obj 293 421 + 1000;
#X obj 292 397 random 1000;
#X obj 120 340 * 100;
#X obj 120 269 urn 10;
#X msg 202 315 clear;
#X obj 175 291 t b b;
#X obj 202 254 / 1000;
#X obj 202 229 random 1000;
#X obj 120 370 +;
#X obj 175 193 t b b;
#X obj 217 491 outlet;
#X text 423 150 better random;
#X obj 270 41 del 1000;
#X obj 447 251 +;
#X text 333 40 second stage of gliss;
#X obj 217 455 pack f f;
#X connect 0 0 5 0;
#X connect 1 0 0 0;
#X connect 1 1 2 0;
#X connect 2 0 3 0;
#X connect 3 0 0 1;
#X connect 3 0 19 1;
#X connect 4 0 1 0;
#X connect 4 0 18 0;
#X connect 5 0 15 0;
#X connect 5 1 7 0;
#X connect 6 0 19 0;
#X connect 6 0 21 1;
#X connect 7 0 6 0;
#X connect 8 0 14 0;
#X connect 9 0 8 0;
#X connect 9 1 11 0;
#X connect 10 0 9 0;
#X connect 11 0 15 0;
#X connect 11 1 10 0;
#X connect 12 0 14 1;
#X connect 13 0 12 0;
#X connect 14 0 21 0;
#X connect 15 0 9 0;
#X connect 15 1 13 0;
#X connect 18 0 1 0;
#X connect 19 0 18 1;
#X connect 21 0 16 0;
#X restore 37 209 pd random;
#N canvas 90 23 632 521 random 0;
#X obj 247 140 del;
#X obj 247 66 t b b;
#X obj 274 91 random 200;
#X obj 274 112 + 300;
#X obj 247 21 inlet;
#X obj 246 442 pack 0 0;
#X obj 247 176 t b b;
#X obj 293 421 + 1000;
#X obj 291 399 random 1000;
#X obj 120 340 * 100;
#X obj 120 269 urn 10;
#X msg 202 315 clear;
#X obj 175 291 t b b;
#X obj 202 254 / 1000;
#X obj 202 229 random 1000;
#X obj 120 370 +;
#X obj 175 193 t b b;
#X obj 246 480 outlet;
#X text 423 150 better random;
#X obj 270 41 del 1000;
#X obj 447 251 +;
#X text 333 40 second stage of gliss;
#X connect 0 0 6 0;
#X connect 1 0 0 0;
#X connect 1 1 2 0;
#X connect 2 0 3 0;
#X connect 3 0 0 1;
#X connect 3 0 20 1;
#X connect 4 0 1 0;
#X connect 4 0 19 0;
#X connect 5 0 17 0;
#X connect 6 0 16 0;
#X connect 6 1 8 0;
#X connect 7 0 5 1;
#X connect 7 0 20 0;
#X connect 8 0 7 0;
#X connect 9 0 15 0;
#X connect 10 0 9 0;
#X connect 10 1 12 0;
#X connect 11 0 10 0;
#X connect 12 0 16 0;
#X connect 12 1 11 0;
#X connect 13 0 15 1;
#X connect 14 0 13 0;
#X connect 15 0 5 0;
#X connect 16 0 10 0;
#X connect 16 1 14 0;
#X connect 19 0 1 0;
#X connect 20 0 19 1;
#X restore 244 183 pd random;
#X obj 244 441 *~ 0.05;
#X obj 37 441 *~ 0.05;
#X obj 156 369 *~ 0.45;
#X connect 0 0 17 0;
#X connect 1 0 17 0;
#X connect 3 0 19 1;
#X connect 4 0 5 0;
#X connect 5 0 3 1;
#X connect 6 0 3 0;
#X connect 7 0 6 0;
#X connect 7 1 4 0;
#X connect 8 0 18 1;
#X connect 9 0 10 0;
#X connect 10 0 8 1;
#X connect 11 0 8 0;
#X connect 12 0 11 0;
#X connect 12 1 9 0;
#X connect 15 0 26 0;
#X connect 15 0 27 0;
#X connect 16 0 25 0;
#X connect 16 0 27 0;
#X connect 18 0 13 0;
#X connect 18 1 14 0;
#X connect 19 0 13 0;
#X connect 19 1 14 0;
#X connect 20 0 16 0;
#X connect 21 0 7 0;
#X connect 21 0 12 0;
#X connect 21 0 23 0;
#X connect 21 0 24 0;
#X connect 22 0 15 0;
#X connect 23 0 22 0;
#X connect 24 0 20 0;
#X connect 25 0 18 0;
#X connect 26 0 19 0;
#X connect 27 0 2 0;
#X restore 188 433 pd delay;
#X obj 255 143 + 200;
#X obj 255 120 random 2000;
#X msg 366 185 1;
#X obj 366 208 send mute-chopper;
#X obj 350 100 send play-chopper;
#X msg 350 74 0;
#X obj 52 315 *~;
#X obj 52 519 outlet~;
#X obj 104 543 outlet~;
#X msg 70 237 0;
#X msg 104 233 1;
#X obj 52 173 hip~ 50;
#X obj 52 196 hip~ 50;
#X obj 52 144 chopper~ \$0-chopperbuffer;
#X obj 116 194 loadbang;
#X obj 193 204 / 80;
#X obj 298 158 bng 15 250 50 0 empty empty empty 17 7 0 10 -262144
-1 -1;
#X obj 224 30 bng 15 250 50 0 empty empty empty 17 7 0 10 -262144 -1
-1;
#X floatatom 193 225 5 0 0 0 - - -;
#X obj 267 187 random 40;
#X obj 188 462 tb_compressor~;
#X obj 299 439 tb_compressorUI;
#X obj 190 489 tb_compressor~;
#X obj 319 359 loadbang;
#X msg 312 388 threshold -1 \, ratio 100 \, response 0 \, gain -6 \,
rmspeak 1 \, lookahead 50;
#X obj 250 355 + 3;
#X obj 382 335 stdout;
#X obj 382 316 message-to-pd~ workingCHP \$1;
#X obj 250 328 random 3;
#X connect 0 0 30 0;
#X connect 2 0 23 1;
#X connect 3 0 9 0;
#X connect 3 0 19 0;
#X connect 3 0 27 0;
#X connect 4 0 15 1;
#X connect 6 0 11 0;
#X connect 7 0 3 0;
#X connect 7 1 16 1;
#X connect 7 1 18 0;
#X connect 7 2 45 0;
#X connect 7 3 36 0;
#X connect 9 0 2 0;
#X connect 10 0 12 0;
#X connect 11 0 8 0;
#X connect 12 0 14 0;
#X connect 12 0 26 0;
#X connect 12 1 7 0;
#X connect 12 1 22 0;
#X connect 13 0 2 0;
#X connect 14 0 13 0;
#X connect 15 0 24 0;
#X connect 15 0 25 0;
#X connect 16 0 37 0;
#X connect 16 1 39 0;
#X connect 17 0 3 1;
#X connect 18 0 17 0;
#X connect 19 0 20 0;
#X connect 22 0 21 0;
#X connect 23 0 15 0;
#X connect 26 0 44 0;
#X connect 27 0 44 0;
#X connect 28 0 29 0;
#X connect 29 0 23 0;
#X connect 29 0 16 0;
#X connect 30 0 28 0;
#X connect 31 0 27 0;
#X connect 32 0 14 1;
#X connect 32 0 35 0;
#X connect 33 0 36 0;
#X connect 34 0 12 0;
#X connect 36 0 6 0;
#X connect 36 0 32 0;
#X connect 37 0 24 0;
#X connect 37 1 38 0;
#X connect 38 0 37 1;
#X connect 38 0 39 1;
#X connect 39 0 25 0;
#X connect 39 1 38 0;
#X connect 40 0 41 0;
#X connect 41 0 37 1;
#X connect 41 0 39 1;
#X connect 42 0 5 0;
#X connect 44 0 43 0;
#X connect 45 0 4 0;
#X connect 45 0 42 0;
#X restore 488 236 pd chopper;
#X obj 53 540 declare -path ext-ernals;
#X obj 77 559 declare -lib xsample;
#X obj 760 45 del 200;
#X obj 181 395 i;
#X obj 615 277 DSP-ON;
#X obj 648 297 switch~;
#X obj 488 343 *~;
#X obj 545 341 *~;
#X obj 488 386 throw~ 2master_L;
#X obj 545 421 throw~ 2master_R;
#X obj 576 231 line~;
#X msg 576 211 \$1 20;
#X obj 190 97 send signalInput-CHP;
#X obj 452 626 tgl 20 0 workingCHP-OUT workingCHP FREE/BUSY 25 7 0
10 -128992 -33289 -33289 1 1;
#X msg 452 602 1;
#X obj 357 253 /~ 2;
#X obj 357 335 *~;
#X obj 372 313 line~;
#X msg 372 293 \$1 50;
#X obj 357 366 *~;
#X obj 357 413 send~ chopper;
#X obj 488 278 *~;
#X obj 545 278 *~;
#X obj 452 575 loadbang;
#X obj 760 21 loadbang;
#X obj 576 191 r vol-\$1-send;
#X obj 372 272 r send-\$1-send;
#X obj 48 35 r~ to_chopper;
#X obj 255 175 stdout;
#X obj 255 156 message-to-pd~ sig-in \$1;
#X obj 671 272 tgl 15 0 empty empty empty 17 7 0 10 -262144 -1 -1 1
1;
#X obj 615 256 r \$1-DSP;
#X obj 396 591 r \$1-;
#X obj 190 120 r \$1-amp-thrs;
#X obj 273 124 cnv 10 10 10 empty empty empty 20 12 0 14 -258113 -66577
0;
#X obj 598 108 cnv 20 20 20 empty empty empty 20 12 0 14 -4034 -66577
0;
#X obj 531 176 tgl 15 0 empty empty empty 17 7 0 10 -262144 -1 -1 1
1;
#X obj 521 155 r \$1-chp.busy;
#X obj 466 232 bng 15 250 50 0 empty empty empty 17 7 0 10 -262144
-1 -1;
#X obj 488 209 spigot;
#X obj 190 139 / 1.27;
#X obj 467 70 sel 1;
#X obj 73 254 pack 0 20;
#X obj 87 278 pack 1 20;
#X obj 227 462 \$0;
#X obj 242 422 bng 15 250 50 0 empty empty empty 17 7 0 10 -262144
-1 -1;
#X obj 246 487 bng 15 250 50 0 empty empty empty 17 7 0 10 -262144
-1 -1;
#X obj 34 339 hip~ 200;
#X obj 34 360 hip~ 200;
#X obj 467 49 r \$1-fire;
#X obj 488 111 r MASTER-ATTACK;
#X msg 226 505 \; \$1-chopperbuffer normalize 0.1;
#X obj 600 365 dac~ \$2;
#X connect 1 0 2 0;
#X connect 2 0 5 0;
#X connect 3 0 6 0;
#X connect 4 0 1 0;
#X connect 4 1 3 0;
#X connect 6 0 2 1;
#X connect 6 0 8 0;
#X connect 7 0 28 1;
#X connect 10 0 9 0;
#X connect 10 1 9 2;
#X connect 11 0 9 0;
#X connect 12 0 9 0;
#X connect 13 0 21 0;
#X connect 13 0 54 0;
#X connect 14 0 16 0;
#X connect 15 0 20 0;
#X connect 15 0 67 0;
#X connect 15 1 19 0;
#X connect 16 0 15 0;
#X connect 17 0 18 1;
#X connect 18 0 72 0;
#X connect 19 0 68 0;
#X connect 19 1 11 0;
#X connect 19 1 28 0;
#X connect 20 0 12 0;
#X connect 20 0 70 0;
#X connect 21 0 14 0;
#X connect 21 0 37 0;
#X connect 22 0 18 0;
#X connect 24 0 40 0;
#X connect 24 0 46 0;
#X connect 24 1 40 0;
#X connect 24 1 47 0;
#X connect 27 0 4 0;
#X connect 28 0 9 3;
#X connect 29 0 31 1;
#X connect 29 0 32 1;
#X connect 29 0 44 1;
#X connect 29 1 30 0;
#X connect 31 0 33 0;
#X connect 31 0 77 0;
#X connect 32 0 34 0;
#X connect 32 0 77 0;
#X connect 35 0 46 1;
#X connect 35 0 47 1;
#X connect 36 0 35 0;
#X connect 39 0 38 0;
#X connect 40 0 41 0;
#X connect 41 0 44 0;
#X connect 42 0 41 1;
#X connect 43 0 42 0;
#X connect 44 0 45 0;
#X connect 46 0 31 0;
#X connect 47 0 32 0;
#X connect 48 0 39 0;
#X connect 49 0 27 0;
#X connect 50 0 36 0;
#X connect 51 0 43 0;
#X connect 52 0 23 0;
#X connect 52 0 13 0;
#X connect 54 0 53 0;
#X connect 56 0 29 0;
#X connect 56 0 55 0;
#X connect 58 0 65 0;
#X connect 62 0 61 0;
#X connect 62 0 64 1;
#X connect 64 0 24 0;
#X connect 64 0 63 0;
#X connect 65 0 14 1;
#X connect 66 0 64 0;
#X connect 67 0 17 0;
#X connect 68 0 17 0;
#X connect 69 0 76 0;
#X connect 69 0 71 0;
#X connect 70 0 69 0;
#X connect 72 0 73 0;
#X connect 73 0 9 0;
#X connect 74 0 66 0;
#X connect 75 0 64 0;
#X coords 0 669 1 668 90 200 0;
