#N canvas -124 126 992 579 10;
#X declare -path RSVP;
#X declare -path ../sys.comunication;
#X obj 400 100 cnv 15 190 75 empty \$2-canvas empty 20 12 0 14 #14e814 #202020 0;
#X obj 405 105 cnv 15 180 65 empty empty empty 11 12 0 8 #e0e0e0 #404040 0;
#X obj 782 226 table \$0-chopperbuffer;
#X obj 783 108 \$0;
#X obj 783 158 pack;
#X obj 810 109 samplerate~;
#X obj 783 86 t b b;
#X msg 783 183 \; \$1-chopperbuffer resize \$2 \;;
#X obj 810 129 * 5;
#X obj 817 152 send bufflimitchop;
#X obj 553 126 bng 25 250 30 0 empty GENERAL-trigger empty 1 13 0 10 #7c7c7c #f8fc00 #00f8fc;
#X obj 783 64 del 200;
#X obj 655 201 tgl 21 0 workingCHP-OUT workingCHP empty 25 7 0 10 #7c7c7c #202020 #202020 0 1;
#X obj 783 40 loadbang;
#X obj 415 111 cnv 5 32 9 empty empty ON/OFF 2 5 0 8 #000000 #fcfcfc 0;
#X obj 481 323 1;
#X obj 554 154 cnv 5 22 9 empty empty Fire 2 5 0 8 #000000 #fcfcfc 0;
#X obj 466 154 cnv 5 21 9 empty empty FREE 1 5 0 8 #000000 #fcfcfc 0;
#X obj 422 154 cnv 5 21 9 empty empty BUSY 1 5 0 8 #000000 #fcfcfc 0;
#X obj 433 431 s to_pd~_subprocess;
#X obj 344 71 tgl 15 0 empty empty empty 17 7 0 10 #fcfcfc #000000 #000000 0 1;
#X obj 506 261 spigot;
#X obj 511 307 message-to-pd~ chp.busy \$1-\$2;
#X obj 481 344 message-to-pd~ fire \$1-\$2;
#X obj 460 374 message-to-pd~ DSP \$1-\$2;
#X obj 433 393 message-to-pd~ amp-thrs \$1-\$2;
#X obj 446 150 tgl_pre \$1 \$2 chp.work;
#X obj 76 288 pdcontrol;
#X obj 76 311 p ---;
#X obj 451 108 ./customGUI/tgl-but_pre \$1 \$2 DSP;
#X msg 76 256 dir 0;
#X obj 487 505 tgl_pre test test test;
#X obj 345 39 return-from-pd~ \$1-\$2-workingCHP;
#X obj 35 54 declare -path RSVP;
#X obj 35 74 declare -path ../sys.comunication;
#N canvas 1374 126 450 300 blinker 0;
#X obj 49 68 sel 0 1;
#X obj 49 48 speedlim 500;
#X obj 10 6 loadbang;
#X obj 49 100 symbol \$2;
#X msg 49 136 \; \$1-canvas color 12 12 12;
#X obj 129 97 symbol \$2;
#X obj 284 37 tgl 15 0 empty empty empty 17 7 0 10 #fcfcfc #000000 #000000 0 1;
#X msg 129 177 \; \$1-canvas color 16 12 12;
#X text 27 244 blinks the border green when signal enters the instrument;
#X floatatom 170 64 5 0 0 0 - - - 0;
#X obj 49 27 return-from-pd~ \$1-\$2-\$3-\$4-sig-in;
#X connect 0 0 3 0;
#X connect 0 1 5 0;
#X connect 1 0 0 0;
#X connect 2 0 3 0;
#X connect 3 0 4 0;
#X connect 5 0 7 0;
#X connect 6 0 0 0;
#X connect 10 0 1 0;
#X connect 10 0 9 0;
#X restore 35 34 pd blinker;
#X obj 500 108 cnv 5 80 15 empty \$1.\$2.\$3.\$4.color-tag \$2->\$3.\$4 4 8 0 10 #f430f0 #fcfcfc 0;
#N canvas 0 96 450 391 tag 0;
#X obj 131 252 list prepend color;
#X obj 131 280 route list;
#X obj 84 65 \$4;
#X obj 85 87 sel 1 2 3 4 5 6 7 8;
#X obj 84 42 loadbang;
#X obj 131 309 s \$1.\$2.\$3.\$4.color-tag;
#X msg 85 111 13 0 0;
#X msg 98 135 14 0 2;
#X msg 112 159 15 0 2;
#X msg 126 181 16 0 0;
#X msg 140 115 17 0 12;
#X msg 154 137 18 0 0;
#X msg 168 163 19 0 0;
#X msg 182 188 0 0 12;
#X connect 0 0 1 0;
#X connect 1 0 5 0;
#X connect 2 0 3 0;
#X connect 3 0 6 0;
#X connect 3 1 7 0;
#X connect 3 2 8 0;
#X connect 3 3 9 0;
#X connect 3 4 10 0;
#X connect 3 5 11 0;
#X connect 3 6 12 0;
#X connect 3 7 13 0;
#X connect 4 0 2 0;
#X connect 6 0 0 0;
#X connect 7 0 0 0;
#X connect 8 0 0 0;
#X connect 9 0 0 0;
#X connect 10 0 0 0;
#X connect 11 0 0 0;
#X connect 12 0 0 0;
#X connect 13 0 0 0;
#X restore 35 14 pd tag;
#X obj 412 128 hsl_pre \$1 \$2 amp.thr;
#X obj 69 490 bng 15 250 50 0 empty empty empty 17 7 0 10 #fcfcfc #000000 #000000;
#X obj 108 482 loadbang;
#X obj 108 505 audio-module-creator modules/zCHPR~ \$1 \$2 \$3 \$4;
#N canvas 845 191 483 492 blinker 0;
#X obj 49 100 sel 0 1;
#X obj 49 80 speedlim 500;
#X obj 113 304 loadbang;
#X obj 49 27 return-from-pd~ \$1-\$2-sig-in;
#X obj 49 322 symbol \$2;
#X msg 49 358 \; \$1-canvas color 12 12 12;
#X obj 262 268 symbol \$2;
#X msg 262 319 \; \$1-canvas color 16 12 12;
#X text 30 431 blinks the border green when signal enters the instrument;
#X obj 76 223 r \$1-\$2-blinker-off;
#X obj 76 246 sel 0;
#X text 63 391 black;
#X text 290 354 green;
#X text 64 267 turns off when DSP off;
#X floatatom 138 95 5 0 0 0 - - - 0;
#X connect 0 0 4 0;
#X connect 0 1 6 0;
#X connect 1 0 0 0;
#X connect 1 0 14 0;
#X connect 2 0 4 0;
#X connect 3 0 1 0;
#X connect 4 0 5 0;
#X connect 6 0 7 0;
#X connect 9 0 10 0;
#X connect 10 0 4 0;
#X restore 41 106 pd blinker;
#X obj 601 36 r \$1-\$2-fire;
#X connect 3 0 4 0;
#X connect 4 0 7 0;
#X connect 5 0 8 0;
#X connect 6 0 3 0;
#X connect 6 1 5 0;
#X connect 8 0 4 1;
#X connect 8 0 9 0;
#X connect 10 0 21 0;
#X connect 11 0 6 0;
#X connect 13 0 11 0;
#X connect 15 0 23 0;
#X connect 20 0 26 0;
#X connect 21 0 15 0;
#X connect 22 0 19 0;
#X connect 23 0 19 0;
#X connect 24 0 19 0;
#X connect 25 0 19 0;
#X connect 26 0 21 1;
#X connect 26 0 22 0;
#X connect 27 0 28 0;
#X connect 29 0 24 0;
#X connect 30 0 27 0;
#X connect 32 0 20 0;
#X connect 38 0 25 0;
#X connect 39 0 41 0;
#X connect 40 0 41 0;
#X connect 43 0 10 0;
#X coords 0 -1 1 1 190 75 2 400 100;
