#N canvas 294 107 1234 773 10;
#X obj 580 295 osc~;
#X obj 457 373 *~;
#X obj 580 273 * 16;
#X obj 580 334 *~;
#X obj 644 317 line~;
#X msg 644 295 \$1 20;
#X obj 457 411 pansig~;
#N canvas 0 23 512 300 verfreeze_1 0;
#X obj 190 67 r \$0-mirr-inv;
#X obj 29 185 freeverb~;
#X msg 190 122 freeze \$1;
#X obj 190 99 expr if($f1 > -0.05 && $f1 < 0.05 \, 0 \, 1);
#X obj 29 219 *~;
#X obj 126 202 line~;
#X msg 126 180 \$1 20;
#X obj 166 125 tgl 15 0 empty empty empty 17 7 0 10 -262144 -1 -1 0
1;
#X obj 29 127 inlet~;
#X obj 29 241 outlet~;
#X obj 126 158 * 3;
#X connect 0 0 3 0;
#X connect 0 0 10 0;
#X connect 1 0 4 0;
#X connect 1 1 4 0;
#X connect 2 0 1 0;
#X connect 3 0 2 0;
#X connect 3 0 7 0;
#X connect 4 0 9 0;
#X connect 5 0 4 1;
#X connect 6 0 5 0;
#X connect 8 0 1 0;
#X connect 10 0 6 0;
#X restore 565 450 pd verfreeze_1;
#N canvas 0 23 512 300 verfreeze_2 0;
#X obj 29 185 freeverb~;
#X msg 190 122 freeze \$1;
#X obj 190 99 expr if($f1 > -0.05 && $f1 < 0.05 \, 0 \, 1);
#X obj 29 219 *~;
#X obj 126 202 line~;
#X msg 126 180 \$1 20;
#X obj 166 125 tgl 15 0 empty empty empty 17 7 0 10 -262144 -1 -1 0
1;
#X obj 29 127 inlet~;
#X obj 29 241 outlet~;
#X obj 190 67 r \$0-mirr;
#X obj 126 158 * 3;
#X connect 0 0 3 0;
#X connect 0 1 3 0;
#X connect 1 0 0 0;
#X connect 2 0 1 0;
#X connect 2 0 6 0;
#X connect 3 0 8 0;
#X connect 4 0 3 1;
#X connect 5 0 4 0;
#X connect 7 0 0 0;
#X connect 9 0 2 0;
#X connect 9 0 10 0;
#X connect 10 0 5 0;
#X restore 833 452 pd verfreeze_2;
#N canvas 1340 68 517 517 transposer-1 0;
#X obj 82 358 *~;
#X obj 205 295 line~;
#X obj 205 269 pack 0 200;
#X obj 19 143 exp;
#X obj 19 259 /;
#X obj 146 189 * 0.001;
#X obj 314 365 line~;
#X obj 314 340 pack 0 200;
#X floatatom 314 289 0 0 0 0 - - -;
#X obj 314 263 r delay;
#X obj 82 384 +~;
#X obj 19 410 cos~;
#X obj 19 437 *~;
#X obj 19 466 +~;
#X obj 106 317 wrap~;
#X obj 251 360 *~;
#X obj 251 393 +~;
#X obj 188 420 cos~;
#X obj 188 447 *~;
#X obj 146 216 t b f;
#X obj 106 290 +~ 0.5;
#X obj 19 358 -~ 0.5;
#X obj 19 384 *~ 0.5;
#X obj 188 359 -~ 0.5;
#X obj 188 392 *~ 0.5;
#X obj 19 196 - 1;
#X obj 19 117 * 0.05776;
#X obj 19 222 * -1;
#X text 82 163 speed;
#X text 81 177 change;
#X text 281 111 <--window (msec);
#X text 54 252 tape head;
#X obj 19 316 phasor~;
#X obj 314 316 max 1.5;
#X text 317 222 delay;
#X text 314 240 (msec);
#X obj 237 139 max 1;
#X text 55 265 rotation freq;
#X obj 82 410 vd~ pshift-1;
#X obj 251 422 vd~ pshift-1;
#X obj 237 88 loadbang;
#X msg 237 114 100;
#X obj 19 488 outlet~;
#X obj 19 11 r \$0-lineal;
#X obj 19 32 * 24;
#X obj 19 52 - 12;
#X obj 19 95 line;
#X msg 19 73 \$1 50;
#X connect 0 0 10 0;
#X connect 1 0 0 1;
#X connect 1 0 15 1;
#X connect 2 0 1 0;
#X connect 3 0 25 0;
#X connect 4 0 32 0;
#X connect 5 0 19 0;
#X connect 6 0 10 1;
#X connect 6 0 16 1;
#X connect 7 0 6 0;
#X connect 8 0 33 0;
#X connect 9 0 8 0;
#X connect 10 0 38 0;
#X connect 11 0 12 0;
#X connect 12 0 13 0;
#X connect 13 0 42 0;
#X connect 14 0 15 0;
#X connect 14 0 23 0;
#X connect 15 0 16 0;
#X connect 16 0 39 0;
#X connect 17 0 18 0;
#X connect 18 0 13 1;
#X connect 19 0 4 0;
#X connect 19 1 4 1;
#X connect 20 0 14 0;
#X connect 21 0 22 0;
#X connect 22 0 11 0;
#X connect 23 0 24 0;
#X connect 24 0 17 0;
#X connect 25 0 27 0;
#X connect 26 0 3 0;
#X connect 27 0 4 0;
#X connect 32 0 0 0;
#X connect 32 0 21 0;
#X connect 32 0 20 0;
#X connect 33 0 7 0;
#X connect 36 0 5 0;
#X connect 36 0 2 0;
#X connect 38 0 12 1;
#X connect 39 0 18 1;
#X connect 40 0 41 0;
#X connect 41 0 36 0;
#X connect 43 0 44 0;
#X connect 44 0 45 0;
#X connect 45 0 47 0;
#X connect 46 0 26 0;
#X connect 47 0 46 0;
#X restore 789 46 pd transposer-1;
#X obj 597 477 delwrite~ pshift-1 5000;
#N canvas 1340 68 517 517 transposer-2 0;
#X obj 82 358 *~;
#X obj 205 295 line~;
#X obj 205 269 pack 0 200;
#X obj 19 143 exp;
#X obj 19 259 /;
#X obj 146 189 * 0.001;
#X obj 314 365 line~;
#X obj 314 340 pack 0 200;
#X floatatom 314 289 0 0 0 0 - - -;
#X obj 314 263 r delay;
#X obj 82 384 +~;
#X obj 19 410 cos~;
#X obj 19 437 *~;
#X obj 19 466 +~;
#X obj 106 317 wrap~;
#X obj 251 360 *~;
#X obj 251 393 +~;
#X obj 188 420 cos~;
#X obj 188 447 *~;
#X obj 146 216 t b f;
#X obj 106 290 +~ 0.5;
#X obj 19 358 -~ 0.5;
#X obj 19 384 *~ 0.5;
#X obj 188 359 -~ 0.5;
#X obj 188 392 *~ 0.5;
#X obj 19 196 - 1;
#X obj 19 117 * 0.05776;
#X obj 19 222 * -1;
#X text 82 163 speed;
#X text 81 177 change;
#X text 281 111 <--window (msec);
#X text 54 252 tape head;
#X obj 19 316 phasor~;
#X obj 314 316 max 1.5;
#X text 317 222 delay;
#X text 314 240 (msec);
#X obj 237 139 max 1;
#X text 55 265 rotation freq;
#X obj 237 88 loadbang;
#X msg 237 114 100;
#X obj 19 488 outlet~;
#X obj 251 422 vd~ pshift-2;
#X obj 82 410 vd~ pshift-2;
#X obj 19 32 * 24;
#X obj 19 52 - 12;
#X obj 19 95 line;
#X msg 19 73 \$1 50;
#X obj 19 11 r \$0-inverse;
#X connect 0 0 10 0;
#X connect 1 0 0 1;
#X connect 1 0 15 1;
#X connect 2 0 1 0;
#X connect 3 0 25 0;
#X connect 4 0 32 0;
#X connect 5 0 19 0;
#X connect 6 0 10 1;
#X connect 6 0 16 1;
#X connect 7 0 6 0;
#X connect 8 0 33 0;
#X connect 9 0 8 0;
#X connect 10 0 42 0;
#X connect 11 0 12 0;
#X connect 12 0 13 0;
#X connect 13 0 40 0;
#X connect 14 0 15 0;
#X connect 14 0 23 0;
#X connect 15 0 16 0;
#X connect 16 0 41 0;
#X connect 17 0 18 0;
#X connect 18 0 13 1;
#X connect 19 0 4 0;
#X connect 19 1 4 1;
#X connect 20 0 14 0;
#X connect 21 0 22 0;
#X connect 22 0 11 0;
#X connect 23 0 24 0;
#X connect 24 0 17 0;
#X connect 25 0 27 0;
#X connect 26 0 3 0;
#X connect 27 0 4 0;
#X connect 32 0 0 0;
#X connect 32 0 21 0;
#X connect 32 0 20 0;
#X connect 33 0 7 0;
#X connect 36 0 5 0;
#X connect 36 0 2 0;
#X connect 38 0 39 0;
#X connect 39 0 36 0;
#X connect 41 0 18 1;
#X connect 42 0 12 1;
#X connect 43 0 44 0;
#X connect 44 0 46 0;
#X connect 45 0 26 0;
#X connect 46 0 45 0;
#X connect 47 0 43 0;
#X restore 940 49 pd transposer-2;
#X obj 865 477 delwrite~ pshift-2 5000;
#X obj 940 189 pansig~;
#X obj 789 182 pansig~;
#N canvas 0 23 450 300 bc 0;
#X obj 202 52 inlet~;
#X obj 202 156 outlet~;
#X obj 275 157 outlet~;
#X connect 0 0 1 0;
#X connect 0 0 2 0;
#X restore 833 428 pd bc;
#N canvas 0 23 450 300 bc 0;
#X obj 202 52 inlet~;
#X obj 202 156 outlet~;
#X obj 275 157 outlet~;
#X connect 0 0 1 0;
#X connect 0 0 2 0;
#X restore 565 428 pd bc;
#X obj 833 577 pansig~;
#X obj 564 579 pansig~;
#X obj 604 546 osc~;
#X obj 604 524 * 3;
#X obj 873 549 osc~;
#X obj 457 611 throw~ ctrl-L;
#X obj 495 642 throw~ ctrl-R;
#X obj 564 612 throw~ ctrl-L;
#X obj 603 637 throw~ ctrl-R;
#X obj 833 612 throw~ ctrl-L;
#X obj 871 634 throw~ ctrl-R;
#X obj 873 524 * 7;
#X obj 829 142 osc~;
#X obj 829 100 * 5;
#X obj 995 171 osc~;
#X obj 995 149 * 13;
#X obj 789 213 throw~ ctrl-L;
#X obj 828 237 throw~ ctrl-R;
#X obj 940 219 throw~ ctrl-L;
#X obj 978 241 throw~ ctrl-R;
#X obj 789 123 *~ 0.5;
#X obj 941 114 *~ 0.5;
#X obj 457 495 *~ 0.5;
#X obj 496 532 *~ 0.5;
#X obj 500 149 env~;
#X obj 257 407 DSP-ON;
#X obj 290 447 switch~;
#X obj 91 453 *~;
#X obj 129 453 *~;
#X obj 260 523 /~ 2;
#X obj 91 517 throw~ 2master_L;
#X obj 129 542 throw~ 2master_R;
#X obj 260 600 s vu-\$1;
#X obj 260 544 env~;
#X obj 91 207 r vol-\$1-send;
#X obj 91 413 *~;
#X obj 129 413 *~;
#X obj 91 252 line~;
#X msg 91 230 \$1 20;
#X obj 260 570 - 90;
#X obj 212 253 catch~ ctrl-L;
#X obj 263 277 catch~ ctrl-R;
#X obj 212 342 freeverb~;
#X msg 154 291 wet 0.5;
#X msg 154 311 dry 0.8;
#X obj 130 270 loadbang;
#X obj 234 399 tgl 15 0 empty empty empty 17 7 0 10 -262144 -1 -1 0
1;
#X obj 829 76 r mirr-inv;
#X obj 995 125 r mirr;
#X obj 644 272 r mirr;
#X obj 580 249 r lineal;
#X floatatom 691 290 5 0 0 0 - - -, f 5;
#X floatatom 534 267 5 0 0 0 - - -, f 5;
#X floatatom 897 94 5 0 0 0 - - -, f 5;
#X floatatom 1035 143 5 0 0 0 - - -, f 5;
#X obj 604 500 r mirr;
#X obj 873 500 r mirr-inv;
#X floatatom 594 165 5 0 0 0 - - -, f 5;
#X obj 457 90 r~ to_ctrl;
#X obj 257 382 r \$1-DSP;
#X obj 500 171 s sig-in-\$1;
#X obj 500 226 stdout;
#X obj 500 201 message-to-pd~ sig-in \$1;
#X obj 335 333 r send-CTRL-send;
#X connect 0 0 3 0;
#X connect 0 0 6 1;
#X connect 1 0 6 0;
#X connect 2 0 0 0;
#X connect 3 0 1 1;
#X connect 4 0 3 1;
#X connect 5 0 4 0;
#X connect 6 0 16 0;
#X connect 6 0 39 0;
#X connect 6 1 15 0;
#X connect 6 1 40 0;
#X connect 7 0 10 0;
#X connect 7 0 18 0;
#X connect 8 0 12 0;
#X connect 8 0 17 0;
#X connect 9 0 37 0;
#X connect 11 0 38 0;
#X connect 13 0 35 0;
#X connect 13 1 36 0;
#X connect 14 0 33 0;
#X connect 14 1 34 0;
#X connect 15 0 8 0;
#X connect 15 1 12 0;
#X connect 16 0 7 0;
#X connect 16 1 10 0;
#X connect 17 0 26 0;
#X connect 17 1 27 0;
#X connect 18 0 24 0;
#X connect 18 1 25 0;
#X connect 19 0 18 1;
#X connect 20 0 19 0;
#X connect 21 0 17 1;
#X connect 28 0 21 0;
#X connect 29 0 14 1;
#X connect 30 0 29 0;
#X connect 31 0 13 1;
#X connect 32 0 31 0;
#X connect 37 0 14 0;
#X connect 38 0 13 0;
#X connect 39 0 22 0;
#X connect 40 0 23 0;
#X connect 41 0 74 0;
#X connect 41 0 77 0;
#X connect 41 0 79 0;
#X connect 42 0 45 1;
#X connect 42 0 44 1;
#X connect 42 1 43 0;
#X connect 42 1 56 0;
#X connect 44 0 46 0;
#X connect 44 0 47 0;
#X connect 45 0 46 0;
#X connect 45 0 48 0;
#X connect 46 0 50 0;
#X connect 50 0 56 0;
#X connect 51 0 55 0;
#X connect 52 0 44 0;
#X connect 53 0 45 0;
#X connect 54 0 52 0;
#X connect 54 0 53 0;
#X connect 55 0 54 0;
#X connect 56 0 49 0;
#X connect 57 0 59 0;
#X connect 58 0 59 1;
#X connect 59 0 52 1;
#X connect 59 1 53 1;
#X connect 60 0 59 0;
#X connect 61 0 59 0;
#X connect 62 0 60 0;
#X connect 62 0 61 0;
#X connect 64 0 30 0;
#X connect 64 0 70 0;
#X connect 65 0 32 0;
#X connect 65 0 71 0;
#X connect 66 0 5 0;
#X connect 66 0 68 0;
#X connect 67 0 2 0;
#X connect 67 0 69 0;
#X connect 72 0 20 0;
#X connect 73 0 28 0;
#X connect 75 0 1 0;
#X connect 75 0 41 0;
#X connect 76 0 42 0;
#X connect 76 0 63 0;
#X connect 79 0 78 0;
