#N canvas 98 96 886 569 10;
#X declare -path ../sys.comunication;
#X obj 100 100 cnv 15 210 200 empty empty empty 20 12 0 14 #202020 #404040 0;
#X obj 105 105 cnv 15 200 190 empty empty empty 12 11 0 14 #e0e0e0 #404040 0;
#X obj 652 98 declare -path ../sys.comunication;
#X obj 133 106 cnv 5 100 15 empty empty DATA/PROCESSING 5 8 0 10 #000000 #fcfcfc 0;
#X obj 29 25 zdata_subp_temp;
#X text 84 23 subpatch template which is renamed to ptch_\$3-\$1.pd;
#X obj 277 196 bng 25 250 50 0 empty empty empty 25 8 0 10 #9c00ff #faff00 #000000;
#X obj 678 30 bng 50 250 50 0 empty empty reset 0 -9 0 10 #fcfcfc #000000 #000000;
#X obj 115 146 nbx 3 32 -1e+37 1e+37 0 0 empty empty SCENE 95 20 0 28 #ffc7c6 #000000 #000000 0 256;
#X obj 129 260 nbx 3 18 -1e+37 1e+37 0 0 empty empty SCENE 2 -8 0 14 #ffc7c6 #000000 #000000 0 256;
#X obj 105 221 cnv 5 100 15 empty empty Open/Scene 5 8 0 10 #000000 #fcfcfc 0;
#X obj 203 239 bng 15 250 50 0 empty empty empty 0 -9 0 10 #ff0400 #0400ff #000000;
#X obj 203 258 bng 15 250 50 0 empty empty empty 0 -9 0 10 #ff0400 #0400ff #000000;
#X obj 203 277 bng 15 250 50 0 empty empty empty 0 -9 0 10 #ff0400 #0400ff #000000;
#X obj 222 239 cnv 5 80 15 empty empty Prev/Scene 5 8 0 10 #000000 #fcfcfc 0;
#X obj 222 258 cnv 5 80 15 empty empty Picked/Scene 5 8 0 10 #000000 #fcfcfc 0;
#X obj 222 277 cnv 5 80 15 empty empty Next/Scene 5 8 0 10 #000000 #fcfcfc 0;
#X obj 115 129 cnv 5 80 15 empty empty CURRENT 5 8 0 10 #000000 #fcfcfc 0;
#X floatatom 106 201 5 0 0 0 - \$0-number-of-subpatches - 0;
#X obj 214 126 bng 20 250 50 0 empty empty empty 25 10 0 10 #0400ff #00ff04 #000000;
#X obj 196 196 cnv 5 80 15 empty empty New/Scene--> 5 8 0 10 #000000 #fcfcfc 0;
#X obj 235 129 cnv 5 70 15 empty empty Open/Scene 5 7 0 10 #000000 #fcfcfc 0;
#X obj 105 183 cnv 5 80 15 empty empty Total/Scenes 5 7 0 10 #000000 #fcfcfc 0;
#N canvas 1363 491 369 267 open-current 0;
#X obj 20 20 inlet;
#X obj 70 20 inlet;
#X obj 30 180 send;
#X msg 30 115 vis 1;
#X obj 148 99 symbol \$1;
#X obj 30 81 t b a b;
#X obj 70 162 symbol;
#X obj 30 137 t a b;
#X msg 103 140 symbol pd-ptch_\$1-\$2.pd;
#X obj 30 60 int;
#X obj 103 119 pack f s;
#X connect 0 0 9 1;
#X connect 1 0 9 0;
#X connect 3 0 7 0;
#X connect 4 0 10 1;
#X connect 5 0 3 0;
#X connect 5 1 10 0;
#X connect 5 2 4 0;
#X connect 6 0 2 1;
#X connect 7 0 2 0;
#X connect 7 1 6 0;
#X connect 8 0 6 1;
#X connect 9 0 5 0;
#X connect 10 0 8 0;
#X restore 21 351 pd open-current;
#N canvas 1688 260 662 450 open-custom 0;
#X obj 20 20 inlet;
#X obj 70 20 inlet;
#X obj 32 272 send;
#X msg 32 207 vis 1;
#X obj 150 191 symbol \$1;
#X obj 32 173 t b a b;
#X obj 72 254 symbol;
#X obj 32 229 t a b;
#X msg 105 232 symbol pd-ptch_\$1-\$2.pd;
#X obj 32 152 int;
#X obj 105 211 pack f s;
#X obj 435 78 + 1;
#X obj 286 102 - 1;
#X text 467 77 next;
#X text 319 103 previous;
#X obj 257 18 inlet;
#X obj 267 129 i;
#X obj 415 134 i;
#X obj 417 11 inlet;
#X connect 0 0 9 1;
#X connect 0 0 12 0;
#X connect 0 0 11 0;
#X connect 1 0 9 0;
#X connect 3 0 7 0;
#X connect 4 0 10 1;
#X connect 5 0 3 0;
#X connect 5 1 10 0;
#X connect 5 2 4 0;
#X connect 6 0 2 1;
#X connect 7 0 2 0;
#X connect 7 1 6 0;
#X connect 8 0 6 1;
#X connect 9 0 5 0;
#X connect 10 0 8 0;
#X connect 11 0 17 1;
#X connect 12 0 16 1;
#X connect 15 0 16 0;
#X connect 16 0 5 0;
#X connect 17 0 5 0;
#X connect 18 0 17 0;
#X restore 130 398 pd open-custom;
#X obj 648 281 t b b;
#N canvas 393 32 890 711 check-dir-create-dir 0;
#X obj 44 579 file isdirectory;
#X obj 44 554 route list;
#X msg 44 504 \$1/zDATA_subpatches;
#X obj 44 531 list prepend symbol;
#X obj 44 600 sel 0;
#X obj 71 647 file mkdir;
#X msg 71 627 symbol \$1/zDATA_subpatches;
#X obj 258 321 file glob;
#X msg 258 296 symbol \$1/*;
#X obj 46 150 pdcontrol;
#X obj 258 387 text set \$0-directorio;
#X obj 139 134 text define \$0-directorio;
#X obj 258 344 t a b;
#X obj 301 362 1e+12;
#X msg 139 111 clear;
#X obj 28 288 text search \$0-directorio;
#X msg 28 268 symbol \$1/zDATA_subpatches;
#X obj 28 246 symbol;
#X obj 28 311 == -1;
#X obj 28 334 sel 1;
#X obj 44 359 symbol;
#X obj 46 181 t b a a a a;
#X obj 46 93 t b b;
#X obj 333 199 send \$0-path;
#X obj 410 201 cnv 15 15 15 empty empty empty 20 12 0 14 #00ff04 #404040 0;
#X text 348 298 records directory contents in a [text] to check if the subfolder "zDATA_subpatches exists, f 30;
#X text 90 318 searches for an existing folder named "zDATA_subpatches", f 20;
#X text 195 517 creates the "zDATA_subpatches" directory if it does not exist, f 19;
#X text 407 471 13/02/2023 \; \; this patch gets the path and lists the directory contents to check if the subfolder containing the "scene" patches exists. If it does not exist \, then it creates it.;
#X obj 46 66 inlet;
#X msg 46 126 dir 0;
#X msg 457 125 /home/jrsv/Dropbox/Baritone-Sax/Cosmos_&_Galatea_pd_patch/./RSVP.frmwrk/./modules/zDATA_subpatches;
#X obj 44 442 t a a;
#X connect 0 0 4 0;
#X connect 1 0 0 0;
#X connect 2 0 3 0;
#X connect 3 0 1 0;
#X connect 4 0 6 0;
#X connect 6 0 5 0;
#X connect 7 0 12 0;
#X connect 8 0 7 0;
#X connect 9 0 21 0;
#X connect 12 0 10 0;
#X connect 12 1 13 0;
#X connect 13 0 10 1;
#X connect 14 0 11 0;
#X connect 15 0 18 0;
#X connect 16 0 15 0;
#X connect 17 0 16 0;
#X connect 18 0 19 0;
#X connect 19 0 20 0;
#X connect 20 0 32 0;
#X connect 21 0 17 0;
#X connect 21 1 17 1;
#X connect 21 2 20 1;
#X connect 21 3 8 0;
#X connect 21 4 23 0;
#X connect 22 0 30 0;
#X connect 22 1 14 0;
#X connect 29 0 22 0;
#X connect 30 0 9 0;
#X connect 32 0 2 0;
#X connect 32 1 6 0;
#X restore 675 313 pd check-dir-create-dir;
#X text 490 7 arguments: \; 1- Project name \; 2- Module name;
#X text 74 458 patch creates a subdirectory called "zDATA_subpatches" is the directory does not exist.if it does \, then it ignores this command. \;, f 36;
#X obj 435 76 cnv 10 100 15 empty empty abstractions 5 8 0 10 #00ff04 #0400ff 0;
#N canvas 815 398 450 300 \$0-scenes-abstractions 0;
#X restore 435 93 pd \$0-scenes-abstractions;
#N canvas 1768 484 647 377 copy-template 0;
#X obj 88 257 file copy;
#X obj 88 236 list prepend;
#X msg 165 216 \$1/zdata_subp_temp.pd;
#X obj 88 70 f;
#X obj 113 70 + 1;
#X msg 88 195 \$2/zDATA_subpatches/ptch_\$1-\$3.pd;
#X obj 88 174 pack f s s;
#X obj 145 149 symbol \$1;
#X obj 186 104 cnv 15 15 15 empty empty empty 20 12 0 14 #00ff04 #404040 0;
#X obj 126 101 r \$0-path;
#X obj 126 124 t a b a;
#X obj 65 39 bng 18 250 50 0 empty empty empty 0 -9 0 10 #fcfcfc #000000 #000000;
#X obj 88 93 + 1;
#X floatatom 53 113 5 0 0 0 - - - 0;
#X obj 88 38 inlet;
#X obj 314 52 inlet;
#X text 387 54 copies the template to folder starting from the number of elements in the DIR + 1, f 30;
#X obj 88 280 t b;
#X obj 88 303 outlet;
#X connect 0 0 17 0;
#X connect 1 0 0 0;
#X connect 2 0 1 1;
#X connect 3 0 4 0;
#X connect 3 0 12 0;
#X connect 4 0 3 1;
#X connect 5 0 1 0;
#X connect 6 0 5 0;
#X connect 7 0 6 2;
#X connect 9 0 10 0;
#X connect 10 0 6 1;
#X connect 10 1 7 0;
#X connect 10 2 2 0;
#X connect 11 0 3 0;
#X connect 12 0 6 0;
#X connect 12 0 13 0;
#X connect 14 0 3 0;
#X connect 15 0 3 1;
#X connect 17 0 18 0;
#X restore 411 390 pd copy-template;
#N canvas 68 45 918 657 repopulate-with-existing-abstractions 0;
#X obj 430 8 inlet number-of-abs-in-direcotry;
#X obj 341 534 list append;
#X obj 341 554 route list;
#X text 230 150 Dynamic Patching;
#X msg 341 275 ./zDATA_subpatches/ptch_\$3-\$1 \$1 \$2 \$3;
#X msg 341 494 obj \$2 \$1;
#X obj 341 470 pack f 110;
#X obj 427 299 mod 10;
#X obj 427 322 sel 0;
#X obj 427 395 f;
#X floatatom 427 438 5 0 0 1 columna - - 0;
#X obj 341 406 f;
#X floatatom 341 446 5 0 0 0 - - - 0;
#X msg 454 363 0;
#X obj 427 343 t a b;
#X text 485 395 ancho;
#X text 308 410 alto;
#X text 378 429 offset;
#X text 352 513 position X - Y;
#X text 516 91 reset;
#X obj 341 252 pack s s f;
#X obj 341 177 symbol \$1;
#X obj 369 219 symbol \$2;
#X obj 341 312 t b a;
#X msg 489 92 0;
#X obj 397 200 + 1;
#X obj 365 406 + 17;
#X obj 451 395 + 50;
#X obj 341 426 + 0;
#X obj 427 418 + 0;
#X obj 341 84 until;
#X obj 341 155 t b b f b;
#X obj 341 130 f;
#X obj 366 130 + 1;
#X obj 341 607 send pd-\$0-scenes-abstractions;
#X obj 430 46 t a b;
#X obj 26 26 inlet;
#X text 71 22 bang create new scene after load.;
#X connect 0 0 35 0;
#X connect 1 0 2 0;
#X connect 2 0 34 0;
#X connect 4 0 23 0;
#X connect 5 0 1 0;
#X connect 6 0 5 0;
#X connect 7 0 8 0;
#X connect 8 0 14 0;
#X connect 9 0 27 0;
#X connect 9 0 29 0;
#X connect 10 0 6 1;
#X connect 11 0 26 0;
#X connect 11 0 28 0;
#X connect 12 0 6 0;
#X connect 13 0 11 1;
#X connect 14 0 9 0;
#X connect 14 1 13 0;
#X connect 20 0 4 0;
#X connect 21 0 20 0;
#X connect 22 0 20 1;
#X connect 23 0 11 0;
#X connect 23 1 1 1;
#X connect 24 0 9 1;
#X connect 24 0 11 1;
#X connect 24 0 32 1;
#X connect 25 0 20 2;
#X connect 26 0 11 1;
#X connect 27 0 9 1;
#X connect 28 0 12 0;
#X connect 29 0 10 0;
#X connect 30 0 32 0;
#X connect 31 0 21 0;
#X connect 31 1 22 0;
#X connect 31 2 25 0;
#X connect 31 2 7 0;
#X connect 32 0 33 0;
#X connect 32 0 31 0;
#X connect 33 0 32 1;
#X connect 35 0 30 0;
#X connect 35 1 24 0;
#X connect 36 0 32 0;
#X restore 411 413 pd repopulate-with-existing-abstractions;
#X obj 648 256 loadbang;
#X obj 702 255 bng 18 250 50 0 empty empty empty 0 -9 0 10 #fcfcfc #000000 #000000;
#X obj 411 293 t b b;
#N canvas 2127 182 379 549 check-abs-in-directory-on-startUp 0;
#X obj 53 29 inlet;
#X obj 53 447 outlet;
#X obj 87 306 file glob;
#X msg 87 281 symbol \$1/*;
#X obj 87 329 t a b;
#X obj 130 347 1e+12;
#X obj 87 260 symbol;
#X obj 179 180 cnv 15 15 15 empty empty empty 20 12 0 14 #00ff04 #404040 0;
#X obj 120 178 r \$0-path;
#X msg 120 206 symbol \$1/zDATA_subpatches;
#X obj 53 199 bng 18 250 50 0 empty empty empty 0 -9 0 10 #fcfcfc #000000 #000000;
#X msg 144 107 clear;
#X obj 53 237 t b b;
#X obj 53 417 s \$0-number-of-subpatches;
#X obj 208 419 cnv 15 15 15 empty empty empty 20 12 0 14 #9c00ff #404040 0;
#X obj 30 60 bng 18 250 50 0 empty empty empty 0 -9 0 10 #fcfcfc #000000 #000000;
#X obj 53 89 t b b;
#X obj 144 129 text define \$0-zDATA-init;
#X obj 87 372 text set \$0-zDATA-init;
#X obj 53 394 text size \$0-zDATA-init;
#X connect 0 0 16 0;
#X connect 2 0 4 0;
#X connect 3 0 2 0;
#X connect 4 0 18 0;
#X connect 4 1 5 0;
#X connect 5 0 18 1;
#X connect 6 0 3 0;
#X connect 8 0 9 0;
#X connect 9 0 6 1;
#X connect 10 0 12 0;
#X connect 11 0 17 0;
#X connect 12 0 19 0;
#X connect 12 1 6 0;
#X connect 15 0 16 0;
#X connect 16 0 10 0;
#X connect 16 1 11 0;
#X connect 19 0 13 0;
#X connect 19 0 1 0;
#X restore 648 336 pd check-abs-in-directory-on-startUp;
#N canvas 948 132 379 549 check-abs-in-directory-updated 0;
#X obj 53 83 inlet;
#X obj 53 447 outlet;
#X obj 87 276 file glob;
#X msg 87 251 symbol \$1/*;
#X obj 87 299 t a b;
#X obj 130 317 1e+12;
#X obj 87 342 text set \$0-zDATA;
#X obj 87 230 symbol;
#X obj 179 180 cnv 15 15 15 empty empty empty 20 12 0 14 #00ff04 #404040 0;
#X obj 120 178 r \$0-path;
#X msg 120 206 symbol \$1/zDATA_subpatches;
#X obj 31 80 bng 18 250 50 0 empty empty empty 0 -9 0 10 #fcfcfc #000000 #000000;
#X obj 53 394 text size \$0-zDATA;
#X obj 105 439 s \$0-number-of-subpatches;
#X obj 260 441 cnv 15 15 15 empty empty empty 20 12 0 14 #9c00ff #404040 0;
#X msg 205 141 clear;
#X obj 53 123 t b b b;
#X obj 205 163 text define \$0-zDATA;
#X connect 0 0 16 0;
#X connect 2 0 4 0;
#X connect 3 0 2 0;
#X connect 4 0 6 0;
#X connect 4 1 5 0;
#X connect 5 0 6 1;
#X connect 7 0 3 0;
#X connect 9 0 10 0;
#X connect 10 0 7 1;
#X connect 11 0 16 0;
#X connect 12 0 13 0;
#X connect 12 0 1 0;
#X connect 15 0 17 0;
#X connect 16 0 12 0;
#X connect 16 1 7 0;
#X connect 16 2 15 0;
#X restore 504 369 pd check-abs-in-directory-updated;
#X obj 115 65 r CURRENT-PATCH-NUMBER-\$1;
#X obj 678 172 send pd-\$0-scenes-abstractions;
#X msg 678 149 clear;
#X connect 6 0 35 0;
#X connect 7 0 40 0;
#X connect 8 0 23 0;
#X connect 9 0 24 0;
#X connect 11 0 24 2;
#X connect 12 0 24 1;
#X connect 13 0 24 3;
#X connect 19 0 23 1;
#X connect 25 0 36 0;
#X connect 25 1 26 0;
#X connect 31 0 32 0;
#X connect 33 0 25 0;
#X connect 34 0 25 0;
#X connect 35 0 31 0;
#X connect 35 1 37 0;
#X connect 36 0 32 1;
#X connect 37 0 31 1;
#X connect 38 0 8 0;
#X connect 40 0 39 0;
#X coords 0 -1 1 1 210 200 2 100 100;
