#N canvas 2243 56 880 673 10;
#X obj 39 28 catch~ to_\$3-\$4;
#X obj 740 97 switch~;
#X obj 707 69 DSP-ON;
#X obj 707 119 s~ \$0-DSP-on_off;
#X obj 750 71 tgl 15 0 empty empty empty 17 7 0 10 -262144 -1 -1 0
1;
#X obj 707 37 r \$1-\$2-DSP;
#X obj 171 11 cnv 15 500 600 empty empty tu_algoritmo 400 12 0 14 -233017
-66577 0;
#X obj 233 75 delwrite~ \$0-delay 1000;
#X obj 246 197 pack f 20;
#X obj 246 220 line~;
#X obj 245 247 delread4~ \$0-delay;
#X obj 294 478 *~;
#X obj 334 438 pack f 20;
#X obj 334 461 line~;
#X obj 557 126 cnv 15 110 15 empty empty mensaje-desde_GUI 2 7 0 10
-258113 -262144 0;
#X obj 207 560 motex/pansig~;
#N canvas 2 85 450 300 pass 0;
#X obj 106 44 inlet~;
#X obj 106 67 outlet~;
#X connect 0 0 1 0;
#X restore 206 49 pd pass;
#X obj 558 387 cnv 15 110 15 empty empty mensaje-desde_GUI 2 7 0 10
-258113 -262144 0;
#X obj 429 216 random 100;
#X obj 429 239 - 200;
#X obj 429 262 / 100;
#X obj 410 170 t a b a;
#X obj 428 509 pack f f;
#X obj 428 532 line~;
#X text 185 561 pan;
#X text 440 550 pan;
#X text 471 234 pan;
#X text 506 404 feedback;
#X text 493 144 delay time;
#X text 281 93 graba al buffer;
#X text 269 264 lee del buffer;
#N canvas 398 202 255 328 RSVP-2-blinker 0;
#X obj 44 20 inlet~;
#X obj 45 60 env~, f 5;
#X obj 45 238 stdout;
#X obj 45 80 > 0;
#X obj 45 99 change;
#X obj 45 134 message-to-pd~ sig-in \$1-\$2;
#X text 105 154 esta abstraccion se creara cuando se abra este patch
como abstraccion en RSVP, f 22;
#X connect 0 0 1 0;
#X connect 1 0 3 0;
#X connect 3 0 4 0;
#X connect 4 0 5 0;
#X connect 5 0 2 0;
#X restore 40 104 pd RSVP-2-blinker;
#X obj 38 7 cnv 5 100 5 empty empty RSVP.INPUT 10 12 0 14 -4032 -66577
0;
#X obj 79 606 cnv 5 700 5 empty empty RSVP.OUTPUT 10 12 0 14 -4032
-66577 0;
#X text 698 513 argumentos: \; 1 nombre del proyecto \; 2 nombre del
modulo \; 3 nombre propio \; 4... otros;
#N canvas 322 377 888 567 RSVP.module.audio.output 0;
#X obj 192 9 inlet~;
#X obj 433 6 inlet~;
#X obj 191 472 throw~ 2master_L;
#X obj 191 443 *~;
#X obj 403 445 *~;
#X obj 403 377 r~ \$0-DSP-on_off;
#X obj 191 244 *~;
#X obj 417 244 *~;
#X obj 280 216 line~;
#X obj 677 197 line~;
#X obj 403 471 throw~ 2master_R;
#X obj 280 171 * 1.5;
#X obj 280 194 pack f 20;
#X obj 677 175 pack f 20;
#X obj 571 302 *~;
#X obj 570 198 /~ 1;
#X obj 93 326 /~ 2;
#X floatatom 746 190 5 0 0 0 - - -;
#X floatatom 345 186 5 0 0 0 - - -;
#X obj 677 150 r send-\$1-\$2-send;
#X obj 280 140 r vol-\$1-\$2-send;
#X msg 67 297 set \$1;
#X obj 67 227 loadbang;
#X obj 67 248 i \$4;
#X obj 67 273 + 4;
#X obj 570 328 throw~ from_\$3-\$4;
#X text 523 199 to send;
#X text 132 246 to master;
#X text 16 367 for vumeter;
#X obj 92 365 dac~ \$4;
#X text 213 123 se vincula a [channelstrip];
#X text 643 128 se vincula a [channelstrip];
#X text 507 374 from DSP ON/OFF;
#X connect 0 0 6 0;
#X connect 0 0 15 0;
#X connect 1 0 7 1;
#X connect 1 0 15 0;
#X connect 3 0 2 0;
#X connect 4 0 10 0;
#X connect 5 0 3 1;
#X connect 5 0 4 0;
#X connect 6 0 3 0;
#X connect 6 0 16 0;
#X connect 7 0 4 1;
#X connect 7 0 16 0;
#X connect 8 0 6 1;
#X connect 8 0 7 0;
#X connect 9 0 14 1;
#X connect 11 0 12 0;
#X connect 12 0 8 0;
#X connect 13 0 9 0;
#X connect 14 0 25 0;
#X connect 15 0 14 0;
#X connect 16 0 29 0;
#X connect 19 0 13 0;
#X connect 19 0 17 0;
#X connect 20 0 11 0;
#X connect 20 0 18 0;
#X connect 21 0 29 0;
#X connect 22 0 23 0;
#X connect 23 0 24 0;
#X connect 24 0 21 0;
#X restore 206 625 pd RSVP.module.audio.output;
#X obj 469 126 r \$1-\$2-delt-1;
#X floatatom 469 163 5 0 0 0 - - -;
#X floatatom 476 412 5 0 0 0 - - -;
#X floatatom 291 56 5 0 0 0 - - -;
#X obj 306 312 pack f 20;
#X obj 306 335 line~;
#X obj 305 362 delread4~ \$0-delay;
#X text 329 379 lee del buffer;
#X obj 559 259 cnv 15 110 15 empty empty mensaje-desde_GUI 2 7 0 10
-258113 -262144 0;
#X obj 471 259 r \$1-\$2-delt-2;
#X text 495 277 delay time;
#X floatatom 471 294 5 0 0 0 - - -;
#X obj 294 501 s~ \$0-feedback;
#X obj 476 387 r \$1-\$2-fdbck;
#X obj 291 36 r~ \$0-feedback;
#X connect 0 0 16 0;
#X connect 0 0 31 0;
#X connect 2 0 3 0;
#X connect 2 1 1 0;
#X connect 5 0 2 0;
#X connect 5 0 4 0;
#X connect 8 0 9 0;
#X connect 9 0 10 0;
#X connect 10 0 11 0;
#X connect 10 0 15 0;
#X connect 11 0 48 0;
#X connect 12 0 13 0;
#X connect 13 0 11 1;
#X connect 15 0 35 0;
#X connect 15 1 35 1;
#X connect 16 0 7 0;
#X connect 16 0 15 0;
#X connect 18 0 19 0;
#X connect 19 0 20 0;
#X connect 20 0 22 0;
#X connect 21 0 8 0;
#X connect 21 1 18 0;
#X connect 21 2 22 1;
#X connect 22 0 23 0;
#X connect 23 0 15 1;
#X connect 36 0 21 0;
#X connect 36 0 37 0;
#X connect 40 0 41 0;
#X connect 41 0 42 0;
#X connect 42 0 11 0;
#X connect 45 0 47 0;
#X connect 47 0 40 0;
#X connect 49 0 38 0;
#X connect 49 0 12 0;
#X connect 50 0 7 0;
#X connect 50 0 39 0;
