#N canvas 192 115 1007 666 10;
#X declare -stdpath PDescriptors_v1.2;
#X declare -stdpath PDSpectralToolkit;
#X declare -stdpath jrsvabs;
#N canvas 64 58 317 170 bins 0;
#X obj 138 42 t b f;
#X obj 48 27 inlet;
#X obj 142 0 inlet;
#X obj 49 130 outlet;
#X obj 173 129 outlet;
#X obj 249 87 inlet;
#X obj 48 86 expr int($f1/(44100/$f3)) \; int($f2/(44100/$f3));
#X obj 206 39 loadbang;
#X msg 212 64 8192;
#X connect 0 0 6 0;
#X connect 0 1 6 1;
#X connect 1 0 6 0;
#X connect 2 0 0 0;
#X connect 5 0 6 2;
#X connect 6 0 3 0;
#X connect 6 1 4 0;
#X connect 7 0 8 0;
#X connect 8 0 6 2;
#X restore 83 158 pd bins;
#N canvas 978 82 388 408 chromagram 0;
#X obj 112 45 r next;
#X obj 34 29 inlet;
#N canvas 0 50 450 300 list 0;
#N canvas 0 50 199 262 drip 0;
#X obj 53 174 list split 1;
#X obj 53 91 until;
#X obj 53 129 list append;
#X obj 79 58 t b l;
#X obj 135 176 bang;
#X obj 79 31 inlet;
#X obj 53 199 outlet;
#X connect 0 0 6 0;
#X connect 0 1 2 1;
#X connect 0 2 4 0;
#X connect 1 0 2 0;
#X connect 2 0 0 0;
#X connect 3 0 1 0;
#X connect 3 1 2 1;
#X connect 4 0 1 1;
#X connect 5 0 3 0;
#X restore 152 84 pd drip;
#X obj 153 219 list prepend;
#X obj 251 219 t a;
#N canvas 0 50 450 300 dripslow 0;
#X obj 158 196 list split 1;
#X obj 158 171 list append;
#X obj 158 247 outlet;
#X obj 158 47 inlet;
#X obj 239 247 outlet;
#X obj 232 45 inlet;
#X obj 158 82 b;
#X text 275 46 list;
#X text 113 47 bang;
#X text 283 247 EOL;
#X text 99 246 element;
#X obj 239 217 b;
#X connect 0 0 2 0;
#X connect 0 1 1 1;
#X connect 0 2 11 0;
#X connect 1 0 0 0;
#X connect 3 0 6 0;
#X connect 5 0 1 1;
#X connect 6 0 1 0;
#X connect 11 0 4 0;
#X restore 205 141 pd dripslow;
#X obj 268 106 inlet;
#X obj 152 110 t f b;
#X obj 132 254 list;
#X obj 152 182 + 0;
#X obj 133 24 inlet;
#X obj 132 274 outlet;
#X obj 132 50 t b a b;
#X msg 167 157 0;
#X connect 0 0 5 0;
#X connect 1 0 2 0;
#X connect 1 0 6 1;
#X connect 2 0 1 1;
#X connect 3 0 7 1;
#X connect 4 0 3 1;
#X connect 5 0 7 0;
#X connect 5 1 3 0;
#X connect 6 0 9 0;
#X connect 7 0 1 0;
#X connect 8 0 10 0;
#X connect 10 0 6 0;
#X connect 10 1 0 0;
#X connect 10 2 1 1;
#X connect 10 2 11 0;
#X connect 11 0 7 1;
#X restore 34 76 pd list add;
#X obj 112 77 list;
#N canvas 0 50 579 459 list 0;
#X obj 138 130 route float;
#X obj 116 232 f;
#X obj 116 259 outlet;
#X obj 116 20 inlet;
#N canvas 0 50 450 300 once 0;
#X obj 110 75 inlet;
#X obj 105 187 spigot 1;
#X obj 110 104 t b f;
#X msg 125 151 0;
#X msg 165 99 1;
#X obj 165 63 inlet;
#X obj 102 219 outlet;
#X connect 0 0 2 0;
#X connect 1 0 6 0;
#X connect 2 0 3 0;
#X connect 2 1 1 0;
#X connect 3 0 1 1;
#X connect 4 0 1 1;
#X connect 5 0 4 0;
#X restore 204 158 pd once;
#X obj 177 199 f;
#X obj 146 198 max;
#X obj 116 40 t b a b;
#X text 331 193 prime [min] and [max] with first item once;
#X obj 138 160 t a a;
#N canvas 0 50 199 243 drip 0;
#X obj 53 174 list split 1;
#X obj 53 91 until;
#X obj 53 129 list append;
#X obj 79 58 t b l;
#X obj 135 176 bang;
#X obj 79 31 inlet;
#X obj 53 199 outlet;
#X connect 0 0 6 0;
#X connect 0 1 2 1;
#X connect 0 2 4 0;
#X connect 1 0 2 0;
#X connect 2 0 0 0;
#X connect 3 0 1 0;
#X connect 3 1 2 1;
#X connect 4 0 1 1;
#X connect 5 0 3 0;
#X restore 137 98 pd drip;
#X connect 0 0 9 0;
#X connect 1 0 2 0;
#X connect 3 0 7 0;
#X connect 4 0 6 1;
#X connect 5 0 6 1;
#X connect 6 0 5 0;
#X connect 6 0 1 1;
#X connect 7 0 1 0;
#X connect 7 1 10 0;
#X connect 7 2 4 1;
#X connect 9 0 6 0;
#X connect 9 1 4 0;
#X connect 10 0 0 0;
#X restore 90 125 pd list max;
#X obj 34 102 t l l;
#X obj 112 153 /;
#X obj 35 207 s chromagram;
#N canvas 381 107 467 423 list 0;
#X obj 96 43 inlet;
#X obj 285 62 inlet;
#X obj 161 362 outlet;
#X obj 180 258 outlet;
#X obj 161 327 list;
#X obj 285 225 list prepend;
#X obj 364 195 t a;
#X obj 161 165 t b a a b;
#X obj 96 68 route bang;
#X obj 96 93 b;
#X obj 161 94 t b a;
#X obj 161 134 list;
#N canvas 0 50 199 262 drip 0;
#X obj 53 174 list split 1;
#X obj 53 91 until;
#X obj 53 129 list append;
#X obj 79 58 t b l;
#X obj 135 176 bang;
#X obj 79 31 inlet;
#X obj 53 199 outlet;
#X connect 0 0 6 0;
#X connect 0 1 2 1;
#X connect 0 2 4 0;
#X connect 1 0 2 0;
#X connect 2 0 0 0;
#X connect 3 0 1 0;
#X connect 3 1 2 1;
#X connect 4 0 1 1;
#X connect 5 0 3 0;
#X restore 179 218 pd drip;
#X connect 0 0 8 0;
#X connect 1 0 5 0;
#X connect 4 0 2 0;
#X connect 5 0 6 0;
#X connect 5 0 4 1;
#X connect 6 0 5 1;
#X connect 7 0 4 0;
#X connect 7 1 12 0;
#X connect 7 2 4 1;
#X connect 7 3 5 1;
#X connect 8 0 9 0;
#X connect 8 1 10 0;
#X connect 9 0 11 0;
#X connect 10 0 11 0;
#X connect 10 1 11 1;
#X connect 11 0 7 0;
#X connect 12 0 3 0;
#X restore 35 155 pd list map;
#X obj 36 180 list prepend 0;
#X connect 0 0 3 0;
#X connect 1 0 2 0;
#X connect 2 0 3 0;
#X connect 2 0 5 0;
#X connect 3 0 2 1;
#X connect 4 0 6 1;
#X connect 5 0 8 0;
#X connect 5 1 4 0;
#X connect 6 0 8 1;
#X connect 8 0 9 0;
#X connect 8 1 6 0;
#X connect 9 0 7 0;
#X restore 54 210 pd chromagram;
#X obj 395 289 until;
#X msg 395 265 24;
#X obj 395 314 f;
#X obj 423 314 + 1;
#X obj 530 30 declare -stdpath PDescriptors_v1.2;
#X obj 530 50 declare -stdpath PDSpectralToolkit;
#X obj 396 338 t a a;
#X obj 396 383 pack f f;
#X msg 437 289 0;
#X obj 395 197 metro 200;
#X obj 723 349 array max chromagram;
#X obj 775 399 array min chromagram;
#X obj 659 517 f;
#X obj 687 517 + 1;
#X msg 674 480 0;
#X obj 589 496 t a b;
#X obj 589 419 tabread chromagram;
#X obj 589 368 until;
#X msg 589 344 24;
#X obj 589 393 f;
#X obj 617 393 + 1;
#X msg 631 368 0;
#X obj 722 458 /;
#X obj 723 373 t b a;
#X msg 723 397 1;
#X obj 589 477 *;
#X obj 704 306 t b b b;
#X obj 631 271 t b b b;
#X obj 723 437 +;
#X obj 589 456 -;
#X obj 840 371 send highest-microtone;
#X obj 395 242 t b b;
#X obj 395 219 t b b;
#X msg 83 94 116.5;
#X obj 95 41 loadbang;
#X obj 530 70 declare -stdpath jrsvabs;
#X obj 530 90 table chromagram;
#X obj 90 270 catch~ right_drone_osc;
#X obj 52 248 catch~ left_drone_osc;
#X msg 161 156 normalize 1;
#X obj 95 63 t b b b b;
#X obj 395 174 r drone_ON-OFF;
#X obj 224 381 DSP-ON;
#X obj 288 398 switch~;
#X obj 52 421 *~;
#X obj 90 421 *~;
#X obj 139 547 *~;
#X obj 232 479 /~ 2;
#X obj 52 596 throw~ 2master_L;
#X obj 90 620 throw~ 2master_R;
#X obj 232 548 s vu-\$1;
#X obj 139 571 send~ drone;
#X obj 224 361 r drone_ON-OFF;
#X obj 139 425 /~ 2;
#X obj 54 13 r~ to_drone;
#X obj 232 500 env~;
#X obj 654 576 tabwrite DRONE-SPCTR;
#X obj 449 358 tabread DRONE-SPCTR;
#X msg 476 214 \; DRONE-SPCTR normalize 1;
#X obj 151 290 r vol-\$1-send;
#X obj 157 447 r send-\$1-send;
#X obj 52 381 *~;
#X obj 90 381 *~;
#X obj 139 522 *~;
#X obj 151 335 line~;
#X msg 151 313 \$1 20;
#X obj 157 491 line~;
#X msg 157 469 \$1 20;
#X obj 232 526 - 90;
#X obj 199 30 env~;
#X obj 54 184 chroma24~ 1024 2;
#X msg 135 137 1024;
#X msg 115 116 12000;
#X obj 199 86 stdout;
#X obj 199 61 message-to-pd~ sig-in \$1;
#X obj 292 569 stdout;
#X obj 292 544 message-to-pd~ vmtr \$1;
#X obj 433 601 stdout;
#X obj 433 576 message-to-pd~ vmtr \$1;
#X obj 590 629 stdout;
#X obj 590 576 pack f f;
#X obj 590 604 message-to-pd~ DRONE-SPCTR \$1;
#X floatatom 245 37 5 0 0 0 - - -, f 5;
#X obj 256 166 r \$1-DSP;
#X obj 257 192 tgl 15 0 empty empty empty 17 7 0 10 -262144 -1 -1 1
1;
#X obj 476 289 stdout;
#X obj 476 264 message-to-pd~ sig-in \$1;
#N canvas 0 50 450 250 (subpatch) 0;
#X array DRONE-SPCTR 24 float 3;
#A 0 0.167808 0.41051 0.518584 0.223634 0.323934 0.480944 0.403014
0.493488 0.384564 0.21707 1 0.327795 0.420571 0.259165 0.354928 0.399724
0.282871 0.651675 0.311937 0.442397 0.248682 0.489756 0.378276 0.225449
;
#X coords 0 1 24 0 200 140 1 0 0;
#X restore 762 170 graph;
#X obj 396 416 clone snthmod 24 72;
#X obj 799 39 r \$1-RESET;
#X msg 799 67 \; next bang \; chromagram const 0 \; DRONE-SPCTR const
0;
#X connect 0 0 72 1;
#X connect 0 1 72 2;
#X connect 2 0 4 0;
#X connect 3 0 2 0;
#X connect 4 0 5 0;
#X connect 4 0 8 0;
#X connect 5 0 4 1;
#X connect 8 0 9 0;
#X connect 8 1 59 0;
#X connect 9 0 90 0;
#X connect 10 0 4 1;
#X connect 11 0 34 0;
#X connect 11 0 60 0;
#X connect 12 0 25 0;
#X connect 12 1 32 0;
#X connect 13 0 30 1;
#X connect 13 0 31 1;
#X connect 14 0 15 0;
#X connect 14 0 82 1;
#X connect 14 0 58 1;
#X connect 15 0 14 1;
#X connect 16 0 14 1;
#X connect 17 0 82 0;
#X connect 17 0 58 0;
#X connect 17 1 14 0;
#X connect 18 0 31 0;
#X connect 19 0 21 0;
#X connect 20 0 19 0;
#X connect 21 0 22 0;
#X connect 21 0 18 0;
#X connect 22 0 21 1;
#X connect 23 0 21 1;
#X connect 24 0 27 1;
#X connect 25 0 26 0;
#X connect 25 1 24 1;
#X connect 26 0 30 0;
#X connect 27 0 17 0;
#X connect 28 0 20 0;
#X connect 28 1 12 0;
#X connect 28 2 13 0;
#X connect 29 0 23 0;
#X connect 29 1 16 0;
#X connect 29 2 28 0;
#X connect 30 0 24 0;
#X connect 31 0 27 0;
#X connect 33 0 3 0;
#X connect 33 1 10 0;
#X connect 34 0 33 0;
#X connect 34 1 29 0;
#X connect 35 0 0 0;
#X connect 36 0 42 0;
#X connect 39 0 55 0;
#X connect 39 0 64 0;
#X connect 40 0 55 0;
#X connect 40 0 63 0;
#X connect 41 0 72 3;
#X connect 42 0 35 0;
#X connect 42 1 74 0;
#X connect 42 2 73 0;
#X connect 42 3 41 0;
#X connect 43 0 11 0;
#X connect 44 0 48 1;
#X connect 44 0 47 1;
#X connect 44 0 46 1;
#X connect 44 1 45 0;
#X connect 44 1 70 0;
#X connect 46 0 49 0;
#X connect 46 0 50 0;
#X connect 47 0 49 0;
#X connect 47 0 51 0;
#X connect 48 0 53 0;
#X connect 49 0 57 0;
#X connect 54 0 44 0;
#X connect 55 0 65 0;
#X connect 56 0 71 0;
#X connect 56 0 72 0;
#X connect 57 0 70 0;
#X connect 59 0 9 1;
#X connect 60 0 88 0;
#X connect 61 0 67 0;
#X connect 62 0 69 0;
#X connect 63 0 46 0;
#X connect 64 0 47 0;
#X connect 65 0 48 0;
#X connect 66 0 63 1;
#X connect 66 0 64 1;
#X connect 67 0 66 0;
#X connect 68 0 65 1;
#X connect 69 0 68 0;
#X connect 70 0 52 0;
#X connect 70 0 78 0;
#X connect 71 0 76 0;
#X connect 71 0 84 0;
#X connect 72 0 1 0;
#X connect 73 0 0 2;
#X connect 74 0 0 1;
#X connect 76 0 75 0;
#X connect 78 0 77 0;
#X connect 80 0 79 0;
#X connect 82 0 83 0;
#X connect 83 0 81 0;
#X connect 85 0 72 3;
#X connect 85 0 86 0;
#X connect 85 0 44 0;
#X connect 85 0 11 0;
#X connect 88 0 87 0;
#X connect 91 0 92 0;
