#N canvas 673 117 626 553 10;
#X declare -stdpath PDescriptors_v1.2;
#X declare -stdpath PDSpectralToolkit;
#X declare -stdpath jrsvabs;
#X declare -path RSVP;
#X obj 100 100 cnv 15 150 200 empty empty empty 20 12 0 14 -1 -66577
0;
#X obj 105 105 cnv 15 140 190 empty empty SPCTRL/DRONE 20 12 0 14 -233017
-66577 0;
#X obj 111 418 declare -stdpath PDescriptors_v1.2;
#X obj 111 438 declare -stdpath PDSpectralToolkit;
#X obj 111 458 declare -stdpath jrsvabs;
#X obj 111 478 table chromagram;
#X obj 356 27 declare -path RSVP;
#X obj 111 271 tgl-but_pre DSP-drone;
#X obj 5 145 s drn-release;
#X obj 174 237 nbx_pre drn-RT;
#N canvas 0 50 450 278 (subpatch) 0;
#X array DRONE-SPCTR-\$1 24 float 2;
#X coords 0 1 24 0 128 70 1 0 0;
#X restore 111 144 graph;
#X text 175 258 INTERPOL;
#X obj 128 226 bng 34 250 50 0 empty empty RESET 2 17 0 10 -4160 -257985
-4032;
#X obj 131 274 cnv 5 32 9 empty empty ON/OFF 2 5 0 8 -1 -262144 0;
#X obj 141 67 r reset;
#X obj 147 352 s reset_spectral_randoms;
#X text 278 51 pedal number of Tessellations;
#X floatatom 284 78 5 0 0 0 - - -;
#X obj 219 12 r current-patch-Tess;
#X obj 122 8 r Patch-Change;
#X obj 85 66 bng 15 250 50 0 empty empty empty 17 7 0 10 -262144 -1
-1;
#X obj 190 48 select 3 4 18;
#X obj 365 74 return-from-pd~ \$1-sig-in;
#X obj 417 403 r \$1-message-to-general-out;
#X obj 417 453 s to_pd~_subprocess;
#X obj 13 336 message-to-pd~ DSP \$1;
#X obj 133 315 send drone_ON-OFF;
#X obj 371 98 return-from-pd~ \$1-DRONE-SPCTR;
#X obj 422 314 message-to-pd~ RESET \$1;
#X obj 336 328 symbol \$1;
#X msg 336 364 \; DRONE-SPCTR-\$1 const 0;
#X msg 423 283 1;
#X obj 379 126 send DRONE-SPCTR-\$1;
#X connect 7 0 25 0;
#X connect 7 0 26 0;
#X connect 9 0 8 0;
#X connect 12 0 15 0;
#X connect 12 0 29 0;
#X connect 12 0 31 0;
#X connect 14 0 12 0;
#X connect 18 0 17 0;
#X connect 18 0 21 0;
#X connect 19 0 20 0;
#X connect 20 0 12 0;
#X connect 21 0 12 0;
#X connect 21 1 12 0;
#X connect 21 2 12 0;
#X connect 23 0 24 0;
#X connect 27 0 32 0;
#X connect 29 0 30 0;
#X connect 31 0 28 0;
#X coords 0 -1 1 1 150 200 1 100 100;
