#N canvas 314 57 1016 818 10;
#X declare -path ext-ernals;
#X obj 400 250 cnv 15 110 200 empty zfrzr-canvas empty 120 12 0 14
-33289 -33289 0;
#X obj 405 255 cnv 15 100 190 empty empty FRZR 60 15 0 14 -233017 -66577
0;
#X obj 533 142 bng 15 250 50 0 \$1-freeze empty Freeze 17 7 0 10 -128992
-355 -66577;
#X obj 26 24 declare -path ext-ernals;
#X obj 432 424 cnv 5 32 9 empty empty ON/OFF 2 5 0 8 -1 -262144 0;
#X obj 413 266 cnv 5 33 9 empty empty PSTION 2 5 0 8 -1 -262144 0;
#X obj 416 332 cnv 5 28 9 empty empty SPEED 2 5 0 8 -1 -262144 0;
#X obj 454 381 cnv 5 18 9 empty empty hip 2 5 0 8 -1 -262144 0;
#X obj 455 302 cnv 5 18 9 empty empty FRZ 2 5 0 8 -1 -262144 0;
#X obj 480 427 cnv 5 18 9 empty empty TRS 2 5 0 8 -1 -262144 0;
#X obj 498 423 cnv 2 5 2 empty empty empty 2 5 0 8 -258113 -262144
0;
#X obj 498 356 cnv 2 5 2 empty empty empty 2 5 0 8 -258113 -262144
0;
#X obj 498 290 cnv 2 5 2 empty empty empty 2 5 0 8 -258113 -262144
0;
#X obj 56 604 message-to-pd~ DSP \$1;
#X obj 32 71 return-from-pd~ \$1-sig-in;
#X obj 32 111 sel 0 1;
#X obj 32 92 speedlim 500;
#X msg 32 168 \; zfrzr-canvas color 12 12 12;
#X msg 51 134 \; zfrzr-canvas color 16 12 12;
#X obj 56 735 s to_pd~_subprocess;
#X obj 480 534 message-to-pd~ transp \$1;
#X obj 243 566 message-to-pd~ position \$1;
#X obj 454 587 message-to-pd~ fire \$1;
#X obj 454 559 1;
#X obj 453 314 cnv 5 22 9 empty empty Fire 2 5 0 8 -1 -262144 0;
#X obj 32 492 sel 0;
#X obj 480 494 + 1;
#X obj 480 514 / 100;
#X obj 480 475 * 1.56693;
#X obj 243 522 * 0.0314961;
#X obj 243 543 - 2;
#X obj 412 651 * 0.0314961;
#X obj 412 672 - 2;
#X obj 419 620 message-to-pd~ HIP \$1;
#X obj 412 693 message-to-pd~ speed \$1;
#X msg 369 211 set \$1;
#X floatatom 403 155 5 0 0 0 - - -, f 5;
#X obj 540 327 sel 0 1;
#X obj 112 101 loadbang;
#X obj 461 130 bng 15 250 50 0 empty empty empty 17 7 0 10 -262144
-1 -1;
#X obj 526 188 return-from-pd~ \$1-freeze-fire;
#X obj 535 231 return-from-pd~ \$1-transp;
#X floatatom 520 558 5 0 0 0 - - -, f 5;
#X obj 577 385 del 50;
#X floatatom 403 724 5 0 0 0 - - -, f 5;
#X obj 714 566 1.5e-05;
#X obj 569 272 tgl 15 0 empty empty empty 17 7 0 10 -204800 -258113
-1 0 1;
#X obj 457 281 bng 15 250 50 0 empty empty empty 17 7 0 10 -262144
-1 -1;
#X obj 437 526 sel 1;
#X obj 430 487 change;
#X obj 575 466 0;
#X obj 459 161 64;
#X floatatom 299 350 5 0 0 0 - - -, f 5;
#X floatatom 342 405 5 0 0 0 - - -, f 5;
#X obj 526 384 bang;
#X obj 525 416 del 100;
#X obj 526 360 sel 1;
#X obj 524 59 return-from-pd~ \$1-freeze;
#X obj 524 98 sel 1;
#X obj 414 278 RSVP/knb_pre frz.pos;
#X obj 480 290 RSVP/vsl_pre frz.trsp;
#X obj 456 328 RSVP/tgl_pre frz.fire;
#X obj 412 344 RSVP/knb_pre frz.spd;
#X obj 419 393 RSVP/nbx_pre frz.hip;
#X obj 412 420 RSVP/tgl-but_pre DSP;
#X connect 13 0 19 0;
#X connect 14 0 16 0;
#X connect 15 0 17 0;
#X connect 15 1 18 0;
#X connect 16 0 15 0;
#X connect 20 0 19 0;
#X connect 21 0 19 0;
#X connect 22 0 19 0;
#X connect 23 0 22 0;
#X connect 25 0 17 0;
#X connect 26 0 27 0;
#X connect 27 0 20 0;
#X connect 27 0 42 0;
#X connect 28 0 26 0;
#X connect 29 0 30 0;
#X connect 30 0 21 0;
#X connect 31 0 32 0;
#X connect 32 0 34 0;
#X connect 32 0 44 0;
#X connect 33 0 19 0;
#X connect 34 0 19 0;
#X connect 35 0 59 0;
#X connect 35 0 62 0;
#X connect 36 0 35 0;
#X connect 37 1 43 0;
#X connect 38 0 17 0;
#X connect 39 0 51 0;
#X connect 40 0 61 0;
#X connect 41 0 60 0;
#X connect 43 0 45 0;
#X connect 43 0 51 0;
#X connect 45 0 34 0;
#X connect 47 0 50 0;
#X connect 48 0 23 0;
#X connect 49 0 48 0;
#X connect 50 0 34 0;
#X connect 51 0 35 0;
#X connect 54 0 55 0;
#X connect 55 0 50 0;
#X connect 56 0 54 0;
#X connect 57 0 58 0;
#X connect 58 0 47 0;
#X connect 59 0 29 0;
#X connect 59 0 52 0;
#X connect 60 0 28 0;
#X connect 61 0 49 0;
#X connect 61 0 56 0;
#X connect 62 0 31 0;
#X connect 62 0 53 0;
#X connect 63 0 33 0;
#X connect 64 0 13 0;
#X connect 64 0 25 0;
#X coords 0 -1 1 1 110 200 1 400 250;
