#N canvas 905 23 1015 818 10;
#X declare -path ext-ernals;
#X msg 103 184 acquire_sample;
#X obj 348 479 *~;
#X obj 363 458 line~;
#X obj 388 280 line~;
#X obj 135 569 /~ 2;
#X obj 348 593 *~;
#X obj 363 571 line~;
#X msg 363 551 \$1 50;
#X obj 430 597 *~;
#X obj 445 575 line~;
#X msg 445 555 \$1 50;
#X obj 135 675 *~;
#X obj 150 653 line~;
#X msg 150 633 \$1 50;
#X obj 481 39 env~;
#X obj 348 505 gigaverb~;
#X obj 9 32 declare -path ext-ernals;
#X obj 430 689 throw~ 2master_R;
#X obj 348 666 throw~ 2master_L;
#X obj 614 606 DSP-ON;
#X obj 348 629 *~;
#X obj 430 622 *~;
#X obj 647 641 switch~;
#X msg 126 210 oscbank 1;
#X msg 365 200 transpose \$1;
#X obj 80 159 t b b b;
#X obj 429 320 line~;
#X obj 348 339 residency~ 250;
#X obj 103 231 send \$1-parameters;
#X obj 377 221 r \$1-parameters;
#X obj 445 530 r vol-\$1-send;
#X obj 150 612 r send-\$1-send;
#X obj 408 47 r \$1-HIP;
#X obj 365 142 r \$1-transp;
#X obj 388 244 r \$1-speed;
#X obj 429 284 r \$1-position;
#X obj 614 563 r \$1-DSP;
#X obj 481 135 stdout;
#X obj 481 116 message-to-pd~ sig-in \$1;
#X obj 481 59 > 0;
#X obj 481 78 change;
#X obj 481 97 speedlim;
#X obj 620 585 tgl 15 0 empty empty empty 17 7 0 10 -262144 -1 -1 0
1;
#X obj 348 66 hip~ 200;
#X obj 348 87 hip~ 200;
#X obj 348 107 hip~ 200;
#X obj 348 10 r~ to_freeze;
#X obj 135 696 send~ freeze;
#X obj 365 161 pack 0 1000;
#X obj 365 179 line;
#X obj 429 302 pack f 25;
#X obj 388 262 pack f 25;
#X obj 135 590 *~;
#X obj 80 124 sel 1 0;
#X obj 21 324 random 10000;
#X obj 21 345 + 10000;
#X obj 21 366 t b a;
#X obj 546 334 tb_compressorUI;
#X obj 348 421 tb_compressor~;
#X obj 547 219 loadbang;
#X obj 21 387 pack 1 f;
#X obj 80 258 del 100;
#X obj 279 359 env~;
#X floatatom 279 380 5 0 0 0 - - -, f 5;
#X msg 471 237 0;
#X obj 669 113 - 100;
#X obj 669 133 abs;
#X msg 669 172 gain \$1;
#X obj 669 90 speedlim 200;
#X msg 547 241 threshold -2 \, ratio 19 \, response 40 \, gain 30 \,
rmspeak 0 \, lookahead 200;
#X obj 34 100 tgl 15 0 empty empty empty 17 7 0 10 -262144 -1 -1 0
1;
#X obj 186 429 send amp-zFRZ~ \$1;
#X obj 80 71 r \$1-fire;
#X obj 278 59 freeverb~;
#X msg 259 39 wet 1;
#X msg 256 19 roomsize 0.8;
#X msg 204 77 dry 0.5;
#X obj 40 127 bng 15 250 50 0 empty empty empty 17 7 0 10 -262144 -1
-1;
#X msg 226 166 0 10;
#X obj 80 284 pack 1 500;
#X obj 194 11 loadbang;
#X obj 65 546 env~;
#X obj 65 568 clip 0 100;
#X obj 669 153 - 20;
#X obj 279 712 dac~ \$2;
#X connect 0 0 28 0;
#X connect 1 0 15 0;
#X connect 2 0 1 1;
#X connect 3 0 27 1;
#X connect 4 0 52 0;
#X connect 5 0 20 0;
#X connect 6 0 5 1;
#X connect 7 0 6 0;
#X connect 8 0 21 0;
#X connect 9 0 8 1;
#X connect 10 0 9 0;
#X connect 11 0 47 0;
#X connect 12 0 11 1;
#X connect 13 0 12 0;
#X connect 14 0 39 0;
#X connect 15 0 5 0;
#X connect 15 0 81 0;
#X connect 15 1 8 0;
#X connect 19 0 20 1;
#X connect 19 0 21 1;
#X connect 19 0 52 1;
#X connect 19 1 22 0;
#X connect 20 0 18 0;
#X connect 20 0 84 0;
#X connect 21 0 17 0;
#X connect 21 0 84 0;
#X connect 23 0 27 0;
#X connect 24 0 27 0;
#X connect 25 0 61 0;
#X connect 25 1 0 0;
#X connect 25 2 23 0;
#X connect 26 0 27 2;
#X connect 27 0 58 0;
#X connect 27 0 62 0;
#X connect 29 0 27 0;
#X connect 30 0 7 0;
#X connect 30 0 10 0;
#X connect 31 0 13 0;
#X connect 32 0 43 1;
#X connect 32 0 44 1;
#X connect 32 0 45 1;
#X connect 33 0 48 0;
#X connect 34 0 51 0;
#X connect 35 0 50 0;
#X connect 36 0 19 0;
#X connect 36 0 42 0;
#X connect 38 0 37 0;
#X connect 39 0 40 0;
#X connect 40 0 41 0;
#X connect 41 0 38 0;
#X connect 43 0 44 0;
#X connect 44 0 45 0;
#X connect 45 0 27 0;
#X connect 46 0 14 0;
#X connect 46 0 43 0;
#X connect 46 0 73 0;
#X connect 48 0 49 0;
#X connect 49 0 24 0;
#X connect 50 0 26 0;
#X connect 51 0 3 0;
#X connect 52 0 11 0;
#X connect 53 0 25 0;
#X connect 53 1 78 0;
#X connect 54 0 55 0;
#X connect 55 0 56 0;
#X connect 56 0 60 0;
#X connect 56 1 60 1;
#X connect 57 0 58 1;
#X connect 58 0 1 0;
#X connect 58 0 4 0;
#X connect 58 1 57 0;
#X connect 59 0 69 0;
#X connect 61 0 54 0;
#X connect 61 0 79 0;
#X connect 62 0 63 0;
#X connect 63 0 71 0;
#X connect 64 0 51 0;
#X connect 64 0 50 0;
#X connect 65 0 66 0;
#X connect 66 0 83 0;
#X connect 67 0 57 0;
#X connect 68 0 65 0;
#X connect 69 0 58 1;
#X connect 70 0 77 0;
#X connect 72 0 70 0;
#X connect 72 0 53 0;
#X connect 74 0 73 0;
#X connect 75 0 73 0;
#X connect 76 0 73 0;
#X connect 78 0 2 0;
#X connect 79 0 2 0;
#X connect 80 0 75 0;
#X connect 80 0 74 0;
#X connect 80 0 76 0;
#X connect 81 0 82 0;
#X connect 82 0 68 0;
#X connect 83 0 67 0;
#X coords 0 818 1 817 210 158 0;
