#N canvas 79 257 743 551 10;
#X declare -path ../;
#X declare -path ../RSVP;
#X declare -path ../RSVP/customGUI;
#X declare -path ../sys.comunication;
#X obj 100 100 cnv 15 290 200 empty \$2-canvas empty 20 12 0 14 -33289
-33289 0;
#X obj 105 105 cnv 15 280 190 empty empty empty 10 14 0 15 -233017
-66577 0;
#X obj 116 144 cnv 5 20 10 empty empty AMP 2 5 0 9 -1 -262144 0;
#X obj 146 144 cnv 5 20 10 empty empty PAN 2 5 0 9 -1 -262144 0;
#X obj 177 144 cnv 5 20 10 empty empty TRN 2 5 0 9 -1 -262144 0;
#X obj 206 144 cnv 5 20 10 empty empty DUR 2 5 0 9 -1 -262144 0;
#X obj 236 144 cnv 5 20 10 empty empty IOT 2 5 0 9 -1 -262144 0;
#X obj 266 144 cnv 5 20 10 empty empty SHP 2 5 0 9 -1 -262144 0;
#X obj 296 144 cnv 5 20 10 empty empty SKW 2 5 0 9 -1 -262144 0;
#X obj 330 144 cnv 5 20 10 empty empty DLT 2 5 0 9 -1 -262144 0;
#X obj 359 144 cnv 5 20 10 empty empty FBK 2 5 0 9 -1 -262144 0;
#X obj 202 110 cnv 5 35 11 empty empty VOICES 3 6 0 9 -1 -262144 0
;
#N canvas 54 148 1199 552 send-values 0;
#X obj 14 76 + 1;
#X obj 72 211 / 1.28283;
#X obj 72 233 + 1;
#X obj 14 22 inlet;
#X obj 72 14 inlet;
#X obj 116 54 / 1.28283;
#X obj 116 76 + 1;
#X obj 174 211 / 1.28283;
#X obj 174 233 + 1;
#X obj 116 22 inlet;
#X obj 174 14 inlet;
#X obj 217 21 inlet;
#X obj 275 13 inlet;
#X obj 217 54 * 18.8976;
#X obj 217 76 - 1200;
#X obj 275 211 * 37.7953;
#X obj 319 21 inlet;
#X obj 319 54 * 3.85827;
#X obj 319 76 + 10;
#X obj 375 13 inlet;
#X obj 375 211 * 3.93622;
#X obj 375 233 + 0.1;
#X obj 420 22 inlet;
#X obj 420 76 + 5;
#X obj 420 54 * 3.89764;
#X obj 476 13 inlet;
#X obj 476 233 + 0.1;
#X obj 476 211 * 3.93622;
#X obj 521 21 inlet;
#X obj 521 76 + 2;
#X obj 521 54 / 1.32292;
#X obj 577 13 inlet;
#X obj 577 233 + 1;
#X obj 577 211 * 1.30928;
#X obj 622 19 inlet;
#X obj 622 76 + 2;
#X obj 622 54 / 1.32292;
#X obj 678 14 inlet;
#X obj 678 233 + 1;
#X obj 678 211 * 1.30928;
#X obj 723 19 inlet;
#X obj 723 54 * 62.9843;
#X obj 723 76 + 0.1;
#X obj 781 14 inlet;
#X obj 781 233 + 0.1;
#X obj 781 211 * 31.4953;
#X obj 826 19 inlet;
#X obj 826 54 / 1.33684;
#X obj 930 33 inlet;
#X floatatom 49 78 5 0 0 0 - - -;
#X obj 14 54 / 1;
#X obj 14 129 message-to-pd~ ctr-amp \$1-\$2;
#X obj 116 98 message-to-pd~ ctr-pan \$1-\$2;
#X obj 217 129 message-to-pd~ ctr-trn \$1-\$2;
#X obj 319 98 message-to-pd~ ctr-dur \$1-\$2;
#X obj 420 124 message-to-pd~ ctr-iot \$1-\$2;
#X obj 521 98 message-to-pd~ ctr-shp \$1-\$2;
#X obj 622 129 message-to-pd~ ctr-skw \$1-\$2;
#X obj 723 98 message-to-pd~ ctr-dlt \$1-\$2;
#X obj 826 129 message-to-pd~ fb-lvl \$1-\$2;
#X obj 930 100 message-to-pd~ nvoices \$1-\$2;
#X obj 72 285 message-to-pd~ rng-amp \$1-\$2;
#X obj 174 260 message-to-pd~ rng-pan \$1-\$2;
#X obj 275 285 message-to-pd~ rng-trn \$1-\$2;
#X obj 375 260 message-to-pd~ rng-dur \$1-\$2;
#X obj 476 285 message-to-pd~ rng-iot \$1-\$2;
#X obj 577 260 message-to-pd~ rng-shp \$1-\$2;
#X obj 678 285 message-to-pd~ rng-skw \$1-\$2;
#X obj 781 260 message-to-pd~ rng-dlt \$1-\$2;
#X floatatom 986 67 5 0 0 0 - - -;
#X connect 0 0 51 0;
#X connect 1 0 2 0;
#X connect 2 0 61 0;
#X connect 3 0 50 0;
#X connect 4 0 1 0;
#X connect 5 0 6 0;
#X connect 6 0 52 0;
#X connect 7 0 8 0;
#X connect 8 0 62 0;
#X connect 9 0 5 0;
#X connect 10 0 7 0;
#X connect 11 0 13 0;
#X connect 12 0 15 0;
#X connect 13 0 14 0;
#X connect 14 0 53 0;
#X connect 15 0 63 0;
#X connect 16 0 17 0;
#X connect 17 0 18 0;
#X connect 18 0 54 0;
#X connect 19 0 20 0;
#X connect 20 0 21 0;
#X connect 21 0 64 0;
#X connect 22 0 24 0;
#X connect 23 0 55 0;
#X connect 24 0 23 0;
#X connect 25 0 27 0;
#X connect 26 0 65 0;
#X connect 27 0 26 0;
#X connect 28 0 30 0;
#X connect 29 0 56 0;
#X connect 30 0 29 0;
#X connect 31 0 33 0;
#X connect 32 0 66 0;
#X connect 33 0 32 0;
#X connect 34 0 36 0;
#X connect 35 0 57 0;
#X connect 36 0 35 0;
#X connect 37 0 39 0;
#X connect 38 0 67 0;
#X connect 39 0 38 0;
#X connect 40 0 41 0;
#X connect 41 0 42 0;
#X connect 42 0 58 0;
#X connect 43 0 45 0;
#X connect 44 0 68 0;
#X connect 45 0 44 0;
#X connect 46 0 47 0;
#X connect 47 0 59 0;
#X connect 48 0 60 0;
#X connect 50 0 0 0;
#X connect 50 0 49 0;
#X connect 69 0 60 0;
#X restore 71 416 pd send-values . . . . . . . . . . . . . . . . .
. . . . .;
#X obj 354 110 cnv 5 32 9 empty empty ON/OFF 2 5 0 8 -1 -262144 0;
#X obj 427 271 s to_pd~_subprocess;
#X obj 112 114 cnv 5 80 15 empty \$1.\$2.\$3.\$4.color-tag \$2->\$3.\$4
4 8 0 10 -24198 -262144 0;
#N canvas 845 191 483 492 blinker 0;
#X obj 49 100 sel 0 1;
#X obj 49 80 speedlim 500;
#X obj 113 304 loadbang;
#X obj 49 27 return-from-pd~ \$1-\$2-sig-in;
#X obj 49 322 symbol \$2;
#X msg 49 358 \; \$1-canvas color 12 12 12;
#X obj 262 268 symbol \$2;
#X msg 262 319 \; \$1-canvas color 16 12 12;
#X text 30 431 blinks the border green when signal enters the instrument
;
#X obj 76 223 r \$1-\$2-blinker-off;
#X obj 76 246 sel 0;
#X text 63 391 black;
#X text 290 354 green;
#X text 64 267 turns off when DSP off;
#X connect 0 0 4 0;
#X connect 0 1 6 0;
#X connect 1 0 0 0;
#X connect 2 0 4 0;
#X connect 3 0 1 0;
#X connect 4 0 5 0;
#X connect 6 0 7 0;
#X connect 9 0 10 0;
#X connect 10 0 4 0;
#X restore 457 342 pd blinker;
#N canvas 0 96 450 391 tag 0;
#X obj 131 252 list prepend color;
#X obj 131 280 route list;
#X obj 84 65 \$4;
#X obj 85 87 sel 1 2 3 4 5 6 7 8;
#X obj 84 42 loadbang;
#X obj 131 309 s \$1.\$2.\$3.\$4.color-tag;
#X msg 85 111 13 0 0;
#X msg 98 135 14 0 2;
#X msg 112 159 15 0 2;
#X msg 126 181 16 0 0;
#X msg 140 115 17 0 12;
#X msg 154 137 18 0 0;
#X msg 168 163 19 0 0;
#X msg 182 188 0 0 12;
#X connect 0 0 1 0;
#X connect 1 0 5 0;
#X connect 2 0 3 0;
#X connect 3 0 6 0;
#X connect 3 1 7 0;
#X connect 3 2 8 0;
#X connect 3 3 9 0;
#X connect 3 4 10 0;
#X connect 3 5 11 0;
#X connect 3 6 12 0;
#X connect 3 7 13 0;
#X connect 4 0 2 0;
#X connect 6 0 0 0;
#X connect 7 0 0 0;
#X connect 8 0 0 0;
#X connect 9 0 0 0;
#X connect 10 0 0 0;
#X connect 11 0 0 0;
#X connect 12 0 0 0;
#X connect 13 0 0 0;
#X restore 457 362 pd tag;
#N canvas 2 85 450 300 log 0;
#X text 27 160 * 10/11/2020 Local Presets implementation;
#X text 27 180 * 02/27/2020 RSVP-Vanilla;
#X text 27 140 * 28/09/2021 blinker update \, turns off when DSP off
;
#X restore 37 34 pd log;
#X obj 113 156 vsl-grn_pre \$1-\$2 L amp;
#X obj 205 123 nbx_grn \$1-\$2 L voices;
#X text 402 98 DSP gui is connected to master presetmanager (notice
the space between \$1 and \$2), f 45;
#X obj 127 156 vsl-grn_pre \$1-\$2 L ramp;
#X obj 144 156 vsl-grn_pre \$1-\$2 L pan;
#X obj 158 156 vsl-grn_pre \$1-\$2 L rpan;
#X obj 175 156 vsl-grn_pre \$1-\$2 L trn;
#X obj 189 156 vsl-grn_pre \$1-\$2 L rtrn;
#X obj 204 156 vsl-grn_pre \$1-\$2 L dur;
#X obj 218 156 vsl-grn_pre \$1-\$2 L rdur;
#X obj 234 156 vsl-grn_pre \$1-\$2 L iot;
#X obj 248 156 vsl-grn_pre \$1-\$2 L riot;
#X obj 264 156 vsl-grn_pre \$1-\$2 L shp;
#X obj 278 156 vsl-grn_pre \$1-\$2 L rshp;
#X obj 294 156 vsl-grn_pre \$1-\$2 L skw;
#X obj 308 156 vsl-grn_pre \$1-\$2 L rskw;
#X obj 326 156 vsl-grn_pre \$1-\$2 L dlt;
#X obj 341 156 vsl-grn_pre \$1-\$2 L rdlt;
#X obj 362 156 vsl-grn_pre \$1-\$2 Lfbk;
#X obj 427 135 message-to-pd~ DSP \$1-\$2;
#X obj 449 249 r \$1-\$2-message-to-general-out;
#X obj 244 107 ./RSVP/LP.manager \$1 \$2 prst;
#X obj 355 452 bng 15 250 50 0 empty empty empty 17 7 0 10 -262144
-1 -1;
#X obj 394 467 audio-module-creator modules/zGRNS~ \$1 \$2 \$3 \$4
;
#X obj 19 448 declare -path ../;
#X obj 19 468 declare -path ../RSVP;
#X obj 19 488 declare -path ../RSVP/customGUI;
#X obj 19 508 declare -path ../sys.comunication;
#X obj 394 444 loadbang;
#X obj 354 118 ./customGUI/tgl-but_pre \$1 \$2 DSP;
#X obj 440 162 s \$1-\$2-blinker-off;
#X connect 19 0 12 0;
#X connect 20 0 12 17;
#X connect 22 0 12 1;
#X connect 23 0 12 2;
#X connect 24 0 12 3;
#X connect 25 0 12 4;
#X connect 26 0 12 5;
#X connect 27 0 12 6;
#X connect 28 0 12 7;
#X connect 29 0 12 8;
#X connect 30 0 12 9;
#X connect 31 0 12 10;
#X connect 32 0 12 11;
#X connect 33 0 12 12;
#X connect 34 0 12 13;
#X connect 35 0 12 14;
#X connect 36 0 12 15;
#X connect 37 0 12 16;
#X connect 38 0 14 0;
#X connect 39 0 14 0;
#X connect 41 0 42 0;
#X connect 47 0 42 0;
#X connect 48 0 38 0;
#X connect 48 0 49 0;
#X coords 0 0 6.99946e-06 5.49836e-06 290 200 2 100 100;
