#N canvas 2023 141 731 595 10;
#X obj 220 173 soundtouch~ 40;
#X obj 408 173 soundtouch~ 40;
#X obj 219 345 *~;
#X obj 289 307 line~;
#X msg 289 287 \$1 50;
#X obj 393 345 *~;
#X obj 301 45 r \$1-v-transp-1;
#X obj 489 87 r \$1-v-transp-2;
#X obj 220 11 catch~ to_\$3-\$4;
#X obj 283 409 throw~ from_\$3-\$4;
#X obj 218 510 outlet~;
#X obj 392 509 outlet~;
#X obj 166 81 env~;
#X floatatom 166 104 5 0 0 0 - - - 0;
#N canvas 2 93 450 300 2-blinker 0;
#X obj 112 93 env~, f 5;
#X obj 112 193 stdout;
#X obj 112 113 > 0;
#X obj 112 133 change;
#X obj 112 153 speedlim;
#X obj 112 173 message-to-pd~ sig-in \$1-\$2;
#X obj 111 52 inlet~;
#X connect 0 0 2 0;
#X connect 2 0 3 0;
#X connect 3 0 4 0;
#X connect 4 0 5 0;
#X connect 5 0 1 0;
#X connect 6 0 0 0;
#X restore 78 45 pd 2-blinker;
#X floatatom 364 292 5 0 0 0 - - - 0;
#X obj 289 265 r vol-\$1-\$2-L-instrB-send;
#X connect 0 0 2 0;
#X connect 1 0 5 1;
#X connect 2 0 9 0;
#X connect 2 0 10 0;
#X connect 3 0 2 1;
#X connect 3 0 5 0;
#X connect 4 0 3 0;
#X connect 5 0 9 0;
#X connect 5 0 11 0;
#X connect 6 0 0 1;
#X connect 7 0 1 1;
#X connect 8 0 0 0;
#X connect 8 0 1 0;
#X connect 8 0 12 0;
#X connect 8 0 14 0;
#X connect 12 0 13 0;
#X connect 16 0 4 0;
#X connect 16 0 15 0;
