#N canvas 1171 443 731 595 10;
#X obj 220 173 soundtouch~ 40;
#X obj 348 173 soundtouch~ 40;
#X obj 387 336 *~;
#X obj 402 314 line~;
#X msg 402 293 \$1 50;
#X obj 219 345 *~;
#X obj 235 290 line~;
#X msg 235 270 \$1 50;
#X obj 334 338 *~;
#X obj 478 362 DSP-ON;
#X obj 511 396 switch~;
#X obj 219 402 *~;
#X obj 333 400 *~;
#X obj 464 428 *~;
#X obj 73 451 /~ 2;
#X obj 72 474 env~;
#X obj 72 497 - 90;
#X obj 218 510 throw~ 2master_L;
#X obj 333 472 throw~ 2master_R;
#X obj 478 335 r \$1-DSP;
#X obj 72 554 stdout;
#X obj 29 28 env~, f 5;
#X obj 29 123 stdout;
#X obj 29 47 > 0;
#X obj 29 66 change;
#X obj 29 85 speedlim;
#X obj 72 516 speedlim 100;
#X obj 387 252 /~ 2;
#X obj 553 366 tgl 15 0 empty empty empty 17 7 0 10 -262144 -1 -1 0
1;
#X obj 301 45 r \$1-v-transp-1;
#X obj 429 87 r \$1-v-transp-2;
#X floatatom 429 110 5 0 0 0 - - -;
#X floatatom 301 68 5 0 0 0 - - -;
#X msg 107 415 set \$1;
#X obj 107 345 loadbang;
#X obj 107 368 i \$4;
#X obj 107 473 dac~ \$4;
#X obj 255 453 env~;
#X floatatom 255 476 5 0 0 0 - - -;
#X floatatom 304 282 5 0 0 0 - - -;
#X obj 235 248 r vol-\$1-\$2-send;
#X obj 402 273 r send-\$1-\$2-send;
#X obj 95 344 bng 15 250 50 0 empty empty empty 17 7 0 10 -262144 -1
-1;
#X obj 107 391 + 4;
#X obj 72 535 message-to-pd~ vmtr \$1-\$2;
#X floatatom 118 67 5 0 0 0 - - -;
#X obj 29 104 message-to-pd~ sig-in \$1-\$2-\$3-\$4;
#X obj 220 11 catch~ to_\$3-\$4;
#X obj 464 453 throw~ from_\$3-\$4;
#X connect 0 0 5 0;
#X connect 0 0 27 0;
#X connect 1 0 8 1;
#X connect 1 0 27 0;
#X connect 2 0 13 0;
#X connect 3 0 2 1;
#X connect 4 0 3 0;
#X connect 5 0 11 0;
#X connect 6 0 5 1;
#X connect 6 0 8 0;
#X connect 7 0 6 0;
#X connect 8 0 12 0;
#X connect 9 0 13 1;
#X connect 9 0 12 1;
#X connect 9 0 11 1;
#X connect 9 1 10 0;
#X connect 9 1 16 0;
#X connect 11 0 14 0;
#X connect 11 0 17 0;
#X connect 11 0 37 0;
#X connect 12 0 14 0;
#X connect 12 0 18 0;
#X connect 13 0 48 0;
#X connect 14 0 15 0;
#X connect 14 0 36 0;
#X connect 15 0 16 0;
#X connect 16 0 26 0;
#X connect 19 0 9 0;
#X connect 19 0 28 0;
#X connect 21 0 23 0;
#X connect 21 0 45 0;
#X connect 23 0 24 0;
#X connect 24 0 25 0;
#X connect 25 0 46 0;
#X connect 26 0 44 0;
#X connect 27 0 2 0;
#X connect 29 0 0 1;
#X connect 29 0 32 0;
#X connect 30 0 1 1;
#X connect 30 0 31 0;
#X connect 33 0 36 0;
#X connect 34 0 35 0;
#X connect 35 0 43 0;
#X connect 37 0 38 0;
#X connect 40 0 7 0;
#X connect 40 0 39 0;
#X connect 41 0 4 0;
#X connect 42 0 35 0;
#X connect 43 0 33 0;
#X connect 44 0 20 0;
#X connect 46 0 22 0;
#X connect 47 0 21 0;
#X connect 47 0 0 0;
#X connect 47 0 1 0;
