#N canvas 2027 136 635 482 10;
#X declare -path RSVP;
#X declare -path RSVP;
#X declare -path ../sys.comunication;
#X obj 100 100 cnv 15 190 60 empty \$2-canvas empty 20 12 0 14 -33289
-33289 0;
#X obj 105 105 cnv 15 180 50 empty empty empty 113 43 0 10 -233017
-66577 0;
#X obj 305 53 declare -path RSVP;
#X text 106 202 0 \, 25 - 2 (where 1 is no transposition);
#X obj 332 421 s to_pd~_subprocess;
#X obj 177 111 cnv 10 40 10 empty \$0-label v-trnsp 3 5 0 8 -1 -4032
0;
#X obj 104 134 cnv 10 40 10 empty \$0-label v-trnsp 3 5 0 8 -1 -4032
0;
#X obj 226 113 cnv 5 32 9 empty empty ON/OFF 2 5 0 8 -1 -262144 0;
#X obj 286 232 RSVP-Gclip 0.25 1.99;
#X obj 414 186 RSVP-Gclip 0.25 1.99;
#X obj 225 296 message-to-pd~ DSP \$1;
#X obj 413 339 message-to-pd~ v-transp-1 \$1;
#X obj 403 361 message-to-pd~ v-transp-2 \$1;
#X text 445 79 [<RSVP>_pre \$1;
#X obj 120 111 nbx_pre \$1 v-trnsp 1;
#X obj 145 134 nbx_pre \$1 v-trnsp 2;
#X msg 440 218 set \$1;
#X obj 261 108 ./customGUI/tgl-but_pre DSP;
#X obj 38 46 declare -path RSVP;
#X obj 38 66 declare -path ../sys.comunication;
#N canvas 1374 126 450 300 blinker 0;
#X obj 49 68 sel 0 1;
#X obj 49 48 speedlim 500;
#X obj 10 6 loadbang;
#X obj 49 100 symbol \$2;
#X msg 49 136 \; \$1-canvas color 12 12 12;
#X obj 129 97 symbol \$2;
#X obj 284 37 tgl 15 0 empty empty empty 17 7 0 10 -262144 -1 -1 0
1;
#X msg 129 177 \; \$1-canvas color 16 12 12;
#X text 27 244 blinks the border green when signal enters the instrument
;
#X floatatom 170 64 5 0 0 0 - - -;
#X obj 49 27 return-from-pd~ \$1-\$2-\$3-\$4-sig-in;
#X connect 0 0 3 0;
#X connect 0 1 5 0;
#X connect 1 0 0 0;
#X connect 2 0 3 0;
#X connect 3 0 4 0;
#X connect 5 0 7 0;
#X connect 6 0 0 0;
#X connect 10 0 1 0;
#X connect 10 0 9 0;
#X restore 38 26 pd blinker;
#X obj 204 139 cnv 5 80 15 empty \$1.\$2.\$3.\$4.color-tag \$2->\$3.\$4
4 8 0 10 -250685 -262144 0;
#N canvas 0 96 450 391 tag 0;
#X obj 131 252 list prepend color;
#X obj 131 280 route list;
#X obj 84 65 \$4;
#X obj 85 87 sel 1 2 3 4 5 6 7 8;
#X obj 84 42 loadbang;
#X obj 131 309 s \$1.\$2.\$3.\$4.color-tag;
#X msg 85 111 13 0 0;
#X msg 98 135 14 0 2;
#X msg 112 159 15 0 2;
#X msg 126 181 16 0 0;
#X msg 140 115 17 0 12;
#X msg 154 137 18 0 0;
#X msg 168 163 19 0 0;
#X msg 182 188 0 0 12;
#X connect 0 0 1 0;
#X connect 1 0 5 0;
#X connect 2 0 3 0;
#X connect 3 0 6 0;
#X connect 3 1 7 0;
#X connect 3 2 8 0;
#X connect 3 3 9 0;
#X connect 3 4 10 0;
#X connect 3 5 11 0;
#X connect 3 6 12 0;
#X connect 3 7 13 0;
#X connect 4 0 2 0;
#X connect 6 0 0 0;
#X connect 7 0 0 0;
#X connect 8 0 0 0;
#X connect 9 0 0 0;
#X connect 10 0 0 0;
#X connect 11 0 0 0;
#X connect 12 0 0 0;
#X connect 13 0 0 0;
#X restore 38 6 pd tag;
#X connect 8 0 15 0;
#X connect 8 1 12 0;
#X connect 9 0 14 0;
#X connect 9 1 11 0;
#X connect 10 0 4 0;
#X connect 11 0 4 0;
#X connect 12 0 4 0;
#X connect 14 0 9 0;
#X connect 15 0 8 0;
#X connect 17 0 10 0;
#X coords 0 -1 1 1 190 60 2 100 100;
