#N canvas 133 331 1140 626 10;
#X obj 15 38 env~, f 5;
#X obj 15 136 stdout;
#X obj 15 58 > 0;
#X obj 15 77 change;
#X obj 15 112 message-to-pd~ sig-in \$1-\$2;
#X obj 15 13 catch~ to_\$3-\$4;
#X obj 259 592 throw~ 2master_L;
#X obj 259 563 *~;
#X obj 391 565 *~;
#X obj 1021 75 switch~;
#X obj 988 47 DSP-ON;
#X obj 302 526 r~ \$0-DSP-on_off;
#X obj 259 444 *~;
#X obj 405 444 *~;
#X obj 308 416 line~;
#X obj 614 538 line~;
#X obj 391 591 throw~ 2master_R;
#X obj 308 371 * 1.5;
#X obj 988 97 s~ \$0-DSP-on_off;
#X obj 962 26 tgl 15 0 empty empty empty 17 7 0 10 -262144 -1 -1 1
1;
#X obj 308 394 pack f 20;
#X obj 614 516 pack f 20;
#X obj 599 562 *~;
#X obj 598 448 /~ 1;
#X obj 105 550 /~ 2;
#X floatatom 683 531 5 0 0 0 - - -;
#X floatatom 373 386 5 0 0 0 - - -;
#X obj 988 15 r \$1-\$2-DSP;
#X obj 614 491 r send-\$1-\$2-send;
#X obj 308 350 r vol-\$1-\$2-send;
#X obj 104 589 dac~ \$3;
#X msg 29 521 set \$1;
#X obj 29 451 loadbang;
#X obj 29 472 i \$4;
#X obj 29 497 + 4;
#X obj 598 588 throw~ from_\$3-\$4;
#X text 647 444 to send;
#X text 297 447 to master;
#X text 28 591 for vumeter;
#X obj 453 310 dac~;
#X floatatom 588 85 5 0 0 0 - - -;
#X obj 230 165 env~;
#X floatatom 230 188 5 0 0 0 - - -;
#X obj 457 102 *~;
#X obj 498 69 vline~;
#X msg 515 31 1 5 \, 0.7 10 5 \, 0.3 10 15 \, 0.1 20 35 \, 0 10 50
;
#X obj 439 30 noise~;
#X obj 287 78 sfplayer;
#X msg 565 143 all \$1;
#X msg 372 179 vis 5 \$1;
#X obj 381 143 tgl 15 0 empty empty empty 17 7 0 10 -262144 -1 -1 1
1;
#X obj 456 226 clone hold-voice 10 55;
#X obj 755 117 adc~;
#X obj 799 175 env~;
#X floatatom 799 198 5 0 0 0 - - -;
#X obj 753 161 *~ 3;
#X floatatom 662 87 5 0 0 0 - - -;
#X msg 639 145 all \$1;
#X connect 0 0 2 0;
#X connect 2 0 3 0;
#X connect 3 0 4 0;
#X connect 4 0 1 0;
#X connect 5 0 0 0;
#X connect 7 0 6 0;
#X connect 8 0 16 0;
#X connect 10 0 18 0;
#X connect 10 1 9 0;
#X connect 11 0 7 1;
#X connect 11 0 8 0;
#X connect 12 0 7 0;
#X connect 12 0 24 0;
#X connect 13 0 8 1;
#X connect 13 0 24 0;
#X connect 14 0 12 1;
#X connect 14 0 13 0;
#X connect 15 0 22 1;
#X connect 17 0 20 0;
#X connect 19 0 10 0;
#X connect 20 0 14 0;
#X connect 21 0 15 0;
#X connect 22 0 35 0;
#X connect 23 0 22 0;
#X connect 24 0 30 0;
#X connect 27 0 10 0;
#X connect 27 0 19 0;
#X connect 28 0 21 0;
#X connect 28 0 25 0;
#X connect 29 0 17 0;
#X connect 29 0 26 0;
#X connect 31 0 30 0;
#X connect 32 0 33 0;
#X connect 33 0 34 0;
#X connect 34 0 31 0;
#X connect 40 0 48 0;
#X connect 41 0 42 0;
#X connect 43 0 41 0;
#X connect 44 0 43 1;
#X connect 45 0 44 0;
#X connect 46 0 43 0;
#X connect 48 0 51 1;
#X connect 49 0 51 0;
#X connect 50 0 49 0;
#X connect 51 0 39 0;
#X connect 51 1 39 1;
#X connect 52 0 55 0;
#X connect 52 1 53 0;
#X connect 52 1 55 0;
#X connect 53 0 54 0;
#X connect 55 0 51 0;
#X connect 56 0 57 0;
#X connect 57 0 51 2;
