#N canvas 249 116 1124 665 10;
#X obj 875 385 f;
#X obj 902 385 f;
#X obj 930 385 f;
#X obj 957 385 f;
#X obj 758 270 metro 2;
#X obj 875 406 / 2;
#X obj 902 406 / 2;
#X obj 930 406 / 2;
#X obj 957 406 / 2;
#X obj 745 214 tgl 15 0 empty empty empty 17 7 0 10 -262144 -1 -1 0
1;
#X obj 787 463 sel 1;
#X obj 890 306 mtof;
#X obj 917 288 mtof;
#X obj 945 270 mtof;
#X obj 972 252 mtof;
#X obj 787 444 change;
#X obj 860 536 f;
#X obj 887 536 f;
#X obj 915 536 f;
#X obj 942 536 f;
#X msg 745 507 0;
#X obj 197 26 r LFO-freqs;
#X obj 745 160 t b a;
#X obj 16 282 s LFO-1;
#X obj 890 178 unpack f f f f f f f, f 28;
#X obj 985 385 f;
#X obj 1012 385 f;
#X obj 1040 385 f;
#X obj 985 406 / 2;
#X obj 1012 406 / 2;
#X obj 1040 406 / 2;
#X obj 1000 235 mtof;
#X obj 1027 217 mtof;
#X obj 1055 199 mtof;
#X obj 758 293 t b b b b b b b;
#X obj 899 585 pack f f f f f f f;
#X obj 970 535 f;
#X obj 997 535 f;
#X obj 1025 535 f;
#X obj 787 483 t b b b b b b b b;
#X obj 197 56 unpack f f f f f f f;
#X obj 745 4 bng 15 250 50 0 empty empty empty 17 7 0 10 -262144 -1
-1;
#X obj 460 15 r reset-phase;
#X obj 745 23 t b b;
#X obj 899 609 s LFO-freqs;
#X msg 823 64 rewind;
#N canvas 0 82 450 299 register 0;
#X msg 170 111 2;
#X obj 143 91 t a b;
#X obj 143 150 *;
#X obj 170 132 pow 6;
#X obj 143 69 inlet;
#X obj 143 173 outlet;
#X connect 0 0 3 0;
#X connect 1 0 2 0;
#X connect 1 1 0 0;
#X connect 2 0 5 0;
#X connect 3 0 2 1;
#X connect 4 0 1 0;
#X restore 1040 435 pd register;
#N canvas 0 82 450 299 register 0;
#X msg 170 111 2;
#X obj 143 91 t a b;
#X obj 143 150 *;
#X obj 143 69 inlet;
#X obj 143 173 outlet;
#X obj 170 132 pow 5;
#X connect 0 0 5 0;
#X connect 1 0 2 0;
#X connect 1 1 0 0;
#X connect 2 0 4 0;
#X connect 3 0 1 0;
#X connect 5 0 2 1;
#X restore 1012 459 pd register;
#N canvas 0 82 450 299 register 0;
#X msg 170 111 2;
#X obj 143 91 t a b;
#X obj 143 150 *;
#X obj 143 69 inlet;
#X obj 143 173 outlet;
#X obj 170 132 pow 4;
#X connect 0 0 5 0;
#X connect 1 0 2 0;
#X connect 1 1 0 0;
#X connect 2 0 4 0;
#X connect 3 0 1 0;
#X connect 5 0 2 1;
#X restore 985 486 pd register;
#N canvas 0 82 450 299 register 0;
#X msg 170 111 2;
#X obj 143 91 t a b;
#X obj 143 150 *;
#X obj 143 69 inlet;
#X obj 143 173 outlet;
#X obj 170 132 pow 3;
#X connect 0 0 5 0;
#X connect 1 0 2 0;
#X connect 1 1 0 0;
#X connect 2 0 4 0;
#X connect 3 0 1 0;
#X connect 5 0 2 1;
#X restore 957 436 pd register;
#N canvas 29 475 450 299 register 0;
#X msg 170 111 2;
#X obj 143 91 t a b;
#X obj 143 150 *;
#X obj 143 69 inlet;
#X obj 143 173 outlet;
#X obj 170 132 pow 2;
#X connect 0 0 5 0;
#X connect 1 0 2 0;
#X connect 1 1 0 0;
#X connect 2 0 4 0;
#X connect 3 0 1 0;
#X connect 5 0 2 1;
#X restore 930 463 pd register;
#X obj 902 438 * 2;
#X obj 72 112 else/lfo;
#X obj 133 112 else/lfo;
#X obj 194 112 else/lfo;
#X obj 255 112 else/lfo;
#X obj 316 112 else/lfo;
#X obj 377 112 else/lfo;
#X obj 438 112 else/lfo;
#X msg 460 46 0.25;
#X msg 850 87 read 16_chords.txt;
#X obj 745 114 textfile;
#X obj 745 138 list-apply + 12;
#X obj 787 424 < 0.003;
#X obj 61 574 route LFO1 LFO2 LFO3 LFO4 LFO5 LFO6 LFO7;
#X msg 30 9 0 0 0 0 0 0 0;
#X obj 61 548 r LFO-2-GRN;
#X obj 653 156 s chord-\$0;
#X text 642 175 to LFO-packer;
#X obj 718 157 cnv 15 15 15 empty empty empty 20 12 0 14 -4034 -66577
0;
#X text 19 305 to GUI;
#N canvas 57 87 640 300 LFO-packer 0;
#X obj 193 136 > 126.99;
#X obj 257 137 < 0.1;
#X obj 143 138 change;
#X obj 143 81 inlet;
#X obj 143 182 outlet;
#X obj 143 161 pack f f f f, f 29;
#X obj 143 102 t a a a;
#X obj 314 134 mtof;
#X obj 314 108 + 24;
#X obj 287 64 unpack f f f f f f f, f 28;
#X obj 287 41 r chord-\$0;
#X text 372 43 change outlet for each;
#X connect 0 0 5 1;
#X connect 1 0 5 2;
#X connect 2 0 5 0;
#X connect 3 0 6 0;
#X connect 5 0 4 0;
#X connect 6 0 2 0;
#X connect 6 1 0 0;
#X connect 6 2 1 0;
#X connect 7 0 5 3;
#X connect 8 0 7 0;
#X connect 9 2 8 0;
#X connect 10 0 9 0;
#X restore 194 133 pd LFO-packer;
#X obj 277 135 cnv 15 15 15 empty empty empty 20 12 0 14 -4034 -66577
0;
#N canvas 57 87 640 300 LFO-packer 0;
#X obj 193 136 > 126.99;
#X obj 257 137 < 0.1;
#X obj 143 138 change;
#X obj 143 81 inlet;
#X obj 143 182 outlet;
#X obj 143 161 pack f f f f, f 29;
#X obj 143 102 t a a a;
#X obj 314 134 mtof;
#X obj 314 108 + 24;
#X obj 286 63 unpack f f f f f f f, f 28;
#X obj 286 40 r chord-\$0;
#X text 371 42 change outlet for each;
#X connect 0 0 5 1;
#X connect 1 0 5 2;
#X connect 2 0 5 0;
#X connect 3 0 6 0;
#X connect 5 0 4 0;
#X connect 6 0 2 0;
#X connect 6 1 0 0;
#X connect 6 2 1 0;
#X connect 7 0 5 3;
#X connect 8 0 7 0;
#X connect 9 3 8 0;
#X connect 10 0 9 0;
#X restore 255 175 pd LFO-packer;
#N canvas 57 87 640 300 LFO-packer 0;
#X obj 193 136 > 126.99;
#X obj 257 137 < 0.1;
#X obj 143 138 change;
#X obj 143 81 inlet;
#X obj 143 182 outlet;
#X obj 143 161 pack f f f f, f 29;
#X obj 143 102 t a a a;
#X obj 314 134 mtof;
#X obj 314 108 + 24;
#X obj 287 64 unpack f f f f f f f, f 28;
#X obj 287 41 r chord-\$0;
#X text 372 43 change outlet for each;
#X connect 0 0 5 1;
#X connect 1 0 5 2;
#X connect 2 0 5 0;
#X connect 3 0 6 0;
#X connect 5 0 4 0;
#X connect 6 0 2 0;
#X connect 6 1 0 0;
#X connect 6 2 1 0;
#X connect 7 0 5 3;
#X connect 8 0 7 0;
#X connect 9 4 8 0;
#X connect 10 0 9 0;
#X restore 316 154 pd LFO-packer;
#X obj 338 176 cnv 15 15 15 empty empty empty 20 12 0 14 -4034 -66577
0;
#X obj 399 156 cnv 15 15 15 empty empty empty 20 12 0 14 -4034 -66577
0;
#N canvas 57 87 640 300 LFO-packer 0;
#X obj 193 136 > 126.99;
#X obj 257 137 < 0.1;
#X obj 143 138 change;
#X obj 143 81 inlet;
#X obj 143 182 outlet;
#X obj 143 161 pack f f f f, f 29;
#X obj 143 102 t a a a;
#X obj 314 134 mtof;
#X obj 314 108 + 24;
#X obj 287 64 unpack f f f f f f f, f 28;
#X obj 287 41 r chord-\$0;
#X text 372 43 change outlet for each;
#X connect 0 0 5 1;
#X connect 1 0 5 2;
#X connect 2 0 5 0;
#X connect 3 0 6 0;
#X connect 5 0 4 0;
#X connect 6 0 2 0;
#X connect 6 1 0 0;
#X connect 6 2 1 0;
#X connect 7 0 5 3;
#X connect 8 0 7 0;
#X connect 9 5 8 0;
#X connect 10 0 9 0;
#X restore 377 133 pd LFO-packer;
#X obj 460 135 cnv 15 15 15 empty empty empty 20 12 0 14 -4034 -66577
0;
#N canvas 57 87 640 300 LFO-packer 0;
#X obj 193 136 > 126.99;
#X obj 257 137 < 0.1;
#X obj 143 138 change;
#X obj 143 81 inlet;
#X obj 143 182 outlet;
#X obj 143 161 pack f f f f, f 29;
#X obj 143 102 t a a a;
#X obj 314 134 mtof;
#X obj 314 108 + 24;
#X obj 287 64 unpack f f f f f f f, f 28;
#X obj 287 41 r chord-\$0;
#X text 372 43 change outlet for each;
#X connect 0 0 5 1;
#X connect 1 0 5 2;
#X connect 2 0 5 0;
#X connect 3 0 6 0;
#X connect 5 0 4 0;
#X connect 6 0 2 0;
#X connect 6 1 0 0;
#X connect 6 2 1 0;
#X connect 7 0 5 3;
#X connect 8 0 7 0;
#X connect 9 6 8 0;
#X connect 10 0 9 0;
#X restore 438 175 pd LFO-packer;
#X obj 521 177 cnv 15 15 15 empty empty empty 20 12 0 14 -4034 -66577
0;
#X obj 969 610 cnv 15 15 15 empty empty empty 20 12 0 14 -258113 -66577
0;
#X obj 181 28 cnv 15 15 15 empty empty empty 20 12 0 14 -258113 -66577
0;
#X text 129 9 stops;
#X obj 823 14 loadbang;
#X obj 823 37 t b b;
#X obj 72 437 dyn-send LFO1;
#X obj 133 370 dyn-send LFO2;
#X obj 345 575 route LFO1 LFO2 LFO3 LFO4 LFO5 LFO6 LFO7;
#X obj 345 630 print;
#X obj 345 549 r LFO-2-RVB;
#X obj 61 631 print LFO1-inGRN;
#X obj 94 605 print LFO2-inGRN;
#X obj 378 607 print LFO2-inRVB;
#X text 109 479 need to receive from GUI \, the instrument to send
and the toggle to activate;
#X obj 147 412 r \$1-LFO1-to-X;
#X obj 97 391 r \$1-send-LFO1;
#N canvas 57 87 640 300 LFO-packer 0;
#X obj 193 136 > 126.99;
#X obj 257 137 < 0.1;
#X obj 143 138 change;
#X obj 143 81 inlet;
#X obj 143 182 outlet;
#X obj 143 161 pack f f f f, f 29;
#X obj 143 102 t a a a;
#X obj 314 134 mtof;
#X obj 314 108 + 24;
#X obj 314 83 unpack f f f f f f f, f 28;
#X obj 314 60 r chord-\$0;
#X text 399 62 change outlet for each;
#X connect 0 0 5 1;
#X connect 1 0 5 2;
#X connect 2 0 5 0;
#X connect 3 0 6 0;
#X connect 5 0 4 0;
#X connect 6 0 2 0;
#X connect 6 1 0 0;
#X connect 6 2 1 0;
#X connect 7 0 5 3;
#X connect 8 0 7 0;
#X connect 9 0 8 0;
#X connect 10 0 9 0;
#X restore 72 175 pd LFO-packer;
#N canvas 57 87 640 300 LFO-packer 0;
#X obj 193 136 > 126.99;
#X obj 257 137 < 0.1;
#X obj 143 138 change;
#X obj 143 81 inlet;
#X obj 143 182 outlet;
#X obj 143 161 pack f f f f, f 29;
#X obj 143 102 t a a a;
#X obj 314 134 mtof;
#X obj 314 108 + 24;
#X obj 287 64 unpack f f f f f f f, f 28;
#X obj 287 41 r chord-\$0;
#X text 372 43 change outlet for each;
#X connect 0 0 5 1;
#X connect 1 0 5 2;
#X connect 2 0 5 0;
#X connect 3 0 6 0;
#X connect 5 0 4 0;
#X connect 6 0 2 0;
#X connect 6 1 0 0;
#X connect 6 2 1 0;
#X connect 7 0 5 3;
#X connect 8 0 7 0;
#X connect 9 1 8 0;
#X connect 10 0 9 0;
#X restore 133 154 pd LFO-packer;
#X obj 155 176 cnv 15 15 15 empty empty empty 20 12 0 14 -4034 -66577
0;
#X obj 216 156 cnv 15 15 15 empty empty empty 20 12 0 14 -4034 -66577
0;
#X obj 208 348 r \$1-LFO2-to-X;
#X obj 158 328 r \$1-send-LFO2;
#X obj 194 307 dyn-send LFO3;
#X obj 219 265 r \$1-send-LFO3;
#X obj 269 285 r \$1-LFO3-to-X;
#X obj 255 427 dyn-send LFO4;
#X obj 330 402 r \$1-LFO4-to-X;
#X obj 280 381 r \$1-send-LFO4;
#X obj 316 360 dyn-send LFO5;
#X obj 391 338 r \$1-LFO5-to-X;
#X obj 341 318 r \$1-send-LFO5;
#X obj 377 297 dyn-send LFO6;
#X obj 452 275 r \$1-LFO6-to-X;
#X obj 402 255 r \$1-send-LFO6;
#X obj 438 430 dyn-send LFO7;
#X obj 463 388 r \$1-send-LFO7;
#X obj 513 408 r \$1-LFO7-to-X;
#X connect 0 0 5 0;
#X connect 1 0 6 0;
#X connect 2 0 7 0;
#X connect 3 0 8 0;
#X connect 4 0 34 0;
#X connect 5 0 0 1;
#X connect 5 0 16 1;
#X connect 5 0 63 0;
#X connect 6 0 1 1;
#X connect 6 0 51 0;
#X connect 7 0 2 1;
#X connect 7 0 50 0;
#X connect 8 0 3 1;
#X connect 8 0 49 0;
#X connect 9 0 4 0;
#X connect 10 0 39 0;
#X connect 11 0 0 1;
#X connect 12 0 1 1;
#X connect 13 0 2 1;
#X connect 14 0 3 1;
#X connect 15 0 10 0;
#X connect 16 0 35 0;
#X connect 17 0 35 1;
#X connect 18 0 35 2;
#X connect 19 0 35 3;
#X connect 20 0 9 0;
#X connect 21 0 40 0;
#X connect 22 0 9 0;
#X connect 22 1 24 0;
#X connect 24 0 11 0;
#X connect 24 1 12 0;
#X connect 24 2 13 0;
#X connect 24 3 14 0;
#X connect 24 4 31 0;
#X connect 24 5 32 0;
#X connect 24 6 33 0;
#X connect 25 0 28 0;
#X connect 26 0 29 0;
#X connect 27 0 30 0;
#X connect 28 0 25 1;
#X connect 28 0 48 0;
#X connect 29 0 26 1;
#X connect 29 0 47 0;
#X connect 30 0 27 1;
#X connect 30 0 46 0;
#X connect 31 0 25 1;
#X connect 32 0 26 1;
#X connect 33 0 27 1;
#X connect 34 0 0 0;
#X connect 34 1 1 0;
#X connect 34 2 2 0;
#X connect 34 3 3 0;
#X connect 34 4 25 0;
#X connect 34 5 26 0;
#X connect 34 6 27 0;
#X connect 35 0 44 0;
#X connect 36 0 35 4;
#X connect 37 0 35 5;
#X connect 38 0 35 6;
#X connect 39 0 20 0;
#X connect 39 1 16 0;
#X connect 39 2 17 0;
#X connect 39 3 18 0;
#X connect 39 4 19 0;
#X connect 39 5 36 0;
#X connect 39 6 37 0;
#X connect 39 7 38 0;
#X connect 40 0 52 0;
#X connect 40 1 53 0;
#X connect 40 2 54 0;
#X connect 40 3 55 0;
#X connect 40 4 56 0;
#X connect 40 5 57 0;
#X connect 40 6 58 0;
#X connect 41 0 43 0;
#X connect 42 0 59 0;
#X connect 43 0 61 0;
#X connect 45 0 61 0;
#X connect 46 0 38 1;
#X connect 47 0 37 1;
#X connect 48 0 36 1;
#X connect 49 0 19 1;
#X connect 50 0 18 1;
#X connect 51 0 17 1;
#X connect 52 0 23 0;
#X connect 52 0 97 0;
#X connect 53 0 98 0;
#X connect 54 0 71 0;
#X connect 55 0 73 0;
#X connect 56 0 74 0;
#X connect 57 0 77 0;
#X connect 58 0 79 0;
#X connect 59 0 52 1;
#X connect 59 0 53 1;
#X connect 59 0 54 1;
#X connect 59 0 55 1;
#X connect 59 0 56 1;
#X connect 59 0 57 1;
#X connect 59 0 58 1;
#X connect 60 0 61 0;
#X connect 61 0 62 0;
#X connect 61 1 45 0;
#X connect 62 0 22 0;
#X connect 62 0 67 0;
#X connect 63 0 15 0;
#X connect 64 0 91 0;
#X connect 64 1 92 0;
#X connect 65 0 40 0;
#X connect 66 0 64 0;
#X connect 71 0 103 0;
#X connect 73 0 106 0;
#X connect 74 0 109 0;
#X connect 77 0 112 0;
#X connect 79 0 115 0;
#X connect 84 0 85 0;
#X connect 85 0 45 0;
#X connect 85 1 60 0;
#X connect 88 0 89 0;
#X connect 88 1 93 0;
#X connect 90 0 88 0;
#X connect 95 0 86 3;
#X connect 96 0 86 1;
#X connect 97 0 86 0;
#X connect 98 0 87 0;
#X connect 101 0 87 3;
#X connect 102 0 87 1;
#X connect 104 0 103 1;
#X connect 105 0 103 3;
#X connect 107 0 106 3;
#X connect 108 0 106 1;
#X connect 110 0 109 3;
#X connect 111 0 109 1;
#X connect 113 0 112 3;
#X connect 114 0 112 1;
#X connect 116 0 115 1;
#X connect 117 0 115 3;
#X coords 0 665 1 664 340 170 0;
