#N canvas 2099 112 976 527 10;
#X declare -path RSVP;
#X declare -path ext/list-abs;
#X declare -path ext/list-abs;
#X declare -path ext/list-abs;
#X declare -path ext/list-abs;
#X declare -path ext/list-abs;
#X declare -path ext/list-abs;
#X declare -path ext/list-abs;
#X declare -path ./RSVP/;
#X declare -path ../data;
#X obj 100 250 cnv 15 140 200 empty empty empty 20 12 0 14 #202020
#404040 0;
#X obj 105 255 cnv 15 130 190 empty empty CHORD/LFOs 5 12 0 16 #dcdcdc
#000000 0;
#X obj 111 307 vsl 9 129 0 127 0 0 empty LFO-1 empty 0 -9 0 10 #c4fcfc
#000000 #000000 0 1;
#X obj 122 307 vsl 9 129 0 127 0 0 empty LFO-2 empty 0 -9 0 10 #c4fcfc
#000000 #000000 0 1;
#X obj 133 307 vsl 9 129 0 127 0 0 empty LFO-3 empty 0 -9 0 10 #c4fcfc
#000000 #000000 0 1;
#X obj 144 307 vsl 9 129 0 127 0 0 empty LFO-4 empty 0 -9 0 10 #c4fcfc
#000000 #000000 0 1;
#X obj 155 307 vsl 9 129 0 127 0 0 empty LFO-5 empty 0 -9 0 10 #c4fcfc
#000000 #000000 0 1;
#X obj 166 307 vsl 9 129 0 127 0 0 empty LFO-6 empty 0 -9 0 10 #c4fcfc
#000000 #000000 0 1;
#X obj 177 307 vsl 9 129 0 127 0 0 empty LFO-7 empty 0 -9 0 10 #c4fcfc
#000000 #000000 0 1;
#X obj 445 62 unpack f f f f f f f;
#X obj 708 18 r reset-phase;
#X obj 320 118 else/lfo;
#X obj 381 118 else/lfo;
#X obj 442 118 else/lfo;
#X obj 503 118 else/lfo;
#X obj 564 118 else/lfo;
#X obj 625 118 else/lfo;
#X obj 686 118 else/lfo;
#X msg 708 49 0.25;
#X msg 292 16 0 0 0 0 0 0 0;
#X obj 429 34 cnv 15 15 15 empty empty empty 20 12 0 14 #fc0400 #404040
0;
#X text 377 15 stops;
#X obj 292 246 sel 0 1;
#X obj 111 135 pack f f f f f f f;
#X obj 111 202 unpack f f f f f f f;
#X obj 111 177 spigot;
#X obj 203 357 bng 15 250 50 0 empty empty empty 17 7 0 10 #0400fc
#f8fc00 #f8fc00;
#X obj 810 58 text define chords;
#X obj 810 16 loadbang;
#X obj 410 363 text search chords 0;
#X obj 410 342 symbol;
#X obj 410 385 text get chords;
#X obj 410 408 list split 1;
#X obj 641 272 declare -path RSVP;
#X obj 445 34 r LFO-freqs-\$1;
#N canvas 430 304 403 311 LFO-TRIGGERS 0;
#X obj 20 20 inlet;
#X obj 70 20 inlet;
#X obj 120 20 inlet;
#X obj 170 20 inlet;
#X obj 220 20 inlet;
#X obj 270 20 inlet;
#X obj 320 20 inlet;
#X obj 89 221 send LFO-triggers-\$1;
#N canvas 76 577 376 399 LFO-trigger 0;
#X obj 86 40 inlet;
#X obj 86 64 i;
#X obj 143 161 change;
#X obj 86 162 change;
#X obj 86 183 sel 1 0;
#X obj 86 209 1;
#X obj 169 208 -1;
#X obj 143 181 sel 0 1;
#X obj 128 206 0;
#X obj 86 142 == 127;
#X obj 143 141 == 0;
#X obj 128 311 outlet;
#X obj 191 275 bang;
#X obj 188 52 declare -path ext/list-abs;
#X obj 169 253 sel 1 -1;
#X obj 191 296 s trigger-pack;
#X obj 86 89 t a a;
#X connect 0 0 1 0;
#X connect 1 0 16 0;
#X connect 2 0 7 0;
#X connect 3 0 4 0;
#X connect 4 0 5 0;
#X connect 4 1 8 0;
#X connect 5 0 11 0;
#X connect 5 0 14 0;
#X connect 6 0 11 0;
#X connect 6 0 14 0;
#X connect 7 0 8 0;
#X connect 7 1 6 0;
#X connect 8 0 11 0;
#X connect 8 0 14 0;
#X connect 9 0 3 0;
#X connect 10 0 2 0;
#X connect 12 0 15 0;
#X connect 14 0 12 0;
#X connect 14 1 12 0;
#X connect 16 0 9 0;
#X connect 16 1 10 0;
#X restore 89 60 pd LFO-trigger;
#X obj 30 157 r trigger-pack;
#N canvas 76 577 376 399 LFO-trigger 0;
#X obj 86 40 inlet;
#X obj 86 64 i;
#X obj 143 161 change;
#X obj 86 162 change;
#X obj 86 183 sel 1 0;
#X obj 86 209 1;
#X obj 169 208 -1;
#X obj 143 181 sel 0 1;
#X obj 128 206 0;
#X obj 86 142 == 127;
#X obj 143 141 == 0;
#X obj 128 311 outlet;
#X obj 191 275 bang;
#X obj 188 52 declare -path ext/list-abs;
#X obj 169 253 sel 1 -1;
#X obj 191 296 s trigger-pack;
#X obj 86 89 t a a;
#X connect 0 0 1 0;
#X connect 1 0 16 0;
#X connect 2 0 7 0;
#X connect 3 0 4 0;
#X connect 4 0 5 0;
#X connect 4 1 8 0;
#X connect 5 0 11 0;
#X connect 5 0 14 0;
#X connect 6 0 11 0;
#X connect 6 0 14 0;
#X connect 7 0 8 0;
#X connect 7 1 6 0;
#X connect 8 0 11 0;
#X connect 8 0 14 0;
#X connect 9 0 3 0;
#X connect 10 0 2 0;
#X connect 12 0 15 0;
#X connect 14 0 12 0;
#X connect 14 1 12 0;
#X connect 16 0 9 0;
#X connect 16 1 10 0;
#X restore 106 79 pd LFO-trigger;
#N canvas 76 577 376 399 LFO-trigger 0;
#X obj 86 40 inlet;
#X obj 86 64 i;
#X obj 143 161 change;
#X obj 86 162 change;
#X obj 86 183 sel 1 0;
#X obj 86 209 1;
#X obj 169 208 -1;
#X obj 143 181 sel 0 1;
#X obj 128 206 0;
#X obj 86 142 == 127;
#X obj 143 141 == 0;
#X obj 128 311 outlet;
#X obj 191 275 bang;
#X obj 188 52 declare -path ext/list-abs;
#X obj 169 253 sel 1 -1;
#X obj 191 296 s trigger-pack;
#X obj 86 89 t a a;
#X connect 0 0 1 0;
#X connect 1 0 16 0;
#X connect 2 0 7 0;
#X connect 3 0 4 0;
#X connect 4 0 5 0;
#X connect 4 1 8 0;
#X connect 5 0 11 0;
#X connect 5 0 14 0;
#X connect 6 0 11 0;
#X connect 6 0 14 0;
#X connect 7 0 8 0;
#X connect 7 1 6 0;
#X connect 8 0 11 0;
#X connect 8 0 14 0;
#X connect 9 0 3 0;
#X connect 10 0 2 0;
#X connect 12 0 15 0;
#X connect 14 0 12 0;
#X connect 14 1 12 0;
#X connect 16 0 9 0;
#X connect 16 1 10 0;
#X restore 124 98 pd LFO-trigger;
#N canvas 76 577 376 399 LFO-trigger 0;
#X obj 86 40 inlet;
#X obj 86 64 i;
#X obj 143 161 change;
#X obj 86 162 change;
#X obj 86 183 sel 1 0;
#X obj 86 209 1;
#X obj 169 208 -1;
#X obj 143 181 sel 0 1;
#X obj 128 206 0;
#X obj 86 142 == 127;
#X obj 143 141 == 0;
#X obj 128 311 outlet;
#X obj 191 275 bang;
#X obj 188 52 declare -path ext/list-abs;
#X obj 169 253 sel 1 -1;
#X obj 191 296 s trigger-pack;
#X obj 86 89 t a a;
#X connect 0 0 1 0;
#X connect 1 0 16 0;
#X connect 2 0 7 0;
#X connect 3 0 4 0;
#X connect 4 0 5 0;
#X connect 4 1 8 0;
#X connect 5 0 11 0;
#X connect 5 0 14 0;
#X connect 6 0 11 0;
#X connect 6 0 14 0;
#X connect 7 0 8 0;
#X connect 7 1 6 0;
#X connect 8 0 11 0;
#X connect 8 0 14 0;
#X connect 9 0 3 0;
#X connect 10 0 2 0;
#X connect 12 0 15 0;
#X connect 14 0 12 0;
#X connect 14 1 12 0;
#X connect 16 0 9 0;
#X connect 16 1 10 0;
#X restore 141 117 pd LFO-trigger;
#N canvas 76 577 376 399 LFO-trigger 0;
#X obj 86 40 inlet;
#X obj 86 64 i;
#X obj 143 161 change;
#X obj 86 162 change;
#X obj 86 183 sel 1 0;
#X obj 86 209 1;
#X obj 169 208 -1;
#X obj 143 181 sel 0 1;
#X obj 128 206 0;
#X obj 86 142 == 127;
#X obj 143 141 == 0;
#X obj 128 311 outlet;
#X obj 191 275 bang;
#X obj 188 52 declare -path ext/list-abs;
#X obj 169 253 sel 1 -1;
#X obj 191 296 s trigger-pack;
#X obj 86 89 t a a;
#X connect 0 0 1 0;
#X connect 1 0 16 0;
#X connect 2 0 7 0;
#X connect 3 0 4 0;
#X connect 4 0 5 0;
#X connect 4 1 8 0;
#X connect 5 0 11 0;
#X connect 5 0 14 0;
#X connect 6 0 11 0;
#X connect 6 0 14 0;
#X connect 7 0 8 0;
#X connect 7 1 6 0;
#X connect 8 0 11 0;
#X connect 8 0 14 0;
#X connect 9 0 3 0;
#X connect 10 0 2 0;
#X connect 12 0 15 0;
#X connect 14 0 12 0;
#X connect 14 1 12 0;
#X connect 16 0 9 0;
#X connect 16 1 10 0;
#X restore 159 136 pd LFO-trigger;
#X obj 89 197 pack f f f f f f f;
#N canvas 76 577 376 399 LFO-trigger 0;
#X obj 86 40 inlet;
#X obj 86 64 i;
#X obj 143 161 change;
#X obj 86 162 change;
#X obj 86 183 sel 1 0;
#X obj 86 209 1;
#X obj 169 208 -1;
#X obj 143 181 sel 0 1;
#X obj 128 206 0;
#X obj 86 142 == 127;
#X obj 143 141 == 0;
#X obj 128 311 outlet;
#X obj 191 275 bang;
#X obj 188 52 declare -path ext/list-abs;
#X obj 169 253 sel 1 -1;
#X obj 191 296 s trigger-pack;
#X obj 86 89 t a a;
#X connect 0 0 1 0;
#X connect 1 0 16 0;
#X connect 2 0 7 0;
#X connect 3 0 4 0;
#X connect 4 0 5 0;
#X connect 4 1 8 0;
#X connect 5 0 11 0;
#X connect 5 0 14 0;
#X connect 6 0 11 0;
#X connect 6 0 14 0;
#X connect 7 0 8 0;
#X connect 7 1 6 0;
#X connect 8 0 11 0;
#X connect 8 0 14 0;
#X connect 9 0 3 0;
#X connect 10 0 2 0;
#X connect 12 0 15 0;
#X connect 14 0 12 0;
#X connect 14 1 12 0;
#X connect 16 0 9 0;
#X connect 16 1 10 0;
#X restore 176 155 pd LFO-trigger;
#N canvas 76 577 376 399 LFO-trigger 0;
#X obj 86 40 inlet;
#X obj 86 64 i;
#X obj 143 161 change;
#X obj 86 162 change;
#X obj 86 183 sel 1 0;
#X obj 86 209 1;
#X obj 169 208 -1;
#X obj 143 181 sel 0 1;
#X obj 128 206 0;
#X obj 86 142 == 127;
#X obj 143 141 == 0;
#X obj 128 311 outlet;
#X obj 191 275 bang;
#X obj 188 52 declare -path ext/list-abs;
#X obj 169 253 sel 1 -1;
#X obj 191 296 s trigger-pack;
#X obj 86 89 t a a;
#X connect 0 0 1 0;
#X connect 1 0 16 0;
#X connect 2 0 7 0;
#X connect 3 0 4 0;
#X connect 4 0 5 0;
#X connect 4 1 8 0;
#X connect 5 0 11 0;
#X connect 5 0 14 0;
#X connect 6 0 11 0;
#X connect 6 0 14 0;
#X connect 7 0 8 0;
#X connect 7 1 6 0;
#X connect 8 0 11 0;
#X connect 8 0 14 0;
#X connect 9 0 3 0;
#X connect 10 0 2 0;
#X connect 12 0 15 0;
#X connect 14 0 12 0;
#X connect 14 1 12 0;
#X connect 16 0 9 0;
#X connect 16 1 10 0;
#X restore 194 174 pd LFO-trigger;
#X connect 0 0 8 0;
#X connect 1 0 10 0;
#X connect 2 0 11 0;
#X connect 3 0 12 0;
#X connect 4 0 13 0;
#X connect 5 0 15 0;
#X connect 6 0 16 0;
#X connect 8 0 14 0;
#X connect 9 0 14 0;
#X connect 10 0 14 1;
#X connect 11 0 14 2;
#X connect 12 0 14 3;
#X connect 13 0 14 4;
#X connect 14 0 7 0;
#X connect 15 0 14 5;
#X connect 16 0 14 6;
#X restore 320 191 pd LFO-TRIGGERS;
#N canvas 1208 378 403 311 LFO-VALUES 0;
#X obj 20 20 inlet;
#X obj 70 20 inlet;
#X obj 120 20 inlet;
#X obj 170 20 inlet;
#X obj 220 20 inlet;
#X obj 270 20 inlet;
#X obj 320 20 inlet;
#X obj 89 208 pack f f f f f f f;
#N canvas 76 577 376 399 LFO-VALUES 0;
#X obj 86 40 inlet;
#X obj 86 64 i;
#X obj 113 158 outlet;
#X obj 86 92 change;
#X obj 86 113 t b a;
#X obj 86 194 s trigger-values;
#X connect 0 0 1 0;
#X connect 1 0 3 0;
#X connect 3 0 4 0;
#X connect 4 0 5 0;
#X connect 4 1 2 0;
#X restore 20 53 pd LFO-VALUES;
#N canvas 76 577 376 399 LFO-VALUES 0;
#X obj 86 40 inlet;
#X obj 86 64 i;
#X obj 113 158 outlet;
#X obj 86 92 change;
#X obj 86 113 t b a;
#X obj 86 194 s trigger-values;
#X connect 0 0 1 0;
#X connect 1 0 3 0;
#X connect 3 0 4 0;
#X connect 4 0 5 0;
#X connect 4 1 2 0;
#X restore 70 72 pd LFO-VALUES;
#N canvas 76 577 376 399 LFO-VALUES 0;
#X obj 86 40 inlet;
#X obj 86 64 i;
#X obj 113 158 outlet;
#X obj 86 92 change;
#X obj 86 113 t b a;
#X obj 86 194 s trigger-values;
#X connect 0 0 1 0;
#X connect 1 0 3 0;
#X connect 3 0 4 0;
#X connect 4 0 5 0;
#X connect 4 1 2 0;
#X restore 120 93 pd LFO-VALUES;
#N canvas 76 577 376 399 LFO-VALUES 0;
#X obj 86 40 inlet;
#X obj 86 64 i;
#X obj 113 158 outlet;
#X obj 86 92 change;
#X obj 86 113 t b a;
#X obj 86 194 s trigger-values;
#X connect 0 0 1 0;
#X connect 1 0 3 0;
#X connect 3 0 4 0;
#X connect 4 0 5 0;
#X connect 4 1 2 0;
#X restore 170 112 pd LFO-VALUES;
#N canvas 76 577 376 399 LFO-VALUES 0;
#X obj 86 40 inlet;
#X obj 86 64 i;
#X obj 113 158 outlet;
#X obj 86 92 change;
#X obj 86 113 t b a;
#X obj 86 194 s trigger-values;
#X connect 0 0 1 0;
#X connect 1 0 3 0;
#X connect 3 0 4 0;
#X connect 4 0 5 0;
#X connect 4 1 2 0;
#X restore 205 131 pd LFO-VALUES;
#N canvas 76 577 376 399 LFO-VALUES 0;
#X obj 86 40 inlet;
#X obj 86 64 i;
#X obj 113 158 outlet;
#X obj 86 92 change;
#X obj 86 113 t b a;
#X obj 86 194 s trigger-values;
#X connect 0 0 1 0;
#X connect 1 0 3 0;
#X connect 3 0 4 0;
#X connect 4 0 5 0;
#X connect 4 1 2 0;
#X restore 255 152 pd LFO-VALUES;
#N canvas 76 577 376 399 LFO-VALUES 0;
#X obj 86 40 inlet;
#X obj 86 64 i;
#X obj 113 158 outlet;
#X obj 86 92 change;
#X obj 86 113 t b a;
#X obj 86 194 s trigger-values;
#X connect 0 0 1 0;
#X connect 1 0 3 0;
#X connect 3 0 4 0;
#X connect 4 0 5 0;
#X connect 4 1 2 0;
#X restore 305 171 pd LFO-VALUES;
#X obj 9 162 r trigger-values;
#X obj 89 248 send LFO-values-\$1;
#X connect 0 0 8 0;
#X connect 1 0 9 0;
#X connect 2 0 10 0;
#X connect 3 0 11 0;
#X connect 4 0 12 0;
#X connect 5 0 13 0;
#X connect 6 0 14 0;
#X connect 7 0 16 0;
#X connect 8 0 7 0;
#X connect 9 0 7 1;
#X connect 10 0 7 2;
#X connect 11 0 7 3;
#X connect 12 0 7 4;
#X connect 13 0 7 5;
#X connect 14 0 7 6;
#X connect 15 0 7 0;
#X restore 611 183 pd LFO-VALUES;
#N canvas 734 432 200 290 LFO-MIDI 0;
#X obj 30 101 list;
#X obj 30 120 list-apply +;
#X obj 30 80 t b a b;
#X obj 30 200 send LFO-MIDI-\$1;
#X obj 99 101 24;
#X obj 30 60 r chord-\$0;
#X obj 47 182 print -n;
#X obj 47 142 list prepend MIDI/NOTES;
#X obj 47 162 route list;
#X connect 0 0 1 0;
#X connect 1 0 3 0;
#X connect 2 0 0 0;
#X connect 2 1 0 1;
#X connect 2 2 4 0;
#X connect 4 0 1 2;
#X connect 5 0 2 0;
#X connect 7 0 8 0;
#X connect 8 0 6 0;
#X restore 473 185 pd LFO-MIDI;
#X obj 473 202 cnv 5 95 5 empty empty empty 5 6 0 10 #fc0400 #dcdcdc
0;
#X obj 320 208 cnv 5 95 5 empty empty empty 5 6 0 10 #00fc04 #dcdcdc
0;
#X obj 611 200 cnv 5 95 5 empty empty empty 5 6 0 10 #fc8000 #dcdcdc
0;
#X text 690 453 send LFO-MIDI/LFO-VALUES/LFO-TRIGGERS;
#X obj 202 310 tgl_pre LFO-GUI;
#X obj 202 331 cnv 5 17 9 empty empty GUI 2 5 0 8 #000000 #fcfcfc 0
;
#X obj 192 375 cnv 5 38 9 empty empty RST/PHS 2 5 0 8 #000000 #fcfcfc
0;
#X obj 168 282 cnv 5 32 12 empty \$1-pre-vis -chrd 2 6 0 10 #000000
#fcfcfc 0;
#X obj 195 427 cnv 5 32 9 empty empty ON/OFF 2 5 0 8 #000000 #fcfcfc
0;
#X obj 112 279 nbx_pre chrd;
#X msg 410 321 chrd-\$1;
#X floatatom 410 295 5 0 0 0 - - - 0;
#N canvas 1294 454 476 521 create-LFOs 0;
#X obj 30 17 inlet;
#X obj 160 226 f;
#X obj 187 226 f;
#X obj 215 226 f;
#X obj 242 226 f;
#X obj 62 149 metro 2;
#X obj 160 247 / 2;
#X obj 187 247 / 2;
#X obj 215 247 / 2;
#X obj 242 247 / 2;
#X obj 41 126 tgl 15 0 empty empty empty 17 7 0 10 #fcfcfc #000000
#000000 0 1;
#X obj 72 304 sel 1;
#X obj 175 162 mtof;
#X obj 202 142 mtof;
#X obj 230 162 mtof;
#X obj 257 141 mtof;
#X obj 145 396 f;
#X obj 172 396 f;
#X obj 200 396 f;
#X obj 227 396 f;
#X msg 41 351 0;
#X obj 30 83 t b a;
#X obj 175 117 unpack f f f f f f f, f 28;
#X obj 270 226 f;
#X obj 297 226 f;
#X obj 325 226 f;
#X obj 270 247 / 2;
#X obj 297 247 / 2;
#X obj 325 247 / 2;
#X obj 285 161 mtof;
#X obj 312 140 mtof;
#X obj 340 160 mtof;
#X obj 62 167 t b b b b b b b;
#X obj 180 432 pack f f f f f f f;
#X obj 255 395 f;
#X obj 282 395 f;
#X obj 310 395 f;
#X obj 72 324 t b b b b b b b b;
#N canvas 0 82 450 299 register 0;
#X msg 170 111 2;
#X obj 143 91 t a b;
#X obj 143 150 *;
#X obj 170 132 pow 6;
#X obj 143 69 inlet;
#X obj 143 173 outlet;
#X connect 0 0 3 0;
#X connect 1 0 2 0;
#X connect 1 1 0 0;
#X connect 2 0 5 0;
#X connect 3 0 2 1;
#X connect 4 0 1 0;
#X restore 325 267 pd register;
#N canvas 0 82 450 299 register 0;
#X msg 170 111 2;
#X obj 143 91 t a b;
#X obj 143 150 *;
#X obj 143 69 inlet;
#X obj 143 173 outlet;
#X obj 170 132 pow 5;
#X connect 0 0 5 0;
#X connect 1 0 2 0;
#X connect 1 1 0 0;
#X connect 2 0 4 0;
#X connect 3 0 1 0;
#X connect 5 0 2 1;
#X restore 297 287 pd register;
#N canvas 0 82 450 299 register 0;
#X msg 170 111 2;
#X obj 143 91 t a b;
#X obj 143 150 *;
#X obj 143 69 inlet;
#X obj 143 173 outlet;
#X obj 170 132 pow 4;
#X connect 0 0 5 0;
#X connect 1 0 2 0;
#X connect 1 1 0 0;
#X connect 2 0 4 0;
#X connect 3 0 1 0;
#X connect 5 0 2 1;
#X restore 270 307 pd register;
#N canvas 0 82 450 299 register 0;
#X msg 170 111 2;
#X obj 143 91 t a b;
#X obj 143 150 *;
#X obj 143 69 inlet;
#X obj 143 173 outlet;
#X obj 170 132 pow 3;
#X connect 0 0 5 0;
#X connect 1 0 2 0;
#X connect 1 1 0 0;
#X connect 2 0 4 0;
#X connect 3 0 1 0;
#X connect 5 0 2 1;
#X restore 242 327 pd register;
#N canvas 51 467 450 299 register 0;
#X msg 170 111 2;
#X obj 143 91 t a b;
#X obj 143 150 *;
#X obj 143 69 inlet;
#X obj 143 173 outlet;
#X obj 170 132 pow 2;
#X connect 0 0 5 0;
#X connect 1 0 2 0;
#X connect 1 1 0 0;
#X connect 2 0 4 0;
#X connect 3 0 1 0;
#X connect 5 0 2 1;
#X restore 215 347 pd register;
#X obj 187 267 * 2;
#X obj 30 60 list-apply + 12;
#X obj 72 265 < 0.003;
#X obj 192 76 s chord-\$0;
#X text 181 97 to LFO-packer;
#X obj 257 77 cnv 15 15 15 empty empty empty 20 12 0 14 #00fc04 #404040
0;
#X obj 269 454 cnv 15 15 15 empty empty empty 20 12 0 14 #fc0400 #404040
0;
#X obj 180 453 s LFO-freqs-\$1;
#X obj 30 105 del 100;
#X connect 0 0 44 0;
#X connect 1 0 6 0;
#X connect 2 0 7 0;
#X connect 3 0 8 0;
#X connect 4 0 9 0;
#X connect 5 0 32 0;
#X connect 6 0 1 1;
#X connect 6 0 16 1;
#X connect 6 0 45 0;
#X connect 7 0 2 1;
#X connect 7 0 43 0;
#X connect 8 0 3 1;
#X connect 8 0 42 0;
#X connect 9 0 4 1;
#X connect 9 0 41 0;
#X connect 10 0 5 0;
#X connect 11 0 37 0;
#X connect 12 0 1 1;
#X connect 13 0 2 1;
#X connect 14 0 3 1;
#X connect 15 0 4 1;
#X connect 16 0 33 0;
#X connect 17 0 33 1;
#X connect 18 0 33 2;
#X connect 19 0 33 3;
#X connect 20 0 10 0;
#X connect 21 0 51 0;
#X connect 21 1 22 0;
#X connect 22 0 12 0;
#X connect 22 1 13 0;
#X connect 22 2 14 0;
#X connect 22 3 15 0;
#X connect 22 4 29 0;
#X connect 22 5 30 0;
#X connect 22 6 31 0;
#X connect 23 0 26 0;
#X connect 24 0 27 0;
#X connect 25 0 28 0;
#X connect 26 0 23 1;
#X connect 26 0 40 0;
#X connect 27 0 24 1;
#X connect 27 0 39 0;
#X connect 28 0 25 1;
#X connect 28 0 38 0;
#X connect 29 0 23 1;
#X connect 30 0 24 1;
#X connect 31 0 25 1;
#X connect 32 0 1 0;
#X connect 32 1 2 0;
#X connect 32 2 3 0;
#X connect 32 3 4 0;
#X connect 32 4 23 0;
#X connect 32 5 24 0;
#X connect 32 6 25 0;
#X connect 33 0 50 0;
#X connect 34 0 33 4;
#X connect 35 0 33 5;
#X connect 36 0 33 6;
#X connect 37 0 20 0;
#X connect 37 1 16 0;
#X connect 37 2 17 0;
#X connect 37 3 18 0;
#X connect 37 4 19 0;
#X connect 37 5 34 0;
#X connect 37 6 35 0;
#X connect 37 7 36 0;
#X connect 38 0 36 1;
#X connect 39 0 35 1;
#X connect 40 0 34 1;
#X connect 41 0 19 1;
#X connect 42 0 18 1;
#X connect 43 0 17 1;
#X connect 44 0 21 0;
#X connect 44 0 46 0;
#X connect 45 0 11 0;
#X connect 51 0 10 0;
#X restore 444 433 pd create-LFOs;
#X obj 440 451 cnv 5 95 5 empty empty empty 5 6 0 10 #9c00fc #dcdcdc
0;
#X obj 52 321 bng 15 250 50 0 empty empty empty 17 7 0 10 #fcfcfc #000000
#000000;
#X obj 645 417 send pd-\$0-zLFO;
#X msg 646 384 donecanvasdialog 0 0 1 0 -1 1 1 \$1 50 100 100 1;
#X obj 427 240 r \$1-LFO-rst;
#X obj 642 320 declare -path ./RSVP/;
#X obj 641 295 declare -path ../data;
#X msg 810 38 read ../data/chrds-LFO.txt;
#X obj 835 175 openpanel;
#X obj 828 146 bng 15 250 50 0 empty empty empty 17 7 0 10 #fcfcfc
#000000 #000000;
#X obj 835 198 print;
#X obj 876 13 bng 15 250 50 0 empty empty empty 17 7 0 10 #fcfcfc #000000
#000000;
#X obj 202 402 ./customGUI/tgl-but_pre \$1 \$2 on-off;
#X connect 9 0 11 0;
#X connect 9 1 12 0;
#X connect 9 2 13 0;
#X connect 9 3 14 0;
#X connect 9 4 15 0;
#X connect 9 5 16 0;
#X connect 9 6 17 0;
#X connect 10 0 18 0;
#X connect 11 0 23 0;
#X connect 11 0 35 0;
#X connect 11 0 36 0;
#X connect 12 0 23 1;
#X connect 12 0 35 1;
#X connect 12 0 36 1;
#X connect 13 0 23 2;
#X connect 13 0 35 2;
#X connect 13 0 36 2;
#X connect 14 0 23 3;
#X connect 14 0 35 3;
#X connect 14 0 36 3;
#X connect 15 0 23 4;
#X connect 15 0 35 4;
#X connect 15 0 36 4;
#X connect 16 0 23 5;
#X connect 16 0 35 5;
#X connect 16 0 36 5;
#X connect 17 0 23 6;
#X connect 17 0 35 6;
#X connect 17 0 36 6;
#X connect 18 0 11 1;
#X connect 18 0 12 1;
#X connect 18 0 13 1;
#X connect 18 0 14 1;
#X connect 18 0 15 1;
#X connect 18 0 16 1;
#X connect 18 0 17 1;
#X connect 19 0 9 0;
#X connect 22 0 19 0;
#X connect 22 1 47 0;
#X connect 23 0 25 0;
#X connect 24 0 2 0;
#X connect 24 1 3 0;
#X connect 24 2 4 0;
#X connect 24 3 5 0;
#X connect 24 4 6 0;
#X connect 24 5 7 0;
#X connect 24 6 8 0;
#X connect 25 0 24 0;
#X connect 26 0 18 0;
#X connect 28 0 58 0;
#X connect 28 0 18 0;
#X connect 29 0 31 0;
#X connect 30 0 29 0;
#X connect 31 0 32 0;
#X connect 32 1 50 0;
#X connect 34 0 9 0;
#X connect 42 0 25 1;
#X connect 47 0 52 0;
#X connect 47 0 48 0;
#X connect 48 0 30 0;
#X connect 49 0 48 0;
#X connect 54 0 53 0;
#X connect 55 0 26 0;
#X connect 58 0 27 0;
#X connect 59 0 61 0;
#X connect 60 0 59 0;
#X connect 62 0 58 0;
#X connect 63 0 22 0;
#X coords 0 -1 1 1 140 200 2 100 250;
