#N canvas 2079 124 926 617 12;
#X declare -path ../;
#X obj 775 91 loadbang;
#X obj 775 114 100;
#X obj 41 245 catch~ 2local_L.MLT1;
#X obj 630 75 catch~ from_MLT1-0;
#X obj 647 96 catch~ from_MLT1-1;
#X obj 595 163 throw~ to_MLT1-0;
#X obj 664 186 throw~ to_MLT1-1;
#X obj 265 338 *~;
#X obj 307 313 line~;
#X msg 307 292 \$1 50;
#X obj 40 425 *~;
#X obj 56 387 line~;
#X msg 56 367 \$1 50;
#X obj 174 409 *~;
#X obj 375 387 switch~;
#X obj 41 480 *~;
#X obj 174 479 *~;
#X obj 265 386 *~;
#X obj 40 539 throw~ 2master_L;
#X obj 174 539 throw~ 2master_R;
#X obj 41 95 throw~ 2local_L.MLT1;
#X obj 273 94 throw~ 2local_R.MLT1;
#X obj 188 247 catch~ 2local_R.MLT1;
#X obj 43 160 throw~ 2local_L.MLT1;
#X obj 275 159 throw~ 2local_R.MLT1;
#X obj 265 294 /~ 2;
#X obj 179 233 cnv 10 10 10 empty empty empty 20 12 0 14 -258113 -66577
0;
#X obj 326 236 cnv 10 10 10 empty empty empty 20 12 0 14 -258113 -66577
0;
#X obj 419 169 cnv 10 10 10 empty empty empty 20 12 0 14 -258113 -66577
0;
#X obj 419 100 cnv 10 10 10 empty empty empty 20 12 0 14 -258113 -66577
0;
#X obj 191 102 cnv 10 10 10 empty empty empty 20 12 0 14 -258113 -66577
0;
#X obj 188 169 cnv 10 10 10 empty empty empty 20 12 0 14 -258113 -66577
0;
#X obj 596 132 mtx_mul~ 2 3;
#X text 34 557 ---------------------------------------------------
OUTPUT;
#X text 596 202 ------------------------------- MATRIX;
#X text 47 194 ------------------------------------------------- PROCESSORS
;
#X floatatom 118 369 5 0 0 0 - - -;
#X obj 42 68 zTDEL.L~ \$1 MLT1 MLT1 0;
#X obj 44 131 zRMOD.L~ \$1 MLT1 MLT1 1;
#X obj 636 276 declare -path ../;
#X obj 596 23 r CONNECTIONS-\$1-MLT1;
#X obj 307 272 r send-\$1-MLT1-send;
#X obj 315 344 r \$1-MLT1-DSP;
#X obj 56 345 r vol-\$1-MLT1-send;
#X obj 315 369 DSP-ON;
#X msg 507 487 set \$1;
#X obj 507 417 loadbang;
#X obj 507 438 i \$4;
#X obj 507 463 + 4;
#X obj 507 509 dac~ \$4;
#X obj 481 391 bng 15 250 50 0 empty empty empty 17 7 0 10 -262144
-1 -1;
#X obj 470 463 /~ 2;
#X obj 504 376 iemguts/initbang;
#X obj 340 409 tgl 15 0 empty empty empty 17 7 0 10 -262144 -1 -1 1
1;
#X obj 611 48 catch~ to_\$3-\$4;
#X floatatom 366 300 5 0 0 0 - - -;
#X obj 265 456 throw~ from_\$3-\$4;
#X connect 0 0 1 0;
#X connect 1 0 32 4;
#X connect 2 0 10 0;
#X connect 2 0 25 0;
#X connect 3 0 32 2;
#X connect 4 0 32 3;
#X connect 7 0 17 0;
#X connect 8 0 7 1;
#X connect 9 0 8 0;
#X connect 10 0 15 0;
#X connect 10 0 51 0;
#X connect 11 0 10 1;
#X connect 11 0 13 0;
#X connect 12 0 11 0;
#X connect 13 0 16 0;
#X connect 13 0 51 0;
#X connect 15 0 18 0;
#X connect 16 0 19 0;
#X connect 17 0 56 0;
#X connect 22 0 13 1;
#X connect 22 0 25 0;
#X connect 25 0 7 0;
#X connect 32 0 5 0;
#X connect 32 1 6 0;
#X connect 37 0 20 0;
#X connect 37 1 21 0;
#X connect 38 0 23 0;
#X connect 38 0 24 0;
#X connect 40 0 32 0;
#X connect 41 0 9 0;
#X connect 41 0 55 0;
#X connect 42 0 44 0;
#X connect 43 0 12 0;
#X connect 43 0 36 0;
#X connect 44 0 17 1;
#X connect 44 0 16 1;
#X connect 44 0 15 1;
#X connect 44 1 14 0;
#X connect 44 1 53 0;
#X connect 45 0 49 0;
#X connect 46 0 47 0;
#X connect 47 0 48 0;
#X connect 48 0 45 0;
#X connect 50 0 47 0;
#X connect 51 0 49 0;
#X connect 52 0 47 0;
#X connect 54 0 32 1;
