#N canvas 1958 74 932 636 12;
#X obj 814 89 loadbang;
#X obj 814 112 100;
#X obj 265 338 *~;
#X obj 307 313 line~;
#X msg 307 292 \$1 50;
#X obj 40 425 *~;
#X obj 56 387 line~;
#X msg 56 367 \$1 50;
#X obj 174 409 *~;
#X obj 315 369 DSP-ON;
#X obj 367 387 switch~;
#X obj 41 480 *~;
#X obj 174 479 *~;
#X obj 265 386 *~;
#X obj 40 539 throw~ 2master_L;
#X obj 174 539 throw~ 2master_R;
#X obj 265 294 /~ 2;
#X obj 177 230 cnv 10 10 10 empty empty empty 20 12 0 14 #fc0400 #404040
0;
#X obj 320 236 cnv 10 10 10 empty empty empty 20 12 0 14 #fc0400 #404040
0;
#X obj 345 113 cnv 10 10 10 empty empty empty 20 12 0 14 #fc0400 #404040
0;
#X obj 343 50 cnv 10 10 10 empty empty empty 20 12 0 14 #fc0400 #404040
0;
#X obj 162 56 cnv 10 10 10 empty empty empty 20 12 0 14 #fc0400 #404040
0;
#X obj 165 122 cnv 10 10 10 empty empty empty 20 12 0 14 #fc0400 #404040
0;
#X obj 562 132 mtx_mul~ 2 3;
#X text 34 557 ---------------------------------------------------
OUTPUT;
#X text 575 202 ------------------------------- MATRIX;
#X text 20 139 ------------------------------------------------- PROCESSORS
;
#X floatatom 118 369 5 0 0 0 - - - 0;
#X obj 17 49 throw~ 2local_L.MLT2;
#X obj 199 41 throw~ 2local_R.MLT2;
#X obj 19 114 throw~ 2local_L.MLT2;
#X obj 201 104 throw~ 2local_R.MLT2;
#X obj 603 72 catch~ from_MLT2-0;
#X obj 622 96 catch~ from_MLT2-1;
#X obj 561 163 throw~ to_MLT2-0;
#X obj 643 186 throw~ to_MLT2-1;
#X obj 41 245 catch~ 2local_L.MLT2;
#X obj 188 247 catch~ 2local_R.MLT2;
#X text 316 475 set outlet;
#X text 540 548 set outlet;
#X obj 347 397 tgl 15 0 empty empty empty 17 7 0 10 #fcfcfc #000000
#000000 0 1;
#X obj 18 22 zHARM.L~ \$1 MLT2 MLT2 0;
#X obj 562 23 r CONNECTIONS-\$1-MLT2;
#X obj 20 85 zVERB.L~ \$1 MLT2 MLT2 1;
#X obj 307 272 r send-\$1-MLT2-send;
#X obj 315 347 r \$1-MLT2-DSP;
#X obj 56 345 r vol-\$1-MLT2-send;
#X msg 546 496 set \$1;
#X obj 546 426 loadbang;
#X obj 546 447 i \$4;
#X obj 546 472 + 4;
#X obj 582 50 catch~ to_\$3-\$4;
#X obj 265 456 throw~ from_\$3-\$4;
#X floatatom 56 196 5 0 0 0 - - - 0;
#X obj 56 171 env~;
#X floatatom 498 198 5 0 0 0 - - - 0;
#X obj 498 173 env~;
#X obj 546 518 dac~ \$4;
#X obj 520 400 bng 15 250 50 0 empty empty empty 17 7 0 10 #fcfcfc
#000000 #000000;
#X obj 541 398 iemguts/initbang;
#X floatatom 366 310 5 0 0 0 - - - 0;
#X connect 0 0 1 0;
#X connect 1 0 23 4;
#X connect 2 0 13 0;
#X connect 3 0 2 1;
#X connect 4 0 3 0;
#X connect 5 0 11 0;
#X connect 6 0 5 1;
#X connect 6 0 8 0;
#X connect 7 0 6 0;
#X connect 8 0 12 0;
#X connect 9 0 13 1;
#X connect 9 0 12 1;
#X connect 9 0 11 1;
#X connect 9 1 10 0;
#X connect 9 1 40 0;
#X connect 11 0 14 0;
#X connect 11 0 57 0;
#X connect 12 0 15 0;
#X connect 12 0 57 0;
#X connect 13 0 52 0;
#X connect 16 0 2 0;
#X connect 23 0 34 0;
#X connect 23 1 35 0;
#X connect 23 1 56 0;
#X connect 32 0 23 2;
#X connect 33 0 23 3;
#X connect 36 0 5 0;
#X connect 36 0 16 0;
#X connect 37 0 8 1;
#X connect 37 0 16 0;
#X connect 41 0 28 0;
#X connect 41 1 29 0;
#X connect 42 0 23 0;
#X connect 43 0 30 0;
#X connect 43 0 54 0;
#X connect 43 1 31 0;
#X connect 44 0 4 0;
#X connect 44 0 60 0;
#X connect 45 0 9 0;
#X connect 46 0 7 0;
#X connect 46 0 27 0;
#X connect 47 0 57 0;
#X connect 48 0 49 0;
#X connect 49 0 50 0;
#X connect 50 0 47 0;
#X connect 51 0 23 1;
#X connect 54 0 53 0;
#X connect 56 0 55 0;
#X connect 58 0 49 0;
#X connect 59 0 49 0;
