#N struct 1546-color float x float y float farbe;
#N struct 1546-color-display float x float y float farbe;
#N struct 1549-color float x float y float farbe;
#N struct 1549-color-display float x float y float farbe;
#N struct 1543-matrixctrl float x float y float size float color float
state;
#N canvas 865 109 1030 531 10;
#X declare -path RSVP;
#X declare -path ../sys.comunication;
#X declare -path ../;
#X obj 200 100 cnv 15 220 200 empty \$2-canvas empty 20 12 0 14 #202020
#202020 0;
#X obj 205 105 cnv 15 210 190 empty empty empty 6 80 0 12 #e0e0e0 #000000
0;
#X obj 383 111 cnv 5 32 9 empty empty ON/OFF 2 5 0 8 #000000 #fcfcfc
0;
#X obj 210 273 cnv 5 80 15 empty \$1.\$2.\$3.\$4.color-tag \$2->\$3.\$4
4 8 0 10 #fcfcfc #202020 0;
#N canvas 2 96 450 391 tag 0;
#X obj 131 252 list prepend color;
#X obj 131 280 route list;
#X obj 84 65 \$4;
#X obj 85 87 sel 1 2 3 4 5 6 7 8;
#X obj 84 42 loadbang;
#X obj 131 309 s \$1.\$2.\$3.\$4.color-tag;
#X msg 85 111 13 0 0;
#X msg 98 135 14 0 2;
#X msg 112 159 15 0 2;
#X msg 126 181 16 0 0;
#X msg 140 115 17 0 12;
#X msg 154 137 18 0 0;
#X msg 168 163 19 0 0;
#X msg 182 188 0 0 12;
#X connect 0 0 1 0;
#X connect 1 0 5 0;
#X connect 2 0 3 0;
#X connect 3 0 6 0;
#X connect 3 1 7 0;
#X connect 3 2 8 0;
#X connect 3 3 9 0;
#X connect 3 4 10 0;
#X connect 3 5 11 0;
#X connect 3 6 12 0;
#X connect 3 7 13 0;
#X connect 4 0 2 0;
#X connect 6 0 0 0;
#X connect 7 0 0 0;
#X connect 8 0 0 0;
#X connect 9 0 0 0;
#X connect 10 0 0 0;
#X connect 11 0 0 0;
#X connect 12 0 0 0;
#X connect 13 0 0 0;
#X restore 31 46 pd tag;
#X obj 82 91 loadbang;
#X obj 82 116 del 100;
#X msg 82 142 color 45 721;
#X obj 212 174 cnv 5 30 12 empty empty IN-> 5 6 0 8 #000000 #fcfcfc
0;
#X obj 212 192 cnv 5 30 12 empty empty HARM 5 6 0 8 #000000 #fcfcfc
0;
#X obj 212 210 cnv 5 30 12 empty empty VERB 5 6 0 8 #000000 #fcfcfc
0;
#X obj 9 276 s to_pd~_subprocess;
#X obj 9 252 pr.pnd CONNECTIONS-\$1-\$2;
#X obj 213 114 ./RSVP/LP.manager \$1 \$2 prst;
#X obj 9 225 msc_pre \$1-\$2 L mult;
#X obj 530 240 cnv 5 8 12 empty empty O 2 6 0 8 #000000 #fcfcfc 0;
#X obj 530 250 cnv 5 8 12 empty empty U 2 6 0 8 #000000 #fcfcfc 0;
#X obj 530 260 cnv 5 8 12 empty empty T 2 6 0 8 #000000 #fcfcfc 0;
#X obj 267 225 cnv 5 8 12 empty empty V 2 6 0 8 #000000 #fcfcfc 0;
#X obj 267 235 cnv 5 8 12 empty empty R 2 6 0 8 #000000 #fcfcfc 0;
#X obj 267 245 cnv 5 8 12 empty empty B 2 6 0 8 #000000 #fcfcfc 0;
#X obj 250 225 cnv 5 8 12 empty empty H 2 6 0 8 #000000 #fcfcfc 0;
#X obj 250 235 cnv 5 8 12 empty empty R 2 6 0 8 #000000 #fcfcfc 0;
#X obj 250 245 cnv 5 8 12 empty empty M 2 6 0 8 #000000 #fcfcfc 0;
#X obj 245 171 ./jmmmp/matrixctrl 2 3 17;
#X obj 292 165 cnv 5 27 10 empty \$0-frez-col FREEZ. 1 6 0 9 #000000
#00f8fc 0;
#X obj 347 165 cnv 5 50 10 empty empty ROOMSIZE 5 6 0 9 #000000 #00f8fc
0;
#X obj 480 283 s to_pd~_subprocess;
#N canvas 0 69 450 300 freeze-trigger 0;
#X obj 171 80 del 50;
#X obj 171 123 del 50;
#X obj 171 172 del 50;
#X obj 118 65 bng 15 250 50 0 empty empty empty 17 7 0 10 #fcfcfc #000000
#000000;
#X obj 170 33 sel 1 0;
#X msg 267 219 0;
#X msg 114 218 1;
#X obj 171 100 t b b;
#X obj 171 146 t b b;
#X floatatom 253 65 5 0 0 0 - - - 0;
#X obj 171 196 t b b;
#X obj 170 4 tgl 15 0 empty empty empty 17 7 0 10 #fcfcfc #000000 #000000
0 1;
#X obj 197 326 outlet;
#X obj 192 6 inlet;
#X connect 0 0 7 0;
#X connect 1 0 8 0;
#X connect 2 0 10 0;
#X connect 3 0 0 0;
#X connect 3 0 6 0;
#X connect 4 0 6 0;
#X connect 4 0 0 0;
#X connect 4 1 5 0;
#X connect 5 0 12 0;
#X connect 6 0 12 0;
#X connect 7 0 6 0;
#X connect 7 0 1 0;
#X connect 7 1 5 0;
#X connect 8 0 6 0;
#X connect 8 0 2 0;
#X connect 8 1 5 0;
#X connect 9 0 0 1;
#X connect 9 0 1 1;
#X connect 9 0 2 1;
#X connect 10 0 6 0;
#X connect 10 1 5 0;
#X connect 11 0 4 0;
#X connect 13 0 4 0;
#X restore 480 189 pd freeze-trigger;
#X obj 480 159 RSVP-Gclip 0 99;
#X obj 480 212 message-to-pd~ FRZ \$1-\$2;
#X obj 582 247 message-to-pd~ ROOMSIZE \$1-\$2;
#X obj 411 475 s to_pd~_subprocess;
#X obj 364 256 cnv 10 40 10 empty \$0-label v-trnsp 3 5 0 8 #000000
#00f8fc 0;
#X obj 296 258 cnv 10 40 10 empty \$0-label v-trnsp 3 5 0 8 #000000
#00f8fc 0;
#X obj 274 375 RSVP-Gclip 0.25 1.99;
#X obj 402 329 RSVP-Gclip 0.25 1.99;
#X obj 539 365 message-to-pd~ v-transp-1 \$1;
#X obj 411 428 message-to-pd~ v-transp-2 \$1;
#X obj 377 133 cnv 10 25 10 empty \$0-label RVOL 3 5 0 8 #000000 #00f8fc
0;
#X obj 295 214 cnv 10 25 10 empty \$0-label HVOL 3 5 0 8 #000000 #00f8fc
0;
#X obj 285 204 cnv 2 100 2 empty empty empty 20 12 0 14 #000000 #404040
0;
#X obj 431 133 message-to-pd~ DSP \$1-\$2;
#X obj 677 330 RSVP-Gclip 0 1;
#X obj 296 268 nbx_pre \$1-\$2 L v-trnsp.2;
#X obj 349 240 nbx_pre \$1-\$2 L v-trnsp.1;
#X obj 839 31 declare -path RSVP;
#X obj 749 51 declare -path ../sys.comunication;
#X obj 845 11 declare -path ../;
#X obj 286 26 bng 15 250 50 0 empty empty empty 17 7 0 10 #fcfcfc #000000
#000000;
#X obj 325 18 loadbang;
#X obj 325 41 audio-module-creator modules/zMLT2~ \$1 \$2 \$3 \$4;
#X obj 365 109 ./customGUI/tgl-but_pre \$1 \$2 DSP;
#X obj 298 175 tgl_pre \$1-\$2 L frz;
#N canvas 845 191 483 492 blinker 0;
#X obj 49 100 sel 0 1;
#X obj 49 80 speedlim 500;
#X obj 113 304 loadbang;
#X obj 49 27 return-from-pd~ \$1-\$2-sig-in;
#X obj 49 322 symbol \$2;
#X msg 49 358 \; \$1-canvas color 12 12 12;
#X obj 262 268 symbol \$2;
#X msg 262 319 \; \$1-canvas color 16 12 12;
#X text 30 431 blinks the border green when signal enters the instrument
;
#X obj 76 223 r \$1-\$2-blinker-off;
#X obj 76 246 sel 0;
#X text 63 391 black;
#X text 290 354 green;
#X text 64 267 turns off when DSP off;
#X connect 0 0 4 0;
#X connect 0 1 6 0;
#X connect 1 0 0 0;
#X connect 2 0 4 0;
#X connect 3 0 1 0;
#X connect 4 0 5 0;
#X connect 6 0 7 0;
#X connect 9 0 10 0;
#X connect 10 0 4 0;
#X restore 31 26 pd blinker;
#X obj 589 126 s \$1-\$2-blinker-off;
#X obj 323 212 nbx_pre \$1-\$2 L HVOL;
#X obj 346 142 nbx_pre \$1-\$2 L RVOL;
#X obj 346 176 nbx_pre \$1-\$2 L rsize;
#X floatatom 162 440 5 0 0 0 - - - 0;
#X obj 103 406 RSVP-Gclip 0 1;
#X floatatom 104 448 5 0 0 0 - - - 0;
#X obj 206 445 message-to-pd~ send vol-\$1-\$2-L-instrA;
#X obj 772 359 message-to-pd~ send vol-\$1-\$2-L-instrB;
#X connect 5 0 6 0;
#X connect 6 0 7 0;
#X connect 7 0 24 0;
#X connect 12 0 11 0;
#X connect 14 0 12 0;
#X connect 14 0 24 0;
#X connect 24 0 14 0;
#X connect 24 0 12 0;
#X connect 28 0 30 0;
#X connect 29 0 58 0;
#X connect 29 1 31 0;
#X connect 30 0 27 0;
#X connect 31 0 27 0;
#X connect 35 0 44 0;
#X connect 35 1 38 0;
#X connect 36 0 45 0;
#X connect 36 1 37 0;
#X connect 37 0 32 0;
#X connect 38 0 32 0;
#X connect 42 0 32 0;
#X connect 43 0 56 0;
#X connect 43 1 63 0;
#X connect 44 0 35 0;
#X connect 45 0 36 0;
#X connect 49 0 51 0;
#X connect 50 0 51 0;
#X connect 52 0 42 0;
#X connect 52 0 55 0;
#X connect 53 0 28 0;
#X connect 56 0 43 0;
#X connect 57 0 60 0;
#X connect 58 0 29 0;
#X connect 60 0 57 0;
#X connect 60 0 61 0;
#X connect 60 1 59 0;
#X connect 60 1 62 0;
#X connect 62 0 32 0;
#X connect 63 0 32 0;
#X coords 0 -1 1 1 220 200 2 200 100;
