#N canvas 2432 98 798 631 10;
#X declare -path iemmatrix;
#X declare -stdlib iemmatrix/iemmatrix;
#X obj 481 47 loadbang;
#X obj 46 482 declare -path iemmatrix;
#X obj 46 502 declare -stdlib iemmatrix/iemmatrix;
#X msg 481 70 50;
#X obj 471 416 2Bxover;
#X obj 433 471 env~, f 5;
#X obj 433 572 stdout;
#X obj 433 491 > 0;
#X obj 433 511 change;
#X obj 433 531 speedlim;
#X msg 492 513 0;
#X obj 480 325 env~;
#X floatatom 480 348 5 0 0 0 - - -;
#X obj 52 37 r CONNECTIONS-\$1-\$2;
#X text 255 89 number of instrument;
#X obj 612 498 s~ LOWS-\$2;
#X obj 612 478 s~ HIGH-\$2;
#X obj 84 61 r~ sigIN-L-\$2;
#X obj 117 83 r~ sigIN-H-\$2;
#X floatatom 663 376 5 0 0 0 - - -;
#X obj 433 551 message-to-pd~ sig-in XOVER-\$2;
#X obj 52 277 mtx_mul~ 10 12, f 72;
#X obj 593 102 r~ LOWS-\$2;
#X obj 530 127 r~ HIGH-\$2;
#X text 653 294 to analysis;
#X obj 597 296 dac~ 3;
#X obj 51 326 throw~ to_\$2-1;
#X obj 99 346 throw~ to_\$2-2;
#X obj 146 366 throw~ to_\$2-3;
#X obj 194 386 throw~ to_\$2-4;
#X obj 241 326 throw~ to_\$2-5;
#X obj 289 346 throw~ to_\$2-6;
#X obj 337 366 throw~ to_\$2-7;
#X obj 384 386 throw~ to_\$2-8;
#X obj 150 109 catch~ from_\$2-1;
#X obj 183 134 catch~ from_\$2-2;
#X obj 216 159 catch~ from_\$2-3;
#X obj 249 184 catch~ from_\$2-4;
#X obj 282 109 catch~ from_\$2-5;
#X obj 315 135 catch~ from_\$2-6;
#X obj 348 159 catch~ from_\$2-7;
#X obj 382 184 catch~ from_\$2-8;
#X obj 58 376 env~;
#X floatatom 58 399 5 0 0 0 - - -;
#X obj 663 353 r \$1-\$2-2BX-freq;
#X obj 154 415 env~;
#X floatatom 154 438 5 0 0 0 - - -;
#X obj 544 373 env~;
#X floatatom 544 396 5 0 0 0 - - -;
#X obj 470 392 *~ 0.3;
#X connect 0 0 3 0;
#X connect 3 0 21 13;
#X connect 4 0 15 0;
#X connect 4 1 16 0;
#X connect 4 1 47 0;
#X connect 5 0 7 0;
#X connect 7 0 8 0;
#X connect 8 0 9 0;
#X connect 9 0 20 0;
#X connect 10 0 20 0;
#X connect 11 0 12 0;
#X connect 13 0 21 0;
#X connect 17 0 21 1;
#X connect 18 0 21 2;
#X connect 20 0 6 0;
#X connect 21 0 26 0;
#X connect 21 1 27 0;
#X connect 21 1 42 0;
#X connect 21 2 28 0;
#X connect 21 3 29 0;
#X connect 21 4 30 0;
#X connect 21 5 31 0;
#X connect 21 6 32 0;
#X connect 21 7 33 0;
#X connect 21 8 5 0;
#X connect 21 8 49 0;
#X connect 21 9 11 0;
#X connect 21 9 25 0;
#X connect 22 0 21 12;
#X connect 23 0 21 11;
#X connect 34 0 21 3;
#X connect 35 0 21 4;
#X connect 36 0 21 5;
#X connect 37 0 21 6;
#X connect 38 0 21 7;
#X connect 39 0 21 8;
#X connect 40 0 21 9;
#X connect 41 0 21 10;
#X connect 42 0 43 0;
#X connect 44 0 4 1;
#X connect 44 0 19 0;
#X connect 45 0 46 0;
#X connect 47 0 48 0;
#X connect 49 0 4 0;
