#N canvas 2048 67 582 699 10;
#X obj 293 181 *~;
#X obj 292 108 osc~;
#X obj 194 211 *~;
#X obj 292 63 pack f 20;
#X obj 292 86 line~;
#X obj 397 135 pack f 20;
#X obj 397 156 line~;
#X obj 310 355 *~;
#X obj 325 333 line~;
#X msg 325 312 \$1 50;
#X obj 85 442 *~;
#X obj 101 404 line~;
#X msg 101 384 \$1 50;
#X obj 219 426 *~;
#X obj 360 386 DSP-ON;
#X obj 393 420 switch~;
#X obj 163 499 *~;
#X obj 277 497 *~;
#X obj 310 403 *~;
#X obj 36 558 /~ 2;
#X obj 35 581 env~;
#X obj 35 604 - 90;
#X obj 162 607 throw~ 2master_L;
#X obj 277 569 throw~ 2master_R;
#X obj 35 661 stdout;
#X obj 35 623 speedlim 100;
#X obj 310 271 /~ 1;
#X obj 85 260 hilbert~;
#X obj 218 77 env~;
#X floatatom 218 100 5 0 0 0 - - -;
#X obj 412 386 tgl 15 0 empty empty empty 17 7 0 10 -262144 -1 -1 1
1;
#X obj 40 78 env~, f 5;
#X obj 40 173 stdout;
#X obj 40 97 > 0;
#X obj 40 116 change;
#X obj 40 135 speedlim;
#X obj 222 341 env~;
#X floatatom 222 364 5 0 0 0 - - -;
#X obj 227 541 env~;
#X floatatom 227 564 5 0 0 0 - - -;
#X obj 292 40 r \$1-\$2-fmod;
#X obj 397 114 r \$1-\$2-amod;
#X obj 325 292 r send-\$1-\$2-send;
#X obj 101 362 r vol-\$1-\$2-send;
#X obj 40 154 message-to-pd~ sig-in \$1-\$2;
#X obj 68 603 dac~ \$3;
#X obj 360 359 r \$1-\$2-DSP;
#X obj 35 642 message-to-pd~ vmtr \$1-\$2;
#X msg 67 558 set \$1;
#X obj 67 488 loadbang;
#X obj 67 511 i \$4;
#X obj 67 534 + 4;
#X obj 193 34 catch~ to_\$3-\$4;
#X obj 309 611 throw~ from_\$3-\$4;
#X obj 50 466 iemguts/initbang;
#X connect 0 0 2 1;
#X connect 1 0 0 0;
#X connect 2 0 27 0;
#X connect 2 0 26 0;
#X connect 3 0 4 0;
#X connect 4 0 1 0;
#X connect 5 0 6 0;
#X connect 6 0 0 1;
#X connect 7 0 18 0;
#X connect 8 0 7 1;
#X connect 9 0 8 0;
#X connect 10 0 16 0;
#X connect 11 0 10 1;
#X connect 11 0 13 0;
#X connect 12 0 11 0;
#X connect 13 0 17 0;
#X connect 14 0 18 1;
#X connect 14 0 17 1;
#X connect 14 0 16 1;
#X connect 14 1 15 0;
#X connect 14 1 21 0;
#X connect 16 0 19 0;
#X connect 16 0 22 0;
#X connect 17 0 19 0;
#X connect 17 0 23 0;
#X connect 18 0 53 0;
#X connect 19 0 20 0;
#X connect 19 0 45 0;
#X connect 20 0 21 0;
#X connect 21 0 25 0;
#X connect 25 0 47 0;
#X connect 26 0 7 0;
#X connect 27 0 10 0;
#X connect 27 0 36 0;
#X connect 27 1 13 1;
#X connect 28 0 29 0;
#X connect 31 0 33 0;
#X connect 33 0 34 0;
#X connect 34 0 35 0;
#X connect 35 0 44 0;
#X connect 36 0 37 0;
#X connect 38 0 39 0;
#X connect 40 0 3 0;
#X connect 41 0 5 0;
#X connect 42 0 9 0;
#X connect 43 0 12 0;
#X connect 44 0 32 0;
#X connect 46 0 14 0;
#X connect 46 0 30 0;
#X connect 47 0 24 0;
#X connect 48 0 45 0;
#X connect 49 0 50 0;
#X connect 50 0 51 0;
#X connect 51 0 48 0;
#X connect 52 0 2 0;
#X connect 52 0 28 0;
#X connect 52 0 31 0;
#X connect 54 0 50 0;
