#N canvas 2619 93 582 673 10;
#X obj 293 181 *~;
#X obj 292 108 osc~;
#X obj 194 211 *~;
#X obj 292 63 pack f 20;
#X obj 292 86 line~;
#X obj 397 135 pack f 20;
#X obj 397 156 line~;
#X obj 194 449 *~;
#X obj 210 413 line~;
#X msg 210 393 \$1 50;
#X obj 218 77 env~;
#X floatatom 218 100 5 0 0 0 - - - 0;
#X obj 292 40 r \$1-\$2-fmod;
#X obj 397 114 r \$1-\$2-amod;
#X obj 193 34 catch~ to_\$3-\$4;
#X obj 290 468 throw~ from_\$3-\$4;
#X obj 193 608 outlet~;
#N canvas 2 93 450 300 2-blinker 0;
#X obj 112 93 env~, f 5;
#X obj 112 193 stdout;
#X obj 112 113 > 0;
#X obj 112 133 change;
#X obj 112 153 speedlim;
#X obj 112 173 message-to-pd~ sig-in \$1-\$2;
#X obj 111 52 inlet~;
#X connect 0 0 2 0;
#X connect 2 0 3 0;
#X connect 3 0 4 0;
#X connect 4 0 5 0;
#X connect 5 0 1 0;
#X connect 6 0 0 0;
#X restore 54 75 pd 2-blinker;
#X floatatom 276 391 5 0 0 0 - - - 0;
#X floatatom 366 74 5 0 0 0 - - - 0;
#X floatatom 470 144 5 0 0 0 - - - 0;
#X obj 140 508 env~;
#X floatatom 140 531 5 0 0 0 - - - 0;
#X obj 210 371 r vol-\$1-\$2-L-instrB-send;
#X connect 0 0 2 1;
#X connect 1 0 0 0;
#X connect 2 0 7 0;
#X connect 3 0 4 0;
#X connect 4 0 1 0;
#X connect 5 0 6 0;
#X connect 6 0 0 1;
#X connect 7 0 15 0;
#X connect 7 0 16 0;
#X connect 7 0 21 0;
#X connect 8 0 7 1;
#X connect 9 0 8 0;
#X connect 10 0 11 0;
#X connect 12 0 3 0;
#X connect 12 0 19 0;
#X connect 13 0 5 0;
#X connect 13 0 20 0;
#X connect 14 0 2 0;
#X connect 14 0 10 0;
#X connect 14 0 17 0;
#X connect 21 0 22 0;
#X connect 23 0 9 0;
#X connect 23 0 18 0;
