#N canvas 323 112 867 624 10;
#X declare -path RSVP;
#X declare -path ../;
#X declare -path ../sys.comunication;
#X obj 100 100 cnv 15 190 60 empty \$2-canvas empty 20 12 0 14 -33289
-33289 0;
#X obj 105 105 cnv 15 180 50 empty empty empty 5 8 0 8 -233017 -66577
0;
#X obj 99 27 declare -path RSVP;
#X obj 170 319 s to_pd~_subprocess;
#X obj 190 117 cnv 10 25 10 empty \$0-label fmod 3 5 0 8 -1 -4032 0
;
#X obj 190 140 cnv 10 25 10 empty \$0-label amod 3 5 0 8 -1 -4032 0
;
#X obj 139 116 cnv 5 32 9 empty empty ON/OFF 2 5 0 8 -1 -262144 0;
#X obj 115 113 ./customGUI/tgl-but_pre \$1 \$2 DSP;
#X obj 220 111 nbx_pre \$1 \$2 fmod;
#X obj 220 134 nbx_pre \$1 \$2 amod;
#X obj 109 197 message-to-pd~ DSP \$1-\$2;
#X obj 171 261 message-to-pd~ amod \$1-\$2;
#X obj 432 209 declare -path ../;
#X obj 406 312 pdcontrol;
#X msg 406 279 dir 0;
#X obj 406 335 print;
#X obj 435 233 declare -path ../sys.comunication;
#X obj 198 228 message-to-pd~ fmod \$1-\$2;
#N canvas 815 253 450 300 blinker 0;
#X obj 49 68 sel 0 1;
#X obj 49 48 speedlim 500;
#X obj 10 6 loadbang;
#X obj 49 27 return-from-pd~ \$1-\$2-sig-in;
#X obj 49 100 symbol \$2;
#X msg 49 136 \; \$1-canvas color 12 12 12;
#X obj 129 97 symbol \$2;
#X obj 245 27 tgl 15 0 empty empty empty 17 7 0 10 -262144 -1 -1 0
1;
#X msg 129 177 \; \$1-canvas color 16 12 12;
#X text 27 244 blinks the border green when signal enters the instrument
;
#X connect 0 0 4 0;
#X connect 0 1 6 0;
#X connect 1 0 0 0;
#X connect 2 0 4 0;
#X connect 3 0 1 0;
#X connect 4 0 5 0;
#X connect 6 0 8 0;
#X connect 7 0 0 0;
#X restore 21 26 pd blinker;
#X obj 106 139 cnv 5 80 15 empty \$1.\$2.\$3.\$4.color-tag \$2->\$3.\$4
4 8 0 10 -260818 -66577 0;
#N canvas 0 96 450 391 tag 0;
#X obj 131 252 list prepend color;
#X obj 131 280 route list;
#X obj 84 65 \$4;
#X obj 85 87 sel 1 2 3 4 5 6 7 8;
#X obj 84 42 loadbang;
#X obj 131 309 s \$1.\$2.\$3.\$4.color-tag;
#X msg 85 111 13 0 0;
#X msg 98 135 14 0 2;
#X msg 112 159 15 0 2;
#X msg 126 181 16 0 0;
#X msg 140 115 17 0 12;
#X msg 154 137 18 0 0;
#X msg 168 163 19 0 0;
#X msg 182 188 0 0 12;
#X connect 0 0 1 0;
#X connect 1 0 5 0;
#X connect 2 0 3 0;
#X connect 3 0 6 0;
#X connect 3 1 7 0;
#X connect 3 2 8 0;
#X connect 3 3 9 0;
#X connect 3 4 10 0;
#X connect 3 5 11 0;
#X connect 3 6 12 0;
#X connect 3 7 13 0;
#X connect 4 0 2 0;
#X connect 6 0 0 0;
#X connect 7 0 0 0;
#X connect 8 0 0 0;
#X connect 9 0 0 0;
#X connect 10 0 0 0;
#X connect 11 0 0 0;
#X connect 12 0 0 0;
#X connect 13 0 0 0;
#X restore 21 47 pd tag;
#X connect 7 0 10 0;
#X connect 8 0 17 0;
#X connect 9 0 11 0;
#X connect 10 0 3 0;
#X connect 11 0 3 0;
#X connect 13 0 15 0;
#X connect 14 0 13 0;
#X connect 17 0 3 0;
#X coords 0 -1 1 1 190 60 2 100 100;
