#N canvas 2183 113 986 653 10;
#X obj 308 405 DSP-ON;
#X obj 341 475 switch~;
#X obj 448 490 *~;
#X obj 583 479 *~;
#X obj 448 525 throw~ 2master_L;
#X obj 583 560 throw~ 2master_R;
#X obj 613 370 line~;
#X obj 177 474 *~;
#X obj 176 262 line~;
#X obj 177 505 *~;
#X obj 462 417 *~;
#X obj 597 417 *~;
#X obj 281 402 tgl 15 0 empty empty empty 17 7 0 10 #fcfcfc #000000
#000000 0 1;
#X msg 751 514 set \$1;
#X obj 751 444 loadbang;
#X obj 751 467 i \$4;
#X obj 751 490 + 4;
#X obj 711 544 dac~ \$4;
#X obj 613 348 pack f 20;
#X obj 176 220 r send-\$1-\$2-send;
#X obj 613 325 r vol-\$1-\$2-send;
#X obj 176 241 pack f 20;
#X obj 282 362 tgl 15 0 empty empty empty 17 7 0 10 #fcfcfc #000000
#000000 0 1;
#X obj 507 375 dac~;
#X msg 131 136 vis 5 1;
#X msg 130 164 vis 5 0;
#X obj 308 384 r \$1-\$2-DSP;
#X obj 396 248 pack f f f;
#X obj 396 64 r \$1-\$2-midi.note;
#X text 558 49 full MIDI synth. receives note with velocity;
#X obj 177 527 throw~ from_\$3-\$4;
#X obj 396 226 - 1;
#X obj 760 417 iemguts/initbang;
#X obj 191 346 /~ 1;
#X obj 712 507 /~ 2;
#X obj 796 476 bng 15 250 50 0 empty empty empty 17 7 0 10 #fcfcfc
#000000 #000000;
#X floatatom 396 87 5 0 0 0 - - - 0;
#X obj 396 203 poly 15 1;
#X obj 396 327 clone sinth.FM.voice 15 1 \$1-\$2;
#X connect 0 0 9 1;
#X connect 0 0 2 0;
#X connect 0 0 3 0;
#X connect 0 1 1 0;
#X connect 2 0 4 0;
#X connect 2 0 34 0;
#X connect 3 0 5 0;
#X connect 3 0 34 0;
#X connect 6 0 10 1;
#X connect 6 0 11 1;
#X connect 7 0 9 0;
#X connect 8 0 7 0;
#X connect 9 0 30 0;
#X connect 10 0 2 1;
#X connect 11 0 3 1;
#X connect 13 0 17 0;
#X connect 14 0 15 0;
#X connect 15 0 16 0;
#X connect 16 0 13 0;
#X connect 18 0 6 0;
#X connect 19 0 21 0;
#X connect 20 0 18 0;
#X connect 21 0 8 0;
#X connect 22 0 0 0;
#X connect 24 0 38 0;
#X connect 26 0 0 0;
#X connect 26 0 12 0;
#X connect 27 0 38 0;
#X connect 28 0 36 0;
#X connect 28 0 37 0;
#X connect 31 0 27 0;
#X connect 32 0 15 0;
#X connect 33 0 7 1;
#X connect 34 0 17 0;
#X connect 35 0 15 0;
#X connect 37 0 31 0;
#X connect 37 1 27 1;
#X connect 37 2 27 2;
#X connect 38 0 33 0;
#X connect 38 1 10 0;
#X connect 38 2 11 0;
