#N canvas 304 118 986 650 10;
#X declare -path RSVP;
#X declare -path ../sys.comunication;
#X obj 563 46 declare -path RSVP;
#X obj 563 66 declare -path ../sys.comunication;
#X obj 100 100 cnv 15 215 405 empty \$2-canvas empty 20 12 0 14 -33289
-33289 0;
#X obj 105 105 cnv 15 205 395 empty empty empty 10 14 0 15 -233017
-66577 0;
#X obj 160 110 cnv 5 80 15 empty \$1.\$2.\$3.\$4.color-tag \$2->\$3.\$4
4 8 0 10 -262144 -33289 0;
#N canvas 849 253 450 300 blinker 0;
#X obj 49 68 sel 0 1;
#X obj 49 48 speedlim 500;
#X obj 10 6 loadbang;
#X obj 49 27 return-from-pd~ \$1-\$2-sig-in;
#X obj 49 100 symbol \$2;
#X msg 49 136 \; \$1-canvas color 12 12 12;
#X obj 129 97 symbol \$2;
#X obj 245 27 tgl 15 0 empty empty empty 17 7 0 10 -262144 -1 -1 0
1;
#X msg 129 177 \; \$1-canvas color 16 12 12;
#X text 27 244 blinks the border green when signal enters the instrument
;
#X connect 0 0 4 0;
#X connect 0 1 6 0;
#X connect 1 0 0 0;
#X connect 2 0 4 0;
#X connect 3 0 1 0;
#X connect 4 0 5 0;
#X connect 6 0 8 0;
#X connect 7 0 0 0;
#X restore 361 24 pd blinker;
#N canvas 0 96 450 391 tag 0;
#X obj 131 252 list prepend color;
#X obj 131 280 route list;
#X obj 84 65 \$4;
#X obj 85 87 sel 1 2 3 4 5 6 7 8;
#X obj 84 42 loadbang;
#X obj 131 309 s \$1.\$2.\$3.\$4.color-tag;
#X msg 85 111 13 0 0;
#X msg 98 135 14 0 2;
#X msg 112 159 15 0 2;
#X msg 126 181 16 0 0;
#X msg 140 115 17 0 12;
#X msg 154 137 18 0 0;
#X msg 168 163 19 0 0;
#X msg 182 188 0 0 12;
#X connect 0 0 1 0;
#X connect 1 0 5 0;
#X connect 2 0 3 0;
#X connect 3 0 6 0;
#X connect 3 1 7 0;
#X connect 3 2 8 0;
#X connect 3 3 9 0;
#X connect 3 4 10 0;
#X connect 3 5 11 0;
#X connect 3 6 12 0;
#X connect 3 7 13 0;
#X connect 4 0 2 0;
#X connect 6 0 0 0;
#X connect 7 0 0 0;
#X connect 8 0 0 0;
#X connect 9 0 0 0;
#X connect 10 0 0 0;
#X connect 11 0 0 0;
#X connect 12 0 0 0;
#X connect 13 0 0 0;
#X restore 360 47 pd tag;
#X obj 278 113 cnv 5 32 9 empty empty ON/OFF 2 5 0 8 -1 -262144 0;
#X obj 108 135 ./extraGUI/brp_pre \$1 \$2 IDX;
#X obj 109 268 ./extraGUI/brp_pre \$1 \$2 Amp.env;
#X obj 111 422 nbx_pre \$1 \$2 ratio;
#X obj 170 427 cnv 10 32 10 empty \$0-label ratio 3 5 0 8 -1 -4032
0;
#X obj 108 124 cnv 10 25 10 empty \$0-label IDX 3 5 0 8 -1 -4032 0
;
#X obj 262 394 cnv 10 45 10 empty \$0-label Amp.env 3 5 0 8 -1 -4032
0;
#X obj 111 399 nbx_pre \$1 \$2 duration;
#X obj 168 404 cnv 10 45 10 empty \$0-label duration 3 5 0 8 -1 -4032
0;
#X obj 506 609 s to_pd~_subprocess;
#X msg 433 79 DUMP;
#X obj 397 91 bng 15 250 50 0 empty empty empty 17 7 0 10 -262144 -1
-1;
#X obj 506 265 message-to-pd~ IDX \$1-\$2;
#X obj 602 244 1;
#X obj 602 288 message-to-pd~ IDX-2 \$1-\$2;
#X obj 204 511 message-to-pd~ Amp.env \$1-\$2;
#X obj 351 538 message-to-pd~ Amp.env-2 \$1-\$2;
#X obj 351 478 1;
#X obj 130 544 message-to-pd~ ratio \$1-\$2;
#X obj 111 572 message-to-pd~ duration \$1-\$2;
#X obj 375 443 route list;
#X obj 375 420 list prepend duration;
#X obj 43 512 RSVP-Gclip 0 15;
#X obj 260 113 ./customGUI/tgl-but_pre \$1 \$2 DSP;
#N canvas 1048 537 450 300 keyboard 0;
#X obj 136 123 bng 15 250 50 0 empty empty empty 17 7 0 10 -262144
-258113 -1;
#X obj 144 107 bng 15 250 50 0 empty empty empty 17 7 0 10 -1 -258113
-1;
#X obj 153 123 bng 15 250 50 0 empty empty empty 17 7 0 10 -262144
-258113 -1;
#X obj 170 123 bng 15 250 50 0 empty empty empty 17 7 0 10 -262144
-258113 -1;
#X obj 161 107 bng 15 250 50 0 empty empty empty 17 7 0 10 -1 -258113
-1;
#X obj 187 123 bng 15 250 50 0 empty empty empty 17 7 0 10 -262144
-258113 -1;
#X obj 204 123 bng 15 250 50 0 empty empty empty 17 7 0 10 -262144
-258113 -1;
#X obj 221 123 bng 15 250 50 0 empty empty empty 17 7 0 10 -262144
-258113 -1;
#X obj 194 107 bng 15 250 50 0 empty empty empty 17 7 0 10 -1 -258113
-1;
#X obj 211 107 bng 15 250 50 0 empty empty empty 17 7 0 10 -1 -258113
-1;
#X obj 238 123 bng 15 250 50 0 empty empty empty 17 7 0 10 -262144
-258113 -1;
#X obj 228 107 bng 15 250 50 0 empty empty empty 17 7 0 10 -1 -258113
-1;
#X obj 119 200 0;
#X obj 129 180 1;
#X obj 144 200 2;
#X obj 154 180 3;
#X obj 169 200 4;
#X obj 194 200 5;
#X obj 204 180 6;
#X obj 219 200 7;
#X obj 229 180 8;
#X obj 244 200 9;
#X obj 254 180 10;
#X obj 269 200 11;
#X floatatom 102 102 5 0 0 3 oct - -;
#X obj 199 271 outlet;
#X obj 199 248 +;
#X obj 339 183 * 12;
#X connect 0 0 12 0;
#X connect 1 0 13 0;
#X connect 2 0 14 0;
#X connect 3 0 16 0;
#X connect 4 0 15 0;
#X connect 5 0 17 0;
#X connect 6 0 19 0;
#X connect 7 0 21 0;
#X connect 8 0 18 0;
#X connect 9 0 20 0;
#X connect 10 0 23 0;
#X connect 11 0 22 0;
#X connect 12 0 26 0;
#X connect 13 0 26 0;
#X connect 14 0 26 0;
#X connect 15 0 26 0;
#X connect 16 0 26 0;
#X connect 17 0 26 0;
#X connect 18 0 26 0;
#X connect 19 0 26 0;
#X connect 20 0 26 0;
#X connect 21 0 26 0;
#X connect 22 0 26 0;
#X connect 23 0 26 0;
#X connect 24 0 27 0;
#X connect 26 0 25 0;
#X connect 27 0 26 1;
#X coords 0 -1 1 1 155 40 2 100 100;
#X restore 112 447 pd keyboard;
#X obj 558 505 message-to-pd~ midi.note \$1-\$2;
#X obj 249 429 nbx_pre \$1 \$2 note;
#X obj 280 446 cnv 10 25 10 empty \$0-label note 3 5 0 8 -1 -4032 0
;
#X obj 428 341 message-to-pd~ DSP \$1-\$2;
#X obj 740 472 pack f 100;
#X obj 422 233 t b;
#X obj 720 438 change;
#X obj 721 414 int;
#X obj 791 353 r \$1-\$2-MIDI;
#X obj 791 390 unpack;
#X connect 8 1 19 0;
#X connect 8 2 20 0;
#X connect 8 2 17 0;
#X connect 9 1 22 0;
#X connect 9 2 24 0;
#X connect 9 2 17 0;
#X connect 10 0 29 0;
#X connect 14 0 26 0;
#X connect 14 0 28 0;
#X connect 14 0 37 0;
#X connect 17 0 9 0;
#X connect 17 0 8 0;
#X connect 18 0 9 0;
#X connect 18 0 8 0;
#X connect 19 0 16 0;
#X connect 20 0 21 0;
#X connect 21 0 16 0;
#X connect 22 0 16 0;
#X connect 23 0 16 0;
#X connect 24 0 23 0;
#X connect 25 0 16 0;
#X connect 26 0 16 0;
#X connect 27 0 9 0;
#X connect 27 0 8 0;
#X connect 28 0 27 0;
#X connect 29 0 10 0;
#X connect 29 1 25 0;
#X connect 30 0 35 0;
#X connect 31 0 33 0;
#X connect 32 0 16 0;
#X connect 33 0 39 0;
#X connect 35 0 16 0;
#X connect 36 0 32 0;
#X connect 37 0 17 0;
#X connect 38 0 36 0;
#X connect 39 0 38 0;
#X connect 40 0 41 0;
#X connect 41 0 36 0;
#X connect 41 1 36 1;
#X coords 0 -1 1 1 215 405 2 100 100;
