#N canvas 143 326 1234 650 10;
#X declare -path ./RSVP.frmwrk;
#X declare -path RSVP;
#X declare -path ../sys.comunication;
#X declare -path ../;
#X obj 100 100 cnv 15 215 405 empty \$2-canvas empty 20 12 0 14 #202020
#202020 0;
#X obj 105 105 cnv 15 205 395 empty empty empty 10 14 0 15 #e0e0e0
#404040 0;
#X obj 160 110 cnv 5 80 15 empty \$1.\$2.\$3.\$4.color-tag \$2->\$3.\$4
4 8 0 10 #fc2828 #fcfcfc 0;
#N canvas 0 96 450 391 tag 0;
#X obj 131 252 list prepend color;
#X obj 131 280 route list;
#X obj 84 65 \$4;
#X obj 85 87 sel 1 2 3 4 5 6 7 8;
#X obj 84 42 loadbang;
#X obj 131 309 s \$1.\$2.\$3.\$4.color-tag;
#X msg 85 111 13 0 0;
#X msg 98 135 14 0 2;
#X msg 112 159 15 0 2;
#X msg 126 181 16 0 0;
#X msg 140 115 17 0 12;
#X msg 154 137 18 0 0;
#X msg 168 163 19 0 0;
#X msg 182 188 0 0 12;
#X connect 0 0 1 0;
#X connect 1 0 5 0;
#X connect 2 0 3 0;
#X connect 3 0 6 0;
#X connect 3 1 7 0;
#X connect 3 2 8 0;
#X connect 3 3 9 0;
#X connect 3 4 10 0;
#X connect 3 5 11 0;
#X connect 3 6 12 0;
#X connect 3 7 13 0;
#X connect 4 0 2 0;
#X connect 6 0 0 0;
#X connect 7 0 0 0;
#X connect 8 0 0 0;
#X connect 9 0 0 0;
#X connect 10 0 0 0;
#X connect 11 0 0 0;
#X connect 12 0 0 0;
#X connect 13 0 0 0;
#X restore 29 40 pd tag;
#X obj 278 113 cnv 5 32 9 empty empty ON/OFF 2 5 0 8 #000000 #fcfcfc
0;
#X obj 170 425 cnv 10 32 10 empty \$0-label ratio 3 5 0 8 #000000 #00f8fc
0;
#X obj 108 124 cnv 10 25 10 empty \$0-label IDX 3 5 0 8 #000000 #00f8fc
0;
#X obj 262 394 cnv 10 45 10 empty \$0-label Amp.env 3 5 0 8 #000000
#00f8fc 0;
#X obj 168 404 cnv 10 45 10 empty \$0-label duration 3 5 0 8 #000000
#00f8fc 0;
#X obj 506 609 s to_pd~_subprocess;
#X msg 388 23 DUMP;
#X obj 397 91 bng 15 250 50 0 empty empty empty 17 7 0 10 #fcfcfc #000000
#000000;
#X obj 506 265 message-to-pd~ IDX \$1-\$2;
#X obj 1083 195 1;
#X obj 1056 282 message-to-pd~ IDX-2 \$1-\$2;
#X obj 205 505 message-to-pd~ Amp.env \$1-\$2;
#X obj 350 534 message-to-pd~ Amp.env-2 \$1-\$2;
#X obj 351 478 1;
#X obj 130 544 message-to-pd~ ratio \$1-\$2;
#X obj 111 572 message-to-pd~ duration \$1-\$2;
#X obj 375 443 route list;
#X obj 375 420 list prepend duration;
#X obj 43 512 RSVP-Gclip 0 15;
#N canvas 1048 537 450 300 keyboard 0;
#X obj 136 123 bng 15 250 50 0 empty empty empty 17 7 0 10 #fcfcfc
#fc0400 #000000;
#X obj 144 107 bng 15 250 50 0 empty empty empty 17 7 0 10 #000000
#fc0400 #000000;
#X obj 153 123 bng 15 250 50 0 empty empty empty 17 7 0 10 #fcfcfc
#fc0400 #000000;
#X obj 170 123 bng 15 250 50 0 empty empty empty 17 7 0 10 #fcfcfc
#fc0400 #000000;
#X obj 161 107 bng 15 250 50 0 empty empty empty 17 7 0 10 #000000
#fc0400 #000000;
#X obj 187 123 bng 15 250 50 0 empty empty empty 17 7 0 10 #fcfcfc
#fc0400 #000000;
#X obj 204 123 bng 15 250 50 0 empty empty empty 17 7 0 10 #fcfcfc
#fc0400 #000000;
#X obj 221 123 bng 15 250 50 0 empty empty empty 17 7 0 10 #fcfcfc
#fc0400 #000000;
#X obj 194 107 bng 15 250 50 0 empty empty empty 17 7 0 10 #000000
#fc0400 #000000;
#X obj 211 107 bng 15 250 50 0 empty empty empty 17 7 0 10 #000000
#fc0400 #000000;
#X obj 238 123 bng 15 250 50 0 empty empty empty 17 7 0 10 #fcfcfc
#fc0400 #000000;
#X obj 228 107 bng 15 250 50 0 empty empty empty 17 7 0 10 #000000
#fc0400 #000000;
#X obj 119 200 0;
#X obj 129 180 1;
#X obj 144 200 2;
#X obj 154 180 3;
#X obj 169 200 4;
#X obj 194 200 5;
#X obj 204 180 6;
#X obj 219 200 7;
#X obj 229 180 8;
#X obj 244 200 9;
#X obj 254 180 10;
#X obj 269 200 11;
#X floatatom 102 102 5 0 0 3 oct - - 0;
#X obj 199 271 outlet;
#X obj 199 248 +;
#X obj 339 183 * 12;
#X connect 0 0 12 0;
#X connect 1 0 13 0;
#X connect 2 0 14 0;
#X connect 3 0 16 0;
#X connect 4 0 15 0;
#X connect 5 0 17 0;
#X connect 6 0 19 0;
#X connect 7 0 21 0;
#X connect 8 0 18 0;
#X connect 9 0 20 0;
#X connect 10 0 23 0;
#X connect 11 0 22 0;
#X connect 12 0 26 0;
#X connect 13 0 26 0;
#X connect 14 0 26 0;
#X connect 15 0 26 0;
#X connect 16 0 26 0;
#X connect 17 0 26 0;
#X connect 18 0 26 0;
#X connect 19 0 26 0;
#X connect 20 0 26 0;
#X connect 21 0 26 0;
#X connect 22 0 26 0;
#X connect 23 0 26 0;
#X connect 24 0 27 0;
#X connect 26 0 25 0;
#X connect 27 0 26 1;
#X coords 0 -1 1 1 155 40 2 100 100;
#X restore 126 458 pd keyboard;
#X obj 558 505 message-to-pd~ midi.note \$1-\$2;
#X obj 170 445 cnv 10 25 10 empty \$0-label note 3 5 0 8 #000000 #00f8fc
0;
#X obj 428 341 message-to-pd~ DSP \$1-\$2;
#X obj 422 233 t b;
#X obj 620 418 change;
#X obj 621 394 int;
#X obj 691 333 r \$1-\$2-MIDI;
#X obj 691 370 unpack;
#X obj 204 422 LP.manager \$1 \$2 l.prst;
#X obj 108 134 ./extraGUI/brp_pre \$1-\$2 L IDX;
#X obj 109 399 nbx_pre \$1-\$2 L duration;
#X obj 109 420 nbx_pre \$1-\$2 L ratio;
#X floatatom 752 363 5 0 0 0 - - - 0;
#X obj 515 113 bng 15 250 50 0 empty empty empty 17 7 0 10 #fcfcfc
#000000 #000000;
#X obj 554 127 audio-module-creator modules/zS.FM~ \$1 \$2 \$3 \$4
;
#X obj 672 14 declare -path ./RSVP.frmwrk;
#X obj 109 269 ./RSVP/extraGUI/brp_pre \$1-\$2 L Amp.env;
#X obj 727 36 declare -path RSVP;
#X obj 637 59 declare -path ../sys.comunication;
#X obj 733 81 declare -path ../;
#X obj 554 105 loadbang;
#X obj 640 452 pack f 127;
#X obj 647 160 bng 15 250 50 0 empty empty empty 17 7 0 10 #fcfcfc
#000000 #000000;
#X obj 260 113 ./customGUI/tgl-but_pre \$1 \$2 DSP;
#N canvas 845 191 483 492 blinker 0;
#X obj 49 100 sel 0 1;
#X obj 49 80 speedlim 500;
#X obj 113 304 loadbang;
#X obj 49 27 return-from-pd~ \$1-\$2-sig-in;
#X obj 49 322 symbol \$2;
#X msg 49 358 \; \$1-canvas color 12 12 12;
#X obj 262 268 symbol \$2;
#X msg 262 319 \; \$1-canvas color 16 12 12;
#X text 30 431 blinks the border green when signal enters the instrument
;
#X obj 76 223 r \$1-\$2-blinker-off;
#X obj 76 246 sel 0;
#X text 63 391 black;
#X text 290 354 green;
#X text 64 267 turns off when DSP off;
#X connect 0 0 4 0;
#X connect 0 1 6 0;
#X connect 1 0 0 0;
#X connect 2 0 4 0;
#X connect 3 0 1 0;
#X connect 4 0 5 0;
#X connect 6 0 7 0;
#X connect 9 0 10 0;
#X connect 10 0 4 0;
#X restore 29 20 pd blinker;
#X obj 442 179 s \$1-\$2-blinker-off;
#X floatatom 117 439 5 0 0 0 - - - 0;
#X obj 619 354 t b;
#X obj 288 477 bng 15 250 50 0 empty empty empty 17 7 0 10 #fcfcfc
#000000 #000000;
#X connect 10 0 33 0;
#X connect 10 0 40 0;
#X connect 11 0 33 0;
#X connect 11 0 40 0;
#X connect 12 0 9 0;
#X connect 13 0 14 0;
#X connect 14 0 9 0;
#X connect 15 0 9 0;
#X connect 16 0 9 0;
#X connect 17 0 16 0;
#X connect 18 0 9 0;
#X connect 19 0 9 0;
#X connect 20 0 33 0;
#X connect 20 0 40 0;
#X connect 21 0 20 0;
#X connect 22 0 35 0;
#X connect 22 1 18 0;
#X connect 23 0 50 0;
#X connect 24 0 9 0;
#X connect 26 0 9 0;
#X connect 27 0 10 0;
#X connect 28 0 45 0;
#X connect 29 0 28 0;
#X connect 30 0 31 0;
#X connect 30 0 36 0;
#X connect 30 0 51 0;
#X connect 31 0 45 0;
#X connect 31 1 45 1;
#X connect 33 1 12 0;
#X connect 33 2 13 0;
#X connect 33 2 10 0;
#X connect 34 0 19 0;
#X connect 34 0 21 0;
#X connect 34 0 27 0;
#X connect 35 0 22 0;
#X connect 37 0 38 0;
#X connect 40 1 15 0;
#X connect 40 2 17 0;
#X connect 40 2 10 0;
#X connect 44 0 38 0;
#X connect 45 0 24 0;
#X connect 46 0 13 0;
#X connect 47 0 26 0;
#X connect 47 0 49 0;
#X connect 50 0 29 0;
#X connect 51 0 52 0;
#X coords 0 -1 1 1 215 405 2 100 100;
