#N canvas 927 292 678 684 10;
#X obj 179 108 t b f;
#X obj 179 127 f;
#X obj 179 145 + 1;
#X obj 178 248 pack f f f f;
#X obj 179 86 t f b b;
#X floatatom 114 39 5 0 0 0 - - -;
#X obj 33 154 + 1;
#X obj 354 259 r fundamental;
#X obj 310 215 random 165;
#X obj 318 195 bng 15 250 50 0 empty empty empty 17 7 0 10 -262144
-1 -1;
#X obj 283 238 pack f f f f;
#X obj 283 179 t a b;
#X obj 396 42 return-from-pd~ \$1-rec_gest-OFF;
#X obj 274 8 r \$1-timbreID;
#X obj 33 133 random 165;
#X obj 395 463 *~;
#X obj 444 413 line~;
#X obj 224 447 *~;
#X obj 240 409 line~;
#X msg 282 391 \$1 50;
#X obj 306 431 *~;
#X obj 483 464 DSP-ON;
#X obj 516 498 switch~;
#X obj 224 504 *~;
#X obj 338 502 *~;
#X obj 395 511 *~;
#X obj 34 533 /~ 2;
#X obj 33 556 env~;
#X obj 33 579 - 90;
#X obj 223 612 throw~ 2master_L;
#X obj 338 574 throw~ 2master_R;
#X obj 444 343 r send-\$1-send;
#X obj 240 367 r vol-\$1-send;
#X obj 483 437 r \$1-DSP;
#X obj 33 636 stdout;
#X obj 33 617 message-to-pd~ vmtr \$1;
#X obj 33 598 speedlim 100;
#X obj 395 379 /~ 1;
#X obj 552 445 tgl 15 0 empty empty empty 17 7 0 10 -262144 -1 -1 0
1;
#X obj 39 31 r \$1-FIRE;
#X obj 34 104 sel 1 0;
#X obj 55 69 bng 15 250 50 0 empty empty empty 17 7 0 10 -262144 -1
-1;
#X obj 266 114 r PERC-TIMBRE-ID;
#X obj 266 136 unpack f f;
#X obj 306 320 bng 15 250 50 0 empty empty empty 17 7 0 10 -262144
-1 -1;
#X obj 305 469 env~;
#X floatatom 305 492 5 0 0 0 - - -;
#X obj 179 172 mod 1;
#X obj 189 470 env~;
#X floatatom 189 493 5 0 0 0 - - -;
#X floatatom 240 390 5 0 0 0 - - -;
#X obj 146 337 env~;
#X floatatom 146 360 5 0 0 0 - - -;
#X obj 206 329 env~;
#X floatatom 206 352 5 0 0 0 - - -;
#X obj 178 289 clone samp-voice 20;
#X obj 459 390 pack f 20;
#X obj 459 367 * 2;
#X obj 97 561 dac~ \$3;
#X msg 97 531 set \$1;
#X obj 97 461 loadbang;
#X obj 97 484 i \$3;
#X obj 97 507 + 1;
#X obj 395 536 s~ from_\$3;
#X connect 0 0 1 0;
#X connect 0 1 3 1;
#X connect 1 0 2 0;
#X connect 2 0 47 0;
#X connect 3 0 55 0;
#X connect 4 0 0 0;
#X connect 5 0 4 0;
#X connect 6 0 4 0;
#X connect 8 0 10 1;
#X connect 9 0 8 0;
#X connect 11 0 10 0;
#X connect 11 1 8 0;
#X connect 11 1 9 0;
#X connect 13 0 4 0;
#X connect 14 0 6 0;
#X connect 14 0 11 0;
#X connect 15 0 25 0;
#X connect 16 0 15 1;
#X connect 17 0 23 0;
#X connect 17 0 48 0;
#X connect 18 0 17 1;
#X connect 18 0 20 0;
#X connect 19 0 18 0;
#X connect 20 0 24 0;
#X connect 20 0 45 0;
#X connect 21 0 25 1;
#X connect 21 0 24 1;
#X connect 21 0 23 1;
#X connect 21 1 22 0;
#X connect 21 1 28 0;
#X connect 23 0 26 0;
#X connect 23 0 29 0;
#X connect 24 0 26 0;
#X connect 24 0 30 0;
#X connect 25 0 63 0;
#X connect 26 0 27 0;
#X connect 26 0 58 0;
#X connect 27 0 28 0;
#X connect 28 0 36 0;
#X connect 31 0 57 0;
#X connect 32 0 19 0;
#X connect 32 0 50 0;
#X connect 33 0 21 0;
#X connect 35 0 34 0;
#X connect 36 0 35 0;
#X connect 37 0 15 0;
#X connect 38 0 21 0;
#X connect 39 0 41 0;
#X connect 39 0 40 0;
#X connect 40 0 14 0;
#X connect 42 0 43 0;
#X connect 43 0 3 2;
#X connect 43 1 3 3;
#X connect 45 0 46 0;
#X connect 47 0 1 1;
#X connect 47 0 3 0;
#X connect 48 0 49 0;
#X connect 51 0 52 0;
#X connect 53 0 54 0;
#X connect 55 0 17 0;
#X connect 55 0 37 0;
#X connect 55 0 51 0;
#X connect 55 1 37 0;
#X connect 55 1 53 0;
#X connect 55 1 20 1;
#X connect 55 2 44 0;
#X connect 56 0 16 0;
#X connect 57 0 56 0;
#X connect 59 0 58 0;
#X connect 60 0 61 0;
#X connect 61 0 62 0;
#X connect 62 0 59 0;
