#N canvas 163 131 929 624 10;
#X declare -path RSVP;
#X declare -path ../sys.comunication;
#X obj 390 110 cnv 15 210 200 empty zsdel-canvas empty 20 12 0 14 -33289
-33289 0;
#X obj 395 115 cnv 15 200 190 empty empty empty 11 11 0 13 -233017
-66577 0;
#X obj 67 143 vsl 15 55 0 1024 0 0 empty empty empty 0 -9 0 10 -262144
-1 -1 0 1;
#X msg 67 207 const \$1;
#X msg 562 403 const \$1;
#X obj 67 229 s delay;
#X obj 562 429 s feedback;
#X obj 21 54 s gain;
#N canvas 0 50 450 278 (subpatch) 0;
#X array \$1-CH-SPCT-\$3 12 float 3;
#A 0 0.114288 0.357142 0.414285 0.228572 0.285715 0.499998 0.571426
0.714286 0 0 0 0;
#X coords 0 1 12 0 150 70 2 0 0;
#X restore 404 153 graph;
#X obj 498 340 s spectral-delay_interp_time;
#X obj 492 252 nbx_pre spt-del-inter-time;
#X obj 116 17 declare -path RSVP;
#X obj 37 254 hsl 64 12 0 1 0 1 \$0-gain-depth empty gain-depth 4 6
1 8 -262144 -258699 -1 6300 1;
#X obj 562 136 vsl_pre sdel-fbk 1;
#X obj 581 136 cnv 8 8 11 empty empty F 1 6 0 10 -1 -228856 0;
#X obj 581 148 cnv 8 8 11 empty empty E 1 6 0 10 -1 -228856 0;
#X obj 581 160 cnv 8 8 11 empty empty E 1 6 0 10 -1 -228856 0;
#X obj 581 172 cnv 8 8 11 empty empty D 1 6 0 10 -1 -228856 0;
#X obj 581 184 cnv 8 8 11 empty empty B 1 6 0 10 -1 -228856 0;
#X obj 581 196 cnv 8 8 11 empty empty A 1 6 0 10 -1 -228856 0;
#X obj 581 208 cnv 8 8 11 empty empty C 1 6 0 10 -1 -228856 0;
#X obj 581 220 cnv 8 8 11 empty empty K 1 6 0 10 -1 -228856 0;
#X obj 29 88 vsl_pre sdel-gain 1;
#X obj 48 88 cnv 8 8 11 empty empty G 1 6 0 10 -1 -228856 0;
#X obj 48 100 cnv 8 8 11 empty empty A 1 6 0 10 -1 -228856 0;
#X obj 48 112 cnv 8 8 11 empty empty I 1 6 0 10 -1 -228856 0;
#X obj 48 124 cnv 8 8 11 empty empty N 1 6 0 10 -1 -228856 0;
#X obj 562 376 / 127;
#X obj 29 230 / 127;
#X obj 404 483 textfile;
#X msg 21 32 const 0.85;
#X obj 21 11 loadbang;
#X msg 323 361 read s-delay-chords.txt;
#X text 516 268 Int.T;
#X obj 405 247 bng 15 250 50 0 empty empty empty 17 7 0 10 -262144
-1 -1;
#X msg 512 462 rewind;
#X obj 244 165 tabdump CH-SPCT;
#X obj 244 226 list prepend 0;
#X obj 423 280 cnv 5 32 9 empty empty ON/OFF 2 5 0 8 -1 -262144 0;
#X obj 483 506 t b b;
#X obj 323 333 loadbang;
#X obj 404 41 r MASTER_PEDAL-CHANGED;
#X obj 427 247 tgl_pre chrd-ch;
#X obj 427 401 metro 1000;
#X obj 404 556 message-to-pd~ chord-text \$1;
#X obj 358 451 message-to-pd~ DSP \$1;
#X obj 628 399 message-to-pd~ feedback \$1;
#X obj 38 534 s to_pd~_subprocess;
#X obj 71 356 tabdump CH-SPCT;
#X obj 71 379 list prepend 0;
#X obj 71 402 message-to-pd~ CH-SPCT \$1;
#X obj 47 285 bng 15 250 50 0 empty empty empty 17 7 0 10 -262144 -1
-1;
#X obj 38 511 r \$1-message-to-general-out;
#X obj 506 320 message-to-pd~ spectral-delay_interp_time \$1;
#X obj 71 335 metro 500;
#X obj 668 99 sel 0 1;
#X obj 668 73 speedlim 500;
#X obj 651 26 loadbang;
#X msg 687 128 \; zsdel-canvas color 16 12 12;
#X msg 668 162 \; zsdel-canvas color 12 12 12;
#X floatatom 726 95 5 0 0 0 - - -;
#X obj 244 197 tof/param /\$1;
#X obj 216 90 r PRESET-MANAGER_STORE-BANG;
#X obj 187 65 r PRESET-MANAGER_RECALL-BANG;
#X obj 244 449 send CH-SPCT;
#X obj 404 594 s to_pd~_subprocess;
#X obj 244 248 t a b;
#X obj 538 521 del 100;
#X obj 403 276 ./customGUI/tgl-but_pre DSP-sdel;
#X obj 674 469 msc_pre \$1 \$2 CH-SPCT;
#X obj 243 274 send \$1-CH-SPCT-\$3;
#X obj 668 49 return-from-pd~ \$1-\$2-sig-in;
#X obj 635 237 declare -path ../sys.comunication;
#X obj 405 136 cnv 5 75 15 empty empty \$2-\$3 2 8 0 10 -1 -262144
0;
#X connect 2 0 3 0;
#X connect 3 0 5 0;
#X connect 4 0 6 0;
#X connect 10 0 9 0;
#X connect 10 0 53 0;
#X connect 10 0 43 1;
#X connect 13 0 27 0;
#X connect 22 0 28 0;
#X connect 27 0 4 0;
#X connect 27 0 46 0;
#X connect 29 0 44 0;
#X connect 29 1 39 0;
#X connect 30 0 7 0;
#X connect 31 0 30 0;
#X connect 32 0 29 0;
#X connect 34 0 29 0;
#X connect 35 0 29 0;
#X connect 36 0 61 0;
#X connect 37 0 66 0;
#X connect 39 0 67 0;
#X connect 39 1 35 0;
#X connect 40 0 32 0;
#X connect 41 0 34 0;
#X connect 42 0 43 0;
#X connect 43 0 29 0;
#X connect 44 0 65 0;
#X connect 45 0 65 0;
#X connect 46 0 65 0;
#X connect 48 0 49 0;
#X connect 49 0 50 0;
#X connect 49 0 64 0;
#X connect 50 0 65 0;
#X connect 51 0 48 0;
#X connect 52 0 47 0;
#X connect 54 0 48 0;
#X connect 55 0 59 0;
#X connect 55 1 58 0;
#X connect 56 0 55 0;
#X connect 56 0 60 0;
#X connect 57 0 59 0;
#X connect 61 0 37 0;
#X connect 62 0 36 0;
#X connect 63 0 61 0;
#X connect 66 0 50 0;
#X connect 66 0 70 0;
#X connect 66 1 34 0;
#X connect 67 0 29 0;
#X connect 68 0 45 0;
#X connect 68 0 54 0;
#X connect 71 0 56 0;
#X coords 0 -1 1 1 210 200 1 390 110;
