#N canvas 2069 93 1016 673 10;
#X obj 435 238 delread~ stutter 15;
#X obj 39 35 catch~ to_\$3-\$4;
#X obj 84 72 env~;
#X floatatom 84 95 5 0 0 0 - - -;
#X obj 312 299 clone stutter-voice 5;
#X obj 39 187 delwrite~ stutter 15;
#X obj 312 181 t b f;
#X obj 312 205 f;
#X obj 312 229 + 1;
#X obj 312 277 pack;
#X obj 312 253 mod 5;
#X obj 195 318 env~;
#X floatatom 195 341 5 0 0 0 - - -;
#X obj 234 61 bng 55 250 50 0 empty empty empty 17 7 0 10 -262144 -1
-1;
#X obj 477 432 *~;
#X obj 492 410 line~;
#X msg 492 389 \$1 50;
#X obj 309 441 *~;
#X obj 325 386 line~;
#X msg 325 366 \$1 50;
#X obj 424 434 *~;
#X obj 568 458 DSP-ON;
#X obj 601 492 switch~;
#X obj 309 498 *~;
#X obj 423 496 *~;
#X obj 554 524 *~;
#X obj 163 547 /~ 2;
#X obj 308 606 throw~ 2master_L;
#X obj 423 568 throw~ 2master_R;
#X obj 477 348 /~ 2;
#X obj 643 462 tgl 15 0 empty empty empty 17 7 0 10 -262144 -1 -1 1
1;
#X msg 197 511 set \$1;
#X obj 197 441 loadbang;
#X obj 197 464 i \$4;
#X obj 197 569 dac~ \$4;
#X obj 345 549 env~;
#X floatatom 345 572 5 0 0 0 - - -;
#X floatatom 394 378 5 0 0 0 - - -;
#X obj 325 344 r vol-\$1-\$2-send;
#X obj 492 369 r send-\$1-\$2-send;
#X obj 185 440 bng 15 250 50 0 empty empty empty 17 7 0 10 -262144
-1 -1;
#X obj 197 487 + 4;
#X obj 554 549 throw~ from_\$3-\$4;
#X obj 312 159 random 5;
#X obj 568 431 r \$1-\$2-DSP;
#X obj 312 43 r \$1-\$2-fire;
#X obj 312 96 t b;
#X obj 38 150 *~ 0.3;
#X connect 0 0 4 1;
#X connect 1 0 2 0;
#X connect 1 0 47 0;
#X connect 2 0 3 0;
#X connect 4 0 11 0;
#X connect 4 0 17 0;
#X connect 4 0 29 0;
#X connect 4 1 20 1;
#X connect 4 1 29 0;
#X connect 6 0 7 0;
#X connect 6 1 9 1;
#X connect 7 0 8 0;
#X connect 8 0 10 0;
#X connect 9 0 4 0;
#X connect 10 0 7 1;
#X connect 10 0 9 0;
#X connect 11 0 12 0;
#X connect 14 0 25 0;
#X connect 15 0 14 1;
#X connect 16 0 15 0;
#X connect 17 0 23 0;
#X connect 18 0 17 1;
#X connect 18 0 20 0;
#X connect 19 0 18 0;
#X connect 20 0 24 0;
#X connect 21 0 25 1;
#X connect 21 0 24 1;
#X connect 21 0 23 1;
#X connect 21 1 22 0;
#X connect 23 0 27 0;
#X connect 23 0 35 0;
#X connect 23 0 26 0;
#X connect 24 0 28 0;
#X connect 24 0 26 0;
#X connect 25 0 42 0;
#X connect 26 0 34 0;
#X connect 29 0 14 0;
#X connect 31 0 34 0;
#X connect 32 0 33 0;
#X connect 33 0 41 0;
#X connect 35 0 36 0;
#X connect 38 0 19 0;
#X connect 38 0 37 0;
#X connect 39 0 16 0;
#X connect 40 0 33 0;
#X connect 41 0 31 0;
#X connect 43 0 6 0;
#X connect 44 0 21 0;
#X connect 44 0 30 0;
#X connect 45 0 13 0;
#X connect 45 0 46 0;
#X connect 46 0 43 0;
#X connect 47 0 5 0;
