#N canvas 345 94 820 672 10;
#X declare -path RSVP;
#X declare -path ../sys.comunication;
#X obj 280 100 cnv 15 190 60 empty \$2-canvas empty 20 12 0 14 -33289
-33289 0;
#X obj 285 105 cnv 15 180 50 empty empty empty 12 13 0 14 -233017 -66577
0;
#X obj 296 113 bng 35 250 50 0 empty \$1-\$2-fire fire-stutter 38 7
0 10 -99865 -233017 -1;
#X obj 304 211 nbx_pre sttr-sens 1;
#X obj 426 108 cnv 5 32 9 empty empty ON/OFF 2 5 0 8 -1 -262144 0;
#X obj 303 233 cnv 5 32 9 empty empty SENSI. 2 5 0 8 -1 -262144 0;
#X obj 568 122 cnv 5 32 9 empty empty IN/VOL 2 5 0 8 -1 -262144 0;
#X floatatom 132 355 5 0 0 0 - - -;
#X obj 61 446 spigot 1;
#X obj 61 365 t b a;
#X obj 61 424 i;
#X floatatom 14 355 5 0 0 0 - - -;
#X obj 568 73 declare -path RSVP;
#X obj 568 93 declare -path ../sys.comunication;
#N canvas 1374 126 450 300 blinker 0;
#X obj 49 68 sel 0 1;
#X obj 49 48 speedlim 500;
#X obj 10 6 loadbang;
#X obj 49 100 symbol \$2;
#X msg 49 136 \; \$1-canvas color 12 12 12;
#X obj 129 97 symbol \$2;
#X obj 284 37 tgl 15 0 empty empty empty 17 7 0 10 -262144 -1 -1 0
1;
#X msg 129 177 \; \$1-canvas color 16 12 12;
#X text 27 244 blinks the border green when signal enters the instrument
;
#X floatatom 170 64 5 0 0 0 - - -;
#X obj 49 27 return-from-pd~ \$1-\$2-\$3-\$4-sig-in;
#X connect 0 0 3 0;
#X connect 0 1 5 0;
#X connect 1 0 0 0;
#X connect 2 0 3 0;
#X connect 3 0 4 0;
#X connect 5 0 7 0;
#X connect 6 0 0 0;
#X connect 10 0 1 0;
#X connect 10 0 9 0;
#X restore 568 53 pd blinker;
#X obj 354 134 cnv 5 80 15 empty \$1.\$2.\$3.\$4.color-tag \$2->\$3.\$4
4 8 0 10 -44926 -33289 0;
#N canvas 0 96 450 391 tag 0;
#X obj 131 252 list prepend color;
#X obj 131 280 route list;
#X obj 84 65 \$4;
#X obj 85 87 sel 1 2 3 4 5 6 7 8;
#X obj 84 42 loadbang;
#X obj 131 309 s \$1.\$2.\$3.\$4.color-tag;
#X msg 85 111 13 0 0;
#X msg 98 135 14 0 2;
#X msg 112 159 15 0 2;
#X msg 126 181 16 0 0;
#X msg 140 115 17 0 12;
#X msg 154 137 18 0 0;
#X msg 168 163 19 0 0;
#X msg 182 188 0 0 12;
#X connect 0 0 1 0;
#X connect 1 0 5 0;
#X connect 2 0 3 0;
#X connect 3 0 6 0;
#X connect 3 1 7 0;
#X connect 3 2 8 0;
#X connect 3 3 9 0;
#X connect 3 4 10 0;
#X connect 3 5 11 0;
#X connect 3 6 12 0;
#X connect 3 7 13 0;
#X connect 4 0 2 0;
#X connect 6 0 0 0;
#X connect 7 0 0 0;
#X connect 8 0 0 0;
#X connect 9 0 0 0;
#X connect 10 0 0 0;
#X connect 11 0 0 0;
#X connect 12 0 0 0;
#X connect 13 0 0 0;
#X restore 568 33 pd tag;
#X obj 441 119 ./customGUI/tgl-but_pre \$1 \$2 DSP;
#X obj 455 468 s to_pd~_subprocess;
#X obj 482 375 message-to-pd~ DSP \$1-\$2;
#X obj 385 268 nbx_pre \$1 \$2 in.amp;
#X obj 381 411 message-to-pd~ fire \$1-\$2;
#X msg 171 402 1;
#X obj 190 515 bng 15 250 50 0 empty empty empty 17 7 0 10 -262144
-1 -1;
#X obj 229 507 loadbang;
#X obj 229 530 audio-module-creator modules/zSTTR~ \$1 \$2 \$3 \$4
;
#X connect 2 0 22 0;
#X connect 9 0 10 0;
#X connect 9 0 22 0;
#X connect 9 1 8 1;
#X connect 10 0 8 0;
#X connect 17 0 19 0;
#X connect 19 0 18 0;
#X connect 21 0 18 0;
#X connect 22 0 21 0;
#X connect 23 0 25 0;
#X connect 24 0 25 0;
#X coords 0 -1 1 1 190 60 2 280 100;
