#N canvas 2024 112 736 612 10;
#X declare -stdpath motex;
#X obj 535 101 delwrite~ \$0-tap_del 1000;
#X obj 166 192 delread4~ \$0-tap_del;
#X obj 26 322 *~;
#X obj 26 350 send~ \$0-tap_feedback;
#X obj 562 74 r~ \$0-tap_feedback;
#X obj 447 305 delread4~ \$0-tap_del;
#X obj 26 285 line~;
#X obj 277 396 pansig~;
#X obj 447 393 pansig~;
#X obj 316 363 line~;
#X obj 606 375 line~;
#X obj 26 243 / 200;
#X obj 45 10 declare -stdpath motex;
#X obj 277 487 *~;
#X obj 361 463 line~;
#X obj 486 487 *~;
#X obj 316 252 / 64;
#X obj 316 272 - 1;
#X obj 606 313 / 64;
#X obj 606 333 - 1;
#X obj 165 128 pack f 50;
#X obj 316 299 pack f 50;
#X obj 606 353 pack f 50;
#X obj 26 264 pack f 50;
#X obj 361 441 pack f 50;
#X obj 447 243 line~;
#X obj 447 224 pack f 50;
#X obj 447 273 *~ 7.874;
#X obj 165 148 line~;
#X obj 165 168 *~ 7.874;
#X obj 165 108 r \$1-\$2-del-time-1;
#X obj 447 191 r \$1-\$2-del-time-2;
#X obj 606 293 r \$1-\$2-del-time-1;
#X obj 316 230 r \$1-\$2-del-time-2;
#X obj 26 223 r \$1-\$2-feedback;
#X obj 356 578 throw~ from_\$3-\$4;
#X obj 534 13 catch~ to_\$3-\$4;
#X obj 277 579 outlet~;
#X obj 486 579 outlet~;
#N canvas 2 93 450 300 2-blinker 0;
#X obj 112 93 env~, f 5;
#X obj 112 193 stdout;
#X obj 112 113 > 0;
#X obj 112 133 change;
#X obj 112 153 speedlim;
#X obj 112 173 message-to-pd~ sig-in \$1-\$2;
#X obj 111 52 inlet~;
#X connect 0 0 2 0;
#X connect 2 0 3 0;
#X connect 3 0 4 0;
#X connect 4 0 5 0;
#X connect 5 0 1 0;
#X connect 6 0 0 0;
#X restore 563 39 pd 2-blinker;
#X obj 473 53 env~;
#X floatatom 473 76 5 0 0 0 - - - 0;
#X floatatom 446 448 5 0 0 0 - - - 0;
#X obj 361 419 r vol-\$1-\$2-L-instrA-send;
#X connect 1 0 2 1;
#X connect 1 0 7 0;
#X connect 2 0 3 0;
#X connect 4 0 0 0;
#X connect 5 0 2 1;
#X connect 5 0 8 0;
#X connect 6 0 2 0;
#X connect 7 0 13 0;
#X connect 7 1 15 0;
#X connect 8 0 13 0;
#X connect 8 1 15 0;
#X connect 9 0 7 1;
#X connect 10 0 8 1;
#X connect 11 0 23 0;
#X connect 13 0 37 0;
#X connect 13 0 35 0;
#X connect 14 0 13 1;
#X connect 14 0 15 1;
#X connect 15 0 38 0;
#X connect 15 0 35 0;
#X connect 16 0 17 0;
#X connect 17 0 21 0;
#X connect 18 0 19 0;
#X connect 19 0 22 0;
#X connect 20 0 28 0;
#X connect 21 0 9 0;
#X connect 22 0 10 0;
#X connect 23 0 6 0;
#X connect 24 0 14 0;
#X connect 25 0 27 0;
#X connect 26 0 25 0;
#X connect 27 0 5 0;
#X connect 28 0 29 0;
#X connect 29 0 1 0;
#X connect 30 0 20 0;
#X connect 31 0 26 0;
#X connect 32 0 18 0;
#X connect 33 0 16 0;
#X connect 34 0 11 0;
#X connect 36 0 0 0;
#X connect 36 0 39 0;
#X connect 36 0 40 0;
#X connect 40 0 41 0;
#X connect 43 0 24 0;
#X connect 43 0 42 0;
