#N canvas 1987 102 832 664 10;
#X declare -stdpath motex;
#X obj 450 81 delwrite~ \$0-tap_del 1000;
#X obj 156 192 delread4~ \$0-tap_del;
#X obj 16 322 *~;
#X obj 16 350 send~ \$0-tap_feedback;
#X obj 477 54 r~ \$0-tap_feedback;
#X obj 437 305 delread4~ \$0-tap_del;
#X obj 16 285 line~;
#X obj 647 418 DSP-ON;
#X obj 680 461 switch~;
#X obj 267 579 throw~ 2master_L;
#X obj 476 579 throw~ 2master_R;
#X obj 267 512 *~;
#X obj 476 512 *~;
#X obj 156 507 *~;
#X obj 171 483 line~;
#X obj 590 544 /~ 2;
#X obj 156 541 *~;
#X obj 267 396 pansig~;
#X obj 437 393 pansig~;
#X obj 156 393 /~ 2;
#X obj 306 363 line~;
#X obj 582 336 line~;
#X obj 16 243 / 200;
#X obj 35 10 declare -stdpath motex;
#X obj 267 487 *~;
#X obj 350 450 line~;
#X obj 476 487 *~;
#X obj 306 252 / 64;
#X obj 306 272 - 1;
#X obj 582 274 / 64;
#X obj 582 294 - 1;
#X obj 697 434 tgl 15 0 empty empty empty 17 7 0 10 -262144 -1 -1 1
1;
#X obj 362 40 env~, f 5;
#X obj 362 135 stdout;
#X obj 362 59 > 0;
#X obj 362 78 change;
#X obj 362 97 speedlim;
#X obj 590 579 env~;
#X obj 590 598 - 90;
#X obj 590 639 stdout;
#X obj 156 130 pack f 50;
#X obj 306 299 pack f 50;
#X obj 582 314 pack f 50;
#X obj 16 264 pack f 50;
#X obj 350 421 pack f 50;
#X obj 171 457 pack f 50;
#X obj 437 243 line~;
#X obj 437 224 pack f 50;
#X obj 437 273 *~ 7.874;
#X obj 156 149 line~;
#X obj 155 168 *~ 7.874;
#X obj 362 116 message-to-pd~ sig-in \$1-\$2;
#X obj 156 111 r \$1-\$2-del-time-1;
#X obj 437 191 r \$1-\$2-del-time-2;
#X obj 582 255 r \$1-\$2-del-time-1;
#X obj 647 395 r \$1-\$2-DSP;
#X obj 350 399 r vol-\$1-\$2-send;
#X obj 171 417 r send-\$1-\$2-send;
#X obj 306 230 r \$1-\$2-del-time-2;
#X obj 16 223 r \$1-\$2-feedback;
#X msg 753 531 set \$1;
#X obj 753 461 loadbang;
#X obj 753 484 i \$4;
#X obj 753 561 dac~ \$4;
#X obj 753 507 + 4;
#X obj 590 620 message-to-pd~ vmtr \$1-\$2-\$3-\$4;
#X obj 156 572 throw~ from_\$3-\$4;
#X obj 362 13 catch~ to_\$3-\$4;
#X obj 728 434 iemguts/initbang;
#X connect 1 0 2 1;
#X connect 1 0 17 0;
#X connect 1 0 19 0;
#X connect 2 0 3 0;
#X connect 4 0 0 0;
#X connect 5 0 2 1;
#X connect 5 0 18 0;
#X connect 5 0 19 0;
#X connect 6 0 2 0;
#X connect 7 0 11 1;
#X connect 7 0 16 1;
#X connect 7 0 12 1;
#X connect 7 1 8 0;
#X connect 7 1 31 0;
#X connect 11 0 9 0;
#X connect 11 0 15 0;
#X connect 12 0 10 0;
#X connect 12 0 15 0;
#X connect 13 0 16 0;
#X connect 14 0 13 1;
#X connect 15 0 63 0;
#X connect 16 0 66 0;
#X connect 17 0 24 0;
#X connect 17 1 26 0;
#X connect 18 0 24 0;
#X connect 18 1 26 0;
#X connect 19 0 13 0;
#X connect 20 0 17 1;
#X connect 21 0 18 1;
#X connect 22 0 43 0;
#X connect 24 0 11 0;
#X connect 25 0 24 1;
#X connect 25 0 26 1;
#X connect 26 0 12 0;
#X connect 27 0 28 0;
#X connect 28 0 41 0;
#X connect 29 0 30 0;
#X connect 30 0 42 0;
#X connect 32 0 34 0;
#X connect 34 0 35 0;
#X connect 35 0 36 0;
#X connect 36 0 51 0;
#X connect 37 0 38 0;
#X connect 38 0 65 0;
#X connect 40 0 49 0;
#X connect 41 0 20 0;
#X connect 42 0 21 0;
#X connect 43 0 6 0;
#X connect 44 0 25 0;
#X connect 45 0 14 0;
#X connect 46 0 48 0;
#X connect 47 0 46 0;
#X connect 48 0 5 0;
#X connect 49 0 50 0;
#X connect 50 0 1 0;
#X connect 51 0 33 0;
#X connect 52 0 40 0;
#X connect 53 0 47 0;
#X connect 54 0 29 0;
#X connect 55 0 7 0;
#X connect 56 0 44 0;
#X connect 57 0 45 0;
#X connect 58 0 27 0;
#X connect 59 0 22 0;
#X connect 60 0 63 0;
#X connect 61 0 62 0;
#X connect 62 0 64 0;
#X connect 64 0 60 0;
#X connect 65 0 39 0;
#X connect 67 0 0 0;
#X connect 67 0 32 0;
#X connect 68 0 62 0;
