#N canvas 292 296 858 698 10;
#X declare -path RSVP;
#X declare -path ../sys.comunication;
#X obj 200 100 cnv 15 190 75 empty \$2-canvas empty 20 12 0 14 -33289
-33289 0;
#X obj 205 105 cnv 15 180 65 empty empty empty 6 80 0 12 -233017 -1
0;
#X obj 451 18 declare -path RSVP;
#X obj 350 153 cnv 10 33 13 empty empty fback 2 7 0 10 -1 -4032 0;
#X obj 350 128 cnv 5 32 9 empty empty ON/OFF 2 5 0 8 -1 -262144 0;
#X obj 101 327 s to_pd~_subprocess;
#X obj 31 179 pack f 10;
#X obj 31 200 line;
#X obj 112 234 pack f 10;
#X obj 112 254 line;
#X obj 466 136 RSVP-Gclip 0 99;
#X obj 359 109 ./customGUI/tgl-but_pre TITLE TDEL tdelay;
#X obj 31 220 message-to-pd~ del-time-1 \$1-\$2;
#X obj 112 277 message-to-pd~ del-time-2 \$1-\$2;
#X obj 289 233 message-to-pd~ feedback \$1-\$2;
#X obj 361 292 message-to-pd~ DSP \$1-\$2;
#X obj 458 205 list prepend set;
#X obj 425 179 print;
#X obj 210 130 hsl_pre \$1 \$2 tdelay_2;
#X obj 210 110 hsl_pre \$1 \$2 tdelay_1;
#X obj 293 151 nbx_pre \$1 \$2 fback;
#X obj 361 39 declare -path ../sys.comunication;
#N canvas 849 253 450 300 blinker 0;
#X obj 49 68 sel 0 1;
#X obj 49 48 speedlim 500;
#X obj 10 6 loadbang;
#X obj 49 27 return-from-pd~ \$1-\$2-sig-in;
#X obj 49 100 symbol \$2;
#X msg 49 136 \; \$1-canvas color 12 12 12;
#X obj 129 97 symbol \$2;
#X obj 245 27 tgl 15 0 empty empty empty 17 7 0 10 -262144 -1 -1 0
1;
#X msg 129 177 \; \$1-canvas color 16 12 12;
#X text 27 244 blinks the border green when signal enters the instrument
;
#X connect 0 0 4 0;
#X connect 0 1 6 0;
#X connect 1 0 0 0;
#X connect 2 0 4 0;
#X connect 3 0 1 0;
#X connect 4 0 5 0;
#X connect 6 0 8 0;
#X connect 7 0 0 0;
#X restore 31 24 pd blinker;
#X obj 208 151 cnv 5 80 15 empty \$1.\$2.\$3.\$4.color-tag \$2->\$3.\$4
4 8 0 10 -62784 -262144 0;
#N canvas 0 96 450 391 tag 0;
#X obj 131 252 list prepend color;
#X obj 131 280 route list;
#X obj 84 65 \$4;
#X obj 85 87 sel 1 2 3 4 5 6 7 8;
#X obj 84 42 loadbang;
#X obj 131 309 s \$1.\$2.\$3.\$4.color-tag;
#X msg 85 111 13 0 0;
#X msg 98 135 14 0 2;
#X msg 112 159 15 0 2;
#X msg 126 181 16 0 0;
#X msg 140 115 17 0 12;
#X msg 154 137 18 0 0;
#X msg 168 163 19 0 0;
#X msg 182 188 0 0 12;
#X connect 0 0 1 0;
#X connect 1 0 5 0;
#X connect 2 0 3 0;
#X connect 3 0 6 0;
#X connect 3 1 7 0;
#X connect 3 2 8 0;
#X connect 3 3 9 0;
#X connect 3 4 10 0;
#X connect 3 5 11 0;
#X connect 3 6 12 0;
#X connect 3 7 13 0;
#X connect 4 0 2 0;
#X connect 6 0 0 0;
#X connect 7 0 0 0;
#X connect 8 0 0 0;
#X connect 9 0 0 0;
#X connect 10 0 0 0;
#X connect 11 0 0 0;
#X connect 12 0 0 0;
#X connect 13 0 0 0;
#X restore 31 44 pd tag;
#X obj 592 483 bng 15 250 50 0 empty empty empty 17 7 0 10 -262144
-1 -1;
#X obj 538 482 loadbang;
#X obj 538 504 audio-module-creator modules/zTDEL~ \$1 \$2 \$3 \$4
;
#X obj 524 463 iemguts/initbang;
#X connect 6 0 7 0;
#X connect 7 0 12 0;
#X connect 8 0 9 0;
#X connect 9 0 13 0;
#X connect 10 0 17 0;
#X connect 10 0 20 0;
#X connect 10 1 14 0;
#X connect 11 0 15 0;
#X connect 12 0 5 0;
#X connect 13 0 5 0;
#X connect 14 0 5 0;
#X connect 15 0 5 0;
#X connect 18 0 8 0;
#X connect 19 0 6 0;
#X connect 20 0 10 0;
#X connect 25 0 27 0;
#X connect 26 0 27 0;
#X connect 28 0 27 0;
#X coords 0 -1 1 1 190 75 2 200 100;
