#N canvas 2089 67 933 699 10;
#X obj 300 17 noise~;
#X obj 691 516 loadbang;
#X obj 656 206 * 100;
#X obj 656 334 clip 0 100;
#X obj 656 184 line;
#X obj 656 306 -;
#X obj 656 282 100;
#X obj 716 271 spigot;
#X obj 656 232 spigot;
#N canvas 67 96 450 300 cubroot 0;
#X obj 72 63 inlet;
#X obj 72 240 outlet;
#X text 120 63 input range: 0 to 1;
#X text 128 240 output range: 0 to 1;
#X obj 73 162 pow 0.333333;
#X obj 72 95 min 1;
#X obj 72 115 max 0;
#X connect 0 0 5 0;
#X connect 4 0 1 0;
#X connect 5 0 6 0;
#X connect 6 0 4 0;
#X restore 723 46 pd cubroot;
#X obj 757 195 - 1;
#X obj 757 220 * -1;
#X obj 656 386 line;
#X obj 656 361 pack f 20;
#X obj 656 19 peakamp~ 20;
#X obj 757 247 t a b;
#X obj 656 257 t b a b;
#X obj 715 303 1000;
#X obj 789 270 1000;
#X obj 656 125 spigot 1;
#X obj 723 136 spigot 0;
#X obj 656 160 pack f 100;
#X obj 39 10 env~, f 5;
#X obj 39 105 stdout;
#X obj 39 29 > 0;
#X obj 39 48 change;
#X obj 39 67 speedlim;
#X obj 463 361 *~;
#X obj 480 337 line~;
#X obj 252 397 *~;
#X obj 266 359 line~;
#X obj 365 386 *~;
#X obj 550 360 DSP-ON;
#X obj 590 388 switch~;
#X obj 252 454 *~;
#X obj 366 452 *~;
#X obj 463 409 *~;
#X obj 67 510 /~ 2;
#X obj 66 533 env~;
#X obj 66 556 - 90;
#X obj 251 562 throw~ 2master_L;
#X obj 366 524 throw~ 2master_R;
#X obj 66 613 stdout;
#X obj 66 575 speedlim 100;
#X obj 656 408 clip 6.285 100;
#X obj 53 297 stdout;
#X obj 463 267 /~ 2;
#X obj 674 63 - 1;
#X obj 674 85 * -1;
#X obj 266 328 pack f 50;
#X obj 479 313 pack f 50;
#X obj 656 456 stdout;
#X floatatom 528 85 5 0 0 0 - - -;
#X msg 377 134 all \$1;
#X obj 691 538 del 2000;
#X obj 691 563 t b b;
#X obj 691 590 27.5;
#X obj 767 546 bng 15 250 50 0 empty empty empty 17 7 0 10 -262144
-1 -1;
#X text 477 168 use oscbank or noise for resynth, f 17;
#X msg 451 141 all \$1;
#X msg 137 130 vis 80 1;
#X msg 12 204 clone VOC-voice~ 100 1.1441 \$1;
#X obj 354 29 r \$1-\$2-reset-voc;
#X obj 376 62 r \$1-\$2-sens-jrsvpeak;
#X obj 527 60 r \$1-\$2-min-release;
#X obj 795 -6 r \$1-\$2-cuberoot;
#X obj 691 617 s \$1-\$2-frec_base;
#X obj 551 335 r \$1-\$2-DSP;
#X obj 480 290 r send-\$1-\$2-send;
#X obj 267 303 r vol-\$1-\$2-send;
#X obj 66 594 message-to-pd~ vmtr \$1-\$2;
#X obj 53 272 message-to-pd~ VOCODER \$1-\$2;
#X obj 39 86 message-to-pd~ sig-in \$1-\$2;
#X obj 452 114 r \$1-\$2-osc-noise;
#X floatatom 507 147 5 0 0 0 - - -;
#X obj 757 171 r \$1-\$2-invert;
#X obj 157 352 print;
#X obj 656 432 message-to-pd~ Q \$1-\$2;
#X msg 169 530 set \$1;
#X obj 169 460 loadbang;
#X obj 169 483 i \$4;
#X floatatom 35 643 5 0 0 0 - - -;
#X obj 111 550 dac~ \$4;
#X obj 144 455 bng 15 250 50 0 empty empty empty 17 7 0 10 -262144
-1 -1;
#X obj 244 179 clone VOC-voice~ \$5 \$6 \$1-\$2;
#X obj 521 512 \$5;
#X obj 521 537 p;
#X obj 514 489 bng 15 250 50 0 empty empty empty 17 7 0 10 -262144
-1 -1;
#X obj 169 506 + 4;
#X obj 243 -9 catch~ to_\$3-\$4;
#X obj 463 433 throw~ from_\$3-\$4;
#X obj 127 435 iemguts/initbang;
#X floatatom 425 303 5 0 0 0 - - -;
#X obj 693 480 iemguts/initbang;
#X obj 246 220 env~;
#X floatatom 246 243 5 0 0 0 - - -;
#X obj 245 124 *~ 10;
#X connect 0 0 84 1;
#X connect 1 0 54 0;
#X connect 2 0 7 0;
#X connect 2 0 8 0;
#X connect 3 0 13 0;
#X connect 4 0 2 0;
#X connect 5 0 3 0;
#X connect 6 0 5 0;
#X connect 7 0 3 0;
#X connect 8 0 16 0;
#X connect 9 0 20 0;
#X connect 10 0 11 0;
#X connect 11 0 15 0;
#X connect 12 0 44 0;
#X connect 13 0 12 0;
#X connect 14 0 9 0;
#X connect 14 0 19 0;
#X connect 15 0 7 1;
#X connect 15 1 18 0;
#X connect 16 0 6 0;
#X connect 16 1 5 1;
#X connect 16 2 17 0;
#X connect 17 0 13 1;
#X connect 18 0 13 1;
#X connect 19 0 21 0;
#X connect 20 0 21 0;
#X connect 21 0 4 0;
#X connect 22 0 24 0;
#X connect 24 0 25 0;
#X connect 25 0 26 0;
#X connect 26 0 72 0;
#X connect 27 0 36 0;
#X connect 28 0 27 1;
#X connect 29 0 34 0;
#X connect 30 0 29 1;
#X connect 30 0 31 0;
#X connect 31 0 35 0;
#X connect 32 0 36 1;
#X connect 32 0 35 1;
#X connect 32 0 34 1;
#X connect 32 1 33 0;
#X connect 32 1 39 0;
#X connect 34 0 37 0;
#X connect 34 0 40 0;
#X connect 35 0 37 0;
#X connect 35 0 41 0;
#X connect 36 0 90 0;
#X connect 37 0 82 0;
#X connect 37 0 38 0;
#X connect 38 0 39 0;
#X connect 39 0 43 0;
#X connect 39 0 81 0;
#X connect 43 0 70 0;
#X connect 44 0 77 0;
#X connect 46 0 27 0;
#X connect 47 0 48 0;
#X connect 48 0 19 1;
#X connect 49 0 30 0;
#X connect 50 0 28 0;
#X connect 53 0 84 2;
#X connect 54 0 55 0;
#X connect 55 0 56 0;
#X connect 55 1 56 0;
#X connect 56 0 66 0;
#X connect 57 0 55 0;
#X connect 59 0 84 3;
#X connect 60 0 84 2;
#X connect 62 0 84 2;
#X connect 63 0 53 0;
#X connect 64 0 52 0;
#X connect 65 0 47 0;
#X connect 65 0 20 1;
#X connect 67 0 32 0;
#X connect 68 0 50 0;
#X connect 68 0 92 0;
#X connect 69 0 49 0;
#X connect 70 0 42 0;
#X connect 71 0 45 0;
#X connect 72 0 23 0;
#X connect 73 0 59 0;
#X connect 73 0 74 0;
#X connect 75 0 10 0;
#X connect 75 0 8 1;
#X connect 77 0 51 0;
#X connect 78 0 82 0;
#X connect 79 0 80 0;
#X connect 80 0 88 0;
#X connect 83 0 80 0;
#X connect 84 0 71 0;
#X connect 84 1 29 0;
#X connect 84 1 46 0;
#X connect 84 1 94 0;
#X connect 84 2 31 1;
#X connect 84 2 46 0;
#X connect 85 0 86 0;
#X connect 87 0 85 0;
#X connect 88 0 78 0;
#X connect 89 0 14 0;
#X connect 89 0 22 0;
#X connect 89 0 96 0;
#X connect 91 0 80 0;
#X connect 93 0 54 0;
#X connect 94 0 95 0;
#X connect 96 0 84 0;
#X coords 0 699 1 698 85 60 0;
