#N canvas 264 93 894 664 10;
#X declare -path RSVP;
#X declare -path ../sys.comunication;
#X obj 100 165 cnv 15 190 200 empty \$2-canvas empty 20 12 0 14 -33289
-33289 0;
#X obj 105 170 cnv 15 180 190 empty empty empty 8 11 0 14 -233017 -66577
0;
#X obj 38 46 declare -path RSVP;
#X obj 51 106 tgl_pre frz 0;
#X obj 45 128 cnv 5 27 10 empty \$0-frez-col FREEZ. 1 6 0 9 -33289
-262144 0;
#X obj 269 296 cnv 5 10 10 empty empty Q 2 6 0 9 -1 -4032 0;
#X obj 253 175 cnv 5 32 9 empty empty ON/OFF 2 5 0 8 -1 -262144 0;
#X obj 217 612 s to_pd~_subprocess;
#N canvas 53 96 450 250 (subpatch) 0;
#X array \$1-\$2-\$3 20 float 3;
#A 0 0 0 0 0 0 0 0 0 0 0 0 0 0 0 0 0 0 0 0 0;
#X coords 0 1.2 20 0 150 75 1 0 0;
#X restore 120 191 graph;
#X obj 167 290 cnv 10 25 10 empty \$0-label sens 3 5 0 8 -1 -4032 0
;
#X obj 167 307 cnv 10 25 10 empty \$0-label rel. 3 5 0 8 -1 -4032 0
;
#X obj 113 348 cnv 10 25 10 empty \$0-label CBRT 3 5 0 8 -1 -4032 0
;
#X obj 148 348 cnv 10 25 10 empty \$0-label invt 3 5 0 8 -1 -4032 0
;
#X obj 428 444 +;
#X obj 453 371 random;
#X obj 443 333 t a a;
#X obj 428 420 f;
#X obj 453 393 t b a;
#X obj 486 351 * 0.2;
#X obj 258 538 1;
#X obj 306 341 bng 15 250 50 0 empty empty empty 17 7 0 10 -261234
-4160 -1;
#X obj 400 379 b;
#X obj 369 432 sel 0;
#X obj 104 273 cnv 10 25 10 empty empty OSCB 3 5 0 8 -1 -4032 0;
#X obj 261 266 cnv 10 25 10 empty empty NOIZ 3 5 0 8 -1 -4032 0;
#X obj 216 474 message-to-pd~ osc-noise \$1-\$2;
#X obj 184 443 message-to-pd~ invert \$1-\$2;
#X obj 151 413 message-to-pd~ cuberoot \$1-\$2;
#X obj 120 384 message-to-pd~ sens-jrsvpeak \$1-\$2;
#X obj 258 562 message-to-pd~ reset-voc \$1-\$2;
#X obj 428 466 message-to-pd~ min-release \$1-\$2;
#X obj 398 261 message-to-pd~ DSP \$1-\$2;
#X obj 212 117 return-from-pd~ \$1-\$2-Q;
#X obj 272 3 return-from-pd~ \$1-\$2-VOCODER;
#X obj 235 171 ./customGUI/tgl-but_pre \$1 \$2 DSP;
#X msg 369 520 \; \$1 const 0;
#X obj 369 498 symbol \$1-\$2-\$3;
#X text 681 19 updated 02/27/2020 RSVP-Vanilla;
#X obj 272 24 unpack f f;
#X obj 329 45 clip 0 1;
#X obj 272 63 pack f f;
#X obj 38 66 declare -path ../sys.comunication;
#X obj 338 289 sel 1;
#X obj 272 86 s \$1-\$2-\$3;
#X msg 470 160 \; \$2 resize \$1;
#X obj 515 118 symbol \$1-\$2-\$3;
#X obj 470 140 pack f s;
#X obj 470 100 t a b;
#X obj 470 78 \$5;
#X obj 470 56 loadbang;
#X obj 120 175 cnv 5 80 15 empty \$1.\$2.\$3.\$4.color-tag \$2->\$3.\$4
4 8 0 10 -44926 -33289 0;
#N canvas 0 96 450 391 tag 0;
#X obj 131 252 list prepend color;
#X obj 131 280 route list;
#X obj 84 65 \$4;
#X obj 85 87 sel 1 2 3 4 5 6 7 8;
#X obj 84 42 loadbang;
#X obj 131 309 s \$1.\$2.\$3.\$4.color-tag;
#X msg 85 111 13 0 0;
#X msg 98 135 14 0 2;
#X msg 112 159 15 0 2;
#X msg 126 181 16 0 0;
#X msg 140 115 17 0 12;
#X msg 154 137 18 0 0;
#X msg 168 163 19 0 0;
#X msg 182 188 0 0 12;
#X connect 0 0 1 0;
#X connect 1 0 5 0;
#X connect 2 0 3 0;
#X connect 3 0 6 0;
#X connect 3 1 7 0;
#X connect 3 2 8 0;
#X connect 3 3 9 0;
#X connect 3 4 10 0;
#X connect 3 5 11 0;
#X connect 3 6 12 0;
#X connect 3 7 13 0;
#X connect 4 0 2 0;
#X connect 6 0 0 0;
#X connect 7 0 0 0;
#X connect 8 0 0 0;
#X connect 9 0 0 0;
#X connect 10 0 0 0;
#X connect 11 0 0 0;
#X connect 12 0 0 0;
#X connect 13 0 0 0;
#X restore 39 5 pd tag;
#X obj 127 266 hsl_pre \$1-\$2 L osc-noise;
#X obj 110 286 nbx_pre \$1-\$2 L sens;
#X obj 110 304 nbx_pre \$1-\$2 L release;
#X obj 212 293 nbx_pre \$1-\$2 L Q-filters;
#X obj 116 329 tgl_pre \$1-\$2 L cbrt;
#X obj 151 329 tgl_pre \$1-\$2 L invt;
#X obj 179 319 LP.manager \$1 \$2 prst;
#X text 338 86 <-name of array;
#X obj 508 588 bng 15 250 50 0 empty empty empty 17 7 0 10 -262144
-1 -1;
#X obj 547 580 loadbang;
#X obj 547 602 audio-module-creator modules/zVCDR~ \$1 \$2 \$3 \$4
\$5 \$6;
#N canvas 845 191 483 492 blinker 0;
#X obj 49 100 sel 0 1;
#X obj 49 80 speedlim 500;
#X obj 113 304 loadbang;
#X obj 49 27 return-from-pd~ \$1-\$2-sig-in;
#X obj 49 322 symbol \$2;
#X msg 49 358 \; \$1-canvas color 12 12 12;
#X obj 262 268 symbol \$2;
#X msg 262 319 \; \$1-canvas color 16 12 12;
#X text 30 431 blinks the border green when signal enters the instrument
;
#X obj 76 223 r \$1-\$2-blinker-off;
#X obj 76 246 sel 0;
#X text 63 391 black;
#X text 290 354 green;
#X text 64 267 turns off when DSP off;
#X connect 0 0 4 0;
#X connect 0 1 6 0;
#X connect 1 0 0 0;
#X connect 2 0 4 0;
#X connect 3 0 1 0;
#X connect 4 0 5 0;
#X connect 6 0 7 0;
#X connect 9 0 10 0;
#X connect 10 0 4 0;
#X restore 38 25 pd blinker;
#X obj 344 188 s \$1-\$2-blinker-off;
#X connect 13 0 30 0;
#X connect 14 0 17 0;
#X connect 15 0 16 1;
#X connect 15 1 18 0;
#X connect 16 0 13 0;
#X connect 17 0 16 0;
#X connect 17 1 13 1;
#X connect 18 0 14 1;
#X connect 19 0 29 0;
#X connect 20 0 19 0;
#X connect 20 0 36 0;
#X connect 21 0 16 0;
#X connect 22 0 36 0;
#X connect 25 0 7 0;
#X connect 26 0 7 0;
#X connect 27 0 7 0;
#X connect 28 0 7 0;
#X connect 29 0 7 0;
#X connect 30 0 7 0;
#X connect 31 0 7 0;
#X connect 32 0 55 0;
#X connect 33 0 38 0;
#X connect 34 0 22 0;
#X connect 34 0 31 0;
#X connect 34 0 42 0;
#X connect 34 0 64 0;
#X connect 36 0 35 0;
#X connect 38 0 40 0;
#X connect 38 1 39 0;
#X connect 39 0 40 1;
#X connect 40 0 43 0;
#X connect 42 0 14 0;
#X connect 45 0 46 1;
#X connect 46 0 44 0;
#X connect 47 0 46 0;
#X connect 47 1 45 0;
#X connect 48 0 47 0;
#X connect 49 0 48 0;
#X connect 52 0 25 0;
#X connect 53 0 28 0;
#X connect 54 0 15 0;
#X connect 54 0 21 0;
#X connect 56 0 27 0;
#X connect 57 0 26 0;
#X connect 60 0 62 0;
#X connect 61 0 62 0;
#X coords 0 -1 1 1 190 200 2 100 165;
