#N canvas 364 272 882 699 10;
#N canvas 1246 536 316 269 init 0;
#X obj 127 223 outlet;
#X obj 126 15 loadbang;
#X msg 142 98 width 1;
#X msg 187 143 dry 0;
#X msg 162 120 wet 1;
#X msg 126 77 damping 0.1;
#X connect 1 0 5 0;
#X connect 1 0 2 0;
#X connect 1 0 4 0;
#X connect 1 0 3 0;
#X connect 2 0 0 0;
#X connect 3 0 0 0;
#X connect 4 0 0 0;
#X connect 5 0 0 0;
#X restore 191 160 pd init;
#X obj 400 547 *~;
#X obj 415 525 line~;
#X msg 415 504 \$1 50;
#X obj 229 531 *~;
#X obj 245 493 line~;
#X msg 245 473 \$1 50;
#X obj 344 524 *~;
#X obj 488 548 DSP-ON;
#X obj 521 582 switch~;
#X obj 229 588 *~;
#X obj 343 586 *~;
#X obj 400 595 *~;
#X obj 83 637 /~ 2;
#X obj 82 660 env~;
#X obj 82 683 - 90;
#X msg 231 230 roomsize \$1;
#X obj 228 696 throw~ 2master_L;
#X obj 343 658 throw~ 2master_R;
#X obj 230 413 hip~ 75;
#X obj 282 252 noise~;
#X obj 282 271 *~ 1e-12;
#X obj 231 369 freeverb~;
#X obj 82 740 stdout;
#X obj 82 721 message-to-pd~ vmtr \$1;
#X obj 48 15 env~, f 5;
#X obj 48 110 stdout;
#X obj 48 34 > 0;
#X obj 48 53 change;
#X obj 48 72 speedlim;
#X obj 82 702 speedlim 100;
#X msg 105 268 freeze \$1;
#X msg 132 290 wet 0.5;
#X obj 88 174 t a a;
#X obj 115 195 == 1;
#X obj 43 243 t b a;
#X obj 105 246 t a b;
#X obj 42 198 route 0 1;
#X obj 42 221 0;
#X obj 98 223 1;
#X msg 43 268 wet 0.5;
#X obj 344 408 hip~ 75;
#X obj 619 15 peakamp~ 25;
#X obj 700 511 print;
#X obj 384 335 *~;
#X obj 399 297 line~;
#X obj 401 277 pack f 20;
#X obj 230 391 lop~ 8000;
#X obj 344 386 lop~ 8000;
#N canvas 67 96 450 300 hid-cuberoot 0;
#X obj 72 63 inlet;
#X obj 72 240 outlet;
#X text 120 63 input range: 0 to 1;
#X text 128 240 output range: 0 to 1;
#X obj 73 162 pow 0.333333;
#X obj 72 95 min 1;
#X obj 72 115 max 0;
#X connect 0 0 5 0;
#X connect 4 0 1 0;
#X connect 5 0 6 0;
#X connect 6 0 4 0;
#X restore 700 484 pd hid-cuberoot;
#X obj 420 352 env~;
#X floatatom 420 375 5 0 0 0 - - -;
#X obj 359 119 env~;
#X floatatom 359 142 5 0 0 0 - - -;
#X obj 400 463 /~ 1;
#X obj 233 102 dryUp~ 512;
#X obj 619 56 clip 0 1;
#X obj 619 360 line;
#X obj 619 78 jrsv-peak 0.3;
#X obj 619 339 pack f 5000;
#X obj 619 317 clip 0 1;
#X obj 757 130 random 2000;
#X obj 757 153 + 1000;
#X obj 737 175 del;
#X obj 718 107 t a b b;
#X obj 764 246 + 1000;
#X obj 737 269 del;
#X obj 764 223 random 1000;
#X obj 674 292 jrsv-peak 2;
#X obj 619 35 t a a;
#X obj 737 200 t b b;
#X obj 400 620 throw~ from_\$3-\$4;
#X obj 256 -4 catch~ to_\$3-\$4;
#X obj 555 552 tgl 15 0 empty empty empty 17 7 0 10 -262144 -1 -1 1
1;
#X obj 488 521 r \$1-\$2-DSP;
#X obj 231 190 r \$1-\$2-ROOMSIZE;
#X obj 42 151 r \$1-\$2-FRZ;
#X obj 415 484 r send-\$1-\$2-send;
#X obj 244 450 r vol-\$1-\$2-send;
#X obj 48 91 message-to-pd~ sig-in \$1-\$2;
#X obj 655 674 dac~ \$4;
#X floatatom 299 476 5 0 0 0 - - -;
#X obj 197 460 env~;
#X floatatom 197 483 5 0 0 0 - - -;
#X obj 182 637 env~;
#X floatatom 182 660 5 0 0 0 - - -;
#X msg 655 636 set \$1;
#X obj 655 566 loadbang;
#X obj 655 587 i \$4;
#X obj 655 611 + 4;
#X obj 231 209 / 100;
#X obj 637 544 iemguts/initbang;
#X connect 0 0 22 0;
#X connect 1 0 12 0;
#X connect 2 0 1 1;
#X connect 3 0 2 0;
#X connect 4 0 10 0;
#X connect 5 0 4 1;
#X connect 5 0 7 1;
#X connect 6 0 5 0;
#X connect 7 0 11 0;
#X connect 8 0 12 1;
#X connect 8 0 11 1;
#X connect 8 0 10 1;
#X connect 8 1 9 0;
#X connect 8 1 15 0;
#X connect 10 0 13 0;
#X connect 10 0 17 0;
#X connect 10 0 84 0;
#X connect 10 0 80 0;
#X connect 11 0 13 0;
#X connect 11 0 18 0;
#X connect 11 0 80 0;
#X connect 12 0 71 0;
#X connect 13 0 14 0;
#X connect 14 0 15 0;
#X connect 15 0 30 0;
#X connect 16 0 22 0;
#X connect 19 0 4 0;
#X connect 19 0 54 0;
#X connect 19 0 82 0;
#X connect 20 0 21 0;
#X connect 21 0 22 1;
#X connect 22 0 47 0;
#X connect 22 1 48 0;
#X connect 24 0 23 0;
#X connect 25 0 27 0;
#X connect 27 0 28 0;
#X connect 28 0 29 0;
#X connect 29 0 79 0;
#X connect 30 0 24 0;
#X connect 31 0 22 0;
#X connect 32 0 22 0;
#X connect 33 1 34 0;
#X connect 35 0 40 0;
#X connect 35 1 31 0;
#X connect 36 0 31 0;
#X connect 36 1 32 0;
#X connect 37 0 38 0;
#X connect 37 1 39 0;
#X connect 38 0 35 0;
#X connect 39 0 36 0;
#X connect 40 0 22 0;
#X connect 41 0 7 0;
#X connect 41 0 54 0;
#X connect 42 0 69 0;
#X connect 44 0 22 0;
#X connect 44 0 50 0;
#X connect 45 0 44 1;
#X connect 46 0 45 0;
#X connect 47 0 19 0;
#X connect 48 0 41 0;
#X connect 50 0 51 0;
#X connect 52 0 53 0;
#X connect 54 0 1 0;
#X connect 55 1 52 0;
#X connect 56 0 58 0;
#X connect 57 0 46 0;
#X connect 58 0 60 0;
#X connect 58 0 64 0;
#X connect 59 0 57 0;
#X connect 60 0 59 0;
#X connect 61 0 62 0;
#X connect 62 0 63 1;
#X connect 63 0 58 1;
#X connect 63 0 70 0;
#X connect 64 1 63 0;
#X connect 64 2 61 0;
#X connect 65 0 66 1;
#X connect 66 0 68 1;
#X connect 67 0 65 0;
#X connect 68 0 60 0;
#X connect 69 0 56 0;
#X connect 69 1 68 0;
#X connect 70 0 66 0;
#X connect 70 1 67 0;
#X connect 72 0 25 0;
#X connect 72 0 42 0;
#X connect 72 0 55 0;
#X connect 72 0 22 0;
#X connect 74 0 8 0;
#X connect 74 0 73 0;
#X connect 75 0 90 0;
#X connect 76 0 33 0;
#X connect 76 0 37 0;
#X connect 77 0 3 0;
#X connect 78 0 6 0;
#X connect 78 0 81 0;
#X connect 79 0 26 0;
#X connect 82 0 83 0;
#X connect 84 0 85 0;
#X connect 86 0 80 0;
#X connect 87 0 88 0;
#X connect 88 0 89 0;
#X connect 89 0 86 0;
#X connect 90 0 16 0;
#X connect 91 0 88 0;
