#N canvas 346 166 535 536 10;
#X declare -path RSVP;
#X declare -path ../sys.comunication;
#X obj 100 150 cnv 15 190 60 empty \$2-canvas empty 20 12 0 14 -33289
-33289 0;
#X obj 105 155 cnv 15 180 50 empty empty empty 8 11 0 14 -233017 -66577
0;
#X obj 374 32 declare -path RSVP;
#X obj 228 162 tgl_pre frz 0;
#X obj 248 164 cnv 5 27 10 empty \$0-frez-col FREEZ. 1 6 0 9 -33289
-262144 0;
#X obj 167 166 cnv 5 50 10 empty empty ROOMSIZE 5 6 0 9 -1 -262144
0;
#X obj 222 190 cnv 5 32 9 empty empty ON/OFF 2 5 0 8 -1 -262144 0;
#X obj 87 482 s to_pd~_subprocess;
#N canvas 0 69 450 300 freeze-trigger 0;
#X obj 171 80 del 50;
#X obj 171 123 del 50;
#X obj 171 172 del 50;
#X obj 118 65 bng 15 250 50 0 empty empty empty 17 7 0 10 -262144 -1
-1;
#X obj 170 33 sel 1 0;
#X msg 267 219 0;
#X msg 114 218 1;
#X obj 171 100 t b b;
#X obj 171 146 t b b;
#X floatatom 253 65 5 0 0 0 - - -;
#X obj 171 196 t b b;
#X obj 170 4 tgl 15 0 empty empty empty 17 7 0 10 -262144 -1 -1 0 1
;
#X obj 197 326 outlet;
#X obj 192 6 inlet;
#X connect 0 0 7 0;
#X connect 1 0 8 0;
#X connect 2 0 10 0;
#X connect 3 0 0 0;
#X connect 3 0 6 0;
#X connect 4 0 6 0;
#X connect 4 0 0 0;
#X connect 4 1 5 0;
#X connect 5 0 12 0;
#X connect 6 0 12 0;
#X connect 7 0 6 0;
#X connect 7 0 1 0;
#X connect 7 1 5 0;
#X connect 8 0 6 0;
#X connect 8 0 2 0;
#X connect 8 1 5 0;
#X connect 9 0 0 1;
#X connect 9 0 1 1;
#X connect 9 0 2 1;
#X connect 10 0 6 0;
#X connect 10 1 5 0;
#X connect 11 0 4 0;
#X connect 13 0 4 0;
#X restore 87 377 pd freeze-trigger;
#X obj 278 373 tgl 15 0 empty empty empty 17 7 0 10 -262144 -1 -1 0
1;
#X obj 321 253 r back-from-pd~;
#X obj 321 277 route \$1;
#X floatatom 327 314 5 0 0 0 - - -;
#X obj 307 304 bng 15 250 50 0 empty empty empty 17 7 0 10 -262144
-1 -1;
#X obj 314 362 return-from-pd~ \$1-freeze-trigger;
#X obj 314 387 speedlim 200;
#X msg 22 166 id DSP \$1;
#X obj 111 162 nbx_pre \$1 rsize 1;
#X obj 149 275 RSVP-Gclip 0 99;
#X obj 283 12 declare -path ../sys.comunication;
#N canvas 1846 314 450 300 blinker 0;
#X obj 49 68 sel 0 1;
#X obj 49 48 speedlim 500;
#X obj 10 6 loadbang;
#X obj 49 27 return-from-pd~ \$1-\$2-sig-in;
#X obj 49 100 symbol \$2;
#X obj 129 97 symbol \$2;
#X obj 245 27 tgl 15 0 empty empty empty 17 7 0 10 -262144 -1 -1 0
1;
#X text 27 244 blinks the border green when signal enters the instrument
;
#X msg 49 136 \; \$1-canvas color 12 12 12;
#X msg 129 177 \; \$1-canvas color 16 12 12;
#X connect 0 0 4 0;
#X connect 0 1 5 0;
#X connect 1 0 0 0;
#X connect 2 0 4 0;
#X connect 3 0 1 0;
#X connect 4 0 8 0;
#X connect 5 0 9 0;
#X connect 6 0 0 0;
#X restore 422 58 pd blinker;
#N canvas 54 96 450 391 tag 0;
#X obj 131 252 list prepend color;
#X obj 131 280 route list;
#X obj 84 65 \$4;
#X obj 85 87 sel 1 2 3 4 5 6 7 8;
#X obj 84 42 loadbang;
#X obj 131 309 s \$1.\$2.\$3.\$4.color-tag;
#X msg 85 111 13 0 0;
#X msg 98 135 14 0 2;
#X msg 112 159 15 0 2;
#X msg 126 181 16 0 0;
#X msg 140 115 17 0 12;
#X msg 154 137 18 0 0;
#X msg 168 163 19 0 0;
#X msg 182 188 0 0 12;
#X connect 0 0 1 0;
#X connect 1 0 5 0;
#X connect 2 0 3 0;
#X connect 3 0 6 0;
#X connect 3 1 7 0;
#X connect 3 2 8 0;
#X connect 3 3 9 0;
#X connect 3 4 10 0;
#X connect 3 5 11 0;
#X connect 3 6 12 0;
#X connect 3 7 13 0;
#X connect 4 0 2 0;
#X connect 6 0 0 0;
#X connect 7 0 0 0;
#X connect 8 0 0 0;
#X connect 9 0 0 0;
#X connect 10 0 0 0;
#X connect 11 0 0 0;
#X connect 12 0 0 0;
#X connect 13 0 0 0;
#X restore 422 78 pd tag;
#X obj 111 184 cnv 5 80 15 empty \$1.\$2.\$3.\$4.color-tag \$2->\$3.\$4
4 8 0 10 -24198 -262144 0;
#X obj 258 180 ./customGUI/tgl-but_pre DSP 0;
#X obj 87 400 message-to-pd~ FRZ \$1-\$2;
#X obj 119 423 message-to-pd~ DSP \$1-\$2;
#X obj 157 447 message-to-pd~ ROOMSIZE \$1-\$2;
#X obj 196 488 bng 15 250 50 0 empty empty empty 17 7 0 10 -262144
-1 -1;
#X obj 235 480 loadbang;
#X obj 235 502 audio-module-creator modules/zVERB~ \$1 \$2 \$3 \$4
;
#X connect 3 0 8 0;
#X connect 8 0 24 0;
#X connect 10 0 11 0;
#X connect 11 0 12 0;
#X connect 11 0 13 0;
#X connect 14 0 9 0;
#X connect 14 0 15 0;
#X connect 17 0 18 0;
#X connect 18 0 17 0;
#X connect 18 1 26 0;
#X connect 23 0 25 0;
#X connect 24 0 7 0;
#X connect 25 0 7 0;
#X connect 26 0 7 0;
#X connect 27 0 29 0;
#X connect 28 0 29 0;
#X coords 0 -1 1 1 190 60 2 100 150;
