#N canvas 46 174 882 658 10;
#N canvas 1246 536 316 269 init 0;
#X obj 127 223 outlet;
#X obj 126 15 loadbang;
#X msg 142 98 width 1;
#X msg 187 143 dry 0;
#X msg 162 120 wet 1;
#X msg 126 77 damping 0.1;
#X connect 1 0 5 0;
#X connect 1 0 2 0;
#X connect 1 0 4 0;
#X connect 1 0 3 0;
#X connect 2 0 0 0;
#X connect 3 0 0 0;
#X connect 4 0 0 0;
#X connect 5 0 0 0;
#X restore 191 162 pd init;
#X obj 229 533 *~;
#X obj 245 495 line~;
#X msg 245 475 \$1 50;
#X obj 344 526 *~;
#X msg 231 232 roomsize \$1;
#X obj 230 418 hip~ 75;
#X obj 282 254 noise~;
#X obj 282 273 *~ 1e-12;
#X obj 231 371 freeverb~;
#X msg 105 270 freeze \$1;
#X msg 132 292 wet 0.5;
#X obj 88 176 t a a;
#X obj 115 197 == 1;
#X obj 43 245 t b a;
#X obj 105 248 t a b;
#X obj 42 200 route 0 1;
#X obj 42 223 0;
#X obj 98 225 1;
#X msg 43 270 wet 0.5;
#X obj 344 410 hip~ 75;
#X obj 619 17 peakamp~ 25;
#X obj 384 337 *~;
#X obj 399 299 line~;
#X obj 401 279 pack f 20;
#X obj 420 354 env~;
#X floatatom 420 377 5 0 0 0 - - - 0;
#X obj 359 121 env~;
#X floatatom 359 144 5 0 0 0 - - - 0;
#X obj 256 104 dryUp~ 512;
#X obj 619 58 clip 0 1;
#X obj 619 362 line;
#X obj 619 80 jrsv-peak 0.3;
#X obj 619 341 pack f 5000;
#X obj 619 319 clip 0 1;
#X obj 757 132 random 2000;
#X obj 757 155 + 1000;
#X obj 737 177 del;
#X obj 718 109 t a b b;
#X obj 764 248 + 1000;
#X obj 737 271 del;
#X obj 764 225 random 1000;
#X obj 674 294 jrsv-peak 2;
#X obj 619 37 t a a;
#X obj 737 202 t b b;
#X obj 228 633 outlet~;
#X obj 343 632 outlet~;
#X obj 261 598 throw~ from_\$3-\$4;
#X obj 232 0 catch~ to_\$3-\$4;
#X obj 397 596 env~;
#X floatatom 397 619 5 0 0 0 - - - 0;
#X obj 248 143 r \$1-\$2-ROOMSIZE;
#X obj 42 153 r \$1-\$2-FRZ;
#N canvas 2 93 450 300 2-blinker 0;
#X obj 112 93 env~, f 5;
#X obj 112 193 stdout;
#X obj 112 113 > 0;
#X obj 112 133 change;
#X obj 112 153 speedlim;
#X obj 112 173 message-to-pd~ sig-in \$1-\$2;
#X obj 111 52 inlet~;
#X connect 0 0 2 0;
#X connect 2 0 3 0;
#X connect 3 0 4 0;
#X connect 4 0 5 0;
#X connect 5 0 1 0;
#X connect 6 0 0 0;
#X restore 259 35 pd 2-blinker;
#X floatatom 308 479 5 0 0 0 - - - 0;
#X obj 146 95 env~;
#X floatatom 146 118 5 0 0 0 - - - 0;
#X obj 245 453 r vol-\$1-\$2-L-instrA-send;
#X floatatom 322 228 5 0 0 0 - - - 0;
#X floatatom 296 189 5 0 0 0 - - - 0;
#X obj 248 168 / 100;
#X obj 230 396 lop~ 15000;
#X obj 344 388 lop~ 15000;
#X connect 0 0 9 0;
#X connect 1 0 45 0;
#X connect 1 0 47 0;
#X connect 2 0 1 1;
#X connect 2 0 4 1;
#X connect 3 0 2 0;
#X connect 4 0 46 0;
#X connect 4 0 47 0;
#X connect 4 0 49 0;
#X connect 5 0 9 0;
#X connect 6 0 1 0;
#X connect 7 0 8 0;
#X connect 8 0 9 1;
#X connect 9 0 61 0;
#X connect 9 1 62 0;
#X connect 10 0 9 0;
#X connect 11 0 9 0;
#X connect 12 1 13 0;
#X connect 14 0 19 0;
#X connect 14 1 10 0;
#X connect 15 0 10 0;
#X connect 15 1 11 0;
#X connect 16 0 17 0;
#X connect 16 1 18 0;
#X connect 17 0 14 0;
#X connect 18 0 15 0;
#X connect 19 0 9 0;
#X connect 20 0 4 0;
#X connect 21 0 43 0;
#X connect 22 0 9 0;
#X connect 22 0 25 0;
#X connect 23 0 22 1;
#X connect 24 0 23 0;
#X connect 25 0 26 0;
#X connect 27 0 28 0;
#X connect 29 1 27 0;
#X connect 30 0 32 0;
#X connect 31 0 24 0;
#X connect 32 0 34 0;
#X connect 32 0 38 0;
#X connect 33 0 31 0;
#X connect 34 0 33 0;
#X connect 35 0 36 0;
#X connect 36 0 37 1;
#X connect 37 0 32 1;
#X connect 37 0 44 0;
#X connect 38 1 37 0;
#X connect 38 2 35 0;
#X connect 39 0 40 1;
#X connect 40 0 42 1;
#X connect 41 0 39 0;
#X connect 42 0 34 0;
#X connect 43 0 30 0;
#X connect 43 1 42 0;
#X connect 44 0 40 0;
#X connect 44 1 41 0;
#X connect 48 0 21 0;
#X connect 48 0 53 0;
#X connect 48 0 55 0;
#X connect 48 0 9 0;
#X connect 49 0 50 0;
#X connect 51 0 60 0;
#X connect 52 0 12 0;
#X connect 52 0 16 0;
#X connect 55 0 56 0;
#X connect 57 0 3 0;
#X connect 57 0 54 0;
#X connect 60 0 59 0;
#X connect 60 0 5 0;
#X connect 61 0 6 0;
#X connect 62 0 20 0;
