#N struct 1699-color float x float y float farbe;
#N struct 1699-color-display float x float y float farbe;
#N struct 1702-color float x float y float farbe;
#N struct 1702-color-display float x float y float farbe;
#N struct 1696-matrixctrl float x float y float size float color float state;
#N struct 2078-color float x float y float farbe;
#N struct 2078-color-display float x float y float farbe;
#N struct 2081-color float x float y float farbe;
#N struct 2081-color-display float x float y float farbe;
#N struct 2075-matrixctrl float x float y float size float color float state;
#N struct 2194-color float x float y float farbe;
#N struct 2194-color-display float x float y float farbe;
#N struct 2197-color float x float y float farbe;
#N struct 2197-color-display float x float y float farbe;
#N struct 2191-matrixctrl float x float y float size float color float state;
#N canvas 45 41 984 462 10;
#X declare -path ../sys.comunication;
#X declare -path ./RSVP.frmwrk;
#X declare -path ./RSVP.frmwrk/sys.comunication;
#X declare -path ../sys.comunication;
#X declare -path ./RSVP.frmwrk;
#X declare -path ./RSVP.frmwrk/sys.comunication;
#X declare -path ../sys.comunication;
#X declare -path ./RSVP.frmwrk;
#X declare -path ./RSVP.frmwrk/sys.comunication;
#X obj 10 3 cnv 15 950 440 empty empty empty 20 12 0 14 #000000 #404040 0;
#X obj 15 8 cnv 15 940 430 empty empty empty 20 12 0 14 #606060 #404040 0;
#X obj 762 13 cnv 15 190 35 empty empty .\$1. 5 18 0 16 #000000 #dcdcdc 0;
#X obj 448 422 cnv 15 110 16 empty empty jrsv(C).2022 15 8 0 12 #000000 #00f8fc 0;
#X obj 846 423 cnv 15 110 16 empty empty www.jrsv.net 15 8 0 12 #000000 #00f8fc 0;
#X obj 15 423 cnv 15 110 16 empty empty RSVP.FRAMEWORK 6 8 0 12 #000000 #00f8fc 0;
#N canvas 482 96 725 475 button 0;
#X obj 101 101 tgl 25 0 empty empty empty 17 7 0 10 #14e814 #14e814 #202020 0 1;
#X obj 203 167 sel 0 1;
#X msg 203 193 color 13 13 42;
#X msg 223 217 color 16 16 42;
#X msg 101 173 vis \$1;
#X obj 409 153 declare -path ../sys.comunication;
#X obj 373 230 pdcontrol;
#X msg 374 194 dir 0;
#X obj 371 253 p -;
#X obj 423 96 declare -path ./RSVP.frmwrk;
#X obj 423 116 declare -path ./RSVP.frmwrk/sys.comunication;
#X obj 127 101 cnv 15 60 25 empty empty CONTROL 5 12 0 12 #000000 #00f8fc 0;
#N canvas 780 112 565 289 control 0;
#X obj 6 18 inlet;
#X obj 6 248 sendcanvas;
#X obj 13 41 ./modules/zDATA \$1 DATA;
#X obj 230 35 ./modules/zANL-EXT \$1 ANLZ MTRX 10;
#X obj 413 41 ./modules/zLFO \$1 LFOs;
#X obj 6 3 cnv 15 550 35 empty empty RSVP.CONTROL.MODULES 30 18 0 24 #fc8000 #0400fc 0;
#X obj 6 243 cnv 15 550 35 empty empty DATA/ANALISYS/LFO 30 18 0 24 #fc8000 #0400fc 0;
#X connect 0 0 1 0;
#X restore 101 284 pd control;
#X obj 226 91 loadbang;
#X obj 230 123 int 0;
#X connect 0 0 1 0;
#X connect 0 0 4 0;
#X connect 1 0 2 0;
#X connect 1 1 3 0;
#X connect 2 0 0 0;
#X connect 3 0 0 0;
#X connect 4 0 12 0;
#X connect 6 0 8 0;
#X connect 7 0 6 0;
#X connect 13 0 2 0;
#X connect 13 0 14 0;
#X connect 14 0 4 0;
#X coords 0 -1 1 1 88 27 2 100 100;
#X restore 853 57 pd button;
#N canvas 448 96 725 475 button 0;
#X obj 101 101 tgl 25 0 empty empty empty 17 7 0 10 #fc2828 #fc2828 #202020 0 1;
#X obj 203 167 sel 0 1;
#X msg 203 193 color 13 13 42;
#X msg 223 217 color 16 16 42;
#X msg 101 173 vis \$1;
#X obj 409 153 declare -path ../sys.comunication;
#X obj 373 230 pdcontrol;
#X msg 374 194 dir 0;
#X obj 371 253 p -;
#X obj 423 96 declare -path ./RSVP.frmwrk;
#X obj 423 116 declare -path ./RSVP.frmwrk/sys.comunication;
#X obj 127 101 cnv 15 45 25 empty empty MIXER 5 12 0 12 #000000 #00f8fc 0;
#X obj 101 21 loadbang;
#X msg 101 60 0;
#N canvas 1036 668 843 292 MIXER 0;
#X obj 6 18 inlet;
#X obj 6 248 sendcanvas;
#X obj 6 3 cnv 15 570 35 empty empty MIXER 30 18 0 24 #9c00fc #00fc04 0;
#X obj 6 243 cnv 15 570 30 empty empty empty 30 18 0 24 #9c00fc #00fc04 0;
#X obj 578 3 ./modules/zMTRX \$1 MTRX 11;
#X obj 75 40 ./modules/channelstrip \$1 S.FM MTRX 1;
#X obj 138 40 ./modules/channelstrip \$1 SFM2 MTRX 2;
#X obj 201 40 ./modules/channelstrip \$1 GRN1 MTRX 3;
#X obj 516 40 modules/channelstrip \$1 MLT2 MTRX 8;
#X obj 453 40 ./modules/channelstrip \$1 MLT1 MTRX 7;
#X obj 264 40 ./modules/channelstrip \$1 GRN2 MTRX 4;
#X obj 327 40 ./modules/channelstrip \$1 VCDR MTRX 5;
#X obj 390 40 ./modules/channelstrip \$1 VCD2 MTRX 6;
#X obj 12 40 ./modules/channelstrip MASTER INSTR MTRX 0;
#X connect 0 0 1 0;
#X restore 101 284 pd MIXER;
#X connect 0 0 1 0;
#X connect 0 0 4 0;
#X connect 1 0 2 0;
#X connect 1 1 3 0;
#X connect 2 0 0 0;
#X connect 3 0 0 0;
#X connect 4 0 14 0;
#X connect 6 0 8 0;
#X connect 7 0 6 0;
#X connect 12 0 13 0;
#X connect 13 0 0 0;
#X coords 0 -1 1 1 73 27 2 100 100;
#X restore 768 57 pd button;
#N canvas 986 462 725 475 button 0;
#X obj 101 101 tgl 25 0 empty empty empty 17 7 0 10 #14e814 #14e814 #202020 0 1;
#X obj 203 167 sel 0 1;
#X msg 203 193 color 13 13 42;
#X msg 223 217 color 16 16 42;
#X obj 409 153 declare -path ../sys.comunication;
#X obj 373 230 pdcontrol;
#X msg 374 194 dir 0;
#X obj 371 250 p -;
#X obj 423 96 declare -path ./RSVP.frmwrk;
#X obj 423 116 declare -path ./RSVP.frmwrk/sys.comunication;
#X obj 127 101 cnv 15 45 25 empty empty FMsnt 5 12 0 12 #000000 #00f8fc 0;
#X obj 101 21 loadbang;
#X msg 101 60 0;
#N canvas 872 146 459 422 FM-SYNTHS 0;
#X obj 14 6 ./modules/zS.FM.L \$1 S.FM MTRX 1;
#X obj 231 6 ./modules/zS.FM.L \$1 SFM2 MTRX 2;
#X restore 101 284 pd FM-SYNTHS;
#X msg 101 236 \; pd-FM-SYNTHS vis \$1;
#X connect 0 0 1 0;
#X connect 0 0 14 0;
#X connect 1 0 2 0;
#X connect 1 1 3 0;
#X connect 2 0 0 0;
#X connect 3 0 0 0;
#X connect 5 0 7 0;
#X connect 6 0 5 0;
#X connect 11 0 12 0;
#X connect 12 0 0 0;
#X coords 0 -1 1 1 73 27 2 100 100;
#X restore 768 90 pd button;
#X obj 19 11 ./modules/zGRNS \$1 GRN1 MTRX 3;
#X obj 505 215 modules/zMLT2 \$1 MLT2 MTRX 8;
#X obj 505 11 ./modules/zMULT \$1 MLT1 MTRX 7;
#X obj 19 215 ./modules/zGRNS \$1 GRN2 MTRX 4;
#X obj 312 11 ./modules/zVCDR.L \$1 VCDR MTRX 5 20 6;
#X obj 312 215 ./modules/zVCDR.L \$1 VCD2 MTRX 6 20 6;
#X coords 0 462 1 461 100 30 0;
