#N struct 1103-color float x float y float farbe;
#N struct 1103-color-display float x float y float farbe;
#N struct 1106-color float x float y float farbe;
#N struct 1106-color-display float x float y float farbe;
#N struct 1100-matrixctrl float x float y float size float color float state;
#N struct 1378-color float x float y float farbe;
#N struct 1378-color-display float x float y float farbe;
#N struct 1381-color float x float y float farbe;
#N struct 1381-color-display float x float y float farbe;
#N struct 1375-matrixctrl float x float y float size float color float state;
#N struct 1428-color float x float y float farbe;
#N struct 1428-color-display float x float y float farbe;
#N struct 1431-color float x float y float farbe;
#N struct 1431-color-display float x float y float farbe;
#N struct 1425-matrixctrl float x float y float size float color float state;
#N struct 1587-color float x float y float farbe;
#N struct 1587-color-display float x float y float farbe;
#N struct 1590-color float x float y float farbe;
#N struct 1590-color-display float x float y float farbe;
#N struct 1584-matrixctrl float x float y float size float color float state;
#N canvas 229 100 536 428 10;
#X declare -path externals/cyclone;
#X declare -path externals/jrsvabs;
#X declare -path externals/iemguts;
#X declare -path externals/flatgui;
#X declare -path externals/moocow;
#X declare -path externals/fftease;
#X declare -path externals/flatgui;
#X declare -path externals/flatgui;
#X declare -path externals/ggee;
#X declare -path externals/gigaverb~;
#X declare -path externals/hcs;
#X declare -path externals/iemlib;
#X declare -path externals/iemmatrix;
#X declare -path externals/LyonPotpurri;
#X declare -path externals/markex;
#X declare -path externals/maxlib;
#X declare -path externals/motex;
#X declare -path externals/PDescriptors_v1.2;
#X declare -path externals/tof;
#X declare -path externals/windowing;
#X declare -path externals/xsample;
#X declare -path externals/zexy;
#X declare -path externals/convolve~;
#X declare -path externals/list-abs;
#X declare -path externals/dryUp~;
#X declare -path ./RSVP.frmwrk;
#X declare -path ./RSVP.frmwrk/sys.modules;
#X declare -path ./RSVP.frmwrk/sys.local.dep;
#X declare -path ./RSVP.frmwrk/sys.comunication;
#X declare -path ./RSVP.frmwrk/imp;
#X declare -path ./RSVP.frmwrk/data;
#X declare -path ./RSVP;
#X declare -lib zexy;
#X declare -lib iemmatrix;
#X declare -lib iemlib/iemlib1;
#X declare -lib iemlib/iemlib2;
#X declare -path ../;
#X declare -path ./sys.comunication;
#X obj 5 5 cnv 15 523 415 empty empty empty 20 12 0 14 #000000 #404040 0;
#X obj 10 10 cnv 15 513 405 empty empty empty 20 12 0 14 #28505c #404040 0;
#N canvas 334 27 806 687 main_window 0;
#X obj 15 346 RSVP/PresetManager MASTER;
#X obj 21 295 s remote-PRST-change-MASTER;
#X msg 21 258 store 0;
#X msg 88 271 recall 0;
#X obj 21 200 r record_sound_check_settings;
#X obj 199 207 cnv 10 10 10 empty empty empty 20 12 0 14 #0400fc #404040 0;
#X text 16 414 MASTER WINDOW;
#X obj 50 50 cnv 15 250 16 empty empty ///jrsv(C)2022//www.jrsv.net/// 15 8 0 12 #000000 #00f8fc 0;
#X obj 99 249 bng 15 250 50 0 empty empty empty 17 7 0 10 #fcfcfc #000000 #000000;
#X obj 503 314 s back-from-pd~;
#X obj 493 335 route DSP-connected;
#X obj 493 356 sel 1;
#X obj 493 436 print -n;
#X obj 327 62 sel 0 1;
#X obj 327 113 t a b;
#X obj 386 99 t a b, f 6;
#X obj 538 117 1;
#X obj 548 139 0;
#X obj 386 146 del 500;
#X obj 327 134 del 500;
#X obj 565 174 del 500;
#X obj 565 197 1;
#X obj 493 293 spigot 1;
#X msg 493 402 ********************** \$1~ [pd~] is connected **********************;
#X obj 493 377 symbol \$1;
#X obj 493 258 r \$1-out-pd~;
#X obj 327 34 r Open_GUI-\$1;
#X obj 88 225 r RESET-PIECE-\$1;
#X obj 324 293 RSVP.frmwrk.gui \$1;
#X msg 327 220 \; pd-RSVP.frmwrk.gui.pd vis \$1;
#X obj 327 184 0;
#X obj 386 186 1;
#X msg 39 507 clear;
#X obj 359 524 text size \$1-modules-2-pd~;
#X obj 359 546 until;
#X obj 359 611 text get \$1-modules-2-pd~;
#X obj 359 590 f;
#X obj 388 590 + 1;
#X msg 412 565 0;
#X obj 359 654 s to_pd~_subprocess;
#X obj 359 420 bng 15 250 50 0 empty empty empty 17 7 0 10 #fcfcfc #000000 #000000;
#X obj 359 634 route list;
#X msg 29 482 sort;
#X obj 29 435 loadbang;
#X obj 359 498 t b b;
#X text 456 553 sends the message to create the objects through dynamic patching, f 33;
#X obj 634 321 route EQUINOX-GRN1-sig-in;
#X obj 634 344 print;
#X obj 29 656 text define \$1-modules-2-pd~;
#N canvas 419 146 887 788 externals-declarations 0;
#X obj 102 249 declare -path externals/cyclone;
#X obj 102 268 declare -path externals/jrsvabs;
#X obj 311 238 declare -path externals/iemguts;
#X obj 311 256 declare -path externals/flatgui;
#X obj 311 274 declare -path externals/moocow;
#X obj 311 292 declare -path externals/fftease;
#X obj 311 310 declare -path externals/flatgui;
#X obj 588 218 declare -path externals/flatgui;
#X obj 588 236 declare -path externals/ggee;
#X obj 588 254 declare -path externals/gigaverb~;
#X obj 588 272 declare -path externals/hcs;
#X obj 588 290 declare -path externals/iemlib;
#X obj 588 308 declare -path externals/iemmatrix;
#X obj 311 328 declare -path externals/LyonPotpurri;
#X obj 102 305 declare -path externals/markex;
#X obj 102 323 declare -path externals/maxlib;
#X obj 102 341 declare -path externals/motex;
#X obj 311 346 declare -path externals/PDescriptors_v1.2;
#X obj 588 344 declare -path externals/tof;
#X obj 588 362 declare -path externals/windowing;
#X obj 311 364 declare -path externals/xsample;
#X obj 102 359 declare -path externals/zexy;
#X obj 102 287 declare -path externals/convolve~;
#X obj 588 326 declare -path externals/list-abs;
#X obj 311 220 declare -path externals/dryUp~;
#X obj 102 67 declare -path ./RSVP.frmwrk;
#X obj 102 87 declare -path ./RSVP.frmwrk/sys.modules;
#X obj 102 107 declare -path ./RSVP.frmwrk/sys.local.dep;
#X obj 102 127 declare -path ./RSVP.frmwrk/sys.comunication;
#X obj 102 147 declare -path ./RSVP.frmwrk/imp;
#X obj 102 167 declare -path ./RSVP.frmwrk/data;
#X obj 102 187 declare -path ./RSVP;
#X restore 22 90 pd externals-declarations;
#N canvas 758 472 450 300 library-declarations 0;
#X obj 119 63 declare -lib zexy;
#X obj 119 81 declare -lib iemmatrix;
#X obj 119 100 declare -lib iemlib/iemlib1;
#X obj 119 119 declare -lib iemlib/iemlib2;
#X restore 22 111 pd library-declarations;
#N canvas 276 244 398 295 read-modules-file 0;
#X obj 30 20 inlet;
#X obj 30 200 outlet;
#X obj 30 140 route list;
#X obj 30 120 list;
#X obj 51 60 inlet;
#X obj 51 100 list prepend read;
#X obj 51 80 makefilename \$1.modules;
#X connect 0 0 3 0;
#X connect 2 0 1 0;
#X connect 3 0 2 0;
#X connect 4 0 6 0;
#X connect 5 0 3 1;
#X connect 6 0 5 0;
#X restore 57 568 pd read-modules-file;
#N canvas 316 276 398 295 write-modules-file 0;
#X obj 30 20 inlet;
#X obj 30 200 outlet;
#X obj 51 100 list prepend write;
#X obj 30 140 route list;
#X obj 30 120 list;
#X obj 51 60 inlet;
#X obj 51 80 makefilename \$1.modules;
#X connect 0 0 4 0;
#X connect 2 0 4 1;
#X connect 3 0 1 0;
#X connect 4 0 3 0;
#X connect 5 0 6 0;
#X connect 6 0 2 0;
#X restore 110 633 pd write-modules-file;
#X obj 57 528 bng 15 250 50 0 empty empty empty 17 7 0 10 #fcfcfc #000000 #000000;
#X obj 57 548 t b b;
#X obj 110 590 bng 15 250 50 0 empty empty empty 17 7 0 10 #fcfcfc #000000 #000000;
#X obj 110 610 t b b;
#X obj 359 455 t b b;
#X obj 359 478 del 25;
#X obj 29 458 del 1000;
#X obj 292 50 bng 8 250 50 0 \$0-vis empty empty 17 7 0 10 #fc0400 #f8fc00 #000000;
#X obj 646 21 r \$0-vis;
#X obj 646 44 1;
#X msg 646 67 \; pd-main_window vis \$1;
#X msg 157 462 click;
#X obj 292 58 bng 8 250 50 0 empty empty empty 17 7 0 10 #fc0400 #f8fc00 #000000;
#X connect 2 0 1 0;
#X connect 3 0 1 0;
#X connect 4 0 2 0;
#X connect 10 0 11 0;
#X connect 11 0 24 0;
#X connect 11 0 40 0;
#X connect 13 0 14 0;
#X connect 13 1 15 0;
#X connect 14 0 19 0;
#X connect 14 1 17 0;
#X connect 15 0 18 0;
#X connect 15 1 16 0;
#X connect 16 0 22 1;
#X connect 17 0 22 1;
#X connect 18 0 31 0;
#X connect 19 0 20 0;
#X connect 19 0 30 0;
#X connect 20 0 21 0;
#X connect 21 0 22 1;
#X connect 22 0 9 0;
#X connect 22 0 10 0;
#X connect 22 0 46 0;
#X connect 23 0 12 0;
#X connect 24 0 23 0;
#X connect 25 0 22 0;
#X connect 26 0 13 0;
#X connect 27 0 3 0;
#X connect 27 0 8 0;
#X connect 30 0 29 0;
#X connect 31 0 29 0;
#X connect 32 0 48 0;
#X connect 33 0 34 0;
#X connect 34 0 36 0;
#X connect 35 0 41 0;
#X connect 36 0 37 0;
#X connect 36 0 35 0;
#X connect 37 0 36 1;
#X connect 38 0 36 1;
#X connect 40 0 57 0;
#X connect 41 0 39 0;
#X connect 42 0 48 0;
#X connect 43 0 59 0;
#X connect 44 0 33 0;
#X connect 44 1 38 0;
#X connect 46 0 47 0;
#X connect 51 0 48 0;
#X connect 52 0 48 0;
#X connect 53 0 54 0;
#X connect 54 0 51 0;
#X connect 54 1 51 1;
#X connect 55 0 56 0;
#X connect 56 0 52 0;
#X connect 56 1 52 1;
#X connect 57 0 58 0;
#X connect 58 0 44 0;
#X connect 59 0 42 0;
#X connect 61 0 62 0;
#X connect 62 0 63 0;
#X connect 64 0 48 0;
#X connect 65 0 64 0;
#X coords 0 -1 1 1 250 16 2 50 50;
#X restore 13 397 pd main_window;
#N canvas 97 112 725 475 button 0;
#X obj 101 101 tgl 45 0 empty empty empty 17 7 0 10 #14e814 #14e814 #202020 0 1;
#X obj 189 85 sel 0 1;
#X msg 189 111 color 13 13 42;
#X msg 209 135 color 16 16 42;
#N canvas 56 30 703 478 OSC-config 1;
#X text 16 21 oReceive-help;
#X obj 32 44 tgl 15 0 empty empty empty 17 7 0 10 #fcfcfc #000000 #000000 0 1;
#N canvas 570 152 583 472 randomizer 0;
#X obj 9 10 inlet;
#X obj 9 44 tgl 15 0 empty empty empty 17 7 0 10 #fcfcfc #000000 #000000 0 1;
#X obj 12 285 outlet;
#X obj 10 101 random 1e+06;
#X obj 11 192 /;
#X obj 28 164 random 1e+06;
#X obj 11 133 t a b b;
#X obj 139 78 text define tester;
#X obj 137 118 text size tester;
#X obj 137 143 t b f;
#X obj 138 173 random;
#X obj 138 200 text get tester;
#X obj 10 73 metro 500;
#X obj 105 290 print;
#X obj 11 229 list prepend /test;
#X connect 0 0 1 0;
#X connect 1 0 12 0;
#X connect 3 0 6 0;
#X connect 4 0 14 0;
#X connect 5 0 4 1;
#X connect 6 0 4 0;
#X connect 6 1 5 0;
#X connect 6 2 8 0;
#X connect 8 0 9 0;
#X connect 9 0 10 0;
#X connect 9 1 10 1;
#X connect 10 0 11 0;
#X connect 12 0 3 0;
#X connect 14 0 2 0;
#X restore 32 66 pd randomizer;
#X text 246 239 «- SEND PORT NUMBER IN MOBMUPLAT;
#X text 431 110 «- RECIEVE PORT & IP NUMBER IN MOBMUPLAT;
#X obj 44 367 t b a;
#X obj 44 438 send, f 10;
#X obj 44 335 list split 1;
#X obj 44 404 l;
#X msg 268 56 172.20.10.5 54322;
#X msg 276 80 224.0.0.1 54322;
#X msg 296 108 10.42.0.176 54322;
#X obj 153 345 spigot;
#X obj 214 330 tgl 15 0 empty empty verbose.dbug 17 7 0 10 #fcfcfc #000000 #000000 0 1;
#X obj 393 299 r RSVP.GUI-to-OSC;
#X obj 407 352 spigot;
#X obj 440 325 tgl 15 0 empty empty verbose.dbug 17 7 0 10 #fcfcfc #000000 #000000 0 1;
#X obj 153 367 print -DEBg.OSC-IN;
#X obj 407 375 print -DEBg.OSC-OUT;
#X obj 32 138 tgl 50 0 empty empty turn.on/receive.OSC 5 58 0 10 #fcfcfc #000000 #000000 0 1;
#X obj 462 23 declare -path ../;
#X obj 462 43 declare -path ./sys.comunication;
#X obj 32 105 osc_vanilla.module/oSend localhost 3333;
#X msg 263 29 localhost 8000;
#X obj 393 403 osc_vanilla.module/oSend 10.42.0.1 8000;
#X obj 32 207 s \$1-GRN1-to-OSC;
#N canvas 216 297 1222 574 OSC-routing-AG 0;
#X obj 11 7 r /RSVP-MASTER;
#X obj 11 104 s /RSVP/MASTER/VOL-vsl;
#X obj 11 82 * 127;
#X obj 153 3 r /RSVP-GRN;
#X obj 153 76 * 127;
#X obj 153 99 s /AG-V2/GRN1/volfader-vsl;
#X obj 353 76 * 127;
#X obj 353 3 r /RSVP-RNG;
#X obj 353 98 s /AG-V2/MLT1/volfader-vsl;
#X obj 522 75 * 127;
#X obj 522 2 r /RSVP-RVB;
#X obj 522 97 s /AG-V2/MLT2/volfader-vsl;
#X obj 697 3 r /RSVP-VCD;
#X obj 697 96 s /AG-V2/VCDR/volfader-vsl;
#X obj 903 10 r /RSVP-VCD-SENS;
#X obj 903 97 s /AG-V2-VCDR/L/sens-nbx;
#X obj 1073 12 r /RSVP-VCD-DUR;
#X obj 1073 121 s /AG-V2-VCDR/L/release-nbx;
#X obj 1073 97 * 10000;
#X floatatom 954 160 5 0 0 0 - - - 0;
#X obj 954 137 r /RSVP-OSC-NOISE;
#X obj 954 182 * 127;
#X obj 954 206 s /AG-V2-VCDR/L/osc-noise-hsl;
#X obj 236 157 tgl 18 0 empty empty empty 0 -9 0 10 #fcfcfc #000000 #000000 0 1;
#X obj 236 134 r /myToggle;
#X obj 236 179 s /AG-V2-MLT2/L/frz-tgl;
#X obj 389 131 r /arm-voices;
#X obj 389 154 unpack f f;
#X obj 389 206 s /AG-V2-MLT2/L/v-trnsp.1-nbx;
#X obj 442 176 s /AG-V2-MLT2/L/v-trnsp.2-nbx;
#X obj 491 123 r /RSVP-ARM-VOL;
#X obj 491 148 s /AG-V2-MLT2/L/HVOL-nbx;
#X obj 713 200 r /RSVP-RING-FREC;
#X obj 713 385 s /AG-V2-MLT1/L/fmod-nbx;
#X obj 713 362 * 500;
#X obj 713 342 pow 3;
#X obj 713 302 min 1;
#X obj 713 322 max 0;
#X obj 822 273 r /RSVP-DEL-VOL;
#X obj 821 359 s /AG-V2-MLT1/L/TVOL-nbx;
#X obj 975 259 r /delayTimes;
#X obj 975 349 * 127;
#X obj 1031 327 * 127;
#X obj 975 375 s /AG-V2-MLT1/L/tdelay_1-hsl;
#X obj 1031 353 s /AG-V2-MLT1/L/tdelay_2-hsl;
#X obj 777 422 r /RSVP-DEL-FDB;
#X obj 777 509 s /AG-V2-MLT1/L/fback-nbx;
#X obj 777 487 * 100;
#X obj 41 222 r /GRN-TRANS, f 13;
#X obj 266 242 r /GRN-DUR;
#X obj 497 242 r /GRN-IO;
#X obj 41 322 s /AG-V2-GRN1/L/trn-vsl;
#X obj 98 302 s /AG-V2-GRN1/L/rtrn-vsl;
#X obj 41 297 * 127;
#X obj 98 277 * 127;
#X obj 266 300 * 127;
#X obj 323 300 * 127;
#X obj 534 289 * 127;
#X obj 266 325 s /AG-V2-GRN1/L/dur-vsl;
#X obj 323 345 s /AG-V2-GRN1/L/rdur-vsl;
#X obj 497 338 s /AG-V2-GRN1/L/iot-vsl;
#X obj 534 318 s /AG-V2-GRN1/L/riot-vsl;
#X obj 699 76 * 127;
#X obj 522 47 route symbol;
#X obj 522 24 list split 1;
#X obj 697 47 route symbol;
#X obj 697 24 list split 1;
#X obj 11 57 route symbol;
#X obj 11 34 list split 1;
#X obj 153 50 route symbol;
#X obj 153 27 list split 1;
#X obj 353 50 route symbol;
#X obj 353 27 list split 1;
#X obj 900 53 route symbol;
#X obj 900 30 list split 1;
#X obj 822 322 route symbol;
#X obj 822 299 list split 1;
#X obj 713 279 route symbol;
#X obj 713 256 list split 1;
#X obj 777 466 route symbol;
#X obj 777 443 list split 1;
#X obj 1070 66 route symbol;
#X obj 1070 43 list split 1;
#N canvas 282 307 391 287 filter-unwanted-sys 0;
#X obj 20 20 inlet;
#X obj 138 244 outlet;
#X obj 251 237 outlet;
#X obj 30 60 list split 2;
#X obj 30 82 route list;
#X obj 30 104 route symbol;
#X obj 178 150 route symbol;
#X obj 5 172 route symbol;
#X obj 99 127 list split 1;
#X connect 0 0 3 0;
#X connect 3 0 4 0;
#X connect 4 0 5 0;
#X connect 5 1 8 0;
#X connect 6 1 2 0;
#X connect 7 1 1 0;
#X connect 8 0 7 0;
#X connect 8 1 6 0;
#X restore 497 264 pd filter-unwanted-sys;
#X obj 497 299 * 127;
#N canvas 282 307 391 287 filter-unwanted-sys 0;
#X obj 20 20 inlet;
#X obj 138 244 outlet;
#X obj 251 237 outlet;
#X obj 30 60 list split 2;
#X obj 30 82 route list;
#X obj 30 104 route symbol;
#X obj 178 150 route symbol;
#X obj 5 172 route symbol;
#X obj 99 127 list split 1;
#X connect 0 0 3 0;
#X connect 3 0 4 0;
#X connect 4 0 5 0;
#X connect 5 1 8 0;
#X connect 6 1 2 0;
#X connect 7 1 1 0;
#X connect 8 0 7 0;
#X connect 8 1 6 0;
#X restore 41 243 pd filter-unwanted-sys;
#N canvas 282 307 391 287 filter-unwanted-sys 0;
#X obj 20 20 inlet;
#X obj 138 244 outlet;
#X obj 251 237 outlet;
#X obj 30 60 list split 2;
#X obj 30 82 route list;
#X obj 30 104 route symbol;
#X obj 178 150 route symbol;
#X obj 5 172 route symbol;
#X obj 99 127 list split 1;
#X connect 0 0 3 0;
#X connect 3 0 4 0;
#X connect 4 0 5 0;
#X connect 5 1 8 0;
#X connect 6 1 2 0;
#X connect 7 1 1 0;
#X connect 8 0 7 0;
#X connect 8 1 6 0;
#X restore 266 270 pd filter-unwanted-sys;
#N canvas 282 307 391 287 filter-unwanted-sys 0;
#X obj 20 20 inlet;
#X obj 138 244 outlet;
#X obj 251 237 outlet;
#X obj 30 60 list split 2;
#X obj 30 82 route list;
#X obj 30 104 route symbol;
#X obj 178 150 route symbol;
#X obj 5 172 route symbol;
#X obj 99 127 list split 1;
#X connect 0 0 3 0;
#X connect 3 0 4 0;
#X connect 4 0 5 0;
#X connect 5 1 8 0;
#X connect 6 1 2 0;
#X connect 7 1 1 0;
#X connect 8 0 7 0;
#X connect 8 1 6 0;
#X restore 975 284 pd filter-unwanted-sys;
#X connect 0 0 68 0;
#X connect 2 0 1 0;
#X connect 3 0 70 0;
#X connect 4 0 5 0;
#X connect 6 0 8 0;
#X connect 7 0 72 0;
#X connect 9 0 11 0;
#X connect 10 0 64 0;
#X connect 12 0 66 0;
#X connect 14 0 74 0;
#X connect 16 0 82 0;
#X connect 18 0 17 0;
#X connect 19 0 21 0;
#X connect 20 0 19 0;
#X connect 21 0 22 0;
#X connect 23 0 25 0;
#X connect 24 0 23 0;
#X connect 26 0 27 0;
#X connect 27 0 28 0;
#X connect 27 1 29 0;
#X connect 30 0 31 0;
#X connect 32 0 78 0;
#X connect 34 0 33 0;
#X connect 35 0 34 0;
#X connect 36 0 37 0;
#X connect 37 0 35 0;
#X connect 38 0 76 0;
#X connect 40 0 87 0;
#X connect 41 0 43 0;
#X connect 42 0 44 0;
#X connect 45 0 80 0;
#X connect 47 0 46 0;
#X connect 48 0 85 0;
#X connect 49 0 86 0;
#X connect 50 0 83 0;
#X connect 53 0 51 0;
#X connect 54 0 52 0;
#X connect 55 0 58 0;
#X connect 56 0 59 0;
#X connect 57 0 61 0;
#X connect 62 0 13 0;
#X connect 63 1 9 0;
#X connect 64 0 63 0;
#X connect 65 1 62 0;
#X connect 66 0 65 0;
#X connect 67 1 2 0;
#X connect 68 0 67 0;
#X connect 69 1 4 0;
#X connect 70 0 69 0;
#X connect 71 1 6 0;
#X connect 72 0 71 0;
#X connect 73 1 15 0;
#X connect 74 0 73 0;
#X connect 75 1 39 0;
#X connect 76 0 75 0;
#X connect 77 1 36 0;
#X connect 78 0 77 0;
#X connect 79 0 47 0;
#X connect 80 0 79 0;
#X connect 81 1 18 0;
#X connect 82 0 81 0;
#X connect 83 0 84 0;
#X connect 83 1 57 0;
#X connect 84 0 60 0;
#X connect 85 0 53 0;
#X connect 85 1 54 0;
#X connect 86 0 55 0;
#X connect 86 1 56 0;
#X connect 87 0 41 0;
#X connect 87 1 42 0;
#X restore 525 179 pd OSC-routing-AG;
#X obj 44 243 osc_vanilla.module/oReceive 8005;
#X obj 43 279 route /tilts /gyro /motion /accel;
#X connect 1 0 2 0;
#X connect 2 0 22 0;
#X connect 5 0 8 0;
#X connect 5 1 6 1;
#X connect 7 0 5 0;
#X connect 7 1 8 1;
#X connect 8 0 6 0;
#X connect 9 0 22 1;
#X connect 10 0 22 1;
#X connect 11 0 22 1;
#X connect 12 0 17 0;
#X connect 13 0 12 1;
#X connect 14 0 15 0;
#X connect 14 0 24 0;
#X connect 15 0 18 0;
#X connect 16 0 15 1;
#X connect 19 0 25 0;
#X connect 23 0 22 1;
#X connect 27 0 28 0;
#X connect 28 4 7 0;
#X connect 28 4 12 0;
#X restore 102 266 pd OSC-config;
#X msg 101 173 \; pd-OSC-config vis \$1;
#X connect 0 0 1 0;
#X connect 0 0 5 0;
#X connect 1 0 2 0;
#X connect 1 1 3 0;
#X connect 2 0 0 0;
#X connect 3 0 0 0;
#X coords 0 -1 1 1 47 47 2 100 100;
#X restore 209 326 pd button;
#X obj 198 374 cnv 15 70 16 empty empty OSC.conf 7 8 0 12 #000000 #00f8fc 0;
#X obj 13 12 modules/in-mixer MASTER INSTR;
#X obj 270 210 ./sys.modules/00_MasterVerb MASTER VERB;
#X obj 190 12 ./sys.modules/00_PlayerVol MASTER O-VOL L.ELE;
#X obj 277 12 ./sys.modules/00_PlayerVol MASTER O-VOL INSTR;
#X obj 270 323 ./sys.modules/00_Master-Audio \$1 \$2 \$3;
#X obj 13 325 ./RSVP/PresetManager \$1;
#X obj 12 210 ./sys.modules/pedal-cues \$1;
#X obj 365 12 ./sys.modules/00_MasterVol \$1;
#X coords 0 -1 1 1 523 415 1 5 5;
