#N canvas 2641 56 607 674 10;
#X declare -path externals/cyclone;
#X declare -path externals/jrsvabs;
#X declare -path externals/dryUp~;
#X declare -path externals/iemguts;
#X declare -path externals/flatgui;
#X declare -path externals/moocow;
#X declare -path externals/fftease;
#X declare -path externals/flatgui;
#X declare -path externals/flatgui;
#X declare -path externals/ggee;
#X declare -path externals/gigaverb~;
#X declare -path externals/hcs;
#X declare -path externals/iemlib;
#X declare -path externals/iemmatrix;
#X declare -path externals/LyonPotpurri;
#X declare -path externals/markex;
#X declare -path externals/maxlib;
#X declare -path externals/motex;
#X declare -path externals/PDescriptors_v1.2;
#X declare -path externals/tof;
#X declare -path externals/windowing;
#X declare -path externals/xsample;
#X declare -path externals/zexy;
#X declare -path externals/convolve~;
#X declare -path externals/list-abs;
#X declare -path externals/freeverb~;
#X declare -path RSVP;
#X declare -path sys.modules;
#X declare -path sys.local.dep;
#X declare -path sys.comunication;
#X declare -path imp;
#X declare -path data;
#X declare -path ./;
#X declare -lib zexy;
#X declare -lib iemmatrix;
#X declare -lib iemlib/iemlib1;
#X declare -lib iemlib/iemlib2;
#X obj 6 7 cnv 15 550 450 empty empty empty 20 12 0 14 #c4fcfc #404040
0;
#X obj 381 20 catch~ 2master_L;
#X obj 438 40 catch~ 2master_R;
#X text 452 104 are the outlets in [pd~] object, f 15;
#X obj 378 249 loadbang;
#X msg 378 269 DSP-connected 1;
#X obj 378 365 stdout;
#X msg 314 346 \; pd dsp 1;
#X obj 314 326 del 1000;
#N canvas 67 96 887 493 externals-declarations 0;
#X obj 102 89 declare -path externals/cyclone;
#X obj 102 108 declare -path externals/jrsvabs;
#X obj 311 60 declare -path externals/dryUp~;
#X obj 311 78 declare -path externals/iemguts;
#X obj 311 96 declare -path externals/flatgui;
#X obj 311 114 declare -path externals/moocow;
#X obj 311 132 declare -path externals/fftease;
#X obj 311 150 declare -path externals/flatgui;
#X obj 588 58 declare -path externals/flatgui;
#X obj 588 76 declare -path externals/ggee;
#X obj 588 94 declare -path externals/gigaverb~;
#X obj 588 112 declare -path externals/hcs;
#X obj 588 130 declare -path externals/iemlib;
#X obj 588 148 declare -path externals/iemmatrix;
#X obj 311 168 declare -path externals/LyonPotpurri;
#X obj 102 145 declare -path externals/markex;
#X obj 102 163 declare -path externals/maxlib;
#X obj 102 181 declare -path externals/motex;
#X obj 311 186 declare -path externals/PDescriptors_v1.2;
#X obj 588 184 declare -path externals/tof;
#X obj 588 202 declare -path externals/windowing;
#X obj 311 204 declare -path externals/xsample;
#X obj 102 199 declare -path externals/zexy;
#X obj 102 127 declare -path externals/convolve~;
#X obj 588 166 declare -path externals/list-abs;
#X obj 102 217 declare -path externals/freeverb~;
#X obj 102 317 declare -path RSVP;
#X obj 102 337 declare -path sys.modules;
#X obj 102 357 declare -path sys.local.dep;
#X obj 102 377 declare -path sys.comunication;
#X obj 102 397 declare -path imp;
#X obj 102 417 declare -path data;
#X obj 102 297 declare -path ./;
#X restore 386 401 pd externals-declarations;
#N canvas 758 472 450 300 library-declarations 0;
#X obj 119 63 declare -lib zexy;
#X obj 119 81 declare -lib iemmatrix;
#X obj 119 100 declare -lib iemlib/iemlib1;
#X obj 119 119 declare -lib iemlib/iemlib2;
#X restore 386 422 pd library-declarations;
#N canvas 914 515 487 359 cpu-meter 0;
#X obj 272 158 cputime;
#X obj 272 102 metro 1000;
#X obj 272 130 t b b;
#X obj 272 218 * 0.1;
#X obj 272 187 int;
#X obj 276 33 r pd;
#X obj 102 102 nbx 5 14 -1e+37 1e+37 0 0 empty empty CPU 32 8 0 10
#fc0400 #fcfcfc #c4fcfc 0 256;
#X obj 271 69 route dsp;
#X obj 272 249 outlet;
#X connect 0 0 4 0;
#X connect 1 0 2 0;
#X connect 2 0 0 0;
#X connect 2 1 0 1;
#X connect 3 0 6 0;
#X connect 3 0 8 0;
#X connect 4 0 3 0;
#X connect 5 0 7 0;
#X connect 7 0 1 0;
#X coords 0 -1 1 1 58 18 2 100 100;
#X restore 384 291 pd cpu-meter;
#X obj 395 62 env~;
#X floatatom 395 84 5 0 0 0 - - - 0;
#X obj 453 61 env~;
#X floatatom 453 84 5 0 0 0 - - - 0;
#X obj 490 559 pdcontrol;
#X obj 490 582 p DIR;
#X msg 490 534 dir 2;
#X obj 30 320 modules/in-mixer~ MASTER INSTR MTRX 0;
#X obj 381 105 dac~ 1 2;
#X text 15 342 modules arguments are: \; \$1 Preset Link \; \$2 name
for channelstrip \; \$3 name of matrix linked \; \$4 number matrix
ch. link \; after this \, you can place \; module arguments;
#X obj 51 534 f;
#X obj 75 534 + 20;
#X msg 108 516 0;
#X obj 51 474 r dynamic.patching;
#X msg 51 574 obj 30 \$1;
#X obj 51 594 list append;
#X obj 51 494 t b a;
#X obj 51 614 route list;
#X obj 108 496 loadbang;
#X text 212 490 primero cargar y revisar si el objeto esta en un text
;
#X obj 51 554 + 50;
#X obj 387 584 list append;
#X obj 387 604 route list;
#X obj 51 644 send pd-RSVP.frmwrk.audio~.pd;
#X obj 384 311 list prepend DSP-CPU-METER;
#X obj 384 331 route list;
#X connect 1 0 12 0;
#X connect 1 0 20 0;
#X connect 2 0 14 0;
#X connect 2 0 20 1;
#X connect 4 0 5 0;
#X connect 4 0 8 0;
#X connect 5 0 6 0;
#X connect 8 0 7 0;
#X connect 11 0 36 0;
#X connect 12 0 13 0;
#X connect 14 0 15 0;
#X connect 16 0 17 0;
#X connect 18 0 16 0;
#X connect 22 0 23 0;
#X connect 22 0 32 0;
#X connect 23 0 22 1;
#X connect 24 0 22 1;
#X connect 25 0 28 0;
#X connect 26 0 27 0;
#X connect 27 0 29 0;
#X connect 28 0 22 0;
#X connect 28 1 27 1;
#X connect 29 0 35 0;
#X connect 30 0 24 0;
#X connect 32 0 26 0;
#X connect 33 0 34 0;
#X connect 36 0 37 0;
#X connect 37 0 6 0;
