#N struct 2609-color float x float y float farbe;
#N struct 2609-color-display float x float y float farbe;
#N struct 2612-color float x float y float farbe;
#N struct 2612-color-display float x float y float farbe;
#N struct 2606-matrixctrl float x float y float size float color float
state;
#N canvas 2079 223 970 464 10;
#X declare -path ../sys.comunication;
#X declare -path ./RSVP.frmwrk;
#X declare -path ./RSVP.frmwrk/sys.comunication;
#X declare -path ../sys.comunication;
#X declare -path ./RSVP.frmwrk;
#X declare -path ./RSVP.frmwrk/sys.comunication;
#X obj 10 5 cnv 15 950 440 empty empty empty 20 12 0 14 -1 -66577 0
;
#X obj 15 10 cnv 15 940 430 empty empty empty 20 12 0 14 -99865 -66577
0;
#X obj 764 18 sendcanvas;
#X obj 783 19 inlet;
#X obj 761 14 cnv 15 190 35 empty empty .\$1. 10 18 0 24 -1 -228856
0;
#X obj 448 424 cnv 15 110 16 empty empty jrsv(C).2021 15 8 0 12 -1
-4032 0;
#X obj 846 425 cnv 15 110 16 empty empty www.jrsv.net 15 8 0 12 -1
-4032 0;
#X obj 15 425 cnv 15 110 16 empty empty RSVP.FRAMEWORK 6 8 0 12 -1
-4032 0;
#N canvas 482 96 725 475 button 0;
#X obj 101 101 tgl 25 0 empty empty empty 17 7 0 10 -258699 -258699
-33289 0 1;
#X obj 203 167 sel 0 1;
#X msg 203 193 color 13 13 42;
#X msg 223 217 color 16 16 42;
#X msg 101 173 vis \$1;
#X obj 409 153 declare -path ../sys.comunication;
#X obj 373 230 pdcontrol;
#X msg 374 194 dir 0;
#X obj 371 253 p -;
#X obj 423 96 declare -path ./RSVP.frmwrk;
#X obj 423 116 declare -path ./RSVP.frmwrk/sys.comunication;
#X obj 127 101 cnv 15 60 25 empty empty CONTROL 5 12 0 12 -1 -4032
0;
#N canvas 394 105 565 289 control 0;
#X obj 6 18 inlet;
#X obj 6 248 sendcanvas;
#X obj 13 41 ./modules/zDATA \$1 DATA;
#X obj 176 41 ./modules/zANL-EXT \$1 ANLZ MTRX 10;
#X obj 413 41 ./modules/zLFO \$1 LFOs;
#X obj 6 3 cnv 15 550 35 empty empty RSVP.CONTROL.MODULES 30 18 0 24
-260097 -4160 0;
#X obj 6 243 cnv 15 550 35 empty empty DATA/ANALISYS/LFO 30 18 0 24
-260097 -4160 0;
#X connect 0 0 1 0;
#X restore 101 284 pd control;
#X obj 226 91 loadbang;
#X obj 230 123 int 0;
#X connect 0 0 1 0;
#X connect 0 0 4 0;
#X connect 1 0 2 0;
#X connect 1 1 3 0;
#X connect 2 0 0 0;
#X connect 3 0 0 0;
#X connect 4 0 12 0;
#X connect 6 0 8 0;
#X connect 7 0 6 0;
#X connect 13 0 2 0;
#X connect 13 0 14 0;
#X connect 14 0 4 0;
#X coords 0 -1 1 1 88 27 2 100 100;
#X restore 853 59 pd button;
#N canvas 448 96 725 475 button 0;
#X obj 101 101 tgl 25 0 empty empty empty 17 7 0 10 -258699 -258699
-33289 0 1;
#X obj 203 167 sel 0 1;
#X msg 203 193 color 13 13 42;
#X msg 223 217 color 16 16 42;
#X msg 101 173 vis \$1;
#X obj 409 153 declare -path ../sys.comunication;
#X obj 373 230 pdcontrol;
#X msg 374 194 dir 0;
#X obj 371 253 p -;
#X obj 423 96 declare -path ./RSVP.frmwrk;
#X obj 423 116 declare -path ./RSVP.frmwrk/sys.comunication;
#X obj 127 101 cnv 15 45 25 empty empty MIXER 5 12 0 12 -1 -4032 0
;
#X obj 101 21 loadbang;
#X msg 101 60 0;
#N canvas 1075 155 843 292 MIXER 0;
#X obj 6 18 inlet;
#X obj 6 248 sendcanvas;
#X obj 6 3 cnv 15 570 35 empty empty MIXER 30 18 0 24 -159808 -4034
0;
#X obj 6 243 cnv 15 570 30 empty empty empty 30 18 0 24 -159808 -4034
0;
#X obj 578 3 ./modules/zMTRX \$1 MTRX 11;
#X obj 75 40 ./modules/channelstrip \$1 GRN1 MTRX 1;
#X obj 199 40 ./modules/channelstrip \$1 S.FM MTRX 3;
#X obj 13 40 ./modules/channelstrip MASTER INSTR MTRX 0;
#X obj 137 40 ./modules/channelstrip \$1 MLT1 MTRX 2;
#X obj 261 40 ./modules/channelstrip \$1 VCDR MTRX 4;
#X obj 447 40 modules/channelstrip \$1 MLT2 MTRX 7;
#X obj 323 40 ./modules/channelstrip \$1 STTR MTRX 5;
#X obj 385 40 ./modules/channelstrip \$1 CHPR MTRX 6;
#X obj 509 40 ./modules/channelstrip \$1 GEST MTRX 8;
#X connect 0 0 1 0;
#X restore 101 284 pd MIXER;
#X connect 0 0 1 0;
#X connect 0 0 4 0;
#X connect 1 0 2 0;
#X connect 1 1 3 0;
#X connect 2 0 0 0;
#X connect 3 0 0 0;
#X connect 4 0 14 0;
#X connect 6 0 8 0;
#X connect 7 0 6 0;
#X connect 12 0 13 0;
#X connect 13 0 0 0;
#X coords 0 -1 1 1 73 27 2 100 100;
#X restore 768 59 pd button;
#X connect 3 0 2 0;
#X coords 0 464 1 463 100 30 0;
