#N canvas 299 143 701 354 10;
#X obj 165 88 sel 0 1;
#X obj 165 27 inlet toggle;
#X obj 165 57 t a b;
#X msg 283 74 1;
#X obj 282 224 outlet toSwitch;
#X obj 165 164 line~;
#X msg 184 138 1 50;
#X msg 165 113 0 50;
#X obj 238 128 del 51;
#X msg 238 150 0;
#X obj 165 223 outlet~;
#X connect 0 0 7 0;
#X connect 0 0 8 0;
#X connect 0 1 6 0;
#X connect 1 0 2 0;
#X connect 2 0 0 0;
#X connect 2 1 3 0;
#X connect 3 0 4 0;
#X connect 5 0 10 0;
#X connect 6 0 5 0;
#X connect 7 0 5 0;
#X connect 8 0 9 0;
#X connect 9 0 4 0;
