#N struct 1017template float x0 float y0 float id float c;
#N canvas 422 222 752 488 12;
#X text 225 197 just 1 arg;
#X floatatom 30 339 5 0 0 0 - - -;
#X obj 30 361 s test/instr/gain-hsl;
#X floatatom 30 405 5 0 0 0 - - -;
#X obj 30 427 s test/\$2/\$3-hsl;
#X obj 110 110 nbx_pre test voices grain;
#X obj 36 119 vsl_pre test GRNS attack;
#X obj 76 248 hrd_pre test casa juan;
#X obj 266 52 tgl_pre test carlos sanchez;
#X obj 89 136 hsl_pre test instr gain;
#X obj 89 166 hsl_pre test instr pan;
#X obj 89 196 hsl_pre test;
#X obj 30 16 PresetManager test;
#X obj 203 427 s remote-PRST-change-test;
#X floatatom 203 404 5 0 0 0 - - -;
#X obj 357 70 vrd_pre test esteban calca;
#X obj 472 122 ./customGUI/spat_pre test spat spat;
#X floatatom 485 41 5 0 0 0 - - -;
#X obj 478 377 print;
#X floatatom 669 85 5 0 0 0 - - -;
#X connect 1 0 2 0;
#X connect 3 0 4 0;
#X connect 14 0 13 0;
#X connect 16 0 18 0;
#X connect 17 0 16 0;
#X connect 19 0 16 1;
