#N canvas 536 204 846 645 12;
#X text 580 87 just 1 arg;
#X floatatom 30 327 5 0 0 0 - - -;
#X obj 30 361 s test/instr/gain-hsl;
#X obj 110 110 nbx_pre test voices grain;
#X obj 36 119 vsl_pre test GRNS attack;
#X obj 76 248 hrd_pre test casa juan;
#X obj 250 244 tgl_pre test carlos sanchez;
#X obj 34 453 ./customGUI/tgl_pre.red-green test roberto garcia;
#X floatatom 34 518 5 0 0 0 - - -;
#X obj 89 136 hsl_pre test instr gain;
#X obj 89 166 hsl_pre test instr pan;
#X obj 444 86 hsl_pre test;
#X obj 31 17 PresetManager test;
#X obj 239 40 s remote-PRST-change-test;
#X floatatom 239 16 5 0 0 0 - - -;
#X floatatom 292 320 5 0 0 0 - - -;
#X floatatom 76 270 5 0 0 0 - - -;
#X obj 292 150 vrd_pre test esteban calca;
#X obj 292 284 int;
#X obj 89 481 tgl_pre interp disable 1;
#X floatatom 544 102 5 0 0 0 - - -;
#X floatatom 550 164 5 0 0 0 - - -;
#X floatatom 435 127 5 0 0 0 - - -;
#X obj 435 161 s test/0/0-hsl;
#X obj 550 139 r test/0/0-hsl-o;
#X obj 459 235 hsl_pre;
#X floatatom 467 347 5 0 0 0 - - -;
#X obj 467 381 s 0/0/0-hsl;
#X text 437 34 default arguments \, for all is 0 giving a name like
"0/0/0-hsl", f 32;
#X text 473 398 no arguments;
#X text 456 251 no arguments on creation;
#X text 446 288 this boject would link to a [PresetManager] by name
"0", f 28;
#X obj 261 459 r RSVP.GUI-to-OSC;
#X obj 261 500 route list;
#X obj 261 527 routeOSC /test;
#X obj 261 555 print;
#X text 311 550 use mrpeach [routeOSC] object to route PRESET MANAGER
ID to different OSC devices, f 38;
#X connect 1 0 2 0;
#X connect 5 0 16 0;
#X connect 7 0 8 0;
#X connect 11 0 20 0;
#X connect 14 0 13 0;
#X connect 17 0 18 0;
#X connect 18 0 15 0;
#X connect 22 0 23 0;
#X connect 24 0 21 0;
#X connect 26 0 27 0;
#X connect 32 0 33 0;
#X connect 33 0 34 0;
#X connect 34 0 35 0;
