#N canvas 233 96 1010 658 12;
#X declare -path ../sys.modules;
#X declare -path ../automation.DATA;
#X obj 78 204 t b b;
#X obj 78 277 f;
#X obj 348 592 1e+19;
#X obj 289 572 t a b;
#X obj 78 178 metro 100;
#X msg 710 275 -1;
#X obj 289 526 list prepend;
#X obj 602 252 f;
#X obj 631 252 + 1;
#X msg 620 223 0;
#X obj 289 549 list prepend, f 29;
#X obj 550 227 loadbang;
#X text 471 22 argument is complete ID of RSVP object/or new object
to record (eg. \$1/\$2/\$3-<type>);
#X obj 96 240 inlet;
#X obj 146 257 r \$1/\$2/\$3-\$4;
#X obj 689 425 loadbang;
#X obj 78 491 array set \$0-auto.rec_01;
#X obj 289 414 array get \$0-auto.rec_01;
#X obj 548 529 symbol \$1/\$2/\$3-\$4;
#X text 39 581 one minute of buffer at 10 ticks per second. 100 ms
recording interval, f 31;
#X obj 689 509 array define \$0-auto.rec_01 600;
#X obj 691 331 text define \$0-auto.rec_01;
#X obj 206 31 sel 1 0;
#X obj 79 116 t b b b b;
#X obj 149 136 s \$0-clear-array;
#X obj 749 453 r \$0-clear-array;
#X obj 99 149 1;
#X obj 170 348 sel 599;
#X obj 229 56 t b b b b;
#X obj 269 84 s \$0-clear-array;
#X obj 76 1 inlet tgl;
#X obj 289 614 text set \$0-auto.rec_01;
#X obj 710 306 text delete \$0-auto.rec_01;
#X obj 170 420 s \$0-clear-array;
#X msg 689 482 const 0;
#X obj 289 498 list prepend;
#X obj 170 374 t b b b b;
#X obj 417 165 s \$0-stop;
#X obj 249 106 s \$0-stop;
#N canvas 458 219 361 279 ctr.segment_nmbr 0;
#X obj 74 18 inlet;
#X obj 74 204 outlet;
#X obj 74 112 f;
#X obj 103 112 + 1;
#X obj 202 48 0;
#X msg 74 135 Segment.\$1;
#X text 149 106 segment number;
#X obj 202 21 inlet reset;
#X connect 0 0 2 0;
#X connect 2 0 3 0;
#X connect 2 0 5 0;
#X connect 3 0 2 1;
#X connect 4 0 2 1;
#X connect 5 0 1 0;
#X connect 7 0 4 0;
#X restore 370 475 pd ctr.segment_nmbr;
#N canvas 453 567 200 201 ctr.AutoData-nmbr 0;
#X obj 20 20 inlet;
#X obj 70 20 inlet;
#X obj 20 171 outlet;
#X obj 30 86 f;
#X obj 59 86 + 1;
#X obj 48 60 0;
#X msg 30 111 Auto.Data.\$1;
#X connect 0 0 3 0;
#X connect 1 0 5 0;
#X connect 3 0 4 0;
#X connect 3 0 6 0;
#X connect 4 0 3 1;
#X connect 5 0 3 1;
#X connect 6 0 2 0;
#X restore 400 506 pd ctr.AutoData-nmbr;
#N canvas 201 386 200 213 ctr.IDX-nmbr 0;
#X obj 20 20 inlet;
#X obj 70 20 inlet;
#X obj 20 183 outlet;
#X obj 69 89 f;
#X obj 98 89 + 1;
#X msg 87 60 0;
#X floatatom 30 123 5 0 0 0 - - -;
#X connect 0 0 3 0;
#X connect 1 0 5 0;
#X connect 3 0 4 0;
#X connect 3 0 6 0;
#X connect 3 0 2 0;
#X connect 4 0 3 1;
#X connect 5 0 3 1;
#X restore 160 320 pd ctr.IDX-nmbr;
#X obj 217 91 0;
#X msg 691 136 read \$1;
#X obj 691 66 bng 15 250 50 0 empty empty empty 17 7 0 10 -262144 -1
-1;
#X obj 691 86 t b b;
#X msg 723 183 write \$1;
#X obj 693 564 declare -path ../sys.modules;
#X obj 693 587 declare -path ../automation.DATA;
#X obj 691 113 makefilename /automation.DATA/\$1_\$2_\$3-\$4.text;
#X obj 723 160 makefilename /automation.DATA/\$1_\$2_\$3-\$4.text;
#X connect 0 0 1 0;
#X connect 0 1 41 0;
#X connect 1 0 16 0;
#X connect 2 0 31 1;
#X connect 3 0 31 0;
#X connect 3 1 2 0;
#X connect 4 0 0 0;
#X connect 5 0 32 0;
#X connect 6 0 10 0;
#X connect 7 0 8 0;
#X connect 8 0 7 1;
#X connect 9 0 7 1;
#X connect 10 0 3 0;
#X connect 11 0 18 0;
#X connect 11 0 40 1;
#X connect 13 0 1 1;
#X connect 14 0 1 1;
#X connect 15 0 34 0;
#X connect 17 0 35 0;
#X connect 18 0 10 1;
#X connect 22 0 23 0;
#X connect 22 1 28 0;
#X connect 23 1 26 0;
#X connect 23 2 40 0;
#X connect 23 3 24 0;
#X connect 25 0 34 0;
#X connect 26 0 4 0;
#X connect 27 0 36 0;
#X connect 28 0 42 0;
#X connect 28 1 38 0;
#X connect 28 2 29 0;
#X connect 28 3 17 0;
#X connect 30 0 22 0;
#X connect 34 0 20 0;
#X connect 35 0 6 0;
#X connect 36 0 33 0;
#X connect 36 1 41 1;
#X connect 36 2 17 0;
#X connect 36 3 39 0;
#X connect 39 0 35 1;
#X connect 40 0 6 1;
#X connect 41 0 16 1;
#X connect 41 0 27 0;
#X connect 42 0 4 0;
#X connect 43 0 21 0;
#X connect 44 0 45 0;
#X connect 45 0 49 0;
#X connect 45 1 50 0;
#X connect 46 0 21 0;
#X connect 49 0 43 0;
#X connect 50 0 46 0;
