#N canvas 656 129 1089 654 12;
#X declare -path ../;
#X msg 856 159 -1;
#X text 650 15 argument is complete ID of RSVP object/or new object
to record (eg. \$1/\$2/\$3-<type>);
#X obj 23 383 text define \$0-auto.rec_01;
#X obj 199 47 sel 1 0;
#X obj 856 182 text delete \$0-auto.rec_01;
#X obj 222 75 s \$0-tgl-0;
#X obj 199 100 s \$0-tgl-1;
#X obj 274 100 cnv 10 10 10 empty empty empty 20 12 0 14 -4160 -66577
0;
#X obj 297 75 cnv 10 10 10 empty empty empty 20 12 0 14 -4160 -66577
0;
#X obj 199 8 inlet tgl-record.automation;
#X obj 856 59 inlet;
#N canvas 813 556 1074 524 recording.automation 0;
#X obj 37 270 f;
#X obj 663 379 1e+19;
#X obj 611 356 t a b;
#X obj 37 202 metro 100;
#X obj 611 333 list prepend;
#X obj 829 288 loadbang;
#X obj 345 250 r \$1/\$2/\$3-\$4;
#X obj 829 313 symbol \$1/\$2/\$3-\$4;
#X text 139 193 one minute of buffer at 10 ticks per second. 100 ms
recording interval, f 27;
#X obj 37 149 1;
#X obj 611 402 text set \$0-auto.rec_01;
#X obj 37 371 textfile;
#X msg 37 303 add2 \$1;
#X msg 97 124 clear;
#X obj 97 147 s \$0-clear-tmp;
#X obj 47 325 r \$0-txt-dmp;
#X obj 37 26 r \$0-tgl-1;
#X obj 37 54 t b b b b;
#X obj 58 348 r \$0-clear-tmp;
#X obj 45 176 r \$0-stop;
#X obj 113 176 cnv 10 10 10 empty empty empty 20 12 0 14 -258113 -66577
0;
#X obj 112 26 cnv 10 10 10 empty empty empty 20 12 0 14 -4160 -66577
0;
#X obj 37 397 s \$0-tmp-data;
#X obj 611 185 r \$0-tmp-data;
#X obj 133 397 cnv 10 10 10 empty empty empty 20 12 0 14 -4034 -66577
0;
#X obj 707 185 cnv 10 10 10 empty empty empty 20 12 0 14 -4034 -66577
0;
#X obj 258 137 inlet value-2-record;
#X obj 961 14 r \$0-clear;
#X obj 1035 18 cnv 10 10 10 empty empty empty 20 12 0 14 -159808 -66577
0;
#X obj 598 45 t b b b b;
#X obj 658 94 s \$0-stop;
#X obj 658 69 0;
#X msg 638 118 rewind;
#X obj 598 19 r \$0-tgl-0;
#X obj 726 94 cnv 10 10 10 empty empty empty 20 12 0 14 -258113 -66577
0;
#X obj 673 19 cnv 10 10 10 empty empty empty 20 12 0 14 -4160 -66577
0;
#X obj 618 144 s \$0-txt-dmp;
#X text 189 333 records the value every 100 miliseconds. 10 values
per second. when toggle 0 \, then it pushes to text;
#X obj 611 304 list prepend;
#X obj 756 199 r \$0-Auto.Data.number;
#X msg 802 259 Auto.Data. \$1;
#X obj 611 216 list prepend values;
#X obj 756 230 t b b a;
#X connect 0 0 12 0;
#X connect 1 0 10 1;
#X connect 2 0 10 0;
#X connect 2 1 1 0;
#X connect 3 0 0 0;
#X connect 4 0 2 0;
#X connect 5 0 7 0;
#X connect 6 0 0 1;
#X connect 7 0 4 1;
#X connect 9 0 3 0;
#X connect 11 0 22 0;
#X connect 12 0 11 0;
#X connect 13 0 14 0;
#X connect 15 0 11 0;
#X connect 16 0 17 0;
#X connect 17 0 9 0;
#X connect 17 3 13 0;
#X connect 18 0 11 0;
#X connect 19 0 3 0;
#X connect 23 0 41 0;
#X connect 26 0 0 1;
#X connect 29 1 36 0;
#X connect 29 2 32 0;
#X connect 29 3 31 0;
#X connect 31 0 30 0;
#X connect 32 0 36 0;
#X connect 33 0 29 0;
#X connect 38 0 4 0;
#X connect 39 0 42 0;
#X connect 40 0 38 1;
#X connect 41 0 38 0;
#X connect 42 2 40 0;
#X restore 13 36 pd recording.automation;
#X obj 13 10 inlet values_2_record;
#X obj 870 109 bng 15 250 50 0 empty empty empty 17 7 0 10 -262144
-1 -1;
#X msg 88 536 read \$1;
#X msg 23 360 write \$1;
#X obj 907 221 declare -path ../;
#X obj 23 254 r \$0-write.file;
#X obj 910 132 cnv 10 10 10 empty empty empty 20 12 0 14 -159808 -66577
0;
#X obj 836 132 s \$0-clear;
#X obj 856 84 route clear auto play replace;
#X obj 816 258 cnv 10 10 10 empty empty empty 20 12 0 14 -4034 -66577
0;
#X obj 720 258 r \$0-tmp-data;
#X obj 178 36 cnv 10 10 10 empty empty empty 20 12 0 14 -4034 -66577
0;
#X obj 798 300 list length;
#X obj 798 324 t a b;
#X obj 720 280 t a a;
#X obj 720 433 list prepend 0;
#X obj 311 215 s \$0-Auto.Data.number;
#X floatatom 311 85 5 0 0 0 - - -;
#X obj 926 49 r \$0-clear-tmp;
#X obj 353 68 bng 15 250 50 0 empty empty empty 17 7 0 10 -262144 -1
-1;
#X obj 41 280 r \$0-Auto.Data.number;
#X obj 23 307 i;
#X obj 353 192 s \$0-write.file;
#X obj 23 337 makefilename ./automation.DATA/\$1-\$2-\$3-\$4_%d.autodata
;
#X obj 366 154 s \$0-read.file;
#X obj 88 513 makefilename ./automation.DATA/\$1-\$2-\$3-\$4_%d.autodata
;
#X obj 106 461 r \$0-Auto.Data.number;
#X obj 88 488 i;
#X obj 352 106 bng 15 250 50 0 empty empty empty 17 7 0 10 -262144
-1 -1;
#X obj 31 468 t b b;
#X obj 31 433 r \$0-read.file;
#X obj 54 536 bng 15 250 50 0 empty empty empty 17 7 0 10 -262144 -1
-1;
#X obj 31 507 0;
#X obj 31 571 text get \$0-auto.rec_01;
#X obj 31 596 route list;
#X obj 31 619 route \$1/\$2/\$3-\$4;
#X obj 31 647 route Auto.Data.;
#X obj 31 671 list split 1;
#X obj 71 723 route values;
#X obj 71 700 route list;
#X obj 71 749 s \$0-update.from.file;
#X obj 688 234 r \$0-update.from.file;
#X text 694 518 dont use text object \, just normal table;
#X obj 720 456 send \$1/\$2/\$3-\$4.auto.env;
#X obj 798 370 pack f s;
#X obj 851 347 makefilename \$1/\$2/\$3-\$4;
#X msg 798 394 \; \$2.auto.env resize \$1;
#N canvas 650 96 517 229 envelope-\$1/\$2/\$3-\$4 1;
#N canvas 0 50 450 250 (subpatch) 0;
#X array \$1/\$2/\$3-\$4.auto.env 27 float 1;
#A 0 37.2 54.2 110.4 88 34 20.6 9.2 9.6 50.6 91.4 91.2 107.4 93.6 41.2
36.4 67.6 89.2 98.8 99.8 88.8 83.2 107.4 75.4 31.8 48.6 78.4 83.6;
#X coords 0 127 26 0 500 140 1 0 0;
#X restore 5 36 graph;
#X obj 5 4 cnv 15 500 30 empty empty Automation/Env 20 15 0 22 -159808
-4032 0;
#X obj 5 181 cnv 15 500 30 empty empty empty 20 15 0 22 -159808 -4032
0;
#X restore 630 120 pd envelope-\$1/\$2/\$3-\$4;
#X msg 377 273 \; pd-envelope-\$1 vis 1;
#X obj 377 247 symbol \$1/\$2/\$3-\$4;
#X obj 377 85 bng 15 250 50 0 empty empty empty 17 7 0 10 -262144 -1
-1;
#X connect 0 0 4 0;
#X connect 3 0 6 0;
#X connect 3 1 5 0;
#X connect 9 0 3 0;
#X connect 10 0 20 0;
#X connect 12 0 11 0;
#X connect 14 0 2 0;
#X connect 15 0 2 0;
#X connect 17 0 33 0;
#X connect 20 0 0 0;
#X connect 20 0 13 0;
#X connect 20 0 19 0;
#X connect 22 0 26 0;
#X connect 24 0 25 0;
#X connect 25 0 56 0;
#X connect 25 1 57 0;
#X connect 26 0 27 0;
#X connect 26 1 24 0;
#X connect 27 0 55 0;
#X connect 29 0 28 0;
#X connect 30 0 20 0;
#X connect 31 0 34 0;
#X connect 32 0 33 1;
#X connect 33 0 35 0;
#X connect 35 0 15 0;
#X connect 37 0 14 0;
#X connect 38 0 39 1;
#X connect 39 0 37 0;
#X connect 40 0 36 0;
#X connect 41 0 44 0;
#X connect 41 1 39 0;
#X connect 42 0 41 0;
#X connect 43 0 44 0;
#X connect 44 0 45 0;
#X connect 45 0 46 0;
#X connect 46 0 47 0;
#X connect 47 0 48 0;
#X connect 48 0 49 0;
#X connect 49 1 51 0;
#X connect 50 0 52 0;
#X connect 51 0 50 0;
#X connect 53 0 26 0;
#X connect 56 0 58 0;
#X connect 57 0 56 1;
#X connect 61 0 60 0;
#X connect 62 0 61 0;
