#N canvas 54 96 867 618 12;
#X obj 108 468 f;
#X obj 108 207 r \$1-save_preset;
#X obj 492 173 spigot 1;
#X obj 353 211 list prepend set;
#X obj 353 236 route list;
#X obj 641 297 change;
#X obj 641 322 bang;
#X obj 641 347 0;
#X obj 108 236 t b b;
#X obj 733 471 cnv 10 25 10 empty \$0-label empty 3 5 0 8 -1 -4032
0;
#X obj 728 408 loadbang;
#X obj 728 486 s \$0-label;
#X obj 710 405 bng 15 250 50 0 empty empty empty 17 7 0 10 -262144
-1 -1;
#X msg 728 448 label \$1;
#X obj 728 429 symbol \$3;
#X obj 301 256 t a;
#X obj 754 37 cnv 15 15 15 empty empty CHANGE.GUI 18 7 0 8 -257985
-66577 0;
#X obj 363 517 cnv 15 15 15 empty empty CHANGE.GUI 18 7 0 8 -257985
-66577 0;
#X obj 301 281 hradio 15 1 0 8 empty empty empty 0 -8 0 10 -228856
-1 -1 5;
#N canvas 54 96 605 300 LOG 0;
#X text 34 172 20/04/2020 - Added route bang \, added remote send,
f 51;
#X text 34 151 25/04/2020 - Added [RSVP.gui."x"] abstractions & reordered
the layout, f 72;
#X restore 34 67 pd LOG;
#X text 41 539 \$1 PresetManager Link \; \$2 Module (name of the instrument)
\; \$3 parameter-(GUI)type, f 36;
#X obj 492 586 outlet;
#X obj 754 576 cnv 15 15 15 empty empty CHANGE.GUI 18 7 0 8 -257985
-66577 0;
#X obj 385 37 cnv 15 15 15 empty empty CHANGE.GUI 18 7 0 8 -257985
-66577 0;
#X obj 151 24 inlet;
#X obj 609 270 t a a;
#X text 687 316 when mouse moves GUI \, it stops line "LATCH", f 19
;
#X obj 301 427 t a a a;
#X obj 492 150 line;
#X obj 492 86 pack f f;
#X obj 492 44 t a b b;
#X obj 592 71 t b b;
#X obj 592 93 i;
#X obj 592 115 pack f 0;
#X obj 545 115 1;
#X text 557 164 switches between preset and RT GUI change, f 17;
#X text 657 74 records the RT change for line to interpolate from that
new value on next preset, f 23;
#X obj 151 53 ./RSVP.abs/RSVP.gui.in \$1 \$2 \$3 hrd;
#X obj 492 15 ./RSVP.abs/RSVP.gui.recall \$1 \$2 \$3 hrd;
#X obj 108 496 ./RSVP.abs/RSVP.gui.store \$1 \$2 \$3 hrd;
#X obj 492 556 ./RSVP.abs/RSVP.gui.remote \$1 \$2 \$3 hrd;
#X obj 393 89 t a b;
#X connect 0 0 39 0;
#X connect 1 0 8 0;
#X connect 2 0 3 0;
#X connect 2 0 40 0;
#X connect 3 0 4 0;
#X connect 4 0 15 0;
#X connect 5 0 6 0;
#X connect 6 0 7 0;
#X connect 7 0 2 1;
#X connect 8 0 0 0;
#X connect 8 1 15 0;
#X connect 10 0 14 0;
#X connect 12 0 14 0;
#X connect 13 0 11 0;
#X connect 14 0 13 0;
#X connect 15 0 18 0;
#X connect 18 0 27 0;
#X connect 24 0 37 0;
#X connect 25 0 32 1;
#X connect 25 1 5 0;
#X connect 27 0 0 1;
#X connect 27 1 40 0;
#X connect 27 2 25 0;
#X connect 28 0 2 0;
#X connect 29 0 28 0;
#X connect 30 0 29 0;
#X connect 30 1 34 0;
#X connect 30 2 31 0;
#X connect 31 0 32 0;
#X connect 31 1 15 0;
#X connect 32 0 33 0;
#X connect 33 0 28 0;
#X connect 34 0 2 1;
#X connect 37 0 15 0;
#X connect 37 1 41 0;
#X connect 38 0 30 0;
#X connect 38 1 29 1;
#X connect 40 0 21 0;
#X connect 41 0 28 1;
#X connect 41 1 34 0;
#X coords 0 -1 1 1 122 17 2 300 280;
