#N canvas 1376 194 488 670 12;
#X obj 215 208 route list;
#X obj 215 139 route list;
#X obj 215 71 list prepend symbol;
#X obj 46 401 f;
#X msg 103 589 1e+15;
#X obj 100 301 nbx 5 14 -1e+37 1e+37 0 0 empty empty empty 0 -8 0 10
-44926 -355 -128992 1038 256;
#X obj 100 316 cnv 10 54 11 empty \$0-label INTER/TIME 2 6 0 8 -1 -4032
0;
#X obj 252 282 del;
#X msg 298 282 color 13 3 11;
#X msg 252 310 color 47 58 11;
#X obj 252 255 t b a b;
#X obj 46 549 t l b;
#X obj 215 1 r \$1-PRECALL;
#X obj 215 49 makefilename \$1-INT.TIME;
#X obj 215 162 text search \$1-loaded-preset;
#X obj 215 185 text get \$1-loaded-preset;
#X obj 215 231 route \$1-INT.TIME;
#X obj 46 204 r \$1-save_preset;
#X obj 46 517 list prepend \$1-INT.TIME;
#X obj 46 633 text set \$1-loaded-preset;
#X connect 0 0 16 0;
#X connect 1 0 14 0;
#X connect 2 0 1 0;
#X connect 3 0 18 0;
#X connect 4 0 19 1;
#X connect 5 0 3 1;
#X connect 7 0 9 0;
#X connect 8 0 5 0;
#X connect 9 0 5 0;
#X connect 10 0 7 0;
#X connect 10 1 7 1;
#X connect 10 2 8 0;
#X connect 11 0 19 0;
#X connect 11 1 4 0;
#X connect 12 0 13 0;
#X connect 13 0 2 0;
#X connect 14 0 15 0;
#X connect 15 0 0 0;
#X connect 16 0 10 0;
#X connect 16 0 5 0;
#X connect 17 0 3 0;
#X connect 18 0 11 0;
#X coords 0 -1 1 1 54 28 2 100 300;
