#N canvas 1086 244 560 644 10;
#X declare -lib zexy;
#X declare -lib cyclone;
#X declare -lib iemguts;
#X declare -lib hcs;
#X declare -lib iemlib;
#X obj -1 3 cnv 15 552 40 empty empty PresetManager 3 12 0 18 -204280
-1 0;
#X text 11 26 Stores and recalls presets recorded;
#X obj 0 557 cnv 3 550 3 empty empty arguments 8 12 0 13 -228856 -1
0;
#X obj 0 605 cnv 15 552 21 empty empty empty 20 12 0 14 -233017 -33289
0;
#N canvas 307 431 428 109 Related_objects 0;
#X obj 0 0 cnv 15 425 20 empty empty empty 3 12 0 14 -204280 -1 0;
#X text 6 1 Related Objects;
#X restore 207 607 pd Related_objects;
#X text 107 505 place the library in the folder of your project \,
as it will create unique files;
#X obj -1 478 cnv 3 550 3 empty empty INSTALLATION 8 12 0 13 -228856
-1 0;
#N canvas 0 50 450 300 dependencies 0;
#X obj 106 74 declare -lib zexy;
#X obj 106 94 declare -lib cyclone;
#X obj 106 114 declare -lib iemguts;
#X obj 106 134 declare -lib hcs;
#X obj 106 154 declare -lib iemlib;
#X restore 324 527 pd dependencies;
#X text 108 575 A unique ID that names the ".txt" file in which the
presets are recorded.;
#X obj 4 49 PresetManager help;
#X obj 38 161 nbx_pre test 1;
#X obj 39 187 hrd_pre test;
#X obj 40 212 knb_pre test;
#X obj 112 160 hsl_pre test;
#X floatatom 40 258 5 0 0 0 - - -;
#X obj 90 213 tgl_pre abc;
#X floatatom 90 259 5 0 0 0 - - -;
#X obj 10 161 vrd_pre testting;
#X obj 280 316 param /list;
#X msg 293 256 1 45 324 0.08;
#X obj 281 348 print;
#X obj 90 237 ./customGUI/tgl-but_pre CDE;
#X connect 12 0 14 0;
#X connect 18 0 20 0;
#X connect 19 0 18 0;
#X connect 21 0 16 0;
#X coords 0 644 1 643 250 85 0;
