#N canvas 379 425 450 300 10;
#X obj 155 101 moses \$2;
#X obj 155 167 moses \$1;
#X obj 200 265 outlet;
#X text 245 263 out clipped;
#X obj 74 259 outlet;
#X text 117 259 limit GUI;
#X obj 155 7 inlet;
#X msg 74 204 set \$1;
#X msg 128 238 set \$1;
#X obj 128 214 \$1;
#X obj 74 177 \$2;
#X obj 74 150 t b b;
#X floatatom 188 131 5 0 0 0 - - - 0;
#X floatatom 236 192 5 0 0 0 - - - 0;
#X obj 323 129 f \$2;
#X obj 128 190 t b b;
#X obj 220 222 f \$1;
#X obj 145 42 * 1000;
#X obj 145 65 / 1000;
#X floatatom 212 82 5 0 0 0 - - - 0;
#X floatatom 199 56 5 0 0 0 - - - 0;
#X connect 0 0 1 0;
#X connect 0 0 12 0;
#X connect 0 1 11 0;
#X connect 1 0 15 0;
#X connect 1 1 2 0;
#X connect 1 1 13 0;
#X connect 6 0 17 0;
#X connect 7 0 4 0;
#X connect 8 0 4 0;
#X connect 9 0 8 0;
#X connect 10 0 7 0;
#X connect 11 0 10 0;
#X connect 11 1 14 0;
#X connect 14 0 2 0;
#X connect 15 0 9 0;
#X connect 15 1 16 0;
#X connect 16 0 2 0;
#X connect 17 0 18 0;
#X connect 17 0 20 0;
#X connect 18 0 0 0;
#X connect 18 0 19 0;
