#N canvas 91 34 1024 710 12;
#X declare -path ../sys.comunication;
#X declare -path ..;
#X obj 820 544 s RSVP-value-from-outside;
#X obj 926 200 cnv 5 80 5 empty empty ANALYSIS 5 -10 0 12 #fcc4c4 #404040 0;
#X obj 950 571 bng 13 250 50 0 \$0-open-patch-scene \$0-open-patch-scene-fdbck empty 17 7 0 10 #3c50fc #9c00fc #000000;
#X obj 816 406 s RSVP-value-from-outside;
#X obj 852 102 cnv 15 15 15 empty empty empty 20 12 0 14 #fc0400 #404040 0;
#X obj 943 130 cnv 15 15 15 empty empty empty 20 12 0 14 #fc0400 #404040 0;
#X obj 821 202 r p-fund-\$1;
#X obj 821 228 r MASTER_ATTACK-\$1;
#X obj 821 255 r MASTER_SILENCE-\$1;
#X obj 820 281 r TIMBRE-ID-\$1;
#X obj 902 222 cnv 5 95 5 empty empty empty 5 6 0 10 #00fc04 #dcdcdc 0;
#X obj 902 275 cnv 5 95 5 empty empty empty 5 6 0 10 #fc8000 #dcdcdc 0;
#X obj 902 324 cnv 5 95 5 empty empty empty 5 6 0 10 #f8fc00 #dcdcdc 0;
#X obj 820 345 r HARMONICITY-\$1;
#X obj 905 365 cnv 5 95 5 empty empty empty 5 6 0 10 #9c9c9c #dcdcdc 0;
#X obj 903 249 cnv 5 95 5 empty empty empty 5 6 0 10 #00fc04 #dcdcdc 0;
#X obj 904 391 cnv 5 95 5 empty empty empty 5 6 0 10 #00f8fc #dcdcdc 0;
#X obj 819 371 s RSVP-value-from-outside;
#X obj 820 303 unpack f f;
#X obj 820 465 r LFO-triggers-\$1;
#X obj 820 489 r LFO-MIDI-\$1;
#X obj 820 515 r LFO-values-\$1;
#X obj 963 570 cnv 10 33 10 empty \$0-label SCN-0 1 6 0 8 #000000 #00f8fc 0;
#N canvas 55 335 501 224 Open-Close-Scene-Window 1;
#X msg 30 84 vis 1;
#X obj 30 20 r \$0-open-patch-scene;
#X obj 30 149 s pd-ptch_\$3-\$1.pd;
#X msg 233 97 color 43;
#X msg 256 120 color 18;
#X text 303 98 rojo;
#X obj 233 17 r TURN-ON-PEDAL-\$3;
#X obj 233 42 sel 1 0;
#X text 326 118 azul;
#X obj 233 150 s \$0-open-patch-scene-fdbck;
#X msg 63 111 dirty 0;
#X msg 104 82 dirty 1;
#X connect 1 0 0 0;
#X connect 3 0 9 0;
#X connect 4 0 9 0;
#X connect 6 0 7 0;
#X connect 7 0 3 0;
#X connect 7 1 4 0;
#X connect 10 0 2 0;
#X connect 11 0 2 0;
#X restore 815 28 pd Open-Close-Scene-Window;
#X obj 806 2 cnv 5 5 690 empty empty empty 0 -10 0 20 #fcc4c4 #404040 0;
#X obj 1003 3 cnv 5 5 690 empty empty empty 0 -10 0 20 #fcc4c4 #404040 0;
#X obj 816 4 text define -k \$0-INFO;
#A set here we process data to trigger processings inside the modules with simple custom algorithms that come into action when the piece reaches the cue \; \; this is a place where I can patch in realtime the triggering of processes based on the GUI (e.g. tunr on a metro to trigger and play back samples) \;;
#X obj 926 450 cnv 5 80 5 empty empty LFO 5 -10 0 12 #fcc4c4 #404040 0;
#X obj 2 688 cnv 5 1000 5 empty empty empty 5 -10 0 12 #fcc4c4 #404040 0;
#N canvas 1983 563 200 349 LFO-examples 0;
#X obj 30 106 unpack f f f f f f f;
#X obj 30 259 unpack f f f f f f f;
#X obj 31 213 unpack f f f f f f f;
#X obj 30 135 vradio 15 1 0 3 empty empty empty 0 -8 0 10 #fcfcfc #000000 #000000 0;
#X obj 49 135 vradio 15 1 0 3 empty empty empty 0 -8 0 10 #fcfcfc #000000 #000000 0;
#X obj 69 135 vradio 15 1 0 3 empty empty empty 0 -8 0 10 #fcfcfc #000000 #000000 0;
#X obj 88 135 vradio 15 1 0 3 empty empty empty 0 -8 0 10 #fcfcfc #000000 #000000 0;
#X obj 108 135 vradio 15 1 0 3 empty empty empty 0 -8 0 10 #fcfcfc #000000 #000000 0;
#X obj 127 135 vradio 15 1 0 3 empty empty empty 0 -8 0 10 #fcfcfc #000000 #000000 0;
#X obj 147 135 vradio 15 1 0 3 empty empty empty 0 -8 0 10 #fcfcfc #000000 #000000 0;
#X obj 30 84 list-apply + 1;
#X obj 30 60 r LFO-triggers-\$1;
#X obj 30 236 r LFO-MIDI-\$1;
#X obj 31 188 r LFO-values-\$1;
#X connect 0 0 3 0;
#X connect 0 1 4 0;
#X connect 0 2 5 0;
#X connect 0 3 6 0;
#X connect 0 4 7 0;
#X connect 0 5 8 0;
#X connect 0 6 9 0;
#X connect 10 0 0 0;
#X connect 11 0 10 0;
#X connect 12 0 1 0;
#X connect 13 0 2 0;
#X restore 820 572 pd LFO-examples;
#N canvas 1959 158 200 174 directories 0;
#X obj 30 60 declare -path ../sys.comunication;
#X obj 30 84 declare -path ..;
#X restore 815 51 pd directories;
#X obj 868 101 route-pedal \$3;
#X obj 848 126 open-pedal \$3;
#N canvas 2531 350 285 211 create-label 0;
#X obj 53 126 cnv 10 25 10 empty \$0-label SCN-0 3 5 0 8 #000000 #00f8fc 0;
#X obj 48 141 s \$0-label;
#X obj 30 60 bng 15 250 50 0 empty empty empty 17 7 0 10 #fcfcfc #000000 #000000;
#X obj 48 84 \$3;
#X obj 48 62 initbang;
#X msg 48 103 label SCN-\$1;
#X obj 171 125 cnv 10 25 10 empty \$0-label SCN-0 3 5 0 8 #000000 #00f8fc 0;
#X obj 148 59 bng 15 250 50 0 empty empty empty 17 7 0 10 #fcfcfc #000000 #000000;
#X obj 166 83 \$3;
#X obj 166 61 initbang;
#X msg 166 102 label .\$1;
#X obj 166 140 s \$0-label-subp;
#X connect 2 0 3 0;
#X connect 3 0 5 0;
#X connect 4 0 3 0;
#X connect 5 0 1 0;
#X connect 7 0 8 0;
#X connect 8 0 10 0;
#X connect 9 0 8 0;
#X connect 10 0 11 0;
#X restore 815 74 pd create-label;
#X obj 820 598 cnv 20 133 80 empty \$0-label-subp .0 20 40 0 64 #e3c6ff #404040 0;
#X connect 9 0 18 0;
#X coords 0 -1 1 1 48 15 2 950 570;
