#N canvas 614 233 867 618 12;
#X declare -path ../;
#X obj 108 468 f;
#X obj 108 207 r \$1-save_preset;
#X obj 353 211 list prepend set;
#X obj 353 236 route list;
#X obj 108 236 t b b;
#X obj 733 471 cnv 10 25 10 empty \$0-label empty 3 5 0 8 -1 -4032
0;
#X obj 728 408 loadbang;
#X obj 728 486 s \$0-label;
#X obj 710 405 bng 15 250 50 0 empty empty empty 17 7 0 10 -262144
-1 -1;
#X msg 728 448 label \$1;
#X obj 728 429 symbol \$3;
#X obj 301 256 t a;
#X obj 754 37 cnv 15 15 15 empty empty CHANGE.GUI 18 7 0 8 -257985
-66577 0;
#X obj 363 517 cnv 15 15 15 empty empty CHANGE.GUI 18 7 0 8 -257985
-66577 0;
#N canvas 54 96 605 300 LOG 0;
#X text 34 172 20/04/2020 - Added route bang \, added remote send,
f 51;
#X text 34 151 25/04/2020 - Added [RSVP.gui."x"] abstractions & reordered
the layout, f 72;
#X restore 34 67 pd LOG;
#X text 41 539 \$1 PresetManager Link \; \$2 Module (name of the instrument)
\; \$3 parameter-(GUI)type, f 36;
#X obj 492 586 outlet;
#X obj 754 576 cnv 15 15 15 empty empty CHANGE.GUI 18 7 0 8 -257985
-66577 0;
#X obj 385 37 cnv 15 15 15 empty empty CHANGE.GUI 18 7 0 8 -257985
-66577 0;
#X obj 151 24 inlet;
#X obj 492 44 t a b b;
#X text 557 164 switches between preset and RT GUI change, f 17;
#X text 140 278 Place FLOAT GUI here:;
#X obj 301 281 tgl 15 0 empty empty empty 17 7 0 10 -258699 -258699
-33289 0 1;
#X obj 151 53 ./RSVP.abs/RSVP.gui.in \$1 \$2 \$3 tgl;
#X obj 108 496 ./RSVP.abs/RSVP.gui.store \$1 \$2 \$3 tgl;
#X obj 492 556 ./RSVP.abs/RSVP.gui.remote \$1 \$2 \$3 tgl;
#X obj 492 15 ./RSVP.abs/RSVP.gui.recall \$1 \$2 \$3 tgl;
#X obj 492 173 i;
#X obj 545 115 pipe;
#X obj 393 87 unpack;
#X obj 301 427 t a a;
#X text 613 103 for "post interp" action connect it to [int], f 24
;
#X text 338 167 booleans the [line]-> for toggle, f 21;
#X obj 361 296 sel 0 1;
#X msg 361 322 color 13 13 42;
#X msg 384 346 color 16 16 42;
#X obj 618 270 declare -path ../;
#X connect 0 0 25 0;
#X connect 1 0 4 0;
#X connect 2 0 3 0;
#X connect 3 0 11 0;
#X connect 4 0 0 0;
#X connect 6 0 10 0;
#X connect 8 0 10 0;
#X connect 9 0 7 0;
#X connect 10 0 9 0;
#X connect 11 0 23 0;
#X connect 19 0 24 0;
#X connect 20 0 28 0;
#X connect 20 0 29 0;
#X connect 23 0 31 0;
#X connect 23 0 34 0;
#X connect 24 0 11 0;
#X connect 24 1 30 0;
#X connect 26 0 16 0;
#X connect 27 0 20 0;
#X connect 27 1 29 1;
#X connect 28 0 2 0;
#X connect 28 0 26 0;
#X connect 28 0 34 0;
#X connect 30 0 28 0;
#X connect 31 0 0 1;
#X connect 31 1 26 0;
#X connect 34 0 35 0;
#X connect 34 1 36 0;
#X connect 35 0 23 0;
#X connect 36 0 23 0;
#X coords 0 -1 1 1 17 17 2 300 280;
