#N canvas 385 200 622 641 10;
#X declare -path ../;
#X declare -path ../sys.modules;
#X obj 100 131 cnv 15 250 28 empty \$0-instruments computer 8 13 0 12 #000000 #dcdcdc 0;
#X obj 100 100 cnv 15 250 28 empty \$0-name-piece AG-V2 8 14 0 16 #000000 #dcdcdc 0;
#X obj 100 162 cnv 15 250 28 empty \$0-dedication-name a_jrsv_&_3PO 8 13 0 12 #000000 #dcdcdc 0;
#X obj 127 455 *~;
#X obj 54 447 *~;
#X obj 69 425 line~;
#X obj 117 558 env~;
#X obj 117 580 - 90;
#X obj 117 600 send VU-MASTER-L;
#X obj 69 403 pack f 20;
#X obj 54 469 hip~ 50;
#X obj 54 490 hip~ 50;
#X obj 127 486 hip~ 50;
#X obj 127 507 hip~ 50;
#X obj 157 529 env~;
#X obj 157 551 - 90;
#X obj 157 571 send VU-MASTER-R;
#X obj 66 73 s to_pd~_subprocess;
#X obj 363 27 cnv 15 70 16 empty empty rev.2018 3 8 0 14 #000000 #dcdcdc 0;
#N canvas 1039 439 450 300 button 0;
#X obj 140 100 tgl 15 0 empty empty Sub-Pd -38 8 0 10 #fc2828 #fc2828 #28f4f4 0 1;
#X obj 229 85 sel 0 1;
#X obj 140 169 outlet;
#X msg 229 111 color 13 13 17;
#X msg 249 135 color 16 16 17;
#X obj 260 56 loadbang;
#X connect 0 0 1 0;
#X connect 0 0 2 0;
#X connect 1 0 3 0;
#X connect 1 1 4 0;
#X connect 3 0 0 0;
#X connect 4 0 0 0;
#X connect 5 0 3 0;
#X coords 0 -1 1 1 55 15 2 100 100;
#X restore 289 107 pd button;
#X obj 371 122 sel 0 1;
#X msg 390 188 \; pd dsp \$1;
#X obj 390 161 1;
#N canvas 725 392 450 300 button 0;
#X obj 100 100 tgl 15 0 empty empty empty 17 7 0 10 #fc2828 #fc2828 #202020 0 1;
#X obj 189 85 sel 0 1;
#X msg 189 111 color 13 13 42;
#X msg 209 135 color 16 16 42;
#X obj 100 140 t a a;
#X obj 165 148 tgl 15 0 empty empty empty 17 7 0 10 #fcfcfc #000000 #000000 0 1;
#X obj 100 11 inlet;
#X obj 117 100 cnv 15 25 15 empty empty L.E. 4 8 0 8 #0400fc #dcdcdc 0;
#X obj 173 20 loadbang;
#X obj 173 41 0;
#X obj 127 181 send stop-preset-GUI-\$2;
#X obj 100 205 send Open_GUI-\$1;
#X connect 0 0 1 0;
#X connect 0 0 4 0;
#X connect 1 0 2 0;
#X connect 1 1 3 0;
#X connect 2 0 0 0;
#X connect 3 0 0 0;
#X connect 4 0 11 0;
#X connect 4 1 10 0;
#X connect 5 0 10 0;
#X connect 6 0 0 0;
#X connect 8 0 9 0;
#X connect 9 0 0 0;
#X coords 0 -1 1 1 43 15 2 100 100;
#X restore 300 137 pd button;
#X floatatom 226 512 5 0 0 0 - - - 0;
#X obj 66 31 r p-number-\$1;
#X obj 329 169 bng 15 250 50 0 empty empty REC.SND/CHCK -90 8 0 12 #fc0400 #f8fc00 #00f8fc;
#X obj 329 317 s record_sound_check_settings;
#X text 56 237 arg1: Name of Piece \; arg2: instrument/s \; arg3: name of player;
#N canvas 291 444 494 324 PieceName-Instruments-Performer 0;
#X msg 30 151 \; \$1-name-piece label \$2;
#X obj 30 106 \$0;
#X obj 30 64 loadbang;
#X obj 30 129 pack f s;
#X obj 75 106 symbol \$1;
#X obj 60 187 \$0;
#X obj 60 212 pack f s;
#X obj 191 147 \$0;
#X obj 191 172 pack f s;
#X obj 236 149 symbol \$2;
#X obj 30 83 t b b b b b b;
#X obj 105 189 symbol \$3;
#X obj 100 60 bng 15 250 50 0 empty empty empty 17 7 0 10 #fcfcfc #000000 #000000;
#X msg 60 234 \; \$1-dedication-name label a_\$2;
#X msg 191 194 \; \$1-instruments label \$2;
#X connect 1 0 3 0;
#X connect 2 0 10 0;
#X connect 3 0 0 0;
#X connect 4 0 3 1;
#X connect 5 0 6 0;
#X connect 6 0 13 0;
#X connect 7 0 8 0;
#X connect 8 0 14 0;
#X connect 9 0 8 1;
#X connect 10 0 1 0;
#X connect 10 1 4 0;
#X connect 10 2 5 0;
#X connect 10 3 11 0;
#X connect 10 4 7 0;
#X connect 10 5 9 0;
#X connect 11 0 6 1;
#X connect 12 0 10 0;
#X restore 52 203 pd PieceName-Instruments-Performer;
#N canvas 778 402 918 609 AudioProcessing 1;
#X obj 177 64 inlet;
#X obj 381 62 inlet;
#X msg 177 84 pd~ stop;
#X obj 55 195 r to_pd~_subprocess;
#X obj 256 70 r audioON-OFF-4-pd~;
#X obj 256 90 sel 1;
#X msg 110 217 pd~ start;
#X text 275 146 master INS from audiocard;
#X text 114 559 last 2 out channels of pd~ are the electronics thrid to last output goes to analisys;
#X obj 432 268 throw~ INSTR_L;
#X obj 472 290 throw~ INSTR_R;
#N canvas 1078 239 840 172 vumetros 0;
#X obj 27 46 env~;
#X obj 27 67 - 90;
#X obj 131 45 env~;
#X obj 131 66 - 90;
#X obj 233 43 env~;
#X obj 233 64 - 90;
#X obj 336 43 env~;
#X obj 336 64 - 90;
#X obj 542 44 env~;
#X obj 542 65 - 90;
#X obj 643 42 env~;
#X obj 643 63 - 90;
#X obj 739 44 env~;
#X obj 739 65 - 90;
#X obj 437 42 env~;
#X obj 437 63 - 90;
#X obj 27 25 inlet~;
#X obj 131 23 inlet~;
#X obj 336 23 inlet~;
#X obj 542 24 inlet~;
#X obj 233 23 inlet~;
#X obj 739 24 inlet~;
#X obj 643 21 inlet~;
#X obj 437 22 inlet~;
#X floatatom 66 88 5 0 0 0 - - - 0;
#X obj 130 86 s \$1-1-vmtr;
#X obj 233 86 s \$1-2-vmtr;
#X obj 336 84 s \$1-3-vmtr;
#X obj 437 85 s \$1-4-vmtr;
#X obj 643 85 s \$1-6-vmtr;
#X obj 542 85 s \$1-5-vmtr;
#X obj 739 86 s \$1-7-vmtr;
#X floatatom 170 63 5 0 0 0 - - - 0;
#X obj 27 110 s MASTER-0-vmtr;
#X floatatom 379 66 5 0 0 0 - - - 0;
#X floatatom 273 65 5 0 0 0 - - - 0;
#X connect 0 0 1 0;
#X connect 1 0 24 0;
#X connect 1 0 33 0;
#X connect 2 0 3 0;
#X connect 2 0 32 0;
#X connect 3 0 25 0;
#X connect 4 0 5 0;
#X connect 4 0 35 0;
#X connect 5 0 26 0;
#X connect 6 0 7 0;
#X connect 6 0 34 0;
#X connect 7 0 27 0;
#X connect 8 0 9 0;
#X connect 9 0 30 0;
#X connect 10 0 11 0;
#X connect 11 0 29 0;
#X connect 12 0 13 0;
#X connect 13 0 31 0;
#X connect 14 0 15 0;
#X connect 15 0 28 0;
#X connect 16 0 0 0;
#X connect 17 0 2 0;
#X connect 18 0 6 0;
#X connect 19 0 8 0;
#X connect 20 0 4 0;
#X connect 21 0 12 0;
#X connect 22 0 10 0;
#X connect 23 0 14 0;
#X restore 559 490 pd vumetros;
#X f 44;
#N canvas 901 164 555 300 open-tilde-~ 0;
#X obj 261 71 symbol;
#X obj 108 210 list append;
#X obj 108 239 route list;
#X obj 294 29 symbol \$1;
#X obj 294 9 loadbang;
#X obj 277 9 bng 15 250 50 0 empty empty empty 17 7 0 10 #fcfcfc #000000 #000000;
#X obj 108 264 outlet;
#X obj 108 19 inlet;
#X msg 108 132 pd~ start;
#X obj 216 176 pdcontrol;
#X obj 218 245 print DIR;
#X msg 216 144 dir 1;
#X obj 216 197 pack s s;
#X obj 108 43 t b b b;
#X msg 216 223 \$1/\$2;
#X obj 294 49 makefilename RSVP.frmwrk.audio~.pd;
#X obj 261 102 t b a;
#X connect 0 0 16 0;
#X connect 1 0 2 0;
#X connect 2 0 6 0;
#X connect 3 0 15 0;
#X connect 4 0 3 0;
#X connect 5 0 3 0;
#X connect 5 0 0 0;
#X connect 7 0 13 0;
#X connect 8 0 1 0;
#X connect 9 0 12 0;
#X connect 11 0 9 0;
#X connect 12 0 14 0;
#X connect 13 0 8 0;
#X connect 13 2 0 0;
#X connect 14 0 10 0;
#X connect 14 0 1 1;
#X connect 15 0 0 1;
#X connect 16 0 11 0;
#X connect 16 1 12 1;
#X restore 381 101 pd open-tilde-~;
#X obj 439 73 bng 15 250 50 0 empty empty empty 17 7 0 10 #fcfcfc #000000 #000000;
#X obj 234 30 bng 15 250 50 0 empty empty empty 17 7 0 10 #fcfcfc #000000 #000000;
#X obj 58 294 env~;
#X obj 58 317 nbx 5 14 -1e+37 1e+37 0 0 empty empty empty 0 -8 0 10 #fcfcfc #000000 #000000 0 256;
#X text 524 269 <- direct_out to P.A.;
#X text 562 288 <- direct_out to P.A.;
#X obj 277 164 post_matrix_adc~ MASTER, f 46;
#X obj 511 186 throw~ extra_for_development_1;
#X obj 550 208 throw~ extra_for_development_2;
#X obj 663 23 declare -path ../;
#X obj 127 354 s \$1-out-pd~;
#X obj 292 449 outlet~ master_L;
#X obj 305 479 outlet~ master_R;
#X obj 318 509 outlet~ analysis;
#X obj 663 44 declare -path ../sys.modules;
#X obj 333 366 RSVP.vumtrs \$1 MTRX;
#X obj 443 396 RSVP.vumtrs \$1 MSUB;
#X obj 449 431 env~;
#X obj 449 454 nbx 5 14 -1e+37 1e+37 0 0 empty empty empty 0 -8 0 10 #fcfcfc #000000 #000000 0 256;
#X obj 221 383 print;
#N canvas 1154 620 555 381 open-NOGUI~ 0;
#X msg 108 132 pd~ start -nogui;
#X obj 261 71 symbol;
#X obj 108 210 list append;
#X obj 108 239 route list;
#X obj 294 29 symbol \$1;
#X obj 294 9 loadbang;
#X obj 277 9 bng 15 250 50 0 empty empty empty 17 7 0 10 #fcfcfc #000000 #000000;
#X obj 108 264 outlet;
#X obj 108 19 inlet;
#X obj 216 176 pdcontrol;
#X obj 218 245 print DIR;
#X msg 216 144 dir 1;
#X obj 216 197 pack s s;
#X obj 108 43 t b b b;
#X msg 216 223 \$1/\$2;
#X obj 294 49 makefilename RSVP.frmwrk.audio~.pd;
#X obj 261 102 t b a;
#X obj 171 18 bng 15 250 50 0 empty empty empty 17 7 0 10 #fcfcfc #000000 #000000;
#X connect 0 0 2 0;
#X connect 1 0 16 0;
#X connect 2 0 3 0;
#X connect 3 0 7 0;
#X connect 4 0 15 0;
#X connect 5 0 4 0;
#X connect 6 0 4 0;
#X connect 6 0 1 0;
#X connect 8 0 13 0;
#X connect 9 0 12 0;
#X connect 11 0 9 0;
#X connect 12 0 14 0;
#X connect 13 0 0 0;
#X connect 13 2 1 0;
#X connect 14 0 10 0;
#X connect 14 0 2 1;
#X connect 15 0 1 1;
#X connect 16 0 11 0;
#X connect 16 1 12 1;
#X connect 17 0 13 0;
#X restore 256 111 pd open-NOGUI~;
#X obj 278 314 pd~ -ninsig 6 -noutsig 20 -fifo 10, f 46;
#X connect 0 0 2 0;
#X connect 1 0 12 0;
#X connect 2 0 34 0;
#X connect 3 0 34 0;
#X connect 4 0 5 0;
#X connect 5 0 33 0;
#X connect 6 0 34 0;
#X connect 12 0 34 0;
#X connect 13 0 12 0;
#X connect 15 0 16 0;
#X connect 19 0 34 0;
#X connect 19 1 34 1;
#X connect 19 2 34 2;
#X connect 19 3 34 3;
#X connect 19 4 9 0;
#X connect 19 5 10 0;
#X connect 19 6 20 0;
#X connect 19 7 21 0;
#X connect 30 0 31 0;
#X connect 33 0 34 0;
#X connect 34 0 23 0;
#X connect 34 1 24 0;
#X connect 34 2 25 0;
#X connect 34 3 26 0;
#X connect 34 4 28 0;
#X connect 34 5 28 1;
#X connect 34 6 28 2;
#X connect 34 7 28 3;
#X connect 34 8 28 4;
#X connect 34 9 28 5;
#X connect 34 10 28 6;
#X connect 34 11 28 7;
#X connect 34 12 28 8;
#X connect 34 13 29 1;
#X connect 34 14 29 2;
#X connect 34 15 29 3;
#X connect 34 16 29 4;
#X connect 34 17 29 5;
#X connect 34 18 29 6;
#X connect 34 19 29 7;
#X connect 34 20 29 8;
#X restore 371 223 pd AudioProcessing;
#X obj 424 274 throw~ L.ELE_R;
#X obj 370 251 throw~ L.ELE_L;
#X obj 69 381 r \$1_Master_vol;
#X obj 508 325 cnv 10 10 10 empty empty empty 20 12 0 14 #0400fc #404040 0;
#X obj 54 355 catch~ to_DAC_1;
#X obj 127 425 catch~ to_DAC_2;
#X obj 53 597 dac~ 1 2;
#X obj 456 455 *~;
#X obj 383 447 *~;
#X obj 398 425 line~;
#X obj 398 403 pack f 20;
#X obj 383 469 hip~ 50;
#X obj 383 490 hip~ 50;
#X obj 456 486 hip~ 50;
#X obj 456 507 hip~ 50;
#X obj 398 381 r \$1_Master_vol;
#X obj 383 355 catch~ to_DAC_3;
#X obj 456 425 catch~ to_DAC_4;
#X text 351 574 change these according to your device;
#X obj 382 550 dac~ 5 6;
#X obj 475 296 s~ to_analysis-\$1;
#X floatatom 216 472 5 0 0 0 - - - 0;
#X obj 551 43 env~;
#X floatatom 551 81 5 0 0 0 - - - 0;
#X obj 66 52 sys.comunication/message-to-pd~ current-patch to_all_audio;
#X connect 3 0 12 0;
#X connect 4 0 10 0;
#X connect 5 0 4 1;
#X connect 5 0 3 1;
#X connect 6 0 7 0;
#X connect 7 0 8 0;
#X connect 9 0 5 0;
#X connect 10 0 11 0;
#X connect 11 0 6 0;
#X connect 11 0 37 0;
#X connect 12 0 13 0;
#X connect 13 0 14 0;
#X connect 13 0 37 1;
#X connect 14 0 15 0;
#X connect 14 0 24 0;
#X connect 15 0 16 0;
#X connect 19 0 20 0;
#X connect 20 0 30 0;
#X connect 20 1 22 0;
#X connect 20 1 30 1;
#X connect 22 0 21 0;
#X connect 25 0 55 0;
#X connect 26 0 27 0;
#X connect 30 0 32 0;
#X connect 30 1 31 0;
#X connect 30 2 51 0;
#X connect 33 0 9 0;
#X connect 33 0 52 0;
#X connect 35 0 4 0;
#X connect 36 0 3 0;
#X connect 38 0 44 0;
#X connect 39 0 42 0;
#X connect 40 0 39 1;
#X connect 40 0 38 1;
#X connect 41 0 40 0;
#X connect 42 0 43 0;
#X connect 43 0 50 0;
#X connect 44 0 45 0;
#X connect 45 0 50 1;
#X connect 46 0 41 0;
#X connect 47 0 39 0;
#X connect 48 0 38 0;
#X connect 53 0 54 0;
#X connect 55 0 17 0;
#X coords 0 -1 1 1 250 90 2 100 100;
