#N canvas 557 164 755 567 10;
#X obj 100 100 cnv 15 155 195 empty empty empty 20 12 0 14 -1 -66577
0;
#X obj 105 105 cnv 15 145 185 empty change-color empty 20 12 0 14 -44926
-99865 0;
#X obj 200 215 tgl 38 0 empty empty empty 2 20 0 10 -204800 -1 -1 0
1;
#X obj 192 256 nbx 5 14 -1e+37 1e+37 0 0 empty empty CPU 32 8 0 10
-258113 -262144 -204800 12 256;
#X obj 270 459 cputime;
#X obj 270 437 t b b;
#X obj 271 499 * 0.1;
#X obj 270 479 int;
#X msg 309 308 \; pd dsp \$1;
#X msg 270 395 1;
#X obj 270 368 sel 1 0;
#X obj 209 164 bng 20 250 50 0 resetRecCount empty reset.rec -11 27
0 8 -159808 -4034 -1;
#X obj 270 285 t a a a;
#X obj 289 344 send audioON-OFF-4-pd~;
#X msg 500 422 \; change-color color 10 0 21;
#X obj 524 312 loadbang;
#X obj 481 136 r back-from-pd~;
#X obj 133 123 vsl 35 160 0 127 0 0 empty empty MASTER 0 -9 0 10 -4160
-257985 -1 13500 1;
#X obj 115 124 vu 8 160 VU-MASTER-L empty -1 -8 0 10 -66577 -1 0 0
;
#X obj 178 123 vu 8 160 VU-MASTER-R empty -1 -8 0 10 -66577 -1 0 0
;
#N canvas 101 538 450 300 button 0;
#X obj 100 100 tgl 25 0 empty empty empty 17 7 0 10 -258699 -258699
-33289 0 1;
#X obj 189 85 sel 0 1;
#X msg 189 111 color 13 13 42;
#X msg 209 135 color 16 16 42;
#X obj 100 169 send record-out-ON/OFF;
#X obj 98 56 inlet;
#X connect 0 0 1 0;
#X connect 0 0 4 0;
#X connect 1 0 2 0;
#X connect 1 1 3 0;
#X connect 2 0 0 0;
#X connect 3 0 0 0;
#X connect 5 0 0 0;
#X coords 0 -1 1 1 25 25 2 100 100;
#X restore 207 132 pd button;
#X obj 207 115 cnv 15 25 15 empty empty REC 2 8 0 11 -1 -4034 0;
#X obj 197 197 cnv 15 45 15 empty empty ON/OFF 2 8 0 11 -1 -4034 0
;
#X floatatom 540 345 5 0 0 0 - - -;
#X msg 481 386 \; change-color color 17 0 21;
#X obj 249 375 bng 15 250 50 0 empty empty empty 17 7 0 10 -262144
-1 -1;
#X obj 270 417 metro 1000;
#X obj 133 383 s \$1_Master_vol;
#X text 71 54 argument: TITLE of piece (same as the one in 00_Master-Audio)
, f 61;
#X obj 481 239 sel 1 0;
#X obj 508 188 r pd;
#X obj 508 212 route dsp;
#X obj 133 319 / 127;
#X obj 291 83 r /RSVP/MASTER/VOL-vsl;
#X obj 290 106 r /RSVP/MASTER/DAC-tgl;
#X obj 294 132 r /RSVP/MASTER/REC-tgl;
#X obj 296 162 r /RSVP/MASTER/REC.RST-bng;
#X obj 303 195 sel 1;
#X obj 481 162 route DSP-connected DSP-CPU-METER;
#X obj 192 273 nbx 5 14 -1e+37 1e+37 0 0 empty empty CPU 32 8 0 10
-258113 -262144 -204800 47 256;
#X connect 2 0 12 0;
#X connect 4 0 7 0;
#X connect 5 0 4 0;
#X connect 5 1 4 1;
#X connect 6 0 3 0;
#X connect 7 0 6 0;
#X connect 9 0 26 0;
#X connect 10 0 9 0;
#X connect 10 1 9 0;
#X connect 12 0 10 0;
#X connect 12 1 13 0;
#X connect 12 2 8 0;
#X connect 15 0 14 0;
#X connect 16 0 38 0;
#X connect 17 0 32 0;
#X connect 23 0 24 0;
#X connect 26 0 5 0;
#X connect 29 0 24 0;
#X connect 29 1 14 0;
#X connect 30 0 31 0;
#X connect 31 0 29 0;
#X connect 32 0 27 0;
#X connect 33 0 17 0;
#X connect 34 0 2 0;
#X connect 35 0 20 0;
#X connect 36 0 37 0;
#X connect 37 0 11 0;
#X connect 38 0 29 0;
#X connect 38 1 39 0;
#X connect 38 1 5 0;
#X coords 0 -1 1 1 155 195 2 100 100;
