#N canvas 980 133 736 676 10;
#X declare -path RSVP;
#X declare -path ../sys.comunication/;
#X obj 100 100 cnv 15 85 195 empty empty empty 20 12 0 14 -1 -66577
0;
#X obj 105 105 cnv 15 75 185 empty empty \$3 15 8 0 10 -228856 -1 0
;
#X obj 114 124 vu 8 160 VU-\$1-\$2-\$3 empty -1 -8 0 10 -66577 -1 0
0;
#X obj 223 407 *~;
#X obj 95 412 *~;
#X obj 184 339 line~;
#X obj 26 459 env~;
#X obj 26 481 - 90;
#X obj 255 39 sel 0 1;
#X msg 312 130 start;
#X msg 255 101 stop;
#X obj 334 71 t b b b;
#X obj 416 102 f;
#X obj 446 103 + 1;
#X msg 431 76 1;
#X obj 416 150 pr.pnd open;
#X obj 353 175 list;
#X obj 353 196 route list;
#X obj 315 509 writesf~ 2;
#X obj 255 16 r record-out-ON/OFF;
#X obj 431 23 r resetRecCount;
#X obj 410 430 *~;
#X obj 425 324 pack f 20;
#X obj 425 345 line~;
#X obj 541 427 *~;
#X obj 410 478 throw~ to_master_verb_L;
#X obj 541 456 throw~ to_master_verb_R;
#X obj 502 237 declare -path RSVP;
#X obj 416 127 makefilename \$1-%d.wav;
#X obj 184 319 pack f 20;
#X obj 87 350 env~;
#X floatatom 87 373 5 0 0 0 - - -;
#X text 212 165 RVRB;
#X text 209 147 SEND;
#X obj 95 316 catch~ \$3_L;
#X obj 238 331 catch~ \$3_R;
#X obj 26 515 send VU-\$1-\$2-\$3;
#X obj 125 585 *~;
#X obj 139 562 line~;
#X obj 139 541 pack f 20;
#X obj 161 589 *~;
#X obj 125 612 throw~ to_DAC_1;
#X obj 161 640 throw~ to_DAC_2;
#X obj 352 626 throw~ to_DAC_3;
#X obj 388 650 throw~ to_DAC_4;
#X obj 352 600 *~;
#X obj 366 577 line~;
#X obj 366 556 pack f 20;
#X obj 388 604 *~;
#X obj 158 110 cnv 10 17 10 empty \$0-label 1-2 2 5 0 8 -1 -4032 0
;
#X obj 158 139 cnv 10 17 10 empty \$0-label 3-4 2 5 0 8 -1 -4032 0
;
#X obj 222 225 sel 0 1;
#X obj 222 253 1;
#X obj 247 253 0;
#X obj 56 629 env~;
#X floatatom 56 652 5 0 0 0 - - -;
#X obj 160 199 ./customGUI/vsl-main-srvrb \$1 \$2 \$3-svrb;
#X obj 425 299 / 127;
#X obj 184 299 / 127;
#X obj 158 121 ./customGUI/tgl-but_pre \$1 \$2 \$3-DAC;
#X obj 126 123 ./customGUI/vsl-main-vol \$1 \$2 \$3;
#X obj 499 260 declare -path ../sys.comunication/;
#X connect 3 0 6 0;
#X connect 3 0 40 1;
#X connect 3 0 48 1;
#X connect 3 0 18 1;
#X connect 4 0 6 0;
#X connect 4 0 37 0;
#X connect 4 0 45 0;
#X connect 4 0 18 0;
#X connect 5 0 4 1;
#X connect 5 0 3 0;
#X connect 6 0 7 0;
#X connect 7 0 36 0;
#X connect 8 0 10 0;
#X connect 8 1 11 0;
#X connect 9 0 18 0;
#X connect 10 0 18 0;
#X connect 11 0 9 0;
#X connect 11 1 16 0;
#X connect 11 2 12 0;
#X connect 12 0 13 0;
#X connect 12 0 28 0;
#X connect 13 0 12 1;
#X connect 14 0 12 1;
#X connect 15 0 16 1;
#X connect 16 0 17 0;
#X connect 17 0 18 0;
#X connect 19 0 8 0;
#X connect 20 0 14 0;
#X connect 21 0 25 0;
#X connect 22 0 23 0;
#X connect 23 0 21 1;
#X connect 23 0 24 1;
#X connect 24 0 26 0;
#X connect 28 0 15 0;
#X connect 29 0 5 0;
#X connect 30 0 31 0;
#X connect 34 0 4 0;
#X connect 34 0 21 0;
#X connect 34 0 30 0;
#X connect 35 0 24 0;
#X connect 35 0 3 1;
#X connect 37 0 54 0;
#X connect 37 0 41 0;
#X connect 38 0 37 1;
#X connect 38 0 40 0;
#X connect 39 0 38 0;
#X connect 40 0 54 0;
#X connect 40 0 42 0;
#X connect 45 0 43 0;
#X connect 46 0 45 1;
#X connect 46 0 48 0;
#X connect 47 0 46 0;
#X connect 48 0 44 0;
#X connect 51 0 52 0;
#X connect 51 1 53 0;
#X connect 52 0 39 0;
#X connect 53 0 39 0;
#X connect 54 0 55 0;
#X connect 56 0 57 0;
#X connect 57 0 22 0;
#X connect 58 0 29 0;
#X connect 59 0 51 0;
#X connect 59 0 47 0;
#X connect 60 0 58 0;
#X coords 0 -1 1 1 85 195 2 100 100;
