#N canvas 137 36 636 480 10;
#X declare -stdpath cyclone;
#X declare -path ../sys.comunication/;
#X obj 100 147 cnv 15 250 110 empty empty empty 75 12 0 14 #000000 #000000 0;
#X obj 105 152 cnv 15 240 100 empty empty CUES 200 13 0 14 #e0e0e0 #000000 0;
#X obj 220 2 loadbang;
#X obj 47 122 int;
#X obj 16 224 + 1;
#X obj 114 226 nbx 2 18 1 1000 0 0 empty empty empty 40 7 0 20 #606060 #c4fcc4 #00f8fc 0 256;
#X msg 220 46 1;
#X obj 116 180 nbx 2 35 0 99 0 0 empty empty empty 50 12 0 24 #f8fc00 #0400fc #000000 0 256;
#X obj 251 22 r reset;
#X msg 251 46 0;
#X obj 290 180 bng 30 250 50 0 reset empty reset 0 15 0 10 #7c7c7c #00fc04 #f8fc00;
#X obj 47 79 spigot;
#X obj 245 180 tgl 30 0 on-pedal-\$1 empty P/ON 3 15 0 10 #7c7c7c #00fc04 #00f8fc 0 127;
#X obj 47 24 key;
#X obj 114 101 delay 300;
#X obj 16 255 ctlout 11;
#X obj 392 419 declare -stdpath cyclone;
#X floatatom 355 295 5 0 0 0 - - - 0;
#N canvas 67 96 450 300 onebang 0;
#X obj 58 65 inlet;
#X obj 58 251 outlet;
#X msg 262 92 1;
#X msg 230 93 0;
#X obj 262 53 inlet reset;
#X obj 200 133 int 1;
#X obj 58 94 trigger anything bang;
#X obj 58 202 trigger anything bang;
#X obj 326 75 loadbang;
#X obj 58 176 spigot 1;
#X connect 0 0 6 0;
#X connect 2 0 5 1;
#X connect 3 0 5 1;
#X connect 4 0 2 0;
#X connect 5 0 9 1;
#X connect 6 0 9 0;
#X connect 6 1 5 0;
#X connect 7 0 1 0;
#X connect 7 1 3 0;
#X connect 8 0 2 0;
#X connect 9 0 7 0;
#X restore 47 101 pd onebang;
#X obj 32 423 s PEDAL-NOW;
#X msg 32 398 label \$1;
#X obj 32 373 tosymbol;
#N canvas 127 457 777 568 button 0;
#X obj 100 100 tgl 20 0 empty empty empty 17 7 0 10 #fc2828 #fc2828 #202020 0 1;
#X obj 189 85 sel 0 1;
#X msg 189 111 color 13 13 42;
#X msg 209 135 color 16 16 42;
#X msg 100 179 \; pd-Pedal-DISP vis \$1;
#N canvas 236 706 627 275 Pedal-DISP 0;
#X obj 11 7 cnv 15 600 250 empty empty empty 20 12 0 14 #0400fc #404040 0;
#X obj 16 12 cnv 15 590 240 empty empty PEDAL 5 80 0 120 #f8fc00 #0400fc 0;
#X obj 397 32 cnv 15 200 200 empty PEDAL-NOW 2 10 90 0 148 #0400fc #f8fc00 0;
#X obj 29 165 hsl 350 65 0 300 0 0 empty \$1-section-BAR empty -2 -8 0 10 #3c50fc #fcfcfc #000000 0 1;
#X coords 0 275 1 274 85 60 0;
#X restore 98 233 pd Pedal-DISP;
#X connect 0 0 1 0;
#X connect 0 0 4 0;
#X connect 1 0 2 0;
#X connect 1 1 3 0;
#X connect 2 0 0 0;
#X connect 3 0 0 0;
#X coords 0 -1 1 1 20 20 2 100 100;
#X restore 316 222 pd button;
#X obj 215 222 cnv 15 100 20 empty empty PEDAL/DISPLAY 5 11 0 12 #0400fc #dcdcdc 0;
#X obj 222 274 - 1;
#X obj 207 298 int;
#X obj 355 325 message-to-pd~ current-patch to_all_audio;
#X obj 355 360 s to_pd~_subprocess;
#X obj 383 100 r back-from-pd~;
#X obj 383 120 route DSP-connected;
#X obj 383 141 sel 1;
#X obj 169 229 cnv 10 27 13 empty empty NEXT 2 7 0 10 #000000 #dcdcdc 0;
#X obj 116 165 cnv 10 110 13 empty empty CURRENT.PEDAL 2 7 0 13 #00fc04 #0400fc 0;
#X obj 350 39 stripnote;
#X obj 350 64 bng 15 250 50 0 empty empty empty 17 7 0 10 #fcfcfc #000000 #000000;
#X obj 116 416 outlet;
#X obj 112 33 r on-pedal-\$1;
#X obj 47 54 sel 112;
#X obj 392 397 declare -path ../sys.comunication/;
#X obj 365 233 s RESET-PIECE-\$1;
#X obj 139 383 s remote-PRST-change-\$1;
#X msg 139 357 recall \$1;
#X obj 350 15 notein;
#X obj 365 210 del 500;
#X obj 383 162 del 500;
#X obj 177 332 s CURRENT-PATCH-NUMBER-\$1;
#X connect 2 0 6 0;
#X connect 2 0 18 1;
#X connect 3 0 7 0;
#X connect 4 0 5 0;
#X connect 4 0 15 0;
#X connect 5 0 3 1;
#X connect 6 0 5 0;
#X connect 7 0 4 0;
#X connect 7 0 24 0;
#X connect 7 0 21 0;
#X connect 7 0 35 0;
#X connect 7 0 41 0;
#X connect 7 0 45 0;
#X connect 8 0 6 0;
#X connect 8 0 9 0;
#X connect 9 0 7 0;
#X connect 10 0 43 0;
#X connect 11 0 18 0;
#X connect 13 0 37 0;
#X connect 14 0 18 1;
#X connect 17 0 26 0;
#X connect 18 0 3 0;
#X connect 18 0 14 0;
#X connect 20 0 19 0;
#X connect 21 0 20 0;
#X connect 24 0 25 1;
#X connect 25 0 7 0;
#X connect 26 0 27 0;
#X connect 28 0 29 0;
#X connect 29 0 30 0;
#X connect 30 0 44 0;
#X connect 33 0 34 0;
#X connect 34 0 11 0;
#X connect 36 0 11 1;
#X connect 37 0 11 0;
#X connect 41 0 40 0;
#X connect 42 0 33 0;
#X connect 42 1 33 1;
#X connect 43 0 39 0;
#X connect 44 0 10 0;
#X coords 0 -1 1 1 250 110 2 100 147;
