#N canvas 1283 575 488 300 12;
#X obj 172 80 adc~ 1 2 3 4 5 6 7 8, f 21;
#X obj 139 202 outlet~;
#X obj 167 179 outlet~;
#X obj 196 202 outlet~;
#X obj 224 179 outlet~;
#X obj 252 202 outlet~;
#X obj 281 179 outlet~;
#X obj 138 22 r \$1-connections-in-mixer-MTRX;
#X obj 408 112 env~;
#X floatatom 408 137 5 0 0 0 - - -;
#X obj 374 44 r~ fplayer;
#X obj 138 142 mtx_mul~ 8 8 50, f 29;
#X obj 308 202 outlet~;
#X obj 337 179 outlet~;
#X obj 82 213 env~;
#X floatatom 82 238 5 0 0 0 - - -;
#X connect 0 0 11 1;
#X connect 0 1 11 2;
#X connect 0 2 11 3;
#X connect 0 3 11 4;
#X connect 0 4 11 5;
#X connect 0 5 11 6;
#X connect 0 6 11 7;
#X connect 0 7 11 8;
#X connect 7 0 11 0;
#X connect 8 0 9 0;
#X connect 10 0 11 1;
#X connect 10 0 11 2;
#X connect 10 0 8 0;
#X connect 11 0 1 0;
#X connect 11 0 14 0;
#X connect 11 1 2 0;
#X connect 11 2 3 0;
#X connect 11 3 4 0;
#X connect 11 4 5 0;
#X connect 11 5 6 0;
#X connect 11 6 12 0;
#X connect 11 7 13 0;
#X connect 14 0 15 0;
