#N canvas 495 422 490 346 10;
#X declare -stdpath moonlib;
#X text 282 60 pedal number;
#X obj 128 193 1;
#X obj 186 86 stripfilename 6;
#X obj 186 106 s2f;
#X obj 186 67 canvasargs 1;
#X obj 128 42 t a b;
#X obj 128 146 sel;
#X text 124 302 arg: pedal number is extracted from the name of the
abstraction with canvasargs;
#X obj 128 277 send;
#X obj 128 84 t a b;
#X msg 214 179 TURN-ON-PEDAL-\$1;
#X obj 171 146 i;
#X obj 214 203 list prepend symbol;
#X obj 214 224 route list;
#X obj 169 181 bang;
#X obj 169 214 0;
#X obj 247 125 declare -stdpath moonlib;
#X obj 128 14 inlet;
#X connect 1 0 8 0;
#X connect 2 0 3 0;
#X connect 3 0 6 1;
#X connect 3 0 11 1;
#X connect 4 0 2 0;
#X connect 5 0 9 0;
#X connect 5 1 4 0;
#X connect 6 0 1 0;
#X connect 6 1 14 0;
#X connect 9 0 6 0;
#X connect 9 1 11 0;
#X connect 10 0 12 0;
#X connect 11 0 10 0;
#X connect 12 0 13 0;
#X connect 13 0 8 1;
#X connect 14 0 15 0;
#X connect 15 0 8 0;
#X connect 17 0 5 0;
