#N canvas 99 137 950 634 12;
#X obj 27 46 env~;
#X obj 27 67 - 90;
#X obj 131 45 env~;
#X obj 131 66 - 90;
#X obj 187 151 env~;
#X obj 187 172 - 90;
#X obj 243 263 env~;
#X obj 243 284 - 90;
#X obj 355 153 env~;
#X obj 355 174 - 90;
#X obj 411 261 env~;
#X obj 411 282 - 90;
#X obj 467 43 env~;
#X obj 467 64 - 90;
#X obj 299 43 env~;
#X obj 299 64 - 90;
#X obj 27 25 inlet~;
#X obj 131 23 inlet~;
#X obj 243 23 inlet~;
#X obj 355 23 inlet~;
#X obj 187 23 inlet~;
#X obj 467 23 inlet~;
#X obj 411 23 inlet~;
#X obj 299 23 inlet~;
#X floatatom 66 88 5 0 0 0 - - -;
#X floatatom 170 63 5 0 0 0 - - -;
#X floatatom 286 286 5 0 0 0 - - -;
#X floatatom 227 173 5 0 0 0 - - -;
#X obj 130 86 s \$1-\$2-1-vmtr;
#X obj 187 194 s \$1-\$2-2-vmtr;
#X obj 243 304 s \$1-\$2-3-vmtr;
#X obj 299 86 s \$1-\$2-4-vmtr;
#X obj 355 194 s \$1-\$2-5-vmtr;
#X obj 411 304 s \$1-\$2-6-vmtr;
#X obj 467 85 s \$1-\$2-7-vmtr;
#X obj 523 143 env~;
#X obj 523 164 - 90;
#X obj 523 23 inlet~;
#X obj 523 185 s \$1-\$2-8-vmtr;
#X obj 27 110 s MASTER-\$2-0-vmtr;
#X floatatom 574 153 5 0 0 0 - - -;
#X connect 0 0 1 0;
#X connect 1 0 24 0;
#X connect 1 0 39 0;
#X connect 2 0 3 0;
#X connect 2 0 25 0;
#X connect 3 0 28 0;
#X connect 4 0 5 0;
#X connect 4 0 27 0;
#X connect 5 0 29 0;
#X connect 6 0 7 0;
#X connect 6 0 26 0;
#X connect 7 0 30 0;
#X connect 8 0 9 0;
#X connect 9 0 32 0;
#X connect 10 0 11 0;
#X connect 11 0 33 0;
#X connect 12 0 13 0;
#X connect 13 0 34 0;
#X connect 14 0 15 0;
#X connect 15 0 31 0;
#X connect 16 0 0 0;
#X connect 17 0 2 0;
#X connect 18 0 6 0;
#X connect 19 0 8 0;
#X connect 20 0 4 0;
#X connect 21 0 12 0;
#X connect 22 0 10 0;
#X connect 23 0 14 0;
#X connect 35 0 36 0;
#X connect 36 0 38 0;
#X connect 36 0 40 0;
#X connect 37 0 35 0;
