#N canvas 1123 347 674 658 10;
#X declare -path ./osc_vanilla.module;
#X obj 6 8 inlet;
#X obj 6 28 sendcanvas;
#X text 56 81 oReceive-help;
#X obj 72 104 tgl 15 0 empty empty empty 17 7 0 10 -262144 -1 -1 0
1;
#N canvas 570 152 583 472 randomizer 0;
#X obj 9 10 inlet;
#X obj 9 44 tgl 15 0 empty empty empty 17 7 0 10 -262144 -1 -1 0 1
;
#X obj 12 285 outlet;
#X obj 10 101 random 1e+06;
#X obj 11 192 /;
#X obj 28 164 random 1e+06;
#X obj 11 133 t a b b;
#X obj 139 78 text define tester;
#X obj 137 118 text size tester;
#X obj 137 143 t b f;
#X obj 138 173 random;
#X obj 138 200 text get tester;
#X obj 10 73 metro 500;
#X obj 105 290 print;
#X obj 11 229 list prepend /test;
#X connect 0 0 1 0;
#X connect 1 0 12 0;
#X connect 3 0 6 0;
#X connect 4 0 14 0;
#X connect 5 0 4 1;
#X connect 6 0 4 0;
#X connect 6 1 5 0;
#X connect 6 2 8 0;
#X connect 8 0 9 0;
#X connect 9 0 10 0;
#X connect 9 1 10 1;
#X connect 10 0 11 0;
#X connect 12 0 3 0;
#X connect 14 0 2 0;
#X restore 72 126 pd randomizer;
#X text 165 320 «- SEND PORT NUMBER IN MOBMUPLAT;
#X text 304 121 «- RECIEVE PORT & IP NUMBER IN MOBMUPLAT;
#X obj 75 414 t b a;
#X obj 75 525 send, f 10;
#X obj 75 362 list split 1;
#X obj 75 471 l;
#X msg 194 122 172.20.10.5 54322;
#X msg 214 146 224.0.0.1 54322;
#X msg 221 170 10.42.0.176 54322;
#X obj 75 320 oReceive 54321;
#X obj 411 492 r /MASTER/O-VOL/L.ELE-vsl;
#X obj 184 502 spigot;
#X obj 245 487 tgl 15 0 empty empty verbose.dbug 17 7 0 10 -262144
-1 -1 0 1;
#X obj 167 524 spigot;
#X msg 189 95 localhost 3333;
#X obj 416 542 s /MASTER/O-VOL/L.ELE-vsl;
#X obj 393 453 oSend 10.42.0.176 54322;
#X obj 393 349 r RSVP.GUI-to-OSC;
#X obj 407 402 spigot;
#X obj 440 375 tgl 15 0 empty empty verbose.dbug 17 7 0 10 -262144
-1 -1 0 1;
#X obj 167 544 print -DEBg.OSC-IN;
#X obj 407 425 print -DEBg.OSC-OUT;
#X obj 72 165 oSend localhost 3333;
#X obj 187 24 declare -path ./osc_vanilla.module;
#X connect 0 0 1 0;
#X connect 3 0 4 0;
#X connect 4 0 27 0;
#X connect 7 0 10 0;
#X connect 7 1 8 1;
#X connect 7 1 18 0;
#X connect 9 0 7 0;
#X connect 9 1 10 1;
#X connect 10 0 8 0;
#X connect 10 0 16 0;
#X connect 11 0 27 1;
#X connect 12 0 27 1;
#X connect 13 0 27 1;
#X connect 14 0 9 0;
#X connect 16 0 25 0;
#X connect 17 0 16 1;
#X connect 17 0 18 1;
#X connect 18 0 25 0;
#X connect 19 0 27 1;
#X connect 22 0 23 0;
#X connect 22 0 21 0;
#X connect 23 0 26 0;
#X connect 24 0 23 1;
