#N canvas 54 96 848 469 12;
#X obj 59 402 outlet;
#X obj 59 327 route list;
#X obj 59 258 route list;
#X obj 59 158 list prepend symbol;
#X obj 330 10 r \$1-PRECALL;
#X obj 362 395 outlet;
#X text 503 307 reads Interpolation Time;
#X text 172 325 reads preset value;
#X obj 362 291 route list;
#X obj 362 222 route list;
#X obj 362 154 list prepend symbol;
#X obj 362 132 makefilename \$1-INT.TIME;
#X obj 362 314 route \$1-INT.TIME;
#X obj 223 156 cnv 15 15 15 empty empty CHANGE.GUI 18 7 0 8 -257985
-66577 0;
#X obj 173 369 cnv 15 15 15 empty empty CHANGE.GUI 18 7 0 8 -257985
-66577 0;
#X text 456 47 \$1 is name of "PresetManager" on control;
#X obj 362 245 text search \$1-loaded-preset;
#X obj 362 268 text get \$1-loaded-preset;
#X obj 330 37 t b b;
#X obj 59 281 text search \$1-loaded-preset;
#X obj 59 304 text get \$1-loaded-preset;
#X obj 59 136 makefilename \$1/\$2/\$3-\$4;
#X obj 59 350 route \$1/\$2/\$3-\$4;
#X obj 219 431 route post-int;
#X text 325 431 PRE or POST line interpolation action;
#X connect 1 0 22 0;
#X connect 2 0 19 0;
#X connect 3 0 2 0;
#X connect 4 0 18 0;
#X connect 8 0 12 0;
#X connect 9 0 16 0;
#X connect 10 0 9 0;
#X connect 11 0 10 0;
#X connect 12 0 5 0;
#X connect 16 0 17 0;
#X connect 17 0 8 0;
#X connect 18 0 21 0;
#X connect 18 1 11 0;
#X connect 19 0 20 0;
#X connect 20 0 1 0;
#X connect 21 0 3 0;
#X connect 22 0 0 0;
#X connect 22 0 23 0;
