#N canvas 312 187 649 295 12;
#X text 418 119 change from outside;
#X obj 40 31 inlet;
#X text 61 62 receive values remotely;
#X obj 445 101 pack f 0;
#X obj 40 106 bang;
#X text 35 231 handles input stream into a RSVP gui. It inherits \$1 \$2 \$3 from parent patch and \$4 is gui type (eg. vsl \, tgl \, bng \, etc);
#X obj 40 200 outlet direct to gui;
#X obj 445 156 outlet interpolation line;
#X obj 40 81 route bang set;
#X msg 87 149 set \$1;
#X obj 214 26 r /\$1/\$2/\$3-\$4;
#X connect 1 0 8 0;
#X connect 3 0 7 0;
#X connect 4 0 6 0;
#X connect 8 0 4 0;
#X connect 8 1 9 0;
#X connect 8 2 3 0;
#X connect 9 0 6 0;
#X connect 10 0 8 0;
#X coords 0 295 1 294 17 135 0;
