#N canvas 427 264 441 235 12;
#X obj 48 28 inlet;
#X obj 48 207 outlet;
#X obj 162 114 s RSVP.GUI-to-OSC;
#X obj 105 164 s \$1/\$2/\$3-\$4-o;
#X obj 162 92 list prepend /\$1/\$2/\$3-\$4-o;
#X obj 162 48 spigot;
#X obj 201 17 r \$1-to-OSC;
#X connect 0 0 1 0;
#X connect 0 0 3 0;
#X connect 0 0 5 0;
#X connect 4 0 2 0;
#X connect 5 0 4 0;
#X connect 6 0 5 1;
#X coords 0 235 1 234 17 135 0;
