#N canvas 254 273 450 300 12;
#X obj 30 20 inlet;
#X msg 87 132 1e+15;
#X obj 30 176 text set \$1-loaded-preset;
#X obj 30 92 t l b;
#X obj 30 60 list prepend \$1/\$2/\$3-\$4;
#X connect 0 0 4 0;
#X connect 1 0 2 1;
#X connect 3 0 2 0;
#X connect 3 1 1 0;
#X connect 4 0 3 0;
